<?xml version="1.0" encoding="utf-8"?>
<!-- Generator: Adobe Illustrator 16.0.0, SVG Export Plug-In . SVG Version: 6.00 Build 0)  -->
<!DOCTYPE svg PUBLIC "-//W3C//DTD SVG 1.1//EN" "http://www.w3.org/Graphics/SVG/1.1/DTD/svg11.dtd">
<svg version="1.1" id="Layer_1" xmlns="http://www.w3.org/2000/svg" xmlns:xlink="http://www.w3.org/1999/xlink" x="0px" y="0px"
	 width="30px" height="28px" viewBox="0 0 30 28" enable-background="new 0 0 30 28" xml:space="preserve">
<g>
	<path fill="#333333" d="M29.201,18.923l-5.196-8.994l-5.189,8.994c-1.653,2.849-0.67,6.53,2.182,8.184
		c0.91,0.527,1.951,0.807,3.007,0.808c1.057-0.001,2.102-0.281,3.014-0.808C29.866,25.454,30.848,21.772,29.201,18.923z"/>
	<path fill="#333333" d="M18.01,0.813c-2.861-1.677-6.552-0.673-8.203,2.232L0.8,18.87c-1.652,2.902-0.662,6.647,2.197,8.318
		c2.858,1.677,6.548,0.673,8.202-2.231l9.009-15.826C21.858,6.23,20.867,2.483,18.01,0.813z"/>
</g>
</svg>
