<?xml version="1.0" encoding="utf-8"?>
<!-- Generator: Adobe Illustrator 16.0.0, SVG Export Plug-In . SVG Version: 6.00 Build 0)  -->
<!DOCTYPE svg PUBLIC "-//W3C//DTD SVG 1.1//EN" "http://www.w3.org/Graphics/SVG/1.1/DTD/svg11.dtd">
<svg version="1.1" id="Слой_1" xmlns="http://www.w3.org/2000/svg" xmlns:xlink="http://www.w3.org/1999/xlink" x="0px" y="0px"
	 width="120px" height="135px" viewBox="-0.5 2 120 135" enable-background="new -0.5 2 120 135" xml:space="preserve">
<g>
	<g>
		<g>
			<g>
				<circle fill="#EFEFEF" cx="59.5" cy="77" r="60"/>
			</g>
		</g>
	</g>
	<g>
		<path fill="#FFFFFF" d="M114.5,63h-64l3.24,27.135h0.004l3.681,28.627c0.081,0.625,0.664,1.148,1.308,1.148h5.056h37.021h5.053
			c0.646,0,1.228-0.523,1.31-1.148l3.681-28.627h0.004L114.5,63z"/>
		<path fill="#005A95" d="M105.5,121h-47c-1.143,0-1.92-0.978-2.067-2.109l-3.686-28.638L49.374,62h66.27l-3.888,28.945
			l-3.593,27.944C108.014,120.023,106.642,121,105.5,121z M54.698,89.724l0.038,0.283l3.681,28.627
			c0.017,0.132,0.95,0.366,1.083,0.366h46c0.137,0,0.662-0.233,0.68-0.368l3.801-29.497L113.356,64h-61.73L54.698,89.724z"/>
	</g>
	<rect x="77.5" y="64" fill="#87E4B9" width="10" height="55"/>
	<rect x="95.5" y="64" fill="#87E4B9" width="10" height="55"/>
	<rect x="59.5" y="64" fill="#87E4B9" width="10" height="55"/>
	<g>
		<path fill="#87E4B9" d="M48.5,59v3c0,0.564,0.464,1.007,1.007,1.007L115.5,63c0.563,0,1.006-0.463,1.006-1.007L116.5,59H48.5z"/>
		<path fill="#005A95" d="M49.507,64.007L49.507,64.007c-1.106,0-2.007-0.9-2.007-2.007v-4h69.998l0.008,3.991
			c0,1.108-0.899,2.009-2.006,2.009L49.507,64.007z M49.5,60l0.007,3.007v-1L115.5,62v-2H49.5z"/>
	</g>
	<g>
		<g>
			<path fill="#FFFFFF" d="M114.5,51l-8.69-28c-0.179-0.523-0.755-0.966-1.31-0.966L61.5,22c-0.557,0-1.132,0.423-1.312,0.966
				L50.5,51H114.5z"/>
			<path fill="#87E4B9" d="M114.5,51l-8.419-26.069c-0.174-0.487-0.73-0.899-1.269-0.899L63.156,24c-0.54,0-1.096,0.394-1.271,0.899
				L52.5,51H114.5z"/>
			<path fill="#005A95" d="M115.857,52H49.096l10.146-29.361C59.556,21.694,60.507,21,61.5,21l43.001,0.034
				c0.965,0,1.935,0.706,2.255,1.643L115.857,52z M51.904,50h61.239l-8.288-26.704c-0.038-0.11-0.248-0.262-0.354-0.262L61.499,23
				c-0.114,0-0.314,0.139-0.362,0.281L51.904,50z"/>
		</g>
	</g>
	<g>
		<polygon fill="#FFFFFF" points="105.5,51 98.5,22 66.5,22 59.5,51 		"/>
		<path fill="#005A95" d="M106.771,52H58.23l7.483-31h33.574L106.771,52z M60.771,50h43.459l-6.517-27H67.287L60.771,50z"/>
	</g>
	<g>
		<path fill="#FFFFFF" d="M118.5,58c0,0.563-0.455,1-1,1h-70c-0.563,0-1-0.457-1-1v-6c0-0.564,0.456-1,1-1h70c0.564,0,1,0.456,1,1v5
			V58z"/>
		<path fill="#87E4B9" d="M118.5,58.25c0,0.422-0.455,0.75-1,0.75h-70c-0.563,0-1-0.343-1-0.75v-4.5c0-0.423,0.456-0.75,1-0.75h70
			c0.564,0,1,0.342,1,0.75v3.75V58.25z"/>
		<path fill="#005A95" d="M117.5,60h-70c-1.103,0-2-0.897-2-2v-6c0-1.103,0.897-2,2-2h70c1.103,0,2,0.897,2,2v6
			C119.5,59.103,118.603,60,117.5,60z M47.5,52v6h70.001l-0.001-6H47.5z"/>
	</g>
	<g>
		<g>
			<path fill="#FFFFFF" d="M79.021,120.266L79.021,120.266H48.461H36.553V94.891h6.895v20.361c0,2.771,2.24,5.014,5.015,5.014
				H79.021L79.021,120.266z"/>
		</g>
		<g>
			<path fill="#005A95" d="M79.021,121.266H35.553V93.891h8.895v21.361c0,2.213,1.801,4.014,4.015,4.014h30.56V121.266z
				 M37.553,119.266h6.434c-0.957-1.065-1.539-2.473-1.539-4.014V95.891h-4.895V119.266z"/>
		</g>
	</g>
	<g>
		<g>
			<path fill="#FFFFFF" d="M6.5,83l2,38c0,1,1,2,2.055,2h6.572h20.766h6.572c0.861,0,1.607-0.701,1.654-1.566L48.5,83H6.5z"/>
		</g>
		<g>
			<path fill="#87E4B9" d="M8.5,83.952l1.902,37.096c0,0.976,0.951,1.952,1.955,1.952h6.252h19.75h6.252
				c0.82,0,1.529-0.685,1.574-1.529l2.265-37.519H8.5z"/>
		</g>
		<g>
			<path fill="#005A95" d="M44.465,123.996h-33.91c-1.596,0-3.051-1.428-3.051-2.996L5.45,82.004H49.56l-2.446,39.491
				C47.039,122.871,45.85,123.996,44.465,123.996z M7.55,83.996l1.944,36.951c0.002,0.473,0.535,1.057,1.061,1.057h33.91
				c0.333,0,0.642-0.292,0.66-0.624l2.315-37.384H7.55z"/>
		</g>
	</g>
	<g>
		<g>
			<path fill="#FFFFFF" d="M47.313,78.978c0.117-0.435,0.188-0.894,0.188-1.353c0-2.851-2.25-5.17-5.016-5.17
				c-1.008,0-1.945,0.314-2.719,0.821c-0.023-3.479-2.789-6.305-6.164-6.305c-0.422,0-0.82,0.048-1.195,0.12
				C31.587,65.28,29.805,64,27.719,64c-2.367,0-4.383,1.643-4.969,3.889c-0.68-0.314-1.406-0.484-2.203-0.484
				c-2.344,0-4.336,1.57-5.039,3.745c-4.148,0.337-7.5,3.624-8.086,7.849L47.313,78.978L47.313,78.978z"/>
		</g>
		<g>
			<path fill="#005A95" d="M6.256,80.015l0.16-1.155c0.619-4.459,4.085-7.998,8.363-8.646c1.013-2.312,3.256-3.824,5.768-3.824
				c0.543,0,1.075,0.068,1.592,0.204c0.996-2.169,3.158-3.609,5.58-3.609c2.141,0,4.129,1.156,5.25,3.001
				c3.73-0.348,6.895,2.254,7.646,5.759c0.602-0.201,1.231-0.306,1.869-0.306c3.325,0,6.031,2.775,6.031,6.186
				c0,0.525-0.075,1.069-0.223,1.617l-0.203,0.75L6.256,80.015z M20.547,68.42c-1.848,0-3.484,1.222-4.073,3.042l-0.208,0.645
				l-0.676,0.055c-3.248,0.264-6.001,2.64-6.918,5.821l37.797-0.021c0.011-0.114,0.016-0.228,0.016-0.338
				c0-2.291-1.794-4.154-4-4.154c-0.76,0-1.508,0.227-2.162,0.655l-1.559,1.021l-0.014-1.864c-0.02-2.92-2.329-5.296-5.148-5.296
				c-0.317,0-0.646,0.034-1.004,0.102l-0.787,0.15l-0.329-0.729c-0.686-1.516-2.163-2.495-3.763-2.495
				c-1.866,0-3.506,1.287-3.986,3.13l-0.307,1.175l-1.102-0.51C21.756,68.548,21.176,68.42,20.547,68.42z"/>
		</g>
	</g>
	<g>
		<g>
			<path fill="#FFFFFF" d="M54.5,83h-54v-1.38C0.5,79.629,2.078,78,4.006,78h46.988c1.929,0,3.506,1.629,3.506,3.62V83z"/>
		</g>
		<g>
			<path fill="#87E4B9" d="M54.5,84h-54v-1.104C0.5,81.303,2.078,80,4.006,80h46.988c1.929,0,3.506,1.303,3.506,2.896V84z"/>
		</g>
		<g>
			<path fill="#005A95" d="M55.5,84h-56v-2.38c0-2.548,2.021-4.62,4.506-4.62h46.988c2.484,0,4.506,2.072,4.506,4.62V84z M1.5,82h52
				v-0.38c0-1.444-1.124-2.62-2.506-2.62H4.006C2.624,79,1.5,80.176,1.5,81.62V82z"/>
		</g>
	</g>
	<g>
		<g>
			<path fill="#FFFFFF" d="M86.5,115.552c-0.733-0.943-1.799-1.552-3-1.552h-47c-1.201,0-2.267,0.608-3,1.552
				c-0.615,0.791-1,1.814-1,2.948s0.385,2.157,1,2.948c0.733,0.943,1.799,1.552,3,1.552h47c1.201,0,2.267-0.608,3-1.552
				c0.615-0.791,1-1.814,1-2.948S87.115,116.343,86.5,115.552z"/>
		</g>
		<g>
			<path fill="none" d="M83.5,115h-47c-0.842,0-1.626,0.414-2.211,1.166c-0.509,0.654-0.789,1.483-0.789,2.334
				s0.28,1.68,0.789,2.335C34.874,121.586,35.658,122,36.5,122h47c0.841,0,1.626-0.414,2.211-1.166
				c0.509-0.654,0.789-1.483,0.789-2.334s-0.28-1.68-0.789-2.334C85.126,115.414,84.341,115,83.5,115z"/>
		</g>
	</g>
	<g>
		<rect x="56.5" y="17" fill="#FFFFFF" width="7" height="76"/>
	</g>
	<g>
		<g>
			<path fill="#FFFFFF" d="M86.328,109H66.836c-0.656,0-1.336-0.344-1.336-0.986V94.188c0-0.664-0.539-1.188-1.172-1.188h-8.664
				c-0.656,0-1.172,0.547-1.172,1.188v13.826c0,0.666-0.703,0.986-1.336,0.986H33.672c-0.656,0-1.172,0.547-1.172,1.189V114h2h51h2
				v-3.811C87.5,109.547,86.961,109,86.328,109z"/>
		</g>
		<g>
			<path fill="#87E4B9" d="M85.5,110.728H66.842c-0.561,0-1.142-0.294-1.142-0.843V98.069c0-0.567-0.461-3.069-1.002-3.069h-7.403
				c-0.561,0-1.002,0.467-1.002,1.015v13.87c0,0.568-0.601,0.843-1.141,0.843H35.5c-0.561,0-1.002,0.467-1.002,1.017L34.5,114h5h43
				h5l-0.999-2.256C86.501,111.194,86.04,110.728,85.5,110.728z"/>
		</g>
		<g>
			<path fill="#005A95" d="M88.5,115h-57v-4.811c0-1.207,0.975-2.189,2.172-2.189h19.484c0.148,0,0.271-0.036,0.336-0.068V94.188
				c0-1.206,0.975-2.188,2.172-2.188h8.664c1.197,0,2.172,0.981,2.172,2.188v13.741c0.062,0.031,0.179,0.071,0.336,0.071h19.492
				c1.178,0,2.172,1.003,2.172,2.189V115z M33.5,113h53v-2.811c0-0.096-0.099-0.189-0.172-0.189H66.836
				c-1.332,0-2.336-0.854-2.336-1.986V94.188c0-0.11-0.091-0.188-0.172-0.188h-8.664c-0.102,0-0.172,0.099-0.172,0.188v13.826
				c0,1.133-1.004,1.986-2.336,1.986H33.672c-0.102,0-0.172,0.1-0.172,0.189V113z"/>
		</g>
	</g>
	<g>
		<g>
			<path fill="#005A95" d="M56.5,83h-2c-0.553,0-1-0.447-1-1s0.447-1,1-1h2c0.553,0,1,0.447,1,1S57.053,83,56.5,83z"/>
		</g>
	</g>
	<g>
		<g>
			<path fill="#005A95" d="M12.5,96c-4.963,0-9-4.037-9-9v-4h-2v4c0,6.065,4.935,11,11,11h5v-2H12.5z"/>
		</g>
	</g>
	<g>
		<g>
			<path fill="#005A95" d="M42.5,96c4.963,0,9-4.037,9-9v-4h2v4c0,6.065-4.935,11-11,11h-5v-2H42.5z"/>
		</g>
	</g>
	<g>
		<g>
			<path fill="#FFFFFF" d="M37.5,97.479c0,1.387-1.104,2.522-2.451,2.522H19.951c-1.348,0-2.451-1.136-2.451-2.522v-0.957
				c0-1.387,1.104-2.521,2.451-2.521h15.098c1.348,0,2.451,1.134,2.451,2.521V97.479z"/>
		</g>
		<g>
			<path fill="#005A95" d="M35.049,101.001H19.951c-1.902,0-3.451-1.582-3.451-3.522v-0.957c0-1.94,1.549-3.521,3.451-3.521h15.098
				c1.903,0,3.451,1.58,3.451,3.521v0.957C38.5,99.419,36.952,101.001,35.049,101.001z M19.951,95c-0.8,0-1.451,0.682-1.451,1.521
				v0.957c0,0.84,0.651,1.523,1.451,1.523h15.098c0.801,0,1.451-0.684,1.451-1.523v-0.957c0-0.84-0.65-1.521-1.451-1.521H19.951z"/>
		</g>
	</g>
	<g>
		<g>
			<path fill="none" d="M83.5,115h-47c-0.771,0-1.487,0.362-2.053,1h51.106C84.987,115.362,84.271,115,83.5,115z"/>
		</g>
		<g>
			<path fill="none" d="M36.5,122h47c0.771,0,1.487-0.362,2.054-1H34.446C35.012,121.638,35.729,122,36.5,122z"/>
		</g>
		<g>
			<path fill="none" d="M33.816,120h52.368c0.134-0.318,0.229-0.652,0.274-1H33.541C33.586,119.348,33.682,119.682,33.816,120z"/>
		</g>
		<g>
			<path fill="none" d="M33.816,117c-0.135,0.318-0.23,0.652-0.275,1h52.918c-0.045-0.348-0.141-0.682-0.274-1H33.816z"/>
		</g>
		<g>
			<path fill="#87E4B9" d="M33.5,118.5c0,0.168,0.02,0.335,0.041,0.5h52.918c0.021-0.165,0.041-0.332,0.041-0.5
				s-0.02-0.335-0.041-0.5H33.541C33.52,118.165,33.5,118.332,33.5,118.5z"/>
		</g>
		<g>
			<path fill="#87E4B9" d="M85.711,116.166c-0.049-0.063-0.106-0.108-0.157-0.166H34.447c-0.052,0.058-0.109,0.104-0.158,0.166
				c-0.196,0.253-0.348,0.537-0.473,0.834h52.368C86.059,116.703,85.907,116.419,85.711,116.166z"/>
		</g>
		<g>
			<path fill="#87E4B9" d="M34.289,120.835c0.049,0.063,0.105,0.107,0.157,0.165h51.107c0.051-0.058,0.108-0.104,0.157-0.166
				c0.196-0.253,0.348-0.537,0.474-0.834H33.816C33.941,120.297,34.093,120.581,34.289,120.835z"/>
		</g>
		<g>
			<path fill="#005A95" d="M87.289,114.938C86.332,113.706,84.951,113,83.5,113h-47c-1.451,0-2.832,0.706-3.789,1.938
				c-0.781,1.004-1.211,2.269-1.211,3.562s0.43,2.558,1.211,3.562C33.668,123.294,35.049,124,36.5,124h47
				c1.451,0,2.832-0.706,3.789-1.938c0.781-1.004,1.211-2.27,1.211-3.563S88.07,115.941,87.289,114.938z M83.5,122h-47
				c-0.771,0-1.488-0.362-2.054-1c-0.052-0.058-0.108-0.103-0.157-0.165c-0.196-0.254-0.348-0.538-0.473-0.835
				c-0.135-0.318-0.23-0.652-0.275-1c-0.021-0.165-0.041-0.332-0.041-0.5s0.02-0.335,0.041-0.5c0.045-0.348,0.141-0.682,0.275-1
				c0.125-0.297,0.276-0.581,0.473-0.834c0.049-0.063,0.106-0.108,0.158-0.166c0.565-0.638,1.281-1,2.053-1h47
				c0.771,0,1.487,0.362,2.054,1c0.051,0.058,0.108,0.104,0.157,0.166c0.196,0.253,0.348,0.537,0.474,0.834
				c0.134,0.318,0.229,0.652,0.274,1c0.021,0.165,0.041,0.332,0.041,0.5s-0.02,0.335-0.041,0.5c-0.045,0.348-0.141,0.682-0.274,1
				c-0.126,0.297-0.277,0.581-0.474,0.834c-0.049,0.063-0.106,0.108-0.157,0.166C84.987,121.638,84.271,122,83.5,122z"/>
		</g>
	</g>
	<g>
		<g>
			<path fill="none" d="M57.5,18v74h5V78.488c-0.604-0.456-1-1.173-1-1.988s0.396-1.532,1-1.988V18H57.5z"/>
		</g>
		<g>
			<path fill="#FFFFFF" d="M61.5,76.5c0,0.815,0.396,1.532,1,1.988v-3.977C61.896,74.968,61.5,75.685,61.5,76.5z"/>
		</g>
		<g>
			<path fill="#005A95" d="M55.5,16v78h9V78.949v-4.898V16H55.5z M62.5,92h-5V18h5v56.512v3.977V92z"/>
		</g>
	</g>
	<g>
		<rect x="61.5" y="18" fill="#87E4B9" width="1" height="74"/>
	</g>
	<g>
		<g>
			<path fill="#FFFFFF" d="M61.487,3h-2.993C57.391,3,56.5,4.077,56.5,5.411V25h7V5.412C63.5,4.078,62.59,3,61.487,3z"/>
		</g>
		<g>
			<path fill="#87E4B9" d="M62.063,5.001h-2.139c-0.787,0-1.424,0.782-1.424,1.753V26h5V6.755C63.5,5.784,62.85,5.001,62.063,5.001z
				"/>
		</g>
		<g>
			<path fill="#005A95" d="M64.499,26H55.5V5.411C55.5,3.531,56.844,2,58.494,2h2.993c1.661,0,3.012,1.531,3.012,3.412V26z
				 M57.5,24.001h5.001V5.412C62.501,4.646,62.036,4,61.487,4h-2.993C57.955,4,57.5,4.646,57.5,5.411V24.001z"/>
		</g>
	</g>
	<g>
		<g>
			<path fill="#87E4B9" d="M41.002,22c0,5.291-4.246,9.563-9.502,9.563c5.256,0,9.502,4.271,9.502,9.563
				c0-5.291,4.244-9.563,9.498-9.563C45.246,31.563,41.002,27.291,41.002,22z"/>
		</g>
	</g>
	<g>
		<g>
			<path fill="#87E4B9" d="M89.5,123c0,3.369-2.734,6-6,6c3.369,0,6,2.734,6,6c0-3.369,2.738-6,6-6
				C92.236,129,89.5,126.264,89.5,123z"/>
		</g>
	</g>
	<g>
		<g>
			<path fill="#87E4B9" d="M18.393,47.17c0,2.708-2.195,4.915-4.893,4.915c2.695,0,4.893,2.207,4.893,4.915
				c0-2.708,2.197-4.915,4.896-4.915C20.488,52.084,18.393,49.878,18.393,47.17z"/>
		</g>
	</g>
	<g>
		<g>
			<path fill="#FFFFFF" d="M25.5,66h8v6c-0.01,0.982-1.016,2.01-2,2h-23c-0.983-0.01-2.011-1.014-2-2v-6h16"/>
			<path fill="#005A95" d="M31.514,75c-0.008,0-0.016,0-0.023,0H8.5c-0.739-0.007-1.493-0.344-2.077-0.924
				c-0.594-0.59-0.931-1.351-0.923-2.087V65h17c0.552,0,1,0.448,1,1s-0.448,1-1,1h-15v5c-0.002,0.201,0.128,0.454,0.332,0.656
				C8.04,72.863,8.306,72.998,8.51,73H31.5c0.001,0,0.003,0,0.005,0c0.431,0,0.991-0.573,0.995-1.01V67h-7c-0.552,0-1-0.448-1-1
				s0.448-1,1-1h9v7C34.484,73.554,33.037,75,31.514,75z"/>
		</g>
		<g>
			<g>
				<path fill="#87E4B9" d="M26.322,70c1.771,0.004,3.196,1.457,3.178,3.236c-0.004,0.383,0.136,0.414,0,0.764h-6
					c-0.117-0.344-0.426-0.422-0.42-0.805C23.092,71.404,24.543,69.98,26.322,70z"/>
				<path fill="#005A95" d="M30.185,75h-7.4l-0.23-0.678c-0.175-0.183-0.483-0.543-0.474-1.143c0.015-2.301,1.902-4.18,4.206-4.18
					c1.16,0.003,2.212,0.443,3.001,1.243c0.794,0.804,1.225,1.87,1.213,3.004c0,0.039,0.002,0.051,0.015,0.109
					c0.052,0.249,0.093,0.553-0.083,1.006L30.185,75z M24.09,73h4.401c-0.046-0.511-0.264-0.984-0.627-1.352
					c-0.411-0.417-0.959-0.647-1.543-0.648c0,0,0,0,0,0C25.147,71,24.2,71.88,24.09,73z"/>
			</g>
			<g>
				<path fill="#87E4B9" d="M18.5,67c-0.015,1.146-0.855,2.016-2,2c-1.145-0.014-2.012-0.854-1.999-2c0.006-0.382,0-1,0-1h3.997
					C18.499,66,18.506,66.618,18.5,67z"/>
				<path fill="#005A95" d="M16.53,70h-0.044c-1.721-0.021-3.005-1.315-2.985-3.012c0.006-0.376,0-0.979,0-0.979L13.492,65h5.995
					l0.012,0.988c0,0,0.007,0.635,0.001,1.027C19.478,68.716,18.202,70,16.53,70z M15.501,67c0,0.005,0,0.01,0,0.015
					c-0.007,0.581,0.399,0.978,1.01,0.985l0.019,1v-1c0.568,0,0.957-0.401,0.97-1H15.501z"/>
			</g>
			<g>
				<path fill="#87E4B9" d="M10.251,71c1.256,0.014,2.264,1.037,2.249,2.295c0.001,0.252-0.048,0.5-0.134,0.738L9.5,74
					c-0.068-0.008-0.934,0.008-1,0c-0.08-0.225-0.537-0.488-0.538-0.74C7.978,72.004,9.001,70.996,10.251,71z"/>
				<path fill="#005A95" d="M13.065,75.041l-3.679-0.048l-0.752,0.009c-0.132,0-0.225-0.006-0.251-0.009l-0.617-0.072l-0.167-0.47
					c-0.017-0.017-0.034-0.033-0.052-0.051c-0.218-0.217-0.583-0.58-0.585-1.137C6.984,71.457,8.457,70,10.244,70
					c0.893,0.01,1.711,0.357,2.322,0.98c0.613,0.624,0.945,1.45,0.935,2.326c0.001,0.343-0.063,0.707-0.193,1.065L13.065,75.041z
					 M9.512,73l1.964,0.022c-0.048-0.244-0.164-0.464-0.337-0.641C10.9,72.139,10.582,72.004,10.24,72c-0.602,0-1.114,0.429-1.246,1
					l0.371-0.002C9.422,72.998,9.472,72.999,9.512,73L9.512,73z"/>
			</g>
		</g>
		<g>
			<path fill="#FFFFFF" d="M31.5,61h-23c-0.984-0.01-1.99,1.015-2,2v3h27v-3C33.516,62.027,32.484,61.01,31.5,61z"/>
			<rect x="30.5" y="62" fill="#87E4B9" width="2" height="3"/>
			<rect x="28.5" y="62" fill="#87E4B9" width="1" height="3"/>
			<rect x="23.5" y="62" fill="#87E4B9" width="1" height="3"/>
			<rect x="18.5" y="62" fill="#87E4B9" width="1" height="3"/>
			<rect x="13.5" y="62" fill="#87E4B9" width="1" height="3"/>
			<rect x="8.5" y="62" fill="#87E4B9" width="1" height="3"/>
			<rect x="10.5" y="62" fill="#87E4B9" width="2" height="3"/>
			<rect x="15.5" y="62" fill="#87E4B9" width="2" height="3"/>
			<rect x="20.5" y="62" fill="#87E4B9" width="2" height="3"/>
			<rect x="25.5" y="62" fill="#87E4B9" width="2" height="3"/>
			<path fill="#005A95" d="M34.5,67h-29v-4c0.015-1.547,1.466-3,2.985-3H31.5c0.758,0.008,1.527,0.361,2.119,0.969
				c0.571,0.587,0.893,1.333,0.881,2.047V67z M7.5,65h25v-2c0.003-0.193-0.121-0.437-0.314-0.636
				c-0.213-0.219-0.486-0.362-0.696-0.364H8.5l0,0c-0.443,0-0.996,0.566-1,1.01V65z"/>
		</g>
	</g>
	<g>
		<path fill="#FFFFFF" d="M68.169,120.388l2.533,1.637c2.801,1.813,6.578,1.037,8.416-1.809l5.688-8.803l4.284-0.193l0,0
			l14.94,10.916c1.645,1.063,3.839,0.59,4.902-1.055c1.063-1.645,0.59-3.842-1.055-4.902l-16.044-9.107l0,0l-1.584-3.984l0,0
			l6.317-9.781c1.812-2.799,1.039-6.576-1.809-8.414l-2.533-1.637l-24.015,37.162L68.169,120.388L68.169,120.388z"/>
		<path fill="#005A95" d="M74.003,124c-1.366,0-2.695-0.393-3.844-1.136l-2.52-1.628l-0.001,0.001l-0.81-0.524l25.1-38.841
			l3.373,2.18c1.591,1.026,2.686,2.61,3.082,4.459c0.398,1.854,0.052,3.749-0.977,5.338l-6.037,9.348l1.264,3.179l15.738,8.934
			c1.068,0.688,1.771,1.704,2.026,2.892c0.255,1.188,0.033,2.403-0.626,3.424c-0.842,1.302-2.271,2.079-3.822,2.079
			c-0.874,0-1.726-0.251-2.463-0.728l-14.703-10.741l-3.418,0.154l-5.408,8.37C78.647,122.788,76.421,124,74.003,124z
			 M69.595,120.118l1.65,1.066c0.824,0.533,1.777,0.815,2.758,0.815c1.736,0,3.334-0.87,4.275-2.327l5.967-9.235l5.15-0.232
			l15.225,11.123c0.365,0.234,0.842,0.375,1.33,0.375c0.87,0,1.671-0.436,2.143-1.165c0.369-0.57,0.493-1.252,0.35-1.917
			c-0.143-0.665-0.536-1.234-1.106-1.602l-16.302-9.252l-1.904-4.79l6.598-10.215c0.738-1.141,0.987-2.501,0.701-3.832
			c-0.285-1.326-1.07-2.462-2.212-3.199l-1.694-1.094L69.595,120.118z"/>
	</g>
	<g>
		<path fill="#87E4B9" d="M70.702,122.024c0.268,0.172,0.52,0.273,0.785,0.445l23.869-36.943c-0.191-0.188-0.459-0.359-0.727-0.533
			l-2.533-1.637l-23.928,37.031L70.702,122.024z"/>
		<path fill="#FFFFFF" d="M71.5,123c0.268,0.172,0.734-2.172,1-2l23-35c-0.191-0.188,0.268,0.174,0,0l-1.973-1.213L69.6,121.818
			L71.5,123z"/>
		<path fill="#005A95" d="M71.784,123.853l-0.84-0.543c-0.108-0.07-0.214-0.124-0.318-0.18c-0.153-0.081-0.307-0.162-0.464-0.264
			l-3.376-2.182L91.8,81.974l3.373,2.18c0.32,0.208,0.626,0.407,0.884,0.658l0.583,0.572L71.784,123.853z M69.552,120.091l1.61,1.04
			l22.841-35.353l-1.609-1.039L69.552,120.091z"/>
	</g>
	<g>
		<path fill="#005A95" d="M99.499,98c-0.175,0-0.353-0.046-0.514-0.143c-0.474-0.284-0.627-0.898-0.343-1.372l6-10
			c0.283-0.473,0.897-0.627,1.372-0.343c0.474,0.284,0.627,0.898,0.343,1.372l-6,10C100.17,97.827,99.839,98,99.499,98z"/>
	</g>
	<g>
		<g>
			<circle fill="#87E4B9" cx="107.001" cy="86.5" r="2.5"/>
			<path fill="#005A95" d="M107.001,90c-1.931,0-3.501-1.569-3.501-3.499c0-1.931,1.57-3.501,3.501-3.501
				c1.93,0,3.499,1.57,3.499,3.501C110.5,88.431,108.931,90,107.001,90z M107.001,85c-0.827,0-1.501,0.674-1.501,1.501
				c0,0.826,0.674,1.499,1.501,1.499c0.826,0,1.499-0.673,1.499-1.499C108.5,85.674,107.827,85,107.001,85z"/>
		</g>
		<g>
			<path fill="#FFFFFF" d="M100.5,82v2c0,0.373,0.627,1,1,1h5c1.5,0,3,1.502,3,3v4l4.926-0.133v-3.396
				c0-0.373,0.305-0.678,0.678-0.678h2.719c0.373,0,0.678-0.422,0.678-0.793v-0.248c0-0.752-0.501-1.363-1-1.752l-4.563-3.566
				C112.572,81.154,111.948,81,111.5,81h-9.979C101.146,81,100.5,81.629,100.5,82z"/>
			<path fill="#005A95" d="M108.5,93.027V88c0-0.953-1.047-2-2-2h-5c-0.935,0-2-1.065-2-2v-2c0-0.916,1.096-2,2.021-2h9.979
				c0.558,0,1.428,0.167,2.045,0.64l4.571,3.572c0.892,0.695,1.384,1.598,1.384,2.54V87c0,0.848-0.689,1.793-1.678,1.793h-2.396
				v4.048L108.5,93.027z M101.643,84h4.857c2.056,0,4,1.944,4,4v2.973l2.926-0.079v-2.423c0-0.925,0.753-1.678,1.678-1.678
				l2.396-0.041c0-0.438-0.43-0.819-0.614-0.963l-4.564-3.567C112.189,82.12,111.805,82,111.5,82h-9.843
				c-0.053,0.039-0.115,0.1-0.157,0.15v1.707C101.538,83.906,101.594,83.962,101.643,84z"/>
		</g>
		<g>
			<path fill="#FFFFFF" d="M100.5,110v10c0,1.5,1.501,3,3,3h10c1.499,0,3-1.5,3-3V93c0-0.744-0.247-1-1-1h-9c-1,0-1,1-1,2
				c0,0,0,1,1,1s2,0,2,1v5c0,1.16-0.366,2.166-1.223,2.936L102.5,107C101.645,107.777,100.509,108.842,100.5,110z"/>
			<path fill="#87E4B9" d="M100.5,111v10c0,1.5,1.501,3,3,3h10c1.499,0,3-1.5,3-3v-21c-4,0-4,2-8,1v1
				c0,1.16-0.366,2.166-1.223,2.936L102.5,108C101.645,108.777,100.509,109.842,100.5,111z"/>
			<path fill="#005A95" d="M113.5,124h-10c-2.056,0-4-1.944-4-4v-10c0.013-1.637,1.462-2.953,2.327-3.74l0.133-0.102l4.704-3.018
				c0.563-0.532,0.836-1.233,0.836-2.141v-4.945C107.271,96,106.799,96,106.5,96c-1.299,0-2-1.03-2-2c0-0.974,0-3,2-3h9
				c1.309,0,2,0.691,2,2v27C117.5,122.056,115.556,124,113.5,124z M103.11,107.796c-0.594,0.541-1.604,1.484-1.61,2.212V120
				c0,0.953,1.047,2,2,2h10c0.953,0,2-1.047,2-2V93h-8.945c-0.055,0.229-0.055,0.701-0.055,1c0.974,0,3,0,3,2v5
				c0,1.515-0.522,2.753-1.555,3.68l-0.128,0.098L103.11,107.796z"/>
		</g>
		<g>
			<g>
				<path fill="#FFFFFF" d="M112.5,117v-4c0-1-1-2-2-2h-4c-1,0-2,1-2,2v4c0,1,1,2,2,2h4C111.5,119,112.5,118,112.5,117z"/>
				<path fill="#005A95" d="M110.5,120h-4c-1.542,0-3-1.458-3-3v-4c0-1.542,1.458-3,3-3h4c1.542,0,3,1.458,3,3v4
					C113.5,118.542,112.042,120,110.5,120z M106.5,112c-0.448,0-1,0.552-1,1v4c0,0.448,0.552,1,1,1h4c0.448,0,1-0.552,1-1v-4
					c0-0.448-0.552-1-1-1H106.5z"/>
			</g>
		</g>
		<g>
			<rect x="109.5" y="89" fill="#FFFFFF" width="5" height="3"/>
			<path fill="#005A95" d="M115.5,93h-7v-5h7V93z M110.5,91h3v-1h-3V91z"/>
		</g>
	</g>
	<g>
		<path fill="#005A95" d="M100.5,84h-2c-0.553,0-1-0.447-1-1s0.447-1,1-1h2c0.553,0,1,0.447,1,1S101.053,84,100.5,84z"/>
	</g>
	<g>
		<path fill="#005A95" d="M80.5,46h-7c-0.756,0-1.373-0.326-1.692-0.894c-0.379-0.673-0.281-1.578,0.268-2.482
			c0.502-0.828,3.21-5.716,3.237-5.765l1.75,0.969c-0.112,0.203-2.755,4.973-3.278,5.834c-0.079,0.131-0.129,0.25-0.16,0.337H80.5
			V46z"/>
	</g>
	<g>
		<path fill="#005A95" d="M91.128,46H84.5v-2h6.628c0.159,0,0.288,0.015,0.388,0c-0.835-1.523-3.275-5.987-3.275-5.987l1.752-0.964
			c0,0,2.764,5.025,3.375,6.128c0.481,0.868,0.248,1.517,0.065,1.827C93.165,45.458,92.548,46,91.128,46z"/>
	</g>
	<g>
		<path fill="#005A95" d="M86.333,34.25c-0.115-0.201-2.83-4.93-3.296-5.823c-0.077-0.147-0.152-0.253-0.215-0.326
			c-0.858,1.403-3.587,5.878-3.587,5.878l-1.707-1.041c0,0,2.984-4.896,3.638-5.976c0.39-0.645,0.995-0.997,1.642-0.982
			c0.78,0.024,1.511,0.579,2.002,1.521c0.448,0.857,3.229,5.704,3.258,5.752L86.333,34.25z"/>
	</g>
	<g>
		<polygon fill="#005A95" points="92.563,36.877 89.652,36.149 87.712,35.664 87.228,37.604 86.5,40.515 88.439,41 89.167,38.089 
			92.078,38.817 		"/>
	</g>
	<g>
		<polygon fill="#005A95" points="78.876,48.534 81.05,46.467 82.5,45.089 81.121,43.641 79.054,41.467 77.604,42.844 
			79.672,45.018 77.498,47.086 		"/>
	</g>
	<g>
		<polygon fill="#005A95" points="75.985,30.304 76.687,33.22 77.153,35.165 79.098,34.696 82.015,33.995 81.548,32.051 
			78.631,32.753 77.929,29.836 		"/>
	</g>
	<rect x="110.5" y="87" fill="#FFFFFF" width="3" height="4"/>
</g>
</svg>
