<?xml version="1.0" encoding="utf-8"?>
<!-- Generator: Adobe Illustrator 16.0.0, SVG Export Plug-In . SVG Version: 6.00 Build 0)  -->
<!DOCTYPE svg PUBLIC "-//W3C//DTD SVG 1.1//EN" "http://www.w3.org/Graphics/SVG/1.1/DTD/svg11.dtd">
<svg version="1.1" id="Слой_1" xmlns="http://www.w3.org/2000/svg" xmlns:xlink="http://www.w3.org/1999/xlink" x="0px" y="0px"
	 width="120px" height="135px" viewBox="-0.5 2 120 135" enable-background="new -0.5 2 120 135" xml:space="preserve">
<g>
	<g>
		<g>
			<circle fill="#EFEFEF" cx="59.5" cy="77" r="60"/>
		</g>
	</g>
	<g>
		<path fill="#FFFFFF" d="M73.5,58.691V62c-2.563-0.99-5.338-1.513-8.242-1.513c-2.906,0-6.213,0.542-8.758,1.513v-3.309
			c0-1.476,1.233-2.691,2.735-2.691h2.813h7.218h1.5C72.266,56,73.5,57.196,73.5,58.691z"/>
		<path fill="#005A95" d="M74.5,63.458l-1.36-0.525c-2.485-0.96-5.137-1.446-7.882-1.446c-2.886,0-6.026,0.541-8.401,1.447
			L55.5,63.452v-4.761c0-2.036,1.676-3.691,3.735-3.691h11.53c2.06,0,3.734,1.656,3.734,3.691V63.458z M59.235,57
			c-0.94,0-1.735,0.774-1.735,1.691v1.915c2.36-0.709,5.16-1.119,7.758-1.119c2.498,0,4.928,0.371,7.242,1.103v-1.898
			c0-0.933-0.778-1.691-1.734-1.691H59.235z"/>
	</g>
	<g>
		<polygon fill="#FFFFFF" points="100.5,50 100.5,110 93.5,110 93.555,94.889 93.5,50 		"/>
		<path fill="#005A95" d="M101.5,111l-8.984-0.019L92.5,95l0.018-45.981L101.5,49V111z M94.5,109l5-1V51h-5v48V109z"/>
	</g>
	<path fill="#FFFFFF" d="M100.49,46.001L100.5,51h-7l0.012-4.999C93.512,39.5,88.001,34,81.5,34c-6.5,0-13,5.499-13,12v10h-7
		l0.021-10c0-10.339,9.621-18.96,19.979-18.96C91.857,27.04,100.49,35.662,100.49,46.001z"/>
	<g>
		<rect x="86.5" y="95" fill="#FFFFFF" width="7" height="17"/>
		<path fill="#005A95" d="M94.5,113h-9V94h9V113z M87.5,111h5V96h-5V111z"/>
	</g>
	<g>
		<path fill="#FFFFFF" d="M79.021,120.266L79.021,120.266H48.461H36.553V94.891h6.895v20.361c0,2.771,2.24,5.014,5.015,5.014H79.021
			L79.021,120.266z"/>
		<path fill="#005A95" d="M79.021,121.266H35.553V93.891h8.895v21.361c0,2.213,1.801,4.014,4.015,4.014h30.56V121.266z
			 M37.553,119.266h6.434c-0.957-1.065-1.539-2.473-1.539-4.014V95.891h-4.895V119.266z"/>
	</g>
	<g>
		<path fill="#FFFFFF" d="M86.5,94v16.123h-9.314V120H48.249c-2.626,0-4.749-2.271-4.749-5.083V94V83
			c0-9.762,5.682-18.09,13.685-21.441c2.427-1.02,5.055-1.56,7.804-1.56c2.755,0,5.398,0.559,7.805,1.56
			C80.8,64.91,86.5,73.238,86.5,83v13V94z"/>
		<path fill="#005A95" d="M78.197,121.012H48.249c-3.177,0-5.761-2.734-5.761-6.095V83c0-9.953,5.615-18.736,14.306-22.374
			c5.149-2.165,11.142-2.185,16.388-0.001c8.706,3.643,14.33,12.426,14.33,22.375v28.135h-9.314V121.012z M64.988,61.011
			c-2.58,0-5.073,0.498-7.412,1.48C49.64,65.815,44.512,73.865,44.512,83v31.917c0,2.245,1.677,4.071,3.737,4.071h27.925v-9.877
			h9.314V83c0-9.131-5.137-17.181-13.086-20.507C70.04,61.51,67.545,61.011,64.988,61.011z"/>
	</g>
	<g>
		<circle fill="#87E4B9" cx="76.5" cy="107" r="4"/>
		<path fill="#005A95" d="M76.5,112c-2.757,0-5-2.243-5-5s2.243-5,5-5s5,2.243,5,5S79.257,112,76.5,112z M76.5,104
			c-1.654,0-3,1.346-3,3s1.346,3,3,3s3-1.346,3-3S78.154,104,76.5,104z"/>
	</g>
	<circle fill="#87E4B9" cx="65" cy="80.5" r="13.5"/>
	<g>
		<path fill="#FFFFFF" d="M6.5,83l2,38c0,1,1,2,2.055,2h6.572h20.766h6.572c0.861,0,1.607-0.701,1.654-1.566L48.5,83H6.5z"/>
		<path fill="#87E4B9" d="M8.5,83.952l1.902,37.096c0,0.976,0.951,1.952,1.955,1.952h6.252h19.75h6.252
			c0.82,0,1.529-0.685,1.574-1.529l2.265-37.519H8.5z"/>
		<path fill="#005A95" d="M44.465,123.996h-33.91c-1.596,0-3.051-1.428-3.051-2.996L5.45,82.004H49.56l-2.446,39.491
			C47.039,122.871,45.85,123.996,44.465,123.996z M7.55,83.996l1.944,36.951c0.002,0.473,0.535,1.057,1.061,1.057h33.91
			c0.333,0,0.642-0.292,0.66-0.624l2.315-37.384H7.55z"/>
	</g>
	<path fill="#FFFFFF" d="M66.5,77v-8.906C66.008,68.034,65.508,68,65,68c-0.169,0-0.333,0.019-0.5,0.025V77H66.5z"/>
	<path fill="none" d="M71.747,36.955l-3.525-3.525c-0.976,0.923-1.84,1.948-2.596,3.039l4.325,2.497
		C70.481,38.248,71.082,37.572,71.747,36.955z"/>
	<path fill="none" d="M74.686,34.832l-2.487-4.307c-1.149,0.645-2.226,1.4-3.218,2.249l3.53,3.531
		C73.188,35.753,73.916,35.261,74.686,34.832z"/>
	<path fill="none" d="M77.994,33.486l-1.284-4.792c-1.259,0.335-2.472,0.792-3.626,1.365l2.494,4.318
		C76.354,34.01,77.161,33.71,77.994,33.486z"/>
	<path fill="none" d="M88.122,34.891l2.471-4.278c-1.069-0.644-2.203-1.181-3.393-1.593l-1.286,4.799
		C86.686,34.107,87.424,34.466,88.122,34.891z"/>
	<path fill="none" d="M81.498,33v-4.96c-1.299,0-2.576,0.144-3.818,0.406l1.288,4.808C79.796,33.092,80.643,33,81.498,33z"/>
	<path fill="none" d="M84.963,33.502l1.281-4.781c-1.207-0.343-2.46-0.555-3.745-0.629v4.96
		C83.344,33.12,84.167,33.273,84.963,33.502z"/>
	<path fill="none" d="M63.074,41.946c-0.349,1.314-0.554,2.668-0.554,4.054H67.5c0-0.94,0.139-1.865,0.377-2.767L63.074,41.946z"/>
	<path fill="none" d="M90.784,37.004l3.495-3.496c-0.864-0.88-1.812-1.679-2.834-2.373l-2.484,4.304
		C89.614,35.907,90.225,36.429,90.784,37.004z"/>
	<path fill="none" d="M69.389,39.796l-4.313-2.49c-0.716,1.162-1.301,2.392-1.727,3.679l4.814,1.29
		C68.474,41.413,68.892,40.584,69.389,39.796z"/>
	<path fill="none" d="M92.803,39.682l4.285-2.474c-0.611-1.057-1.328-2.045-2.134-2.958l-3.495,3.495
		C91.964,38.347,92.411,38.998,92.803,39.682z"/>
	<polygon fill="none" points="62.502,55 67.5,55 67.5,47 62.519,47 	"/>
	<path fill="none" d="M94.063,42.746l4.796-1.285c-0.319-1.172-0.755-2.3-1.299-3.372l-4.299,2.482
		C93.593,41.268,93.861,41.994,94.063,42.746z"/>
	<rect x="62.519" y="46" fill="#87E4B9" width="4.981" height="1"/>
	<path fill="#87E4B9" d="M81.5,33c0.336,0,0.668,0.026,0.999,0.052v-4.96c-0.333-0.019-0.662-0.052-0.999-0.052
		c-0.001,0-0.001,0-0.002,0V33C81.499,33,81.499,33,81.5,33z"/>
	<path fill="#87E4B9" d="M68.164,42.275l-4.814-1.29c-0.104,0.316-0.189,0.639-0.275,0.961l4.803,1.287
		C67.963,42.911,68.051,42.589,68.164,42.275z"/>
	<path fill="#87E4B9" d="M69.951,38.966l-4.325-2.497c-0.19,0.275-0.375,0.553-0.55,0.837l4.313,2.49
		C69.566,39.514,69.752,39.236,69.951,38.966z"/>
	<path fill="#87E4B9" d="M72.511,36.304l-3.53-3.531c-0.254,0.218-0.517,0.427-0.759,0.656l3.525,3.525
		C71.991,36.727,72.251,36.516,72.511,36.304z"/>
	<path fill="#87E4B9" d="M75.578,34.376l-2.494-4.318c-0.3,0.148-0.595,0.303-0.886,0.466l2.487,4.307
		C74.977,34.669,75.275,34.52,75.578,34.376z"/>
	<path fill="#87E4B9" d="M78.968,33.253l-1.288-4.808c-0.328,0.069-0.647,0.163-0.97,0.249l1.284,4.792
		C78.316,33.399,78.639,33.316,78.968,33.253z"/>
	<path fill="#87E4B9" d="M85.914,33.818l1.286-4.799c-0.315-0.109-0.634-0.207-0.956-0.298l-1.281,4.781
		C85.285,33.594,85.602,33.701,85.914,33.818z"/>
	<path fill="#87E4B9" d="M88.961,35.439l2.484-4.304c-0.276-0.187-0.566-0.352-0.853-0.523l-2.471,4.278
		C88.408,35.064,88.689,35.245,88.961,35.439z"/>
	<path fill="#87E4B9" d="M91.459,37.744l3.495-3.495c-0.221-0.251-0.44-0.502-0.675-0.74l-3.495,3.496
		C91.017,37.244,91.244,37.488,91.459,37.744z"/>
	<path fill="#87E4B9" d="M93.262,40.571l4.299-2.482c-0.151-0.298-0.305-0.593-0.473-0.882l-4.285,2.474
		C92.969,39.971,93.118,40.27,93.262,40.571z"/>
	<path fill="#87E4B9" d="M94.289,43.721l4.826-1.293c-0.069-0.328-0.168-0.646-0.256-0.967l-4.796,1.285
		C94.15,43.067,94.229,43.391,94.289,43.721z"/>
	<path fill="#005A95" d="M92.51,47l-0.012,5h9.004l-0.01-5l-0.002-0.999c0,0,0-0.001,0-0.001c0-1.397-0.158-2.764-0.447-4.089
		c-0.072-0.327-0.169-0.646-0.257-0.967c-0.366-1.341-0.867-2.631-1.497-3.853c-0.153-0.297-0.31-0.591-0.478-0.879
		c-0.699-1.207-1.524-2.333-2.45-3.37c-0.223-0.249-0.441-0.502-0.676-0.74c-0.986-1.003-2.073-1.906-3.245-2.69
		c-0.277-0.186-0.566-0.352-0.853-0.524c-1.219-0.731-2.512-1.342-3.87-1.804c-0.315-0.107-0.636-0.2-0.957-0.291
		c-1.373-0.389-2.799-0.625-4.262-0.702c-0.333-0.018-0.662-0.052-0.999-0.052c-0.001,0-0.001,0-0.002,0
		c-1.477,0-2.928,0.167-4.336,0.475c-0.327,0.071-0.651,0.15-0.974,0.236c-1.426,0.383-2.801,0.916-4.104,1.575
		c-0.298,0.151-0.593,0.308-0.883,0.472c-1.3,0.733-2.521,1.59-3.638,2.559c-0.253,0.219-0.5,0.443-0.741,0.673
		c-1.1,1.045-2.08,2.202-2.927,3.44c-0.188,0.276-0.37,0.556-0.545,0.84c-0.805,1.31-1.458,2.703-1.933,4.157l1.932,0.518
		c0.426-1.287,1.011-2.517,1.727-3.679c0.175-0.284,0.359-0.563,0.55-0.837c0.756-1.091,1.62-2.116,2.596-3.039
		c0.242-0.229,0.505-0.438,0.759-0.656c0.992-0.848,2.068-1.604,3.218-2.249c0.291-0.163,0.586-0.318,0.886-0.466
		c1.154-0.572,2.367-1.029,3.626-1.365c0.322-0.086,0.642-0.18,0.97-0.249c1.242-0.262,2.52-0.405,3.818-0.406
		c0.001,0,0.001,0,0.002,0c0.337,0,0.666,0.033,0.999,0.052c1.285,0.075,2.538,0.286,3.745,0.629
		c0.322,0.091,0.641,0.189,0.956,0.298c1.189,0.412,2.323,0.95,3.393,1.593c0.286,0.172,0.576,0.336,0.853,0.523
		c1.022,0.694,1.97,1.493,2.834,2.373c0.234,0.238,0.454,0.489,0.675,0.74c0.806,0.914,1.522,1.902,2.134,2.958
		c0.168,0.289,0.321,0.584,0.473,0.882c0.544,1.072,0.979,2.199,1.299,3.372c0.088,0.321,0.187,0.639,0.256,0.967
		C99.36,43.586,99.49,44.781,99.49,46c0,0.001,0,0.002,0,0.003L99.492,47l0.006,3h-4.996l0.008-3l0.002-0.999c0,0,0-0.001,0-0.001
		c0-0.776-0.084-1.536-0.223-2.279c-0.061-0.33-0.139-0.653-0.226-0.975c-0.202-0.752-0.471-1.479-0.802-2.175
		c-0.144-0.302-0.293-0.6-0.459-0.89c-0.392-0.684-0.839-1.334-1.344-1.938c-0.215-0.256-0.442-0.5-0.675-0.74
		c-0.56-0.575-1.17-1.098-1.823-1.565c-0.271-0.194-0.553-0.375-0.839-0.549c-0.698-0.425-1.437-0.784-2.208-1.072
		c-0.313-0.117-0.629-0.224-0.951-0.316c-0.796-0.229-1.619-0.382-2.464-0.45C82.168,33.026,81.836,33,81.5,33
		c-0.001,0-0.001,0-0.002,0c-0.855,0-1.702,0.092-2.53,0.253c-0.329,0.063-0.651,0.146-0.974,0.233
		c-0.833,0.225-1.641,0.524-2.416,0.891c-0.303,0.143-0.602,0.293-0.893,0.456c-0.77,0.429-1.497,0.921-2.175,1.472
		c-0.26,0.211-0.52,0.423-0.764,0.65c-0.665,0.618-1.266,1.293-1.796,2.011c-0.199,0.27-0.385,0.548-0.563,0.831
		c-0.497,0.788-0.915,1.616-1.225,2.479c-0.113,0.314-0.201,0.636-0.287,0.958C67.639,44.135,67.5,45.06,67.5,46v1v8h-3.89
		c0.073,0.668,0.032,1.351-0.129,2H69.5V47v-1c0-0.76,0.113-1.513,0.311-2.249c0.086-0.321,0.187-0.64,0.306-0.953
		c0.265-0.689,0.609-1.356,1.021-1.993c0.181-0.28,0.371-0.555,0.576-0.822c0.438-0.567,0.929-1.103,1.467-1.596
		c0.245-0.226,0.504-0.439,0.768-0.646c0.548-0.432,1.135-0.818,1.747-1.16c0.292-0.163,0.591-0.313,0.895-0.453
		c0.621-0.287,1.264-0.523,1.924-0.705c0.322-0.088,0.647-0.166,0.976-0.226C80.15,35.075,80.821,35,81.498,35
		c0.001,0,0.002,0,0.002,0c0.336,0,0.669,0.021,0.998,0.052c0.668,0.063,1.317,0.194,1.949,0.376
		c0.322,0.093,0.638,0.202,0.948,0.323c0.604,0.237,1.183,0.526,1.732,0.862c0.285,0.175,0.563,0.361,0.831,0.56
		c0.506,0.375,0.982,0.786,1.419,1.237c0.232,0.24,0.455,0.489,0.666,0.749c0.386,0.476,0.731,0.983,1.036,1.517
		c0.165,0.29,0.315,0.588,0.454,0.892c0.248,0.544,0.446,1.11,0.603,1.694c0.087,0.321,0.158,0.646,0.214,0.978
		c0.098,0.576,0.161,1.161,0.161,1.759V46L92.51,47z"/>
	<g>
		<path fill="none" d="M70.5,77v-7.708C68.838,68.473,66.976,68,65,68c-6.893,0-12.5,5.607-12.5,12.5S58.107,93,65,93
			s12.5-5.607,12.5-12.5c0-2.49-0.74-4.807-2-6.758V77H70.5z"/>
		<path fill="#FFFFFF" d="M70.5,69.292V77h5v-3.258C74.271,71.841,72.543,70.299,70.5,69.292z"/>
		<g>
			<path fill="none" d="M57.5,76.5V77h-0.051c-0.231,1.142-1.24,2-2.449,2c-0.938,0-1.746-0.523-2.174-1.288
				C52.62,78.609,52.5,79.54,52.5,80.5C52.5,87.393,58.107,93,65,93s12.5-5.607,12.5-12.5c0-2.49-0.74-4.807-2-6.758
				c-1.229-1.901-2.957-3.443-5-4.45c-1.234-0.608-2.58-1.023-4-1.198l-1.74-0.082c-0.086,0.006-0.173,0.01-0.26,0.013
				c-3.343,0.133-6.352,1.582-8.521,3.843c0.559,0.58,1.082,1.194,1.521,1.874V76.5z"/>
			<path fill="#FFFFFF" d="M55,79c1.209,0,2.218-0.858,2.449-2h-4.443c-0.068,0.233-0.125,0.473-0.18,0.712
				C53.254,78.477,54.062,79,55,79z"/>
			<path fill="#FFFFFF" d="M57.5,77v-0.5c0,0.171-0.018,0.339-0.051,0.5H57.5z"/>
			<path fill="#FFFFFF" d="M55,74c1.381,0,2.5,1.119,2.5,2.5v-2.758c-0.439-0.68-0.963-1.294-1.521-1.874
				c-0.652,0.68-1.219,1.438-1.705,2.252C54.505,74.049,54.746,74,55,74z"/>
			<path fill="#FFFFFF" d="M52.5,77h0.051c-0.033-0.161-0.051-0.329-0.051-0.5V77z"/>
			<path fill="#FFFFFF" d="M57.449,77c0.033-0.161,0.051-0.329,0.051-0.5c0-1.381-1.119-2.5-2.5-2.5
				c-0.254,0-0.495,0.049-0.727,0.12c-0.535,0.896-0.969,1.857-1.268,2.88H57.449z"/>
			<path fill="#005A95" d="M75.5,70.529c-0.937-0.986-2.009-1.837-3.188-2.529c-2.15-1.263-4.645-2-7.313-2
				c-4.14,0-7.87,1.753-10.515,4.545c-0.759,0.801-1.424,1.687-1.985,2.643c-1.263,2.15-2,4.645-2,7.313
				C50.5,88.495,57.005,95,65,95s14.5-6.505,14.5-14.5C79.5,76.637,77.972,73.131,75.5,70.529z M65,93
				c-6.893,0-12.5-5.607-12.5-12.5c0-0.96,0.12-1.891,0.326-2.788c0.055-0.239,0.111-0.479,0.18-0.712
				c0.299-1.022,0.732-1.984,1.268-2.88c0.486-0.813,1.053-1.572,1.705-2.252c2.17-2.261,5.179-3.71,8.521-3.843
				c0.087-0.003,0.174-0.007,0.26-0.013l1.74,0.082c1.42,0.175,2.766,0.59,4,1.198c2.043,1.007,3.771,2.549,5,4.45
				c1.26,1.951,2,4.268,2,6.758C77.5,87.393,71.893,93,65,93z"/>
		</g>
	</g>
	<g>
		<path fill="#FFFFFF" d="M47.313,78.978c0.117-0.435,0.188-0.894,0.188-1.353c0-2.851-2.25-5.17-5.016-5.17
			c-1.008,0-1.945,0.314-2.719,0.821c-0.023-3.479-2.789-6.305-6.164-6.305c-0.422,0-0.82,0.048-1.195,0.12
			C31.587,65.28,29.805,64,27.719,64c-2.367,0-4.383,1.643-4.969,3.889c-0.68-0.314-1.406-0.484-2.203-0.484
			c-2.344,0-4.336,1.57-5.039,3.745c-4.148,0.337-7.5,3.624-8.086,7.849L47.313,78.978L47.313,78.978z"/>
		<path fill="#005A95" d="M6.256,80.015l0.16-1.155c0.619-4.459,4.085-7.998,8.363-8.646c1.013-2.312,3.256-3.824,5.768-3.824
			c0.543,0,1.075,0.068,1.592,0.204c0.996-2.169,3.158-3.609,5.58-3.609c2.141,0,4.129,1.156,5.25,3.001
			c3.73-0.348,6.895,2.254,7.646,5.759c0.602-0.201,1.231-0.306,1.869-0.306c3.325,0,6.031,2.775,6.031,6.186
			c0,0.525-0.075,1.069-0.223,1.617l-0.203,0.75L6.256,80.015z M20.547,68.42c-1.848,0-3.484,1.222-4.073,3.042l-0.208,0.645
			l-0.676,0.055c-3.248,0.264-6.001,2.64-6.918,5.821l37.797-0.021c0.011-0.114,0.016-0.228,0.016-0.338
			c0-2.291-1.794-4.154-4-4.154c-0.76,0-1.508,0.227-2.162,0.655l-1.559,1.021l-0.014-1.864c-0.02-2.92-2.329-5.296-5.148-5.296
			c-0.317,0-0.646,0.034-1.004,0.102l-0.787,0.15l-0.329-0.729c-0.686-1.516-2.163-2.495-3.763-2.495
			c-1.866,0-3.506,1.287-3.986,3.13l-0.307,1.175l-1.102-0.51C21.756,68.548,21.176,68.42,20.547,68.42z"/>
	</g>
	<g>
		<path fill="#FFFFFF" d="M54.5,83h-54v-1.38C0.5,79.629,2.078,78,4.006,78h46.988c1.929,0,3.506,1.629,3.506,3.62V83z"/>
		<path fill="#87E4B9" d="M54.5,84h-54v-1.104C0.5,81.303,2.078,80,4.006,80h46.988c1.929,0,3.506,1.303,3.506,2.896V84z"/>
		<path fill="#005A95" d="M55.5,84h-56v-2.38c0-2.548,2.021-4.62,4.506-4.62h46.988c2.484,0,4.506,2.072,4.506,4.62V84z M1.5,82h52
			v-0.38c0-1.444-1.124-2.62-2.506-2.62H4.006C2.624,79,1.5,80.176,1.5,81.62V82z"/>
	</g>
	<g>
		<path fill="#FFFFFF" d="M110.5,111h-3h-5v-9.813c0-0.664-0.539-1.188-1.172-1.188h-8.664c-0.656,0-1.172,0.547-1.172,1.188V111
			h-1.278H80.5h-3l-8,5v5h11h10.477h6.047H107.5h11v-5L110.5,111z"/>
		<path fill="#87E4B9" d="M109.643,111.477h-2.571h-4.285v-9.346c0-0.633-0.463-1.131-1.005-1.131H94.5c-0.563,0-1,0.39-1,1v10h-2
			l-7.571-0.523h-2.571l-6.857,4.761V121h9.429h8.979h5.184h8.979H118.5v-5L109.643,111.477z"/>
		<path fill="#005A95" d="M119.5,122h-51v-6.555L77.213,110h13.279v-8.813c0-1.206,0.975-2.188,2.172-2.188h8.664
			c1.197,0,2.172,0.981,2.172,2.188V110h7.287l8.713,5.445V122z M70.5,120h47v-3.445L110.213,112H101.5v-10.813
			c0-0.11-0.091-0.188-0.172-0.188h-8.664c-0.102,0-0.164,0.099-0.164,0.188V112H77.787l-7.287,4.555V120z"/>
	</g>
	<g>
		<path fill="#FFFFFF" d="M86.5,115.552c-0.733-0.943-1.799-1.552-3-1.552h-47c-1.201,0-2.267,0.608-3,1.552
			c-0.615,0.791-1,1.814-1,2.948s0.385,2.157,1,2.948c0.733,0.943,1.799,1.552,3,1.552h47c1.201,0,2.267-0.608,3-1.552
			c0.615-0.791,1-1.814,1-2.948S87.115,116.343,86.5,115.552z"/>
		<path fill="none" d="M83.5,115h-47c-0.842,0-1.626,0.414-2.211,1.166c-0.509,0.654-0.789,1.483-0.789,2.334s0.28,1.68,0.789,2.335
			C34.874,121.586,35.658,122,36.5,122h47c0.841,0,1.626-0.414,2.211-1.166c0.509-0.654,0.789-1.483,0.789-2.334
			s-0.28-1.68-0.789-2.334C85.126,115.414,84.341,115,83.5,115z"/>
	</g>
	<rect x="56.5" y="17" fill="#FFFFFF" width="7" height="76"/>
	<g>
		<path fill="#FFFFFF" d="M86.328,109H66.836c-0.656,0-1.336-0.344-1.336-0.986V94.188c0-0.664-0.539-1.188-1.172-1.188h-8.664
			c-0.656,0-1.172,0.547-1.172,1.188v13.826c0,0.666-0.703,0.986-1.336,0.986H33.672c-0.656,0-1.172,0.547-1.172,1.189V114h2h51h2
			v-3.811C87.5,109.547,86.961,109,86.328,109z"/>
		<path fill="#87E4B9" d="M85.5,110.728H66.842c-0.561,0-1.142-0.294-1.142-0.843V98.069c0-0.567-0.461-3.069-1.002-3.069h-7.403
			c-0.561,0-1.002,0.467-1.002,1.015v13.87c0,0.568-0.601,0.843-1.141,0.843H35.5c-0.561,0-1.002,0.467-1.002,1.017L34.5,114h5h43h5
			l-0.999-2.256C86.501,111.194,86.04,110.728,85.5,110.728z"/>
		<path fill="#005A95" d="M88.5,115h-57v-4.811c0-1.207,0.975-2.189,2.172-2.189h19.484c0.148,0,0.271-0.036,0.336-0.068V94.188
			c0-1.206,0.975-2.188,2.172-2.188h8.664c1.197,0,2.172,0.981,2.172,2.188v13.741c0.062,0.031,0.179,0.071,0.336,0.071h19.492
			c1.178,0,2.172,1.003,2.172,2.189V115z M33.5,113h53v-2.811c0-0.096-0.099-0.189-0.172-0.189H66.836
			c-1.332,0-2.336-0.854-2.336-1.986V94.188c0-0.11-0.091-0.188-0.172-0.188h-8.664c-0.102,0-0.172,0.099-0.172,0.188v13.826
			c0,1.133-1.004,1.986-2.336,1.986H33.672c-0.102,0-0.172,0.1-0.172,0.189V113z"/>
	</g>
	<g>
		<path fill="#005A95" d="M76.5,109c-0.553,0-1-0.447-1-1v-1c0-0.553,0.447-1,1-1s1,0.447,1,1v1C77.5,108.553,77.053,109,76.5,109z"
			/>
	</g>
	<g>
		<path fill="#005A95" d="M56.5,83h-2c-0.553,0-1-0.447-1-1s0.447-1,1-1h2c0.553,0,1,0.447,1,1S57.053,83,56.5,83z"/>
	</g>
	<g>
		<path fill="#005A95" d="M77.5,83h-14c-0.553,0-1-0.447-1-1s0.447-1,1-1h14c0.553,0,1,0.447,1,1S78.053,83,77.5,83z"/>
	</g>
	<g>
		<path fill="#005A95" d="M12.5,96c-4.963,0-9-4.037-9-9v-4h-2v4c0,6.065,4.935,11,11,11h5v-2H12.5z"/>
	</g>
	<g>
		<path fill="#005A95" d="M42.5,96c4.963,0,9-4.037,9-9v-4h2v4c0,6.065-4.935,11-11,11h-5v-2H42.5z"/>
	</g>
	<g>
		<path fill="#FFFFFF" d="M37.5,97.479c0,1.387-1.104,2.522-2.451,2.522H19.951c-1.348,0-2.451-1.136-2.451-2.522v-0.957
			c0-1.387,1.104-2.521,2.451-2.521h15.098c1.348,0,2.451,1.134,2.451,2.521V97.479z"/>
		<path fill="#005A95" d="M35.049,101.001H19.951c-1.902,0-3.451-1.582-3.451-3.522v-0.957c0-1.94,1.549-3.521,3.451-3.521h15.098
			c1.903,0,3.451,1.58,3.451,3.521v0.957C38.5,99.419,36.952,101.001,35.049,101.001z M19.951,95c-0.8,0-1.451,0.682-1.451,1.521
			v0.957c0,0.84,0.651,1.523,1.451,1.523h15.098c0.801,0,1.451-0.684,1.451-1.523v-0.957c0-0.84-0.65-1.521-1.451-1.521H19.951z"/>
	</g>
	<g>
		<path fill="none" d="M83.5,115h-47c-0.771,0-1.487,0.362-2.053,1h51.106C84.987,115.362,84.271,115,83.5,115z"/>
		<path fill="none" d="M36.5,122h47c0.771,0,1.487-0.362,2.054-1H34.446C35.012,121.638,35.729,122,36.5,122z"/>
		<path fill="none" d="M33.816,120h52.368c0.134-0.318,0.229-0.652,0.274-1H33.541C33.586,119.348,33.682,119.682,33.816,120z"/>
		<path fill="none" d="M33.816,117c-0.135,0.318-0.23,0.652-0.275,1h52.918c-0.045-0.348-0.141-0.682-0.274-1H33.816z"/>
		<path fill="#87E4B9" d="M33.5,118.5c0,0.168,0.02,0.335,0.041,0.5h52.918c0.021-0.165,0.041-0.332,0.041-0.5
			s-0.02-0.335-0.041-0.5H33.541C33.52,118.165,33.5,118.332,33.5,118.5z"/>
		<path fill="#87E4B9" d="M85.711,116.166c-0.049-0.063-0.106-0.108-0.157-0.166H34.447c-0.052,0.058-0.109,0.104-0.158,0.166
			c-0.196,0.253-0.348,0.537-0.473,0.834h52.368C86.059,116.703,85.907,116.419,85.711,116.166z"/>
		<path fill="#87E4B9" d="M34.289,120.835c0.049,0.063,0.105,0.107,0.157,0.165h51.107c0.051-0.058,0.108-0.104,0.157-0.166
			c0.196-0.253,0.348-0.537,0.474-0.834H33.816C33.941,120.297,34.093,120.581,34.289,120.835z"/>
		<path fill="#005A95" d="M87.289,114.938C86.332,113.706,84.951,113,83.5,113h-47c-1.451,0-2.832,0.706-3.789,1.938
			c-0.781,1.004-1.211,2.269-1.211,3.562s0.43,2.558,1.211,3.562C33.668,123.294,35.049,124,36.5,124h47
			c1.451,0,2.832-0.706,3.789-1.938c0.781-1.004,1.211-2.27,1.211-3.563S88.07,115.941,87.289,114.938z M83.5,122h-47
			c-0.771,0-1.488-0.362-2.054-1c-0.052-0.058-0.108-0.103-0.157-0.165c-0.196-0.254-0.348-0.538-0.473-0.835
			c-0.135-0.318-0.23-0.652-0.275-1c-0.021-0.165-0.041-0.332-0.041-0.5s0.02-0.335,0.041-0.5c0.045-0.348,0.141-0.682,0.275-1
			c0.125-0.297,0.276-0.581,0.473-0.834c0.049-0.063,0.106-0.108,0.158-0.166c0.565-0.638,1.281-1,2.053-1h47
			c0.771,0,1.487,0.362,2.054,1c0.051,0.058,0.108,0.104,0.157,0.166c0.196,0.253,0.348,0.537,0.474,0.834
			c0.134,0.318,0.229,0.652,0.274,1c0.021,0.165,0.041,0.332,0.041,0.5s-0.02,0.335-0.041,0.5c-0.045,0.348-0.141,0.682-0.274,1
			c-0.126,0.297-0.277,0.581-0.474,0.834c-0.049,0.063-0.106,0.108-0.157,0.166C84.987,121.638,84.271,122,83.5,122z"/>
	</g>
	<circle fill="#FFFFFF" cx="73" cy="76.5" r="2.5"/>
	<g>
		<path fill="none" d="M57.5,18v74h5V78.488c-0.604-0.456-1-1.173-1-1.988s0.396-1.532,1-1.988V18H57.5z"/>
		<path fill="#FFFFFF" d="M66.5,76.5c0-1.21-0.858-2.218-2-2.449v4.898C65.642,78.718,66.5,77.71,66.5,76.5z"/>
		<path fill="#FFFFFF" d="M61.5,76.5c0,0.815,0.396,1.532,1,1.988v-3.977C61.896,74.968,61.5,75.685,61.5,76.5z"/>
		<path fill="#005A95" d="M55.5,16v78h9V78.949v-4.898V16H55.5z M62.5,92h-5V18h5v56.512v3.977V92z"/>
	</g>
	<rect x="61.5" y="18" fill="#87E4B9" width="1" height="74"/>
	<rect x="98.5" y="52" fill="#87E4B9" width="1" height="47"/>
	<polygon fill="#FFFFFF" points="111.5,115 88.5,115 88.5,114 109.5,114 	"/>
	<rect x="94.5" y="46" fill="#87E4B9" width="5" height="1"/>
	<rect x="64.5" y="50" fill="#87E4B9" width="3" height="1"/>
	<rect x="64.5" y="54" fill="#87E4B9" width="3" height="1"/>
	<g>
		<g>
			<path fill="#87E4B9" d="M28.002,52.874c0,5.291-4.246,9.563-9.502,9.563c5.256,0,9.502,4.271,9.502,9.563
				c0-5.291,4.244-9.563,9.498-9.563C32.246,62.438,28.002,58.165,28.002,52.874z"/>
		</g>
	</g>
	<g>
		<g>
			<path fill="#87E4B9" d="M79.5,45c0,3.369-2.734,6-6,6c3.369,0,6,2.734,6,6c0-3.369,2.738-6,6-6C82.236,51,79.5,48.264,79.5,45z"
				/>
		</g>
	</g>
	<g>
		<g>
			<path fill="#87E4B9" d="M44.393,26.17c0,2.708-2.195,4.915-4.893,4.915c2.695,0,4.893,2.207,4.893,4.915
				c0-2.708,2.197-4.915,4.896-4.915C46.488,31.084,44.393,28.878,44.393,26.17z"/>
		</g>
	</g>
	<g>
		<path fill="#FFFFFF" d="M61.487,3h-2.993C57.391,3,56.5,4.077,56.5,5.411V25h7V5.412C63.5,4.078,62.59,3,61.487,3z"/>
		<path fill="#87E4B9" d="M62.063,5.001h-2.139c-0.787,0-1.424,0.782-1.424,1.753V26h5V6.755C63.5,5.784,62.85,5.001,62.063,5.001z"
			/>
		<path fill="#005A95" d="M64.499,26H55.5V5.411C55.5,3.531,56.844,2,58.494,2h2.993c1.661,0,3.012,1.531,3.012,3.412V26z
			 M57.5,24.001h5.001V5.412C62.501,4.646,62.036,4,61.487,4h-2.993C57.955,4,57.5,4.646,57.5,5.411V24.001z"/>
	</g>
</g>
</svg>
