<?xml version="1.0" encoding="utf-8"?>
<!-- Generator: Adobe Illustrator 16.0.0, SVG Export Plug-In . SVG Version: 6.00 Build 0)  -->
<!DOCTYPE svg PUBLIC "-//W3C//DTD SVG 1.1//EN" "http://www.w3.org/Graphics/SVG/1.1/DTD/svg11.dtd">
<svg version="1.1" id="Слой_1" xmlns="http://www.w3.org/2000/svg" xmlns:xlink="http://www.w3.org/1999/xlink" x="0px" y="0px"
	 width="120px" height="135px" viewBox="-0.5 1 120 135" enable-background="new -0.5 1 120 135" xml:space="preserve">
<g>
	<g>
		<circle fill="#EFEFEF" cx="59.5" cy="76" r="60"/>
	</g>
</g>
<g>
	<path fill="#87E4B9" d="M30.5,76V60.164c0-0.652-0.529-1.164-1.152-1.164h-5.695c-0.645,0-1.151,0.535-1.151,1.164V76H30.5z"/>
	<path fill="#005A95" d="M31.5,77h-10V60.164c0-1.193,0.966-2.164,2.152-2.164h5.695c1.187,0,2.151,0.971,2.151,2.164L31.5,77
		L31.5,77z M23.5,75h6V60.164c0-0.098-0.079-0.164-0.152-0.164h-5.695c-0.09,0-0.151,0.086-0.151,0.164L23.5,75L23.5,75z"/>
</g>
<g>
	<path fill="#EFEFEF" d="M34.5,81v-2.514c0-1.367-0.918-2.486-2.038-2.486H20.538c-1.12,0-2.038,1.119-2.038,2.486V81H34.5z"/>
	<path fill="#87E4B9" d="M33.5,82v-2.01c0-1.096-0.805-1.99-1.783-1.99H21.283c-0.979,0-1.783,0.896-1.783,1.99V82H33.5z"/>
	<path fill="#005A95" d="M35.5,81h-18v-3.514c0-1.922,1.363-3.486,3.038-3.486h11.924c1.675,0,3.038,1.564,3.038,3.486V81L35.5,81z
		 M19.5,80h14v-2.514c0-0.791-0.484-1.486-1.038-1.486H20.538c-0.554,0-1.038,0.695-1.038,1.486V80L19.5,80z"/>
</g>
<g>
	<path fill="#87E4B9" d="M1.561,122c-0.576,0-1.061-0.466-1.061-1.07V88.865C0.5,84.537,4.005,81,8.295,81h36.41
		c4.29,0,7.795,3.514,7.795,7.865v32.064c0,0.581-0.461,1.069-1.061,1.069L1.561,122L1.561,122z"/>
	<path fill="#005A95" d="M51.439,123H1.561c-1.138,0-2.062-0.93-2.062-2.07V88.865c0-4.889,3.944-8.865,8.795-8.865h36.41
		c4.851,0,8.795,3.977,8.795,8.865v32.064C53.5,122.07,52.576,123,51.439,123z M8.295,82C4.548,82,1.5,85.08,1.5,88.865v32.064
		l49.939,0.069c0.049,0,0.061-0.051,0.061-0.069V88.865C51.5,85.08,48.452,82,44.705,82H8.295z"/>
</g>
<g>
	<g>
		<path fill="#87E4B9" d="M0.5,90v31c0,0.539,0,1,1,1l6-32H0.5z"/>
		<path fill="#87E4B9" d="M3.5,90l-2,31c0,0.539,0,1,1,1l6-32H3.5z"/>
		<path fill="#005A95" d="M2.33,123H1.5c-2,0-2-1.505-2-2V89h9.205L2.33,123z M1.5,91v25.574L6.295,91H1.5z"/>
	</g>
	<g>
		<path fill="#87E4B9" d="M51.5,122c1,0,1-0.461,1-1V90h-7L51.5,122z"/>
		<path fill="#005A95" d="M51.5,123h-0.83l-6.375-34H53.5v32C53.5,121.495,53.5,123,51.5,123z M46.705,91l4.795,25.574V91H46.705z"
			/>
	</g>
</g>
<g>
	<path fill="#FFFFFF" d="M52.5,91v-1.775c0-4.525-3.506-8.225-7.795-8.225H8.294C4.006,81,0.5,84.674,0.5,89.225V91H52.5z"/>
	<path fill="#87E4B9" d="M50.5,91.938v-1.42c0-3.621-3.236-6.58-7.195-6.58H9.695c-3.959,0-7.194,2.939-7.194,6.58v1.42H50.5z"/>
	<path fill="#005A95" d="M53.5,92h-54v-2.775C-0.5,84.139,3.445,80,8.294,80h36.411c4.85,0,8.795,4.139,8.795,9.225V92z M1.5,90h50
		v-0.775c0-3.983-3.048-7.225-6.795-7.225H8.294C4.548,82,1.5,85.24,1.5,89.225V90z"/>
</g>
<g>
	<g>
		<path fill="#87E4B9" d="M99.279,106.227c-0.137-0.139-0.334-0.227-0.532-0.227l-4.497,0.006c-0.419,0-0.75,0.328-0.75,0.738
			v12.305c0.004,0.785,0.313,1.529,0.88,2.086c0.563,0.557,1.32,0.861,2.12,0.867c0.8-0.006,1.557-0.311,2.121-0.867
			c0.564-0.556,0.879-1.295,0.879-2.086v-12.305C99.5,106.551,99.421,106.363,99.279,106.227z"/>
		<path fill="#005A95" d="M96.5,123.002h-0.008c-1.068-0.008-2.068-0.418-2.814-1.156c-0.754-0.738-1.173-1.729-1.178-2.791v-12.311
			c0-0.958,0.785-1.738,1.75-1.738L98.746,105c0.463,0,0.917,0.191,1.245,0.523c0.317,0.307,0.509,0.758,0.509,1.221v12.305
			c0,1.059-0.418,2.051-1.178,2.799c-0.746,0.736-1.746,1.146-2.814,1.154H96.5z M94.5,107.006v12.043
			c0.003,0.52,0.209,1.008,0.58,1.372c0.375,0.37,0.878,0.575,1.42,0.581c0.542-0.006,1.046-0.211,1.419-0.579
			c0.375-0.368,0.581-0.856,0.581-1.374V107L94.5,107.006z"/>
	</g>
</g>
<g>
	<g>
		<path fill="#87E4B9" d="M60,112L60,112c-1.921,0-3.5-1.331-3.5-3.006V5.005C56.5,3.356,58.048,2,60,2l0,0
			c1.92,0,3.5,1.33,3.5,3.005V109.02C63.471,110.669,61.92,112,60,112z"/>
		<path fill="#FFFFFF" d="M59,112L59,112c-1.372,0-2.5-1.331-2.5-3.006V5.005C56.5,3.356,57.605,2,59,2l0,0
			c1.371,0,2.5,1.33,2.5,3.005V109.02C61.479,110.669,60.371,112,59,112z"/>
		<path fill="#005A95" d="M60,113c-2.48,0-4.5-1.797-4.5-4.006V5.005C55.5,2.797,57.52,1,60,1s4.5,1.797,4.5,4.005V109.02
			C64.459,111.26,62.482,113,60,113z M60,3c-1.379,0-2.5,0.899-2.5,2.005v103.989C57.5,110.1,58.621,111,60,111
			c1.357,0,2.479-0.896,2.5-1.999V5.005C62.5,3.899,61.379,3,60,3z"/>
	</g>
</g>
<g>
	<rect x="33.5" y="97" fill="#FFFFFF" width="53" height="5"/>
	<rect x="33.5" y="99" fill="#87E4B9" width="53" height="5"/>
	<path fill="#005A95" d="M87.499,104H32.5v-8h54.999V104L87.499,104z M34.5,102h51v-4h-51V102z"/>
</g>
<g>
	<polygon fill="#FFFFFF" points="39.5,112 40.5,122 74.5,122 75.5,111 78.5,122 80.5,122 81.5,112 84.5,122 89.5,121.998 86.5,102 
		33.5,102 30.5,121.998 36.5,122 	"/>
	<path fill="#005A95" d="M83.756,123l-1.763-5.877L81.404,123h-3.668l-1.742-6.389L75.413,123H39.596l-0.588-5.877L37.244,123
		l-7.905-0.002l3.3-21.998h54.723l3.301,21.998L83.756,123z M79.264,121h0.332l1.411-14.122L85.244,121l3.095-0.002L85.639,103
		H34.361l-2.699,17.998L35.757,121l4.236-14.122L41.404,121h32.183l1.419-15.611L79.264,121z"/>
</g>
<path fill="#87E4B9" d="M96.5,37c-6.627,0-12,5.373-12,12v30c0,6.627,5.373,12,12,12s12-5.373,12-12V49
	C108.5,42.373,103.127,37,96.5,37z"/>
<g>
	<rect x="95.5" y="91" fill="#005A95" width="2" height="14"/>
</g>
<g>
	<path fill="#005A95" d="M26.5,67c-0.553,0-1-0.448-1-1v-3c0-0.552,0.447-1,1-1s1,0.448,1,1v3C27.5,66.552,27.053,67,26.5,67z"/>
</g>
<rect x="85.5" y="74" fill="#FFFFFF" width="11" height="2"/>
<rect x="85.5" y="70" fill="#FFFFFF" width="11" height="2"/>
<rect x="85.5" y="66" fill="#FFFFFF" width="11" height="2"/>
<rect x="85.5" y="62" fill="#FFFFFF" width="11" height="2"/>
<rect x="85.5" y="58" fill="#FFFFFF" width="11" height="2"/>
<rect x="85.5" y="54" fill="#FFFFFF" width="11" height="2"/>
<rect x="85.5" y="50" fill="#FFFFFF" width="11" height="2"/>
<rect x="96.5" y="76" fill="#FFFFFF" width="11" height="2"/>
<rect x="96.5" y="72" fill="#FFFFFF" width="11" height="2"/>
<rect x="96.5" y="68" fill="#FFFFFF" width="11" height="2"/>
<rect x="96.5" y="64" fill="#FFFFFF" width="11" height="2"/>
<rect x="96.5" y="60" fill="#FFFFFF" width="11" height="2"/>
<rect x="96.5" y="56" fill="#FFFFFF" width="11" height="2"/>
<rect x="96.5" y="52" fill="#FFFFFF" width="11" height="2"/>
<g>
	<path fill="none" d="M96.5,84h9.786c0.325-0.634,0.589-1.303,0.786-2H96.5V84z"/>
	<path fill="none" d="M96.5,88h6.305c0.811-0.568,1.545-1.238,2.174-2H96.5V88z"/>
	<path fill="none" d="M90.195,88c1.787,1.256,3.959,2,6.305,2v-2H90.195z"/>
	<path fill="none" d="M96.5,48h10.949c-0.063-0.688-0.192-1.354-0.377-2H96.5V48z"/>
	<path fill="none" d="M96.5,48H85.551c-0.029,0.33-0.051,0.663-0.051,1v29h11v2h10.949c0.029-0.33,0.051-0.662,0.051-1V50h-11V48z"
		/>
	<path fill="none" d="M96.5,84h-9.786c0.366,0.714,0.802,1.387,1.308,2h8.479L96.5,84L96.5,84z"/>
	<path fill="none" d="M102.805,40c-1.787-1.256-3.959-2-6.305-2v2H102.805z"/>
	<path fill="none" d="M96.5,40h-6.305c-0.811,0.569-1.545,1.239-2.174,2H96.5V40L96.5,40z"/>
	<path fill="none" d="M96.5,44h9.786c-0.366-0.714-0.802-1.387-1.308-2H96.5V44z"/>
	<path fill="none" d="M96.5,44h-9.786c-0.325,0.634-0.589,1.303-0.786,2H96.5V44z"/>
	<path fill="none" d="M96.5,80H85.551c0.063,0.688,0.192,1.354,0.377,2H96.5V80z"/>
	<path fill="#FFFFFF" d="M96.5,82H85.928c0.197,0.697,0.461,1.366,0.786,2H96.5V82z"/>
	<polygon fill="#FFFFFF" points="84.5,84 84.503,84 84.5,83.992 	"/>
	<path fill="#FFFFFF" d="M96.5,78h-11v1c0,0.338,0.021,0.67,0.051,1H96.5V78z"/>
	<path fill="#FFFFFF" d="M96.5,46H85.928c-0.185,0.646-0.314,1.313-0.377,2H96.5V46z"/>
	<path fill="#FFFFFF" d="M96.5,42h-8.479c-0.508,0.613-0.941,1.286-1.309,2h9.786L96.5,42L96.5,42z"/>
	<path fill="#FFFFFF" d="M96.5,38c-2.346,0-4.518,0.744-6.305,2H96.5V38z"/>
	<path fill="#FFFFFF" d="M96.5,86h-8.479c0.629,0.762,1.363,1.432,2.174,2H96.5V86L96.5,86z"/>
	<path fill="#FFFFFF" d="M96.5,86h8.479c0.508-0.613,0.941-1.286,1.309-2H96.5V86z"/>
	<path fill="#FFFFFF" d="M96.5,82h10.572c0.185-0.646,0.314-1.313,0.377-2H96.5V82z"/>
	<path fill="#FFFFFF" d="M96.5,50h11v-1c0-0.337-0.021-0.67-0.051-1H96.5V50z"/>
	<polygon fill="#FFFFFF" points="108.5,44 108.497,44 108.5,44.008 	"/>
	<path fill="#FFFFFF" d="M96.5,44v2h10.572c-0.197-0.697-0.461-1.366-0.786-2H96.5z"/>
	<path fill="#FFFFFF" d="M96.5,42h8.479c-0.629-0.761-1.363-1.431-2.174-2H96.5V42z"/>
	<path fill="#FFFFFF" d="M96.5,90c2.346,0,4.518-0.744,6.305-2H96.5V90z"/>
	<path fill="#005A95" d="M108.5,44.008c-0.001-0.002-0.002-0.005-0.003-0.008c-0.294-0.702-0.653-1.367-1.062-2
		c-0.461-0.718-0.988-1.388-1.576-2c-2.367-2.46-5.686-4-9.359-4c-2.534,0-4.895,0.74-6.896,2c-0.899,0.567-1.729,1.236-2.463,2
		c-0.588,0.612-1.115,1.282-1.576,2c-0.407,0.633-0.768,1.298-1.062,2c-0.646,1.54-1.003,3.229-1.003,5v30
		c0,1.77,0.357,3.454,1,4.992c0.001,0.002,0.002,0.005,0.003,0.008c0.294,0.701,0.653,1.367,1.062,2
		c0.461,0.718,0.988,1.389,1.576,2c2.367,2.46,5.686,4,9.359,4c2.534,0,4.895-0.74,6.896-2c0.899-0.566,1.728-1.236,2.463-2
		c0.588-0.611,1.115-1.282,1.576-2c0.407-0.633,0.768-1.299,1.062-2c0.646-1.54,1.003-3.229,1.003-5V49
		C109.5,47.231,109.143,45.546,108.5,44.008z M107.5,50v29c0,0.338-0.021,0.67-0.051,1c-0.063,0.688-0.192,1.354-0.377,2
		c-0.197,0.697-0.461,1.366-0.786,2c-0.366,0.714-0.802,1.387-1.308,2c-0.631,0.762-1.365,1.432-2.174,2
		c-1.787,1.256-3.959,2-6.306,2s-4.519-0.744-6.306-2c-0.81-0.568-1.543-1.238-2.174-2c-0.506-0.613-0.94-1.286-1.308-2
		c-0.325-0.634-0.589-1.303-0.787-2c-0.184-0.646-0.313-1.313-0.376-2c-0.029-0.33-0.051-0.662-0.051-1v-1V49
		c0-0.337,0.021-0.67,0.051-1c0.063-0.688,0.192-1.354,0.376-2c0.198-0.697,0.462-1.366,0.787-2c0.366-0.714,0.802-1.387,1.308-2
		c0.631-0.761,1.364-1.431,2.174-2c1.787-1.256,3.959-2,6.306-2s4.519,0.744,6.306,2c0.809,0.569,1.543,1.239,2.174,2
		c0.506,0.613,0.94,1.286,1.308,2c0.325,0.634,0.589,1.303,0.786,2c0.185,0.646,0.314,1.313,0.377,2c0.029,0.33,0.051,0.663,0.051,1
		V50z"/>
</g>
<rect x="23.5" y="60" fill="#EFEFEF" width="1" height="14"/>
<g>
	<g>
		<path fill="#87E4B9" d="M39.002,34.874c0,5.291-4.246,9.563-9.502,9.563c5.256,0,9.502,4.271,9.502,9.563
			c0-5.291,4.244-9.563,9.498-9.563C43.246,44.438,39.002,40.165,39.002,34.874z"/>
	</g>
</g>
<g>
	<g>
		<path fill="#87E4B9" d="M31.604,124.17c0,2.708-2.194,4.915-4.893,4.915c2.695,0,4.893,2.207,4.893,4.915
			c0-2.708,2.197-4.915,4.896-4.915C33.7,129.084,31.604,126.878,31.604,124.17z"/>
	</g>
</g>
<g>
	<g>
		<path fill="#87E4B9" d="M74.5,73c0,3.369-2.734,6-6,6c3.369,0,6,2.734,6,6c0-3.369,2.738-6,6-6C77.236,79,74.5,76.264,74.5,73z"/>
	</g>
</g>
</svg>
