<?xml version="1.0" encoding="utf-8"?>
<!-- Generator: Adobe Illustrator 16.0.0, SVG Export Plug-In . SVG Version: 6.00 Build 0)  -->
<!DOCTYPE svg PUBLIC "-//W3C//DTD SVG 1.1//EN" "http://www.w3.org/Graphics/SVG/1.1/DTD/svg11.dtd">
<svg version="1.1" id="Слой_1" xmlns="http://www.w3.org/2000/svg" xmlns:xlink="http://www.w3.org/1999/xlink" x="0px" y="0px"
	 width="120px" height="137px" viewBox="4.49 1.903 120 137" enable-background="new 4.49 1.903 120 137" xml:space="preserve">
<g>
	<circle fill="#EFEFEF" cx="64.49" cy="78.903" r="60"/>
</g>
<g>
	<g>
		<rect x="94.502" y="13.601" fill="#005A95" width="1.996" height="11.03"/>
	</g>
</g>
<g>
	<g>
		<rect x="62.503" y="13.536" fill="#005A95" width="1.996" height="11.032"/>
	</g>
</g>
<g>
	<g>
		<rect x="78.5" y="7.54" fill="#005A95" width="2" height="10.066"/>
	</g>
</g>
<g>
	<g>
		<polygon fill="#87E4B9" points="69.901,29.29 66.702,32.403 67.501,36.821 63.501,34.813 59.601,36.821 60.301,32.403 
			57.101,29.29 61.501,28.689 63.501,24.573 65.5,28.689 		"/>
	</g>
	<g>
		<polygon fill="#FFFFFF" points="68.701,29.592 66.702,32.503 66.702,36.619 64.702,35.615 62.3,35.214 62.801,32.503 
			60.801,30.596 63.501,30.195 64.702,27.685 66.702,29.592 		"/>
	</g>
	<g>
		<path fill="#005A95" d="M58.201,38.728l1-5.924L55,28.588l5.899-0.902l2.602-5.422l2.601,5.422L72,28.588l-4.3,4.216l1,5.924
			L63.4,35.916L58.201,38.728z M63.501,33.608l2.601,1.405l-0.4-2.911l2.101-2.108l-3-0.401l-1.3-2.711l-1.301,2.711l-2.899,0.401
			l2.1,2.108l-0.5,2.911L63.501,33.608z"/>
	</g>
</g>
<g>
	<g>
		<path fill="#87E4B9" d="M95.702,24.677c1.799,0,3.299,0.703,4.5,1.907c-2.302,0-4.202,1.908-4.202,4.317s1.899,4.315,4.201,4.315
			c-1.103,1.205-2.701,1.907-4.5,1.907c-3.402,0-6.201-2.81-6.201-6.224S92.299,24.677,95.702,24.677z"/>
	</g>
	<g>
		<path fill="#FFFFFF" d="M97.5,25.782c1.399,0,1.699-0.102,2.701,0.903c-1.9,0-4,2.107-4,4.016c0,1.907,2.1,5.019,4,5.019
			C99.299,36.725,99,36.022,97.5,36.022c-2.799,0-5.101-2.31-5.101-5.12C92.401,28.09,94.702,25.782,97.5,25.782z"/>
	</g>
	<g>
		<path fill="#005A95" d="M95.702,38.129c-4.002,0-7.201-3.212-7.201-7.228c0-4.017,3.199-7.229,7.201-7.229
			c2,0,3.799,0.804,5.196,2.209l1.603,1.706h-2.299c-1.802,0-3.203,1.506-3.203,3.313c0,1.807,1.502,3.313,3.203,3.313h2.299
			l-1.603,1.707C99.5,37.427,97.702,38.129,95.702,38.129z M95.702,25.681c-2.902,0-5.203,2.31-5.203,5.221s2.301,5.22,5.203,5.22
			c0.799,0,1.5-0.201,2.198-0.502c-1.698-0.904-2.899-2.71-2.899-4.718s1.201-3.916,2.899-4.718
			C97.202,25.882,96.401,25.681,95.702,25.681z"/>
	</g>
</g>
<g>
	<g>
		<path fill="#87E4B9" d="M84.789,23.693l-3.526,3.506c-1.005,1.002-2.516,1.002-3.523,0l-3.525-3.506
			c-1.009-1.001-1.009-2.504,0-3.506l3.525-3.507c1.008-1.002,2.519-1.002,3.523,0l3.526,3.507
			C85.798,21.188,85.798,22.79,84.789,23.693"/>
	</g>
	<g>
		<path fill="#FFFFFF" d="M84.084,23.192l-2.418,2.403c-0.704,0.702-1.713,0.702-2.416,0l-2.418-2.403
			c-0.706-0.701-0.706-1.703,0-2.404l2.418-2.405c0.703-0.701,1.712-0.701,2.416,0l2.418,2.405
			C84.789,21.388,84.789,22.49,84.084,23.192"/>
	</g>
	<g>
		<path fill="#005A95" d="M79.552,28.902c-0.907,0-1.812-0.3-2.519-1.002l-3.525-3.505c-0.705-0.702-1.007-1.502-1.007-2.504
			c0-0.902,0.402-1.804,1.007-2.505l3.525-3.506c1.309-1.303,3.626-1.303,4.937,0l3.523,3.506c0.707,0.701,1.007,1.502,1.007,2.505
			c0,0.9-0.403,1.803-1.007,2.504L81.97,27.9C81.366,28.602,80.458,28.902,79.552,28.902z M79.552,16.98
			c-0.403,0-0.805,0.2-1.007,0.4l-3.526,3.506c-0.301,0.301-0.402,0.602-0.402,1.002s0.202,0.802,0.402,1.003l3.526,3.506
			c0.604,0.601,1.511,0.601,2.115,0l3.525-3.506c0.301-0.302,0.403-0.603,0.403-1.003s-0.203-0.801-0.403-1.002L80.56,17.38
			C80.258,17.18,79.953,16.98,79.552,16.98z"/>
	</g>
</g>
<g>
	<g>
		<path fill="#87E4B9" d="M103.5,96.903H55.499c-2.199,0-4-1.8-4-3.999V80.902c0-2.199,1.801-4,4-4H103.5c2.2,0,4,1.801,4,4v12.002
			C107.5,95.102,105.7,96.903,103.5,96.903z"/>
	</g>
	<g>
		<path fill="#FFFFFF" d="M103.5,96.903H55.499c-2.199,0-4-1.8-4-3.999v-5c0-2.202,1.801-4.001,4-4.001H103.5c2.2,0,4,1.8,4,4.001v5
			C107.5,95.102,105.7,96.903,103.5,96.903z"/>
	</g>
	<g>
		<path fill="#005A95" d="M103.5,97.902H55.499c-2.799,0-4.999-2.197-4.999-4.999V80.902c0-2.8,2.2-5,4.999-5H103.5
			c2.801,0,5,2.199,5,5v12.002C108.5,95.704,106.301,97.902,103.5,97.902z M55.499,77.902c-1.7,0-2.999,1.301-2.999,3v12.002
			c0,1.699,1.299,3,2.999,3H103.5c1.7,0,3-1.301,3-3V80.902c0-1.699-1.3-3-3-3H55.499z"/>
	</g>
</g>
<g>
	<g>
		<rect x="102.5" y="44.402" fill="#005A95" width="2" height="48"/>
	</g>
</g>
<g>
	<g>
		<rect x="90.5" y="44.402" fill="#005A95" width="2" height="48"/>
	</g>
</g>
<g>
	<g>
		<rect x="78.5" y="44.832" fill="#005A95" width="2" height="47.138"/>
	</g>
</g>
<g>
	<g>
		<rect x="54.5" y="44.902" fill="#005A95" width="2" height="47"/>
	</g>
</g>
<g>
	<g>
		<rect x="46.333" y="43.895" fill="#005A95" width="67" height="2.014"/>
	</g>
</g>
<g>
	<rect x="47.498" y="91.667" fill="#87E4B9" width="64.001" height="7.045"/>
</g>
<g>
	<rect x="47.498" y="94.889" fill="#FFFFFF" width="64.001" height="4.025"/>
</g>
<g>
	<path fill="#005A95" d="M112.49,99.902h-66v-9h66V99.902z M48.489,97.901h62.001v-4.998H48.489V97.901z"/>
</g>
<g>
	<g>
		<rect x="40.5" y="37.402" fill="#FFFFFF" width="7" height="66"/>
		<path fill="#005A95" d="M48.5,104.402h-9v-68h9V104.402z M41.5,102.402h5v-64h-5V102.402z"/>
	</g>
</g>
<g>
	<g>
		<rect x="111.5" y="37.902" fill="#FFFFFF" width="7" height="66"/>
		<path fill="#005A95" d="M119.5,104.902h-9v-68h9V104.902z M112.5,102.902h5v-64h-5V102.902z"/>
	</g>
</g>
<g>
	<g>
		<rect x="66.5" y="44.832" fill="#005A95" width="2" height="47.138"/>
	</g>
	<g>
		<path fill="#FCFCFC" d="M116.421,102.73l-1.46,0.593c-1.372,0.597-2.815,1.225-4.273,1.754c-9.918,3.708-20.394,5.59-31.126,5.59
			s-21.209-1.882-31.135-5.594c-1.455-0.528-2.896-1.155-4.289-1.761l-1.488-0.604c-0.35-0.143-0.913-0.233-1.437-0.233
			c-1.635,0-3.163,0.741-4.183,1.987c3.393,1.756,6.935,3.314,10.792,4.748l0.105,0.046c0.421,0.213,0.928,0.379,1.418,0.54
			l0.366,0.121c9.534,3.294,19.574,4.964,29.85,4.964c10.147,0,20.167-1.628,29.785-4.84c0.537-0.264,1.116-0.453,1.628-0.621
			l0.354-0.117c3.969-1.475,7.514-3.06,10.776-4.822C120.78,102.847,118.563,101.999,116.421,102.73z"/>
		<path fill="#005A95" d="M124.456,104.355c-1.31-2.413-3.817-3.911-6.545-3.911c-0.718,0-1.438,0.122-2.197,0.382l-1.538,0.624
			c-1.368,0.595-2.782,1.21-4.189,1.721c-9.698,3.626-19.935,5.465-30.423,5.465c-10.489,0-20.726-1.838-30.433-5.468
			c-1.405-0.509-2.815-1.124-4.204-1.728l-1.511-0.612c-0.588-0.24-1.411-0.384-2.201-0.384c-2.729,0-5.236,1.499-6.544,3.911
			l-0.487,0.898l0.902,0.482c3.76,2.007,7.68,3.761,11.98,5.36c0.544,0.271,1.131,0.462,1.65,0.632l0.341,0.112
			c9.741,3.366,20.004,5.073,30.506,5.073c10.391,0,20.651-1.672,30.497-4.968l0.136-0.058c0.42-0.212,0.925-0.377,1.413-0.537
			l0.399-0.133c4.49-1.667,8.432-3.464,12.052-5.493l0.483-0.271v-0.941L124.456,104.355z M111.654,110.267
			c-0.604,0.204-1.312,0.409-1.917,0.716c-9.486,3.176-19.578,4.916-30.174,4.916c-10.597,0-20.688-1.739-30.174-5.019
			c-0.604-0.204-1.312-0.41-1.918-0.717c-4.136-1.537-8.072-3.277-11.908-5.325c1.11-2.048,3.23-3.379,5.651-3.379
			c0.605,0,1.312,0.103,1.815,0.309c0.506,0.203,1.011,0.408,1.515,0.612c1.413,0.615,2.825,1.229,4.239,1.741
			c9.586,3.584,19.981,5.529,30.778,5.529s21.192-1.945,30.779-5.529c1.413-0.513,2.825-1.126,4.239-1.741
			c0.504-0.204,1.009-0.41,1.513-0.612c0.605-0.206,1.21-0.309,1.816-0.309c2.421,0,4.541,1.332,5.651,3.379
			C119.728,106.99,115.791,108.731,111.654,110.267z"/>
		<path fill="#005A95" d="M117.91,101.459c-0.606,0-1.211,0.103-1.816,0.309c-0.504,0.203-1.009,0.408-1.513,0.612
			c-1.414,0.615-2.826,1.229-4.239,1.741c-9.587,3.584-19.982,5.529-30.779,5.529s-21.192-1.945-30.778-5.529
			c-1.414-0.513-2.826-1.126-4.239-1.741c-0.504-0.204-1.009-0.41-1.515-0.612c-0.504-0.206-1.21-0.309-1.815-0.309
			c-2.421,0-4.541,1.332-5.651,3.379c3.835,2.047,7.772,3.788,11.908,5.325c0.606,0.307,1.313,0.513,1.918,0.717
			c9.486,3.278,19.578,5.019,30.174,5.019c10.597,0,20.688-1.739,30.174-4.916c0.605-0.307,1.313-0.513,1.917-0.716
			c4.138-1.536,8.074-3.277,11.909-5.428C122.451,102.791,120.332,101.459,117.91,101.459z M111.329,109.304l-0.354,0.117
			c-0.513,0.168-1.091,0.357-1.628,0.621c-9.618,3.212-19.638,4.84-29.785,4.84c-10.274,0-20.315-1.669-29.85-4.964l-0.366-0.121
			c-0.49-0.161-0.997-0.326-1.418-0.54l-0.104-0.046c-3.858-1.434-7.4-2.991-10.792-4.748c1.019-1.246,2.546-1.987,4.182-1.987
			c0.523,0,1.086,0.091,1.437,0.233l1.488,0.604c1.394,0.605,2.833,1.232,4.289,1.761c9.926,3.711,20.402,5.594,31.135,5.594
			s21.208-1.882,31.126-5.59c1.458-0.529,2.901-1.157,4.273-1.754l1.46-0.593c2.141-0.73,4.357,0.116,5.685,1.751
			C118.842,106.244,115.298,107.829,111.329,109.304z"/>
	</g>
</g>
<g>
	<g>
		<circle fill="#87E4B9" cx="44.165" cy="34.402" r="5.5"/>
	</g>
	<g>
		<circle fill="#FFFFFF" cx="45.164" cy="35.402" r="3.5"/>
	</g>
	<g>
		<path fill="#005A95" d="M44.165,40.902c-3.601,0-6.5-2.9-6.5-6.5c0-3.601,2.899-6.5,6.5-6.5c3.6,0,6.5,2.899,6.5,6.5
			C50.665,38.001,47.765,40.902,44.165,40.902z M44.165,29.903c-2.5,0-4.501,2-4.501,4.5s2.001,4.5,4.501,4.5s4.499-2,4.499-4.5
			S46.665,29.903,44.165,29.903z"/>
	</g>
</g>
<g>
	<g>
		<circle fill="#87E4B9" cx="115.166" cy="34.402" r="5.5"/>
	</g>
	<g>
		<circle fill="#FFFFFF" cx="116.166" cy="35.402" r="3.5"/>
	</g>
	<g>
		<path fill="#005A95" d="M115.166,40.902c-3.602,0-6.501-2.9-6.501-6.5s2.899-6.5,6.501-6.5c3.6,0,6.499,2.9,6.499,6.5
			S118.766,40.902,115.166,40.902z M115.166,29.903c-2.501,0-4.501,2-4.501,4.5s2,4.5,4.501,4.5c2.499,0,4.499-2,4.499-4.5
			S117.665,29.903,115.166,29.903z"/>
	</g>
</g>
<g>
	<g>
		<g>
			<path fill="#FFFFFF" d="M41.932,103.116c0,8.323-6.688,15.043-14.975,15.043c-8.287,0-14.977-6.72-14.977-15.043
				c0-8.325,6.689-12.035,14.977-12.035C35.243,91.081,41.932,94.791,41.932,103.116z"/>
		</g>
	</g>
	<g>
		<g>
			<path fill="#005A95" d="M27.063,118.944c-8.786,0-15.973-7.221-15.973-16.045c0-8.024,6.09-13.038,15.973-13.038
				s15.974,5.014,15.974,13.038C43.036,111.723,35.948,118.944,27.063,118.944z M27.063,91.866c-8.786,0-13.977,4.111-13.977,11.032
				c0,7.721,6.29,14.04,13.977,14.04c7.688,0,13.978-6.319,13.978-14.04C41.039,95.978,35.847,91.866,27.063,91.866z"/>
		</g>
	</g>
</g>
<g>
	<g>
		<g>
			<path fill="#FFFFFF" d="M16.074,105.696c-1.798,1.804-4.593,1.804-6.29,0.099c-1.696-1.704-1.598-4.513,0.101-6.317
				c1.697-1.806,11.68-11.733,11.68-11.733"/>
			<path fill="#005A95" d="M12.844,108.061C12.843,108.061,12.843,108.061,12.844,108.061c-1.428,0-2.767-0.556-3.769-1.562
				c-2.067-2.076-2.031-5.462,0.08-7.709c1.689-1.796,11.296-11.352,11.704-11.757l1.41,1.418c-0.1,0.099-9.991,9.938-11.657,11.709
				c-1.346,1.432-1.399,3.643-0.12,4.928c0.625,0.627,1.459,0.973,2.351,0.973l0,0c0.938,0,1.833-0.381,2.521-1.071l1.419,1.412
				C15.716,107.471,14.317,108.061,12.844,108.061z"/>
		</g>
	</g>
</g>
<g>
	<g>
		<g>
			<path fill="#FFFFFF" d="M38.033,105.696c1.798,1.804,4.593,1.804,6.289,0.099c1.697-1.704,1.697-4.513-0.1-6.317
				c-1.797-1.806-11.681-11.733-11.681-11.733"/>
			<path fill="#005A95" d="M41.263,108.061c-1.473,0-2.872-0.59-3.938-1.659l1.417-1.412c0.688,0.69,1.584,1.071,2.521,1.071h0.001
				c0.891,0,1.727-0.346,2.35-0.973c1.319-1.325,1.274-3.525-0.101-4.907l-11.68-11.732l1.417-1.411l11.681,11.733
				c2.149,2.159,2.194,5.627,0.1,7.729c-1.001,1.006-2.339,1.562-3.766,1.562C41.265,108.061,41.264,108.061,41.263,108.061z"/>
		</g>
	</g>
</g>
<g>
	<g>
		<g>
			<circle fill="#FFFFFF" cx="37.063" cy="73.402" r="6.5"/>
			<path fill="#005A95" d="M37.063,80.902c-4.136,0-7.5-3.364-7.5-7.5s3.364-7.5,7.5-7.5c4.137,0,7.5,3.365,7.5,7.5
				C44.563,77.537,41.198,80.902,37.063,80.902z M37.063,67.902c-3.033,0-5.5,2.467-5.5,5.5c0,3.032,2.467,5.5,5.5,5.5
				s5.5-2.467,5.5-5.5C42.563,70.369,40.095,67.902,37.063,67.902z"/>
		</g>
	</g>
</g>
<g>
	<g>
		<g>
			<circle fill="#87E4B9" cx="37.063" cy="73.402" r="2.5"/>
			<path fill="#005A95" d="M37.063,76.902c-1.93,0-3.5-1.57-3.5-3.5c0-1.931,1.57-3.5,3.5-3.5c1.931,0,3.5,1.569,3.5,3.5
				C40.563,75.331,38.992,76.902,37.063,76.902z M37.063,71.902c-0.827,0-1.5,0.673-1.5,1.5s0.673,1.5,1.5,1.5s1.5-0.673,1.5-1.5
				C38.563,72.575,37.89,71.902,37.063,71.902z"/>
		</g>
	</g>
</g>
<g>
	<g>
		<g>
			<circle fill="#FFFFFF" cx="17.063" cy="73.402" r="6.5"/>
			<path fill="#005A95" d="M17.063,80.902c-4.136,0-7.5-3.364-7.5-7.5s3.364-7.5,7.5-7.5c4.137,0,7.5,3.365,7.5,7.5
				C24.563,77.537,21.198,80.902,17.063,80.902z M17.063,67.902c-3.033,0-5.5,2.467-5.5,5.5c0,3.032,2.467,5.5,5.5,5.5
				s5.5-2.467,5.5-5.5C22.563,70.369,20.095,67.902,17.063,67.902z"/>
		</g>
	</g>
</g>
<g>
	<g>
		<g>
			<circle fill="#87E4B9" cx="17.063" cy="73.402" r="2.5"/>
			<path fill="#005A95" d="M17.063,76.902c-1.931,0-3.501-1.57-3.501-3.5c0-1.931,1.57-3.5,3.501-3.5s3.5,1.569,3.5,3.5
				C20.563,75.331,18.992,76.902,17.063,76.902z M17.063,71.902c-0.828,0-1.501,0.673-1.501,1.5s0.673,1.5,1.501,1.5
				c0.827,0,1.5-0.673,1.5-1.5C18.563,72.575,17.89,71.902,17.063,71.902z"/>
		</g>
	</g>
</g>
<g>
	<g>
		<ellipse fill="#FFFFFF" cx="27.063" cy="83.402" rx="14.5" ry="12.5"/>
		<path fill="#005A95" d="M27.063,96.902c-8.547,0-15.5-6.057-15.5-13.5c0-7.444,6.953-13.5,15.5-13.5s15.5,6.056,15.5,13.5
			C42.563,90.845,35.609,96.902,27.063,96.902z M27.063,71.902c-7.443,0-13.5,5.159-13.5,11.5s6.057,11.5,13.5,11.5
			c7.444,0,13.5-5.159,13.5-11.5S34.506,71.902,27.063,71.902z"/>
	</g>
</g>
<g>
	<g>
		<path fill="#005A95" d="M27.063,87.895c-3.29,0-5.5-1.206-5.5-3s2.21-3,5.5-3s5.5,1.206,5.5,3S30.353,87.895,27.063,87.895z
			 M27.063,83.895c-2.415,0-3.5,0.795-3.5,1s1.085,1,3.5,1s3.5-0.795,3.5-1S29.478,83.895,27.063,83.895z"/>
	</g>
</g>
<g>
	<g>
		<ellipse fill="#87E4B9" cx="27.062" cy="104.902" rx="6.5" ry="5"/>
	</g>
</g>
<g>
	<path fill="#005A95" d="M38.563,109.402c-0.552,0-1-0.448-1-1c0-2.926-1.005-5.715-2.829-7.853c-0.357-0.42-0.309-1.051,0.111-1.41
		c0.42-0.358,1.052-0.309,1.41,0.111c2.133,2.499,3.308,5.749,3.308,9.151C39.563,108.953,39.115,109.402,38.563,109.402z"/>
</g>
<g>
	<path fill="#005A95" d="M15.563,109.402c-0.552,0-1-0.448-1-1c0-3.401,1.174-6.65,3.308-9.149c0.357-0.42,0.988-0.47,1.409-0.11
		c0.421,0.358,0.471,0.989,0.111,1.409c-1.824,2.138-2.829,4.926-2.829,7.852C16.563,108.953,16.115,109.402,15.563,109.402z"/>
</g>
<g>
	<g>
		<g>
			<g>
				<path fill="#FFFFFF" d="M17.074,106.325c2.396,2.406,4.99,9.025,2.595,11.433c-2.396,2.407-8.985-0.199-11.381-2.607
					c-2.396-2.406-2.396-6.318,0.1-8.725C10.784,104.018,14.677,103.917,17.074,106.325z"/>
			</g>
		</g>
		<g>
			<g>
				<path fill="#005A95" d="M16.251,119.763c-0.898,0-1.997-0.198-3.094-0.501c-2.396-0.7-4.792-2.005-6.091-3.409
					c-1.298-1.304-2.097-3.108-2.097-5.113c0-1.907,0.799-3.712,2.097-5.116c1.297-1.403,3.194-2.105,5.092-2.105
					c1.896,0,3.693,0.702,5.091,2.105l0,0l0,0c1.396,1.404,2.694,3.813,3.395,6.118c0.898,3.01,0.6,5.314-0.799,6.72
					C19.046,119.364,17.749,119.763,16.251,119.763z M12.258,105.622L12.258,105.622c-1.398,0-2.696,0.603-3.694,1.604
					c-0.999,1.003-1.498,2.308-1.598,3.711c0,1.404,0.5,2.708,1.498,3.61c1.097,1.104,3.194,2.308,5.291,2.81
					c2.196,0.601,3.894,0.501,4.691-0.303c0.799-0.802,0.898-2.606,0.3-4.713c-0.6-2.007-1.697-4.112-2.795-5.315l0,0
					C14.854,106.124,13.656,105.622,12.258,105.622z"/>
			</g>
		</g>
	</g>
	<g>
		<g>
			<g>
				<line fill="none" x1="9.786" y1="107.828" x2="8.388" y2="106.426"/>
			</g>
		</g>
		<g>
			<g>
				<path fill="#005A95" d="M9.786,108.831c-0.3,0-0.5-0.1-0.699-0.3l-1.398-1.403c-0.398-0.401-0.398-1.004,0-1.405
					c0.399-0.4,0.998-0.4,1.398,0l1.396,1.405c0.399,0.4,0.399,1.002,0,1.403C10.285,108.732,9.985,108.831,9.786,108.831z"/>
			</g>
		</g>
	</g>
	<g>
		<g>
			<g>
				<line fill="none" x1="13.28" y1="106.726" x2="13.28" y2="104.72"/>
			</g>
		</g>
		<g>
			<g>
				<path fill="#005A95" d="M13.28,107.729c-0.599,0-0.999-0.401-0.999-1.003v-2.007c0-0.602,0.399-1.003,0.999-1.003
					s0.998,0.401,0.998,1.003v2.007C14.278,107.327,13.878,107.729,13.28,107.729z"/>
			</g>
		</g>
	</g>
	<g>
		<g>
			<g>
				<line fill="none" x1="8.687" y1="111.44" x2="6.69" y2="111.44"/>
			</g>
		</g>
		<g>
			<g>
				<path fill="#005A95" d="M8.687,112.444H6.69c-0.599,0-0.998-0.401-0.998-1.004c0-0.604,0.399-1.003,0.998-1.003h1.997
					c0.6,0,0.998,0.399,0.998,1.003C9.685,112.042,9.186,112.444,8.687,112.444z"/>
			</g>
		</g>
	</g>
</g>
<g>
	<g>
		<g>
			<g>
				<path fill="#FFFFFF" d="M37.04,106.325c-2.396,2.406-4.992,9.025-2.597,11.433c2.396,2.407,8.985-0.199,11.382-2.607
					c2.396-2.406,2.396-6.318-0.101-8.725C43.329,104.018,39.436,103.917,37.04,106.325z"/>
			</g>
		</g>
		<g>
			<g>
				<path fill="#005A95" d="M37.339,119.763c-1.497,0-2.696-0.398-3.594-1.303c-2.995-3.01,0-10.229,2.596-12.838
					c1.297-1.303,3.094-2.005,5.091-2.105c1.896,0,3.694,0.804,5.091,2.105c2.795,2.809,2.795,7.422,0.101,10.13
					c-1.398,1.404-3.794,2.708-6.09,3.409C39.236,119.564,38.238,119.763,37.339,119.763z M41.333,105.622
					c-1.398,0-2.596,0.502-3.595,1.506l0,0c-2.296,2.307-4.393,8.123-2.596,10.028c0.799,0.802,2.596,0.902,4.692,0.301
					c1.997-0.602,4.094-1.705,5.292-2.809c1.997-2.006,1.997-5.316-0.101-7.321C44.028,106.124,42.73,105.622,41.333,105.622
					L41.333,105.622z M37.04,106.325L37.04,106.325L37.04,106.325z"/>
			</g>
		</g>
	</g>
	<g>
		<g>
			<g>
				<line fill="none" x1="44.328" y1="107.828" x2="45.726" y2="106.426"/>
			</g>
		</g>
		<g>
			<g>
				<path fill="#005A95" d="M44.328,108.831c-0.301,0-0.499-0.1-0.699-0.3c-0.399-0.401-0.399-1.003,0-1.403l1.396-1.405
					c0.399-0.4,0.998-0.4,1.397,0c0.399,0.401,0.399,1.004,0,1.405l-1.397,1.403C44.827,108.732,44.627,108.831,44.328,108.831z"/>
			</g>
		</g>
	</g>
	<g>
		<g>
			<g>
				<line fill="none" x1="40.833" y1="106.726" x2="40.833" y2="104.72"/>
			</g>
		</g>
		<g>
			<g>
				<path fill="#005A95" d="M40.833,107.729c-0.6,0-0.999-0.401-0.999-1.003v-2.007c0-0.602,0.398-1.003,0.999-1.003
					c0.6,0,0.998,0.401,0.998,1.003v2.007C41.832,107.327,41.333,107.729,40.833,107.729z"/>
			</g>
		</g>
	</g>
	<g>
		<g>
			<g>
				<line fill="none" x1="45.426" y1="111.44" x2="47.422" y2="111.44"/>
			</g>
		</g>
		<g>
			<g>
				<path fill="#005A95" d="M47.422,112.444h-1.997c-0.599,0-0.998-0.401-0.998-1.004c0-0.604,0.399-1.003,0.998-1.003h1.997
					c0.599,0,0.999,0.399,0.999,1.003C48.421,112.042,48.021,112.444,47.422,112.444z"/>
			</g>
		</g>
	</g>
</g>
<g>
	<g>
		<circle fill="#87E4B9" cx="13.625" cy="112.402" r="2.5"/>
	</g>
</g>
<g>
	<g>
		<ellipse fill="#87E4B9" cx="40.125" cy="112.401" rx="2.5" ry="2.517"/>
	</g>
</g>
<g>
	<g>
		<path fill="#87E4B9" d="M30.5,48.902c0,3.369-2.736,6-6,6c3.368,0,6,2.735,6,6c0-3.369,2.737-6,6-6
			C33.237,54.902,30.5,52.164,30.5,48.902z"/>
	</g>
</g>
<g>
	<g>
		<path fill="#87E4B9" d="M81.488,32.214c0,2.708-2.194,4.915-4.892,4.915c2.696,0,4.892,2.207,4.892,4.915
			c0-2.708,2.197-4.915,4.893-4.915C83.583,37.128,81.488,34.922,81.488,32.214z"/>
	</g>
</g>
<g>
	<g>
		<path fill="#87E4B9" d="M71.001,51.328c0,5.291-4.246,9.563-9.501,9.563c5.255,0,9.501,4.271,9.501,9.563
			c0-5.291,4.245-9.563,9.499-9.563C75.246,60.891,71.001,56.618,71.001,51.328z"/>
	</g>
</g>
<g>
	<path fill="#005A95" d="M25.054,91.902c-1.048,0-2.035-0.56-2.574-1.458c-0.284-0.475-0.131-1.088,0.343-1.372
		c0.475-0.284,1.089-0.131,1.372,0.343c0.184,0.305,0.505,0.487,0.859,0.487c0.551,0,1-0.449,1-1v-2c0-0.552,0.448-1,1-1
		s1,0.448,1,1v2C28.054,90.556,26.708,91.902,25.054,91.902z"/>
</g>
<g>
	<path fill="#005A95" d="M29.054,91.902c-1.654,0-3-1.347-3-3v-2c0-0.552,0.448-1,1-1s1,0.448,1,1v2c0,0.551,0.449,1,1,1
		c0.356,0,0.689-0.192,0.868-0.501c0.277-0.479,0.887-0.641,1.367-0.364c0.478,0.277,0.641,0.889,0.363,1.367
		C31.117,91.327,30.122,91.902,29.054,91.902z"/>
</g>
<g>
	<g>
		<path fill="#87E4B9" d="M99.587,9.992c1.212,0.999,1.313,2.896,0.201,4.093c-1.01,0.999-2.625,1.1-3.737,0.2
			c-4.649-3.793-10.407-5.89-16.469-5.89c-6.063,0-11.825,2.096-16.473,5.89c-1.111,0.899-2.728,0.799-3.738-0.2
			c-0.505-0.499-0.809-1.198-0.809-1.997c0-0.798,0.304-1.597,1.012-2.097C65.231,5.4,72.203,2.904,79.681,2.904
			C86.956,2.804,93.93,5.401,99.587,9.992z"/>
	</g>
	<g>
		<g>
			<path fill="#FFFFFF" d="M97.967,11.518c1.11,0.911,1.211,2.735,0.203,3.749c-1.516,0.101-2.423-1.014-3.433-1.926
				c-4.236-3.547-9.586-5.472-15.136-5.472c-5.552,0-10.899,1.925-15.14,5.472c-1.008,0.812-1.21,1.926-3.43,1.926
				c-0.506-0.508-0.707-1.114-0.707-1.824c0-0.708,0.302-1.418,0.907-1.925c5.146-4.256,11.604-6.585,18.368-6.585
				C86.362,4.83,92.822,7.161,97.967,11.518z"/>
		</g>
	</g>
	<g>
		<path fill="#005A95" d="M97.8,15.902c-0.865,0-1.709-0.298-2.378-0.838c-4.545-3.708-10.021-5.667-15.84-5.667
			c-5.823,0-11.3,1.959-15.839,5.665c-1.465,1.181-3.74,1.055-5.075-0.264c-0.713-0.705-1.105-1.667-1.105-2.708
			c0-1.208,0.523-2.271,1.436-2.914c5.839-4.742,13.01-7.271,20.684-7.271l0.404-0.003c7.171,0,14.321,2.598,20.132,7.313
			c0.784,0.646,1.27,1.605,1.338,2.639c0.071,1.067-0.306,2.13-1.034,2.914C99.772,15.509,98.816,15.902,97.8,15.902z M79.582,7.395
			c6.285,0,12.198,2.113,17.102,6.114c0.685,0.554,1.764,0.494,2.4-0.135c0.326-0.352,0.509-0.869,0.475-1.389
			c-0.033-0.491-0.249-0.925-0.607-1.222C93.5,6.34,86.799,3.903,80.085,3.903l-0.391,0.002c-7.224,0-13.958,2.374-19.489,6.864
			c-0.565,0.4-0.643,0.997-0.643,1.319c0,0.503,0.183,0.959,0.512,1.285c0.637,0.628,1.714,0.693,2.406,0.133
			C67.308,9.567,73.383,7.395,79.582,7.395z"/>
	</g>
</g>
<g>
	<rect x="59.563" y="77.902" fill="#FFFFFF" width="4" height="13"/>
</g>
<g>
	<rect x="71.563" y="77.902" fill="#FFFFFF" width="4" height="13"/>
</g>
<g>
	<rect x="83.563" y="77.902" fill="#FFFFFF" width="4" height="13"/>
</g>
<g>
	<rect x="95.563" y="77.902" fill="#FFFFFF" width="4" height="13"/>
</g>
<circle fill="#005A95" cx="31.5" cy="79.902" r="1"/>
<circle fill="#005A95" cx="22.5" cy="79.902" r="1"/>
</svg>
