<?xml version="1.0" encoding="utf-8"?>
<!-- Generator: Adobe Illustrator 16.0.0, SVG Export Plug-In . SVG Version: 6.00 Build 0)  -->
<!DOCTYPE svg PUBLIC "-//W3C//DTD SVG 1.1//EN" "http://www.w3.org/Graphics/SVG/1.1/DTD/svg11.dtd">
<svg version="1.1" id="Слой_1" xmlns="http://www.w3.org/2000/svg" xmlns:xlink="http://www.w3.org/1999/xlink" x="0px" y="0px"
	 width="120px" height="137px" viewBox="-1.5 5 120 137" enable-background="new -1.5 5 120 137" xml:space="preserve">
<g>
	<g>
		<g>
			<g>
				<circle fill="#EFEFEF" cx="58.5" cy="82" r="60"/>
			</g>
		</g>
	</g>
	<g>
		<g>
			<g>
				<g>
					<polygon fill="#FFFFFF" points="13.5,130 20.5,103 97.5,103 104.5,130 					"/>
				</g>
			</g>
			<g>
				<g>
					<path fill="#87E4B9" d="M97.763,126H20.237l4.471-19h68.584L97.763,126z M22.763,124h72.475l-3.529-15H26.292L22.763,124z"/>
				</g>
			</g>
			<g>
				<g>
					<path fill="#005A95" d="M105.791,131H12.208l7.519-29h78.546L105.791,131z M14.791,129h88.416l-6.48-25H21.273L14.791,129z"/>
				</g>
			</g>
		</g>
	</g>
	<g>
		<g>
			<g>
				<g>
					<path fill="#87E4B9" d="M58.5,97c-22.1,0-40-17.092-40-39.216v-9.555C18.5,26.001,36.5,8,58.5,8s40,18.104,40,40.229v9.555
						C98.5,80.008,80.6,97,58.5,97z"/>
				</g>
			</g>
			<g>
				<g>
					<path fill="#FFFFFF" d="M59.5,96c-22.1,0-41-13.092-41-35.216v-9.555C18.5,29.001,36.5,11,58.5,11s40,18.104,40,40.229v9.555
						C98.5,83.008,81.6,96,59.5,96z"/>
				</g>
			</g>
			<g>
				<g>
					<path fill="#005A95" d="M58.5,98.006c-22.994,0-41.006-17.668-41.006-40.223v-9.555c0-22.737,18.396-41.234,41.006-41.234
						c22.609,0,41.006,18.498,41.006,41.234v9.555C99.506,80.338,81.494,98.006,58.5,98.006z M58.5,9.005
						c-21.502,0-38.994,17.596-38.994,39.224v9.555c0,21.428,17.128,38.211,38.994,38.211c21.865,0,38.994-16.783,38.994-38.211
						v-9.555C97.494,26.603,80.002,9.005,58.5,9.005z"/>
				</g>
			</g>
		</g>
	</g>
	<g>
		<path fill="#87E4B9" d="M71.5,59h-26c-6.628,0-12,2.238-12,5c0,2.763,5.372,5,12,5h26c6.629,0,12-2.237,12-5
			C83.5,61.238,78.127,59,71.5,59z"/>
		<path fill="#FFFFFF" d="M71.5,69.5h-26C38.491,69.5,33,67.084,33,64s5.491-5.5,12.5-5.5h26c7.01,0,12.5,2.416,12.5,5.5
			S78.51,69.5,71.5,69.5z M45.5,59.5C38.621,59.5,34,61.827,34,64s4.621,4.5,11.5,4.5h26c6.879,0,11.5-2.327,11.5-4.5
			s-4.621-4.5-11.5-4.5H45.5z"/>
	</g>
	<g>
		<g>
			<path fill="#005A95" d="M45.5,70c-7.411,0-13-2.58-13-6s5.589-6,13-6c0.553,0,1,0.447,1,1c0,0.554-0.447,1-1,1
				c-6.296,0-11,2.111-11,4c0,1.89,4.704,4,11,4c0.553,0,1,0.447,1,1C46.5,69.554,46.052,70,45.5,70z"/>
		</g>
	</g>
	<g>
		<g>
			<path fill="#005A95" d="M71.5,70c-0.553,0-1-0.446-1-1c0-0.553,0.447-1,1-1c6.297,0,11-2.11,11-4c0-1.889-4.703-4-11-4
				c-0.553,0-1-0.446-1-1c0-0.553,0.447-1,1-1c7.41,0,13,2.58,13,6S78.91,70,71.5,70z"/>
		</g>
	</g>
	<g>
		<g>
			<path fill="#FFFFFF" d="M19.5,97c-2.5,0-4-1.279-4-3.656V65h86v28.344c0,2.377-1.5,3.656-4,3.656h-76H19.5L19.5,97z"/>
		</g>
	</g>
	<g>
		<g>
			<g>
				<g>
					<g>
						<path fill="#87E4B9" d="M95,76c-6.854,0-12.5-5.646-12.5-12.5C82.5,56.646,88.146,51,95,51c6.855,0,12.5,5.646,12.5,12.5
							C107.5,70.354,101.855,76,95,76z"/>
					</g>
				</g>
				<g>
					<g>
						<path fill="#FFFFFF" d="M96.5,76c-6.031,0-11-4.967-11-11c0-6.032,4.969-11,11-11c6.033,0,11,4.969,11,11S102.533,76,96.5,76z
							"/>
					</g>
				</g>
			</g>
		</g>
		<g>
			<g>
				<g>
					<g>
						<path fill="#FFFFFF" d="M95,70c-3.564,0-6.5-2.936-6.5-6.5c0-3.563,2.936-6.5,6.5-6.5s6.5,2.937,6.5,6.5
							C101.5,67.064,98.564,70,95,70z"/>
					</g>
				</g>
				<g>
					<g>
						<path fill="#005A95" d="M95,71c-4.137,0-7.5-3.364-7.5-7.5S90.863,56,95,56s7.5,3.364,7.5,7.5S99.135,71,95,71z M95,58
							c-3.031,0-5.5,2.467-5.5,5.5S91.969,69,95,69s5.5-2.467,5.5-5.5S98.031,58,95,58z"/>
					</g>
				</g>
			</g>
		</g>
		<g>
			<g>
				<g>
					<g>
						<path fill="#87E4B9" d="M22,76c-6.854,0-12.5-5.646-12.5-12.5C9.5,56.646,15.146,51,22,51c6.855,0,12.5,5.646,12.5,12.5
							C34.5,70.354,28.855,76,22,76z"/>
					</g>
				</g>
				<g>
					<g>
						<path fill="#FFFFFF" d="M23.5,76c-6.032,0-11-4.967-11-11s4.968-11,11-11c6.033,0,11,4.968,11,11
							C34.5,71.033,29.533,76,23.5,76z"/>
					</g>
				</g>
			</g>
		</g>
		<g>
			<g>
				<g>
					<g>
						<path fill="#FFFFFF" d="M22,70c-3.564,0-6.5-2.936-6.5-6.5c0-3.563,2.936-6.5,6.5-6.5s6.5,2.937,6.5,6.5
							C28.5,67.064,25.564,70,22,70z"/>
					</g>
				</g>
				<g>
					<g>
						<path fill="#005A95" d="M22,71c-4.136,0-7.5-3.364-7.5-7.5S17.864,56,22,56s7.5,3.364,7.5,7.5S26.135,71,22,71z M22,58
							c-3.032,0-5.5,2.467-5.5,5.5S18.968,69,22,69s5.5-2.467,5.5-5.5S25.032,58,22,58z"/>
					</g>
				</g>
			</g>
		</g>
	</g>
	<g>
		<g>
			<g>
				<path fill="#FFFFFF" d="M29.5,118c-1.842,0-3.5,1.156-3.5,3c0,1.842,1.615,3,3.457,3H46.08l-9.58-6H29.5z"/>
			</g>
		</g>
		<g>
			<g>
				<path fill="#87E4B9" d="M32.637,118c-1.651,0-3.138,1.156-3.138,3c0,1.842,1.448,3,3.099,3H47.5l-8.588-6H32.637z"/>
			</g>
		</g>
		<g>
			<g>
				<path fill="#FFFFFF" d="M36.637,118c-1.651,0-3.138,1.156-3.138,3c0,1.842,1.448,3,3.099,3H51.5l-8.588-6H36.637z"/>
			</g>
		</g>
		<g>
			<g>
				<path fill="#005A95" d="M49.56,125H29.457c-2.541,0-4.457-1.719-4.457-4c0-2.279,1.935-4,4.5-4h7.287L49.56,125z M29.5,119
					c-1.242,0-2.5,0.688-2.5,2s1.236,2,2.457,2H42.6l-6.387-4H29.5z"/>
			</g>
		</g>
	</g>
	<g>
		<g>
			<g>
				<path fill="#FFFFFF" d="M69.5,118l1-5l-9-7v16c0,1.221,0.781,2,2,2h4.742h3.811c1.703,0,2.797-1.857,1.939-3.324
					C72.98,118.928,71.605,118.264,69.5,118z"/>
			</g>
		</g>
		<g>
			<g>
				<path fill="#005A95" d="M72.053,125H63.5c-1.768,0-3-1.232-3-3v-18.045l11.102,8.635l-0.92,4.6
					c1.957,0.439,3.236,1.363,4.178,2.984c0.578,0.992,0.58,2.188,0,3.195C74.273,124.391,73.223,125,72.053,125z M62.5,108.045V122
					c0,0.664,0.338,1,1,1h8.553c0.445,0,0.848-0.234,1.072-0.627c0.104-0.182,0.314-0.662,0.006-1.193
					c-0.783-1.35-1.803-1.938-3.754-2.188l-1.068-0.135l1.09-5.447L62.5,108.045z"/>
			</g>
		</g>
	</g>
	<g>
		<g>
			<path fill="#FFFFFF" d="M84.27,79.664h-2.203c-1.76,0-3.447-0.705-4.693-1.953l-2.756-2.758C73.369,73.707,71.26,73,69.5,73h-7
				c-1.76,0-3.814,0.707-5.061,1.953l-0.264,0.264L57.498,93c0,0-13.316,7.877-17.277,10.537c-0.249,0.15-0.486,0.334-0.721,0.498
				c-3.186,2.369-5.083,6.373-4.323,10.807c0.777,4.561,4.516,8.258,9.073,8.992c5.445,0.873,10.306-2.219,12.134-6.857
				c0.441-1.105,1.469-1.871,2.675-1.871h4.751c0.719,0,1.469-0.064,2.229-0.223c4.392-0.887,7.926-4.502,8.687-8.922
				c0.762-4.406-1.082-8.59-4.228-10.961v-4h7c2.438,0,5.065-1.982,6.328-4.076l2.354-3.92C87.068,81.547,86,79.664,84.27,79.664z"
				/>
		</g>
	</g>
	<g>
		<g>
			<path fill="#FFFFFF" d="M57.383,74.996l-5.194,5.195c-1.08,1.078-1.689,2.549-1.689,4.072v1.801c0,3.217,2.175,6.166,5.333,6.775
				C60.084,93.658,64.5,90.1,64.5,86V73l-2.324,0.016C60.392,73.016,58.658,73.723,57.383,74.996z"/>
		</g>
	</g>
	<g>
		<g>
			<g>
				<g>
					<path fill="#87E4B9" d="M84.27,79.664h-2.203c-1.76,0-3.447-0.705-4.693-1.953l-2.756-2.758c0,0,0,0-0.018-0.014
						c1.539,1.898,2.494,4.295,2.494,6.928c0,3.645-1.895,7.109-4.596,9.133h5c2.439,0,5.066-1.969,6.328-4.063l2.354-3.922
						C87.068,81.547,86,79.664,84.27,79.664z"/>
				</g>
			</g>
			<g>
				<g>
					<path fill="#FFFFFF" d="M82.5,83l-1.434-1.219c-1.76,0-3.449-0.574-4.695-1.588L76.5,80c0,0,0.016,1.012,0,1
						c1.537,1.545-0.406,0.432-0.406,2.574c0,2.963-1.893,5.781-4.594,7.426h5c2.438,0,5.064-1.602,6.326-3.303L84.5,86
						C85.387,84.805,84.23,83,82.5,83z"/>
				</g>
			</g>
			<g>
				<g>
					<path fill="#005A95" d="M77.5,92h-8.004l2.404-1.801c2.586-1.938,4.191-5.129,4.191-8.332c0-2.287-0.783-4.465-2.271-6.297
						l1.459-1.361l2.796,2.795c1.057,1.055,2.51,1.66,3.989,1.66h2.201c1.182,0,2.233,0.613,2.813,1.643
						c0.575,1.021,0.562,2.23-0.045,3.23l-2.353,3.918C83.322,89.713,80.418,92,77.5,92z M75.021,90H77.5
						c2.074,0,4.41-1.818,5.471-3.578l2.354-3.92c0.327-0.541,0.12-1.029,0.018-1.213c-0.221-0.393-0.62-0.625-1.069-0.625H82.07
						c-1.504,0-2.988-0.459-4.238-1.291c0.178,0.813,0.266,1.646,0.266,2.494C78.094,84.813,76.955,87.752,75.021,90z"/>
				</g>
			</g>
		</g>
		<g>
			<g>
				<path fill="#FFFFFF" d="M56.5,124h-9.852c0-3.67,2.977-6.65,6.648-6.65c2.506,0,4.067,0.605,5.202,2.65
					C59.305,121.441,58.146,124,56.5,124z"/>
			</g>
		</g>
	</g>
	<g>
		<g>
			<path fill="#FFFFFF" d="M50.5,106c3,1,6,3.385,6,7c0,1.73,0.232,3.256-0.475,4.709c0.111-0.234,0.25-0.455,0.346-0.705
				C56.814,115.895,58.295,115,59.5,115h2c0.141-0.721,0-1.236,0-2c0-4.322-2.424-8.105-6.001-9.959"/>
		</g>
	</g>
	<g>
		<g>
			<path fill="#FFFFFF" stroke="#000000" stroke-width="2" stroke-linecap="round" stroke-miterlimit="10" d="M52.673,104.049"/>
		</g>
	</g>
	<g>
		<g>
			<path fill="#FFFFFF" d="M84.27,79.664h-2.203c-0.082,0-0.15-0.014-0.232-0.027c-0.191,0.402-0.309,0.859-0.309,1.33
				c0,1.732,1.398,3.117,3.119,3.117c0.344,0,0.664-0.068,0.969-0.166l0.539-0.914C87.068,81.547,86,79.664,84.27,79.664z"/>
		</g>
	</g>
	<g>
		<g>
			<path fill="#005A95" d="M84.645,85.084c-2.271,0-4.119-1.846-4.119-4.117c0-0.604,0.143-1.213,0.404-1.764l0.328-0.684
				l0.748,0.133l2.264,0.012c1.174,0,2.254,0.637,2.818,1.658c0.566,1.023,0.531,2.225-0.09,3.215l-0.719,1.217l-0.361,0.115
				C85.469,85.014,85.053,85.084,84.645,85.084z M82.549,80.664c-0.016,0.102-0.023,0.203-0.023,0.303
				c0,1.168,0.951,2.117,2.119,2.117c0.104,0,0.205-0.01,0.316-0.029l0.332-0.559c0.342-0.547,0.145-1.025,0.045-1.205
				c-0.217-0.393-0.615-0.627-1.068-0.627H82.549z"/>
		</g>
	</g>
	<g>
		<circle fill="#87E4B9" cx="59.5" cy="113" r="3"/>
	</g>
	<g>
		<g>
			<path fill="#005A95" d="M56.924,118.146l-1.8-0.869c0.004-0.01,0.008-0.018,0.012-0.025c0.445-0.934,0.417-1.982,0.384-3.195
				c-0.01-0.344-0.021-0.695-0.021-1.057c0-3.154-2.745-5.193-5.315-6.051c-0.523-0.176-0.807-0.74-0.632-1.266
				c0.175-0.523,0.735-0.809,1.265-0.633c3.231,1.076,6.684,3.729,6.684,7.949c0,0.34,0.01,0.674,0.02,1
				c0.004,0.168,0.01,0.336,0.012,0.504c0.623-0.316,1.311-0.504,1.971-0.504h1.049c-0.004-0.064-0.008-0.131-0.014-0.201
				c-0.02-0.248-0.035-0.508-0.035-0.799c0-3.855-2.094-7.328-5.462-9.072c-0.49-0.254-0.682-0.855-0.428-1.348
				c0.252-0.488,0.854-0.688,1.347-0.432c4.035,2.094,6.543,6.244,6.543,10.852c0,0.234,0.016,0.451,0.029,0.65
				c0.033,0.459,0.066,0.939-0.049,1.535L62.326,116H59.5c-0.832,0-1.924,0.68-2.199,1.373c-0.072,0.186-0.166,0.369-0.262,0.551
				l-0.111,0.217C56.926,118.143,56.926,118.145,56.924,118.146z"/>
		</g>
	</g>
	<g>
		<g>
			<g>
				<g>
					<rect x="24.5" y="97" fill="#FFFFFF" width="6" height="6"/>
				</g>
			</g>
			<g>
				<g>
					<path fill="#005A95" d="M31.5,104h-8v-8h8V104z M25.5,102h4v-4h-4V102L25.5,102z"/>
				</g>
			</g>
		</g>
		<g>
			<g>
				<g>
					<path fill="#FFFFFF" d="M30.5,103c0,1.104-1.343,2-3,2s-3-0.896-3-2"/>
				</g>
			</g>
			<g>
				<g>
					<path fill="#005A95" d="M27.5,106c-2.243,0-4-1.316-4-3c0-0.553,0.447-1,1-1s1,0.447,1,1c0,0.408,0.779,1,2,1s2-0.592,2-1
						c0-0.553,0.447-1,1-1s1,0.447,1,1C31.5,104.682,29.743,106,27.5,106z"/>
				</g>
			</g>
		</g>
		<g>
			<g>
				<g>
					<rect x="25.5" y="101" fill="#FFFFFF" width="4" height="2"/>
				</g>
			</g>
		</g>
	</g>
	<g>
		<g>
			<g>
				<g>
					<rect x="87.5" y="97" fill="#FFFFFF" width="6" height="6"/>
				</g>
			</g>
			<g>
				<g>
					<path fill="#005A95" d="M94.5,104h-8v-8h8V104z M88.5,102h4v-4h-4V102z"/>
				</g>
			</g>
		</g>
		<g>
			<g>
				<g>
					<path fill="#FFFFFF" d="M93.5,103c0,1.104-1.344,2-3,2s-3-0.896-3-2"/>
				</g>
			</g>
			<g>
				<g>
					<path fill="#005A95" d="M90.5,106c-2.242,0-4-1.316-4-3c0-0.553,0.447-1,1-1s1,0.447,1,1c0,0.408,0.779,1,2,1s2-0.592,2-1
						c0-0.553,0.447-1,1-1s1,0.447,1,1C94.5,104.682,92.742,106,90.5,106z"/>
				</g>
			</g>
		</g>
		<g>
			<g>
				<g>
					<rect x="88.5" y="101" fill="#FFFFFF" width="4" height="2"/>
				</g>
			</g>
		</g>
	</g>
	<g>
		<g>
			<g>
				<circle fill="#FFFFFF" cx="71.5" cy="81" r="1"/>
			</g>
		</g>
		<g>
			<g>
				<circle fill="#005A95" cx="71.5" cy="81" r="2"/>
			</g>
		</g>
	</g>
	<g>
		<g>
			<g>
				<path fill="#FFFFFF" d="M89.656,13.708c-2.414-2.229-5.551-3.457-8.838-3.457c-7.186,0-13.027,5.845-13.027,13.027
					c0,4.806,2.063,8.313,6.684,11.376c2.527,1.672,6.77,5.202,6.77,10.037c0,5.018-3.459,9.229-8.113,10.41
					c0.043-1.408-0.096-3.136-0.666-5.109c-1.557-5.395-7.174-10.176-10.512-13.958c-2.279-2.587-3.564-7.089-4.148-9.677
					c2.305-1.493,3.835-4.075,3.835-7.024c0-0.083-0.011-0.164-0.013-0.246c-0.015-1.011-0.116-1.738-0.504-2.66l0.983-1.361
					c1.931-2.271,2.058-6.135-0.215-8.063l-0.201,0.25l-4.048,4.938c-0.051-0.029-0.107-0.058-0.16-0.085
					c-1.074-0.63-2.298-1.024-3.608-1.12c-0.188-0.019-0.375-0.026-0.561-0.028c-0.017,0-0.035-0.003-0.054-0.003l0,0l0,0l0,0
					c-0.001,0-0.001,0-0.001,0c-0.001,0-0.003,0-0.005,0c-0.001,0-0.003,0-0.004,0c-0.003,0-0.007,0-0.01,0
					c-0.254,0-0.502,0.017-0.751,0.038c-0.047,0.005-0.095,0.008-0.142,0.012c-0.237,0.026-0.471,0.063-0.703,0.107
					c-0.058,0.011-0.114,0.023-0.172,0.037c-0.226,0.049-0.45,0.104-0.669,0.172c-0.049,0.014-0.095,0.032-0.142,0.048
					c-0.182,0.059-0.359,0.125-0.535,0.195c-0.064,0.026-0.129,0.051-0.193,0.079c-0.156,0.067-0.313,0.142-0.464,0.218L45.504,7
					c-2.271,1.93-2.548,5.333-0.619,7.604l0.82,1.095c-0.051,0.107-0.099,0.216-0.146,0.326c-0.009,0.021-0.02,0.042-0.029,0.063
					c-0.094,0.223-0.174,0.45-0.248,0.682c-0.014,0.04-0.027,0.08-0.04,0.12c-0.067,0.227-0.128,0.457-0.178,0.69
					c-0.009,0.045-0.017,0.09-0.026,0.135c-0.045,0.238-0.084,0.479-0.11,0.723c-0.004,0.037-0.006,0.075-0.009,0.111
					c-0.024,0.256-0.039,0.513-0.04,0.773c0,0.003,0,0.006,0,0.01c0,3.472,2.109,6.448,5.117,7.721
					c0.192,1.687,0.435,4.589,0.055,6.146c-0.557,2.28-3.338,4.226-1.724,8.452c0.403,1.057,0.762,1.871,1.07,2.531
					c0.851,1.817,1.334,2.486,1.375,3.901c0.005,0.129,0.005,0.265,0.002,0.406c-0.007,0.243-0.012,0.486-0.015,0.728
					c-0.024,1.689,0.001,3.286,0.01,3.776h-1.071l0,0c-1.925,0-3.484,1.562-3.484,3.484V59l0,0h2.595h1.966h4.447
					c0,0,12.604,0,17.184,0c4.734,0,12.395-7.093,12.395-14.31c0-6.498-5.238-10.938-8.359-13.005
					c-3.613-2.395-5.09-4.831-5.09-8.408c0-5.221,4.248-9.468,9.469-9.468c2.391,0,4.672,0.893,6.426,2.512
					c0.719,0.666,1.846,0.624,2.518-0.099C90.424,15.5,90.379,14.374,89.656,13.708z"/>
			</g>
		</g>
		<g>
			<g>
				<path fill="#FFFFFF" d="M59.338,14.083c0.798,0.864,1.521,1.783,2.104,2.759l0.563-0.777c1.931-2.271,2.058-6.135-0.215-8.063
					l-0.201,0.25l-3.689,4.5C58.391,13.131,58.871,13.578,59.338,14.083z"/>
			</g>
			<g>
				<path fill="#87E4B9" d="M60.27,15.548c0.707,0.769,1.352,1.584,1.869,2.452l-0.861-1.777c1.717-2.02,3.798-3.619,1.779-5.334V10
					L59.5,14.444C59.938,14.783,59.854,15.099,60.27,15.548z"/>
			</g>
			<g>
				<path fill="#FFFFFF" d="M45.258,16.237c0.635-0.636,1.27-1.271,1.925-1.867c0.706-0.643,1.422-1.117,2.178-1.517L45.402,8
					c-2.271,1.93-2.548,5.333-0.619,7.604L45.258,16.237z"/>
			</g>
			<g>
				<path fill="#87E4B9" d="M45.5,15c0.635-0.636,0.028,0.967,0.684,0.371C46.89,14.729,46.744,14.4,47.5,14l-4-5
					C42.5,11,43.571,12.729,45.5,15L45.5,15z"/>
			</g>
			<g>
				<path fill="#87E4B9" d="M57.605,59.925c-3.826-0.366-7.655-1.141-11.493-1.753v1.826h9.007c0,0,1.15,0,2.876,0
					C57.867,59.976,57.736,59.952,57.605,59.925z"/>
			</g>
			<g>
				<path fill="#87E4B9" d="M89.555,14.708c-0.51-0.471-1.061-0.887-1.629-1.266c-2.428,0.559-0.064,2.814-0.83,3.842
					c0.014,0.013,0.029,0.024,0.045,0.038c0.719,0.666,1.844,0.624,2.514-0.099C90.32,16.5,90.275,15.374,89.555,14.708z"/>
			</g>
		</g>
		<g>
			<g>
				<path fill="#005A95" d="M72.406,60H45.214v-3.521c0-2.474,2.012-4.484,4.484-4.484h0.058c-0.007-0.738-0.011-1.747,0.004-2.791
					c0.003-0.244,0.008-0.492,0.015-0.74c0.003-0.114,0.003-0.229-0.001-0.34c-0.027-0.934-0.276-1.442-0.821-2.559
					c-0.139-0.285-0.293-0.601-0.461-0.959c-0.4-0.857-0.749-1.685-1.099-2.599c-1.299-3.402-0.046-5.642,0.869-7.276
					c0.352-0.628,0.684-1.223,0.817-1.771c0.235-0.963,0.228-2.854-0.017-5.237c-3.168-1.582-5.184-4.813-5.184-8.391
					c0.001-0.306,0.018-0.593,0.045-0.878l0.01-0.121c0.029-0.272,0.072-0.54,0.122-0.803l0.03-0.157
					c0.056-0.26,0.123-0.516,0.197-0.768l0.053-0.158c0.063-0.199,0.137-0.408,0.219-0.615l-0.47-0.628
					c-2.244-2.639-1.914-6.682,0.773-8.966l0.777-0.661l4.124,5.057C49.993,10.54,50.319,11.06,50.5,11l0,0
					c0.229-0.07,0.747,0.056,1,0l0,0c0.259-0.051,0.736,0.03,1,0l0,0c0.26-0.022-0.264,0.003,0,0h1l0,0c0.112-0.006,0.782-0.021,1,0
					c1.196,0.086,1.812-0.614,2.888-0.083l4.369-5.345l0.781,0.665c1.299,1.103,2.021,2.757,2.034,4.659
					c0.015,1.769-0.606,3.522-1.706,4.813l-0.619,0.863c0.293,0.872,0.364,1.624,0.377,2.499c0.008,0.122,0.013,0.19,0.013,0.258
					c0,2.945-1.373,5.683-3.707,7.454c0.604,2.481,1.802,6.354,3.771,8.586c0.725,0.821,1.563,1.696,2.449,2.622
					c3.277,3.414,6.988,7.283,8.271,11.72c0.387,1.338,0.615,2.686,0.688,4.02c3.664-1.462,6.129-5.018,6.129-9.042
					c0-4.369-3.959-7.642-6.314-9.203c-4.936-3.27-7.133-7.034-7.133-12.21c0-7.734,6.293-14.027,14.025-14.027
					c3.537,0,6.918,1.322,9.52,3.723c1.125,1.04,1.193,2.801,0.156,3.927c-0.525,0.567-1.271,0.894-2.045,0.894l0,0
					c-0.699,0-1.369-0.263-1.887-0.738c-1.564-1.447-3.605-2.245-5.742-2.245c-4.67,0-8.471,3.799-8.471,8.468
					c0,3.238,1.303,5.362,4.645,7.574c3.287,2.179,8.809,6.875,8.809,13.839C85.801,52.584,77.445,60,72.406,60z M47.214,58h25.192
					c4.186,0,11.395-6.577,11.395-13.31c0-6.03-4.957-10.214-7.912-12.171c-3.883-2.57-5.539-5.334-5.539-9.241
					c0-5.772,4.697-10.468,10.471-10.468c2.643,0,5.162,0.985,7.104,2.776c0.311,0.285,0.818,0.263,1.104-0.044
					c0.289-0.313,0.271-0.808-0.047-1.1c-2.229-2.06-5.129-3.192-8.16-3.192c-6.633,0-12.028,5.396-12.028,12.027
					c0,4.493,1.864,7.646,6.235,10.542c2.693,1.783,7.216,5.565,7.216,10.87c0,5.377-3.646,10.056-8.867,11.379l-1.285,0.326
					l0.039-1.325c0.05-1.579-0.162-3.194-0.627-4.802c-1.146-3.964-4.676-7.645-7.789-10.891c-0.903-0.941-1.76-1.831-2.512-2.684
					c-2.443-2.773-3.791-7.53-4.375-10.118l-0.152-0.68l0.586-0.379c2.115-1.371,3.377-3.684,3.377-6.186l-0.014-0.222
					c-0.012-0.99-0.117-1.567-0.424-2.298l-0.217-0.518l1.313-1.815c0.84-0.993,1.289-2.271,1.277-3.567
					c-0.006-0.903-0.23-1.715-0.648-2.368l-4.047,4.937l-0.855-0.487c-1.021-0.596-2.088-0.928-3.221-1.01
					c-0.181-0.018-0.339-0.024-0.496-0.025l-0.071-0.003c-0.229,0.001-0.441,0.016-0.655,0.034l-0.231-0.984L52.46,12
					c-0.21,0.023-0.416,0.056-0.622,0.096l-0.159,0.032c-0.191,0.042-0.39,0.09-0.582,0.149l-0.437-0.908l0.31,0.951
					c-0.16,0.052-0.316,0.109-0.471,0.172l-0.567-0.849l0.4,0.916c-0.138,0.061-0.276,0.125-0.41,0.192l-0.718,0.366l-3.753-4.602
					c-1.173,1.603-1.144,3.861,0.196,5.439l1.221,1.625l-0.258,0.545c-0.046,0.098-0.089,0.194-0.131,0.292
					c-0.109,0.254-0.179,0.454-0.244,0.656l-0.04,0.12c-0.054,0.181-0.107,0.386-0.151,0.593l-0.027,0.139
					c-0.035,0.187-0.07,0.399-0.094,0.617c-0.029,0.324-0.042,0.551-0.043,0.782c0,2.979,1.769,5.647,4.507,6.805l0.538,0.229
					l0.065,0.58c0.235,2.061,0.432,4.86,0.033,6.496c-0.198,0.813-0.614,1.555-1.016,2.271c-0.88,1.573-1.711,3.059-0.745,5.586
					c0.331,0.869,0.662,1.652,1.042,2.466c0.162,0.347,0.311,0.65,0.445,0.928c0.593,1.212,0.983,2.013,1.023,3.369
					c0.005,0.138,0.005,0.292,0.002,0.455c-0.007,0.244-0.012,0.482-0.015,0.72c-0.024,1.677,0.001,3.26,0.01,3.746l0.019,1.018
					h-2.09c-1.37,0-2.484,1.115-2.484,2.484V58L47.214,58z"/>
			</g>
		</g>
	</g>
	<g>
		<g>
			<g>
				<ellipse fill="#FFFFFF" cx="53.5" cy="19.5" rx="9" ry="8.5"/>
			</g>
		</g>
		<g>
			<g>
				<ellipse fill="#FFFFFF" cx="53.5" cy="24.5" rx="5" ry="3.5"/>
			</g>
		</g>
		<g>
			<g>
				<path fill="#005A95" d="M53.5,29c-5.701,0-10-4.084-10-9.5s4.263-9.5,9.917-9.5c5.748,0,10.083,4.084,10.083,9.5
					S59.201,29,53.5,29z M53.417,12c-4.587,0-7.917,3.154-7.917,7.5c0,4.276,3.439,7.5,8,7.5s8-3.224,8-7.5S58.025,12,53.417,12z"/>
			</g>
		</g>
	</g>
	<g>
		<g>
			<g>
				<circle fill="#005A95" cx="50.5" cy="18" r="1"/>
			</g>
		</g>
	</g>
	<g>
		<g>
			<g>
				<circle fill="#005A95" cx="56.5" cy="18" r="1"/>
			</g>
		</g>
	</g>
	<g>
		<g>
			<g>
				<path fill="#005A95" d="M53.499,22.5c-0.15,0-0.303-0.034-0.446-0.104l-1-0.5c-0.494-0.247-0.694-0.849-0.447-1.342
					c0.248-0.494,0.848-0.695,1.342-0.447l1,0.5c0.494,0.247,0.694,0.848,0.447,1.342C54.218,22.297,53.866,22.5,53.499,22.5z"/>
			</g>
		</g>
	</g>
	<g>
		<g>
			<g>
				<path fill="#005A95" d="M53.5,22.5c-0.367,0-0.72-0.202-0.896-0.553c-0.247-0.494-0.047-1.095,0.447-1.342l1-0.5
					c0.494-0.248,1.094-0.046,1.342,0.446c0.248,0.494,0.047,1.096-0.447,1.343l-1,0.5C53.803,22.466,53.651,22.5,53.5,22.5z"/>
			</g>
		</g>
	</g>
	<g>
		<g>
			<g>
				<path fill="#005A95" d="M53.5,24c-0.553,0-1-0.448-1-1v-1.5c0-0.552,0.447-1,1-1s1,0.448,1,1V23C54.5,23.552,54.052,24,53.5,24z
					"/>
			</g>
		</g>
	</g>
	<g>
		<g>
			<g>
				<path fill="#005A95" d="M55.5,60c-0.552,0-1-0.446-1-1V44c0-0.553,0.447-1,1-1s1,0.447,1,1v15C56.5,59.552,56.053,60,55.5,60z"
					/>
			</g>
		</g>
	</g>
	<g>
		<g>
			<g>
				<path fill="#005A95" d="M19.5,106.006h-3c-0.556,0-1.006-0.451-1.006-1.006c0-0.557,0.45-1.006,1.006-1.006h3
					c0.556,0,1.006,0.449,1.006,1.006C20.506,105.555,20.055,106.006,19.5,106.006z"/>
			</g>
		</g>
	</g>
	<g>
		<g>
			<g>
				<path fill="#005A95" d="M16.5,118.006h-3c-0.556,0-1.006-0.451-1.006-1.006c0-0.557,0.45-1.006,1.006-1.006h3
					c0.556,0,1.006,0.449,1.006,1.006C17.506,117.555,17.055,118.006,16.5,118.006z"/>
			</g>
		</g>
	</g>
	<g>
		<g>
			<g>
				<path fill="#005A95" d="M14.5,124.006h-3c-0.556,0-1.006-0.451-1.006-1.006c0-0.557,0.45-1.006,1.006-1.006h3
					c0.556,0,1.006,0.449,1.006,1.006C15.506,123.555,15.055,124.006,14.5,124.006z"/>
			</g>
		</g>
	</g>
	<g>
		<g>
			<g>
				<path fill="#005A95" d="M12.5,130.006h-3c-0.556,0-1.006-0.451-1.006-1.006c0-0.557,0.45-1.006,1.006-1.006h3
					c0.556,0,1.006,0.449,1.006,1.006C13.506,129.555,13.055,130.006,12.5,130.006z"/>
			</g>
		</g>
	</g>
	<g>
		<g>
			<g>
				<path fill="#005A95" d="M101.494,105.012h-3c-0.557,0-1.006-0.451-1.006-1.006c0-0.557,0.449-1.006,1.006-1.006h3
					c0.557,0,1.006,0.449,1.006,1.006C102.5,104.561,102.049,105.012,101.494,105.012z"/>
			</g>
		</g>
	</g>
	<g>
		<g>
			<g>
				<path fill="#005A95" d="M102.506,111.012h-3c-0.557,0-1.008-0.451-1.008-1.006c0-0.557,0.451-1.006,1.008-1.006h3
					c0.555,0,1.006,0.449,1.006,1.006C103.512,110.561,103.061,111.012,102.506,111.012z"/>
			</g>
		</g>
	</g>
	<g>
		<g>
			<g>
				<path fill="#005A95" d="M104.494,117h-3c-0.557,0-1.006-0.449-1.006-1.006s0.449-1.006,1.006-1.006h3
					c0.557,0,1.006,0.449,1.006,1.006S105.049,117,104.494,117z"/>
			</g>
		</g>
	</g>
	<g>
		<g>
			<g>
				<path fill="#005A95" d="M105.506,123h-3c-0.557,0-1.008-0.449-1.008-1.006s0.451-1.006,1.008-1.006h3
					c0.555,0,1.006,0.449,1.006,1.006S106.061,123,105.506,123z"/>
			</g>
		</g>
	</g>
	<g>
		<g>
			<g>
				<path fill="#005A95" d="M107.506,129h-3c-0.557,0-1.008-0.449-1.008-1.006s0.451-1.006,1.008-1.006h3
					c0.555,0,1.006,0.449,1.006,1.006S108.061,129,107.506,129z"/>
			</g>
		</g>
	</g>
	<g>
		<g>
			<g>
				<path fill="#87E4B9" d="M36.5,43c0,3.369-2.736,6-6,6c3.368,0,6,2.735,6,6c0-3.369,2.737-6,6-6C39.236,49,36.5,46.264,36.5,43z"
					/>
			</g>
		</g>
	</g>
	<g>
		<g>
			<g>
				<path fill="#87E4B9" d="M83.607,111c0,2.709-2.195,4.916-4.895,4.916c2.695,0,4.895,2.207,4.895,4.914
					c0-2.707,2.197-4.914,4.893-4.914C85.703,115.914,83.607,113.709,83.607,111z"/>
			</g>
		</g>
	</g>
	<g>
		<g>
			<g>
				<path fill="#87E4B9" d="M95,22c0,5.291-4.246,9.563-9.502,9.563c5.256,0,9.502,4.271,9.502,9.563
					c0-5.291,4.244-9.563,9.498-9.563C99.246,31.563,95,27.291,95,22z"/>
			</g>
		</g>
	</g>
	<g>
		<g>
			<path fill="none" d="M55.5,83c-1.255,0-2.391-0.479-3.269-1.244c-0.466,0.75-0.732,1.621-0.732,2.508v1.803
				c0,2.855,1.902,5.287,4.522,5.793c1.881,0.355,3.992-0.307,5.521-1.727c1.242-1.152,1.955-2.658,1.955-4.133V74.006l-1.315,0.008
				c-1.017,0-2.011,0.275-2.882,0.773c0.736,0.871,1.197,1.98,1.197,3.213C60.5,80.762,58.262,83,55.5,83z"/>
		</g>
		<g>
			<path fill="#87E4B9" d="M52.895,80.898c-0.258,0.258-0.474,0.551-0.664,0.857C53.109,82.52,54.245,83,55.5,83
				c2.762,0,5-2.238,5-5c0-1.23-0.461-2.342-1.197-3.213c-0.441,0.25-0.852,0.555-1.211,0.914L52.895,80.898z"/>
		</g>
	</g>
	<g>
		<circle fill="#87E4B9" cx="54.5" cy="38" r="3"/>
	</g>
	<g>
		<circle fill="#87E4B9" cx="22" cy="63.5" r="2.5"/>
	</g>
	<g>
		<circle fill="#87E4B9" cx="95" cy="63.5" r="2.5"/>
	</g>
	<g>
		<g>
			<path fill="none" d="M24.5,74.719V66h-4v8.891C20.992,74.955,21.49,75,22,75C22.859,75,23.694,74.896,24.5,74.719z"/>
		</g>
		<g>
			<path fill="none" d="M32.5,68.168V66h-4v6.979C30.24,71.783,31.63,70.117,32.5,68.168z"/>
		</g>
		<g>
			<path fill="none" d="M28.5,75.326V96h4V71.967C31.399,73.328,30.042,74.475,28.5,75.326z"/>
		</g>
		<g>
			<path fill="none" d="M33.474,64c0.008-0.167,0.025-0.331,0.025-0.5c0-6.342-5.159-11.5-11.5-11.5s-11.5,5.158-11.5,11.5
				c0,3.476,1.556,6.588,4,8.699V64H33.474L33.474,64z"/>
		</g>
		<g>
			<path fill="none" d="M97.5,96c1.99,0,3-0.895,3-2.656V66h-64v30H97.5z"/>
		</g>
		<g>
			<path fill="none" d="M22,77c-0.508,0-1.007-0.033-1.5-0.088V96h4V76.758C23.688,76.912,22.855,77,22,77z"/>
		</g>
		<g>
			<path fill="#87E4B9" d="M16.5,75.816v17.525c0,1.764,1.01,2.658,3,2.658h1V76.912C19.088,76.754,17.746,76.377,16.5,75.816z"/>
		</g>
		<g>
			<path fill="#87E4B9" d="M32.5,71.967V96h4V66h-1.241C34.838,68.23,33.873,70.269,32.5,71.967z"/>
		</g>
		<g>
			<path fill="#005A95" d="M22,50c-7.444,0-13.5,6.058-13.5,13.5c0,4.67,2.385,8.793,6,11.217c0.63,0.424,1.301,0.787,2,1.102
				c1.246,0.561,2.589,0.939,4,1.096c0.493,0.057,0.992,0.09,1.5,0.09c0.855,0,1.688-0.09,2.5-0.242
				c1.424-0.268,2.771-0.754,4-1.434c1.543-0.854,2.899-1.996,4-3.359c1.373-1.698,2.339-3.735,2.759-5.967
				c0.062-0.33,0.115-0.662,0.152-1c0.037-0.329,0.051-0.664,0.063-1c0.006-0.168,0.025-0.331,0.025-0.5
				C35.5,56.058,29.444,50,22,50z M33.39,65c-0.044,0.338-0.1,0.672-0.173,1c-0.167,0.754-0.409,1.479-0.718,2.168
				c-0.869,1.948-2.26,3.613-4,4.811c-1.191,0.818-2.544,1.416-4,1.74c-0.806,0.18-1.641,0.281-2.5,0.281
				c-0.51,0-1.008-0.045-1.5-0.109c-1.432-0.188-2.783-0.629-4-1.295c-0.719-0.393-1.385-0.865-2-1.395c-2.444-2.111-4-5.226-4-8.7
				c0-6.342,5.159-11.5,11.5-11.5s11.5,5.158,11.5,11.5c0,0.169-0.018,0.333-0.025,0.5C33.459,64.337,33.433,64.67,33.39,65z"/>
		</g>
	</g>
	<g>
		<rect x="64.5" y="66" fill="#87E4B9" width="4" height="6"/>
	</g>
	<g>
		<g>
			<path fill="none" d="M102.5,72.201c2.443-2.111,4-5.226,4-8.7c0-6.342-5.158-11.5-11.5-11.5s-11.5,5.158-11.5,11.5
				c0,0.169,0.018,0.333,0.025,0.5H102.5V72.201z"/>
		</g>
		<g>
			<path fill="none" d="M83.781,66c1.146,5.143,5.736,9,11.219,9c0.51,0,1.008-0.045,1.5-0.109V66H83.781z"/>
		</g>
		<g>
			<g>
				<g>
					<path fill="#87E4B9" d="M84.5,66h-0.719c0.168,0.75,0.412,1.473,0.719,2.16V66z"/>
				</g>
				<g>
					<g>
						<path fill="none" d="M52.5,94.811c0.786-0.469,1.503-0.895,2.13-1.27c-0.778-0.271-1.494-0.67-2.13-1.172V94.811z"/>
					</g>
					<g>
						<path fill="none" d="M71.5,94.516c0.355,0.293,0.684,0.617,1,0.949V92h-1V94.516z"/>
					</g>
					<g>
						<path fill="none" d="M58.479,91.77c1.109-0.266,2.184-0.814,3.064-1.637c1.242-1.152,1.955-2.66,1.955-4.133V74.006
							l-1.27,0.008c-0.059,0.002-0.111,0.004-0.168,0.008c-0.068,0.002-0.137,0.014-0.201,0.018
							c-1.396,0.145-2.813,0.746-3.678,1.59L58.479,91.77z"/>
					</g>
					<g>
						<path fill="none" d="M56.021,91.857c0.15,0.029,0.305,0.041,0.457,0.057l-0.26-14.338l-3.323,3.322
							c-0.145,0.145-0.274,0.303-0.396,0.467v8.053C53.308,90.66,54.542,91.574,56.021,91.857z"/>
					</g>
					<g>
						<path fill="none" d="M76.662,78.418L76.5,78.254V90h1c0.996,0,2.053-0.428,3-1.064v-8.438
							C79.061,80.188,77.715,79.469,76.662,78.418z"/>
					</g>
					<g>
						<path fill="none" d="M69.5,74h-4v12c0,2.029-0.945,4.07-2.596,5.6c-1.396,1.297-3.174,2.111-4.977,2.314
							c-1.074,0.637-13.409,7.941-17.148,10.457c-0.191,0.115-0.341,0.227-0.489,0.334l-0.216,0.148
							c-3.051,2.271-4.559,6.041-3.911,9.82c0.707,4.145,4.098,7.504,8.247,8.172c0.558,0.09,1.123,0.135,1.678,0.135
							c4.165,0,7.842-2.5,9.367-6.371c0.607-1.52,2.021-2.504,3.604-2.504h4.751c0.681,0,1.362-0.063,2.032-0.201
							c3.966-0.803,7.212-4.139,7.896-8.107c0.66-3.814-0.85-7.736-3.842-9.992L69.498,95.5v-5.498h3V74.701
							C71.59,74.266,70.508,74,69.5,74z"/>
					</g>
					<g>
						<path fill="none" d="M85.322,82.49c0.326-0.535,0.123-1.018,0.021-1.199c-0.184-0.322-0.487-0.531-0.844-0.596v3.166
							L85.322,82.49z"/>
					</g>
					<g>
						<path fill="#005A95" d="M87.086,80.311c-0.541-0.963-1.498-1.557-2.588-1.633v2.018c0.355,0.064,0.662,0.271,0.844,0.6
							c0.104,0.184,0.307,0.664-0.02,1.199l-0.824,1.367v3.85c0.061-0.09,0.133-0.182,0.186-0.271l2.352-3.914
							C87.639,82.533,87.658,81.332,87.086,80.311z"/>
					</g>
					<g>
						<path fill="#005A95" d="M62.5,72c-0.088,0-0.178,0.012-0.266,0.016L64.504,72H62.5z"/>
					</g>
					<g>
						<path fill="#005A95" d="M61.512,72.068c0.191-0.018,0.383-0.045,0.578-0.049C61.896,72.033,61.705,72.045,61.512,72.068z"/>
					</g>
					<g>
						<path fill="#005A95" d="M57.883,73.338c0.023-0.018,0.051-0.027,0.074-0.045C57.932,73.309,57.908,73.322,57.883,73.338z"/>
					</g>
					<g>
						<path fill="#005A95" d="M62.182,74.014c-0.041,0-0.08,0.008-0.121,0.008c0.059-0.004,0.113-0.006,0.17-0.008H62.182z"/>
					</g>
					<g>
						<path fill="#005A95" d="M77.5,90h-1v2h1c1.023,0,2.045-0.295,3-0.762v-2.305C79.551,89.572,78.496,90,77.5,90z"/>
					</g>
					<g>
						<path fill="#005A95" d="M56.826,74.162c0.197-0.186,0.406-0.355,0.623-0.521C57.227,73.809,57.018,73.979,56.826,74.162z"/>
					</g>
					<g>
						<path fill="#005A95" d="M61.861,74.035c0.066-0.004,0.133-0.012,0.199-0.014C61.994,74.027,61.928,74.029,61.861,74.035z"/>
					</g>
					<g>
						<path fill="#005A95" d="M57.629,73.492c-0.064,0.045-0.117,0.104-0.182,0.148c0.143-0.104,0.283-0.207,0.436-0.305
							C57.801,73.393,57.709,73.436,57.629,73.492z"/>
					</g>
					<g>
						<path fill="#005A95" d="M57.957,73.293c1.035-0.641,2.289-1.07,3.555-1.225C60.242,72.18,59.023,72.604,57.957,73.293z"/>
					</g>
					<g>
						<polygon fill="#005A95" points="65.5,71.996 64.502,72 65.5,72 						"/>
					</g>
					<g>
						<path fill="#005A95" d="M62.176,72.014c-0.029,0-0.059,0.008-0.086,0.008c0.049-0.004,0.096-0.006,0.145-0.008H62.176z"/>
					</g>
					<g>
						<path fill="#87E4B9" d="M52.5,92.371c-1.837-1.451-3.001-3.754-3.001-6.307v-1.801c0-1.516,0.528-3.002,1.464-4.188
							c0.162-0.207,0.332-0.406,0.519-0.596l1.019-1.02V66h-4v30h2.018c0.69-0.414,1.354-0.813,1.982-1.188L52.5,92.371L52.5,92.371
							z"/>
					</g>
					<g>
						<path fill="#87E4B9" d="M72.5,95.465V96h0.467C72.814,95.82,72.664,95.637,72.5,95.465z"/>
					</g>
					<g>
						<path fill="#87E4B9" d="M80.5,91.238V96h4v-8.293C83.594,89.086,82.154,90.43,80.5,91.238z"/>
					</g>
					<g>
						<path fill="#87E4B9" d="M84.27,78.664c0.078,0,0.152,0.01,0.229,0.016v-6.75c-1.36-1.693-2.34-3.709-2.758-5.929H80.5v12.411
							c0.51,0.146,1.033,0.256,1.566,0.256h2.203V78.664L84.27,78.664z"/>
					</g>
				</g>
			</g>
		</g>
		<g>
			<path fill="#005A95" d="M35.474,64c-0.013,0.336-0.026,0.671-0.063,1c-0.037,0.338-0.091,0.67-0.152,1H36.5h45.24
				c-0.121-0.65-0.189-1.319-0.215-2H35.474z"/>
		</g>
		<g>
			<path fill="#87E4B9" d="M100.5,93.342V75.816c-1.246,0.561-2.59,0.938-4,1.096V96h1C99.49,96,100.5,95.105,100.5,93.342z"/>
		</g>
		<g>
			<path fill="#005A95" d="M95,50c-7.443,0-13.5,6.058-13.5,13.5c0,0.169,0.02,0.332,0.025,0.5c0.023,0.681,0.094,1.35,0.215,2
				c0.418,2.219,1.396,4.234,2.76,5.929c1.104,1.368,2.451,2.532,4,3.39c1.23,0.68,2.574,1.178,4,1.445
				C93.311,76.918,94.146,77,95,77c0.508,0,1.008-0.033,1.5-0.088c1.41-0.156,2.754-0.535,4-1.096c0.699-0.313,1.369-0.678,2-1.1
				c3.615-2.424,6-6.548,6-11.219C108.5,56.058,102.443,50,95,50z M102.5,72.201c-0.615,0.531-1.281,1.002-2,1.396
				c-1.217,0.664-2.568,1.105-4,1.293C96.008,74.955,95.51,75,95,75c-0.859,0-1.693-0.105-2.5-0.285
				c-1.455-0.324-2.811-0.918-4-1.736c-1.74-1.2-3.133-2.867-4-4.816c-0.307-0.688-0.551-1.41-0.719-2.16
				c-0.145-0.646-0.227-1.315-0.256-2c-0.008-0.167-0.025-0.331-0.025-0.5C83.5,57.159,88.658,52,95,52s11.5,5.158,11.5,11.5
				C106.5,66.976,104.943,70.087,102.5,72.201z"/>
		</g>
		<g>
			<g>
				<path fill="none" d="M40.779,104.367c-0.191,0.117-0.341,0.227-0.489,0.332l-0.216,0.154c-3.051,2.271-4.559,6.039-3.911,9.818
					c0.707,4.145,4.098,7.506,8.247,8.174c0.558,0.09,1.123,0.135,1.678,0.135c4.165,0,7.842-2.502,9.367-6.373
					c0.607-1.52,2.021-2.502,3.604-2.502h4.751c0.681,0,1.362-0.068,2.032-0.203c3.966-0.801,7.212-4.137,7.896-8.111
					c0.479-2.77-0.196-5.586-1.743-7.791h-20.92C47.205,100.328,42.772,103.027,40.779,104.367z"/>
			</g>
			<g>
				<path fill="#005A95" d="M72.5,95.465c-0.316-0.332-0.645-0.656-1-0.949V92h1v-2h-3v5.498l0.396,0.301
					c0.082,0.063,0.148,0.137,0.229,0.201h2.371v-0.535H72.5z"/>
			</g>
			<g>
				<g>
					<rect x="72.5" y="90" fill="#005A95" width="4" height="2"/>
				</g>
				<g>
					<path fill="#005A95" d="M80.5,88.934v2.309c1.654-0.813,3.096-2.152,4-3.531v-3.85l-1.529,2.551
						C82.418,87.324,81.521,88.25,80.5,88.934z"/>
				</g>
				<g>
					<g>
						<path fill="none" d="M58.967,75.006c-0.313,0.205-0.611,0.43-0.877,0.695l-1.871,1.873l-3.323,3.322
							c-0.145,0.146-0.274,0.305-0.396,0.467c-0.095,0.127-0.186,0.258-0.269,0.393c-0.466,0.75-0.732,1.619-0.732,2.508v1.801
							c0,1.242,0.377,2.396,1.001,3.355c0.809,1.242,2.043,2.156,3.521,2.438c0.15,0.029,0.305,0.041,0.459,0.061
							c0.658,0.063,1.334,0.016,1.998-0.146c1.109-0.266,2.184-0.816,3.066-1.637c1.242-1.152,1.955-2.66,1.955-4.133V74.006
							l-1.271,0.008H62.18c-0.041,0-0.08,0.008-0.121,0.008c-0.064,0.006-0.133,0.008-0.199,0.018
							c-0.465,0.021-0.922,0.105-1.359,0.238v0.73h-1.532L58.967,75.006L58.967,75.006z"/>
					</g>
					<g>
						<path fill="#005A95" d="M84.27,78.664h-2.203c-0.531,0-1.057-0.104-1.564-0.254c-0.9-0.268-1.748-0.732-2.422-1.406
							l-1.578-1.58l-1.18-1.178c-0.729-0.729-1.725-1.313-2.82-1.707C71.545,72.197,70.512,72,69.5,72h-4h-0.996l-2.27,0.016
							c-0.049,0.002-0.096,0.004-0.146,0.006c-0.193,0.004-0.387,0.031-0.576,0.047c-0.342,0.041-0.682,0.105-1.016,0.188v2.023
							c0.439-0.133,0.896-0.215,1.359-0.24c0.066-0.008,0.137-0.01,0.201-0.016c0.039,0,0.08-0.008,0.119-0.008h0.049l1.271-0.008
							V86c0,1.475-0.713,2.98-1.955,4.133c-0.883,0.818-1.955,1.373-3.064,1.639c-0.666,0.158-1.34,0.209-2,0.146
							c-0.152-0.02-0.307-0.025-0.457-0.059c-1.48-0.281-2.713-1.195-3.521-2.438c-0.624-0.959-1.001-2.109-1.001-3.355v-1.803
							c0-0.887,0.267-1.758,0.732-2.508c0.083-0.135,0.174-0.264,0.269-0.391c0.121-0.164,0.251-0.322,0.396-0.467l3.322-3.322
							l1.873-1.873c0.266-0.268,0.563-0.49,0.877-0.697H56.5v-0.541l-4,4.002l-1.019,1.02c-0.187,0.189-0.356,0.389-0.519,0.594
							c-0.936,1.188-1.464,2.674-1.464,4.188v1.803c0,2.553,1.164,4.854,3.001,6.305c0.636,0.502,1.352,0.898,2.13,1.172
							c-0.627,0.373-1.344,0.801-2.13,1.27c-0.628,0.377-1.292,0.775-1.982,1.189h1.982h1.914c1.833-1.096,3.189-1.9,3.515-2.092
							c1.802-0.199,3.58-1.014,4.976-2.311c1.648-1.529,2.597-3.57,2.597-5.6V74h4c1.008,0,2.09,0.266,3,0.701
							c0.552,0.264,1.039,0.59,1.408,0.959l2.592,2.594l0.162,0.164c1.053,1.051,2.397,1.77,3.838,2.076
							c0.515,0.109,1.039,0.17,1.565,0.17h2.203c0.08,0,0.153,0.016,0.229,0.031v-2.018C84.422,78.674,84.348,78.664,84.27,78.664z"
							/>
					</g>
					<g>
						<path fill="#005A95" d="M58.967,75.006c0.111-0.074,0.219-0.152,0.334-0.219c0.38-0.217,0.781-0.387,1.197-0.512v-2.023
							c-0.908,0.219-1.783,0.572-2.541,1.039c-0.023,0.018-0.051,0.029-0.074,0.045c-0.15,0.1-0.293,0.201-0.436,0.307
							c-0.215,0.164-0.424,0.336-0.623,0.521c-0.047,0.045-0.104,0.08-0.148,0.127l-0.178,0.176v0.541h2.469V75.006z"/>
					</g>
				</g>
			</g>
			<g>
				<g>
					<path fill="none" d="M52.731,123h3.505c0.371,0,0.721-0.369,0.924-0.717c0.357-0.609,0.443-1.365,0.203-1.795
						c-0.295-0.531-0.617-0.938-0.996-1.254C55.433,120.762,54.19,122.041,52.731,123z"/>
				</g>
				<g>
					<path fill="none" d="M47.506,122.879c2.882-0.402,5.412-2.018,6.99-4.43c-0.43-0.066-0.908-0.102-1.464-0.102
						C50.303,118.35,48.029,120.299,47.506,122.879z"/>
				</g>
				<g>
					<path fill="#005A95" d="M47.506,122.879c0.522-2.58,2.797-4.529,5.526-4.529c0.556,0,1.035,0.033,1.464,0.104
						c0.375-0.57,0.699-1.189,0.957-1.846c0.002-0.002,0.002-0.004,0.004-0.006c-0.789-0.197-1.609-0.252-2.425-0.252
						c-3.862,0-7.057,2.881-7.568,6.605c0.208,0.012,0.417,0.023,0.623,0.023C46.568,122.98,47.041,122.943,47.506,122.879z"/>
				</g>
				<g>
					<path fill="#005A95" d="M57.363,120.488c0.24,0.43,0.154,1.186-0.203,1.795c-0.203,0.348-0.553,0.717-0.924,0.717h-3.505
						c-1.923,1.266-4.213,1.98-6.644,1.98c-0.233,0-0.469-0.016-0.703-0.027V125h10.852c1.047,0,2.014-0.621,2.648-1.703
						c0.729-1.24,0.813-2.725,0.228-3.781c-0.531-0.959-1.156-1.617-1.833-2.09c-0.256,0.637-0.564,1.238-0.912,1.811
						C56.746,119.551,57.068,119.957,57.363,120.488z"/>
				</g>
				<g>
					<path fill="#005A95" d="M45.464,122.955c-0.352-0.021-0.704-0.053-1.055-0.109c-4.149-0.668-7.54-4.027-8.247-8.172
						c-0.647-3.779,0.86-7.549,3.911-9.82l0.216-0.148c0.148-0.107,0.298-0.219,0.489-0.334c1.993-1.342,6.426-4.039,10.296-6.365
						h-3.872c-3.023,1.834-5.96,3.645-7.503,4.682c-0.198,0.121-0.39,0.26-0.577,0.395l-0.219,0.154
						c-3.682,2.74-5.487,7.254-4.712,11.779c0.848,4.975,4.919,9.008,9.9,9.811c0.429,0.068,0.861,0.107,1.292,0.133v-0.953
						C45.384,123.645,45.417,123.297,45.464,122.955z"/>
				</g>
				<g>
					<path fill="#005A95" d="M74.326,98h-2.33c1.547,2.205,2.223,5.021,1.744,7.791c-0.686,3.975-3.932,7.311-7.896,8.111
						c-0.668,0.135-1.354,0.203-2.033,0.203h-4.75c-1.582,0-2.992,0.979-3.603,2.496c0.636,0.158,1.248,0.426,1.822,0.824
						c0.01-0.027,0.023-0.053,0.035-0.08c0.301-0.754,0.984-1.24,1.744-1.24h4.751c0.813,0,1.629-0.082,2.428-0.242
						c4.832-0.977,8.641-4.889,9.475-9.732C76.201,103.297,75.66,100.424,74.326,98z"/>
				</g>
				<g>
					<path fill="#005A95" d="M52.731,123h-5.258c0.008-0.041,0.024-0.08,0.033-0.121c-0.465,0.064-0.938,0.102-1.419,0.102
						c-0.206,0-0.415-0.012-0.623-0.02c-0.047,0.342-0.08,0.688-0.08,1.045v0.951c0.234,0.014,0.47,0.023,0.703,0.023
						C48.518,124.98,50.808,124.264,52.731,123z"/>
				</g>
				<g>
					<path fill="#005A95" d="M55.456,116.607c-0.26,0.656-0.584,1.271-0.957,1.842c0.783,0.123,1.376,0.375,1.869,0.785
						c0.348-0.57,0.656-1.172,0.912-1.809c-0.574-0.398-1.186-0.666-1.822-0.824C55.458,116.604,55.456,116.605,55.456,116.607z"/>
				</g>
			</g>
			<g>
				<path fill="#005A95" d="M36.5,96h-4h-4h-4h-4h-1c-1.99,0-3-0.895-3-2.656V75.816c-0.699-0.313-1.37-0.678-2-1.1v18.625
					c0,2.873,1.916,4.658,5,4.658h27.703c1.115-0.682,2.241-1.355,3.314-2H36.5L36.5,96z"/>
			</g>
			<g>
				<path fill="#005A95" d="M100.5,75.816v17.525c0,1.764-1.01,2.658-3,2.658h-1H72.967c0.52,0.617,0.969,1.291,1.357,2h23.174
					c3.084,0,5-1.785,5-4.658V74.717C101.869,75.139,101.199,75.504,100.5,75.816z"/>
			</g>
			<g>
				<path fill="#005A95" d="M72.5,96h-2.373c0.719,0.578,1.346,1.252,1.869,2h2.33c-0.391-0.707-0.838-1.381-1.359-2H72.5z"/>
			</g>
			<g>
				<path fill="#005A95" d="M54.413,96H52.5h-1.982c-1.073,0.645-2.199,1.324-3.314,2h3.872C52.272,97.281,53.412,96.598,54.413,96z
					"/>
			</g>
		</g>
	</g>
	<g>
		<g>
			<g>
				<path fill="#005A95" d="M17.5,112.006h-3c-0.556,0-1.006-0.451-1.006-1.006c0-0.557,0.45-1.006,1.006-1.006h3
					c0.556,0,1.006,0.449,1.006,1.006C18.506,111.555,18.055,112.006,17.5,112.006z"/>
			</g>
		</g>
		<g>
			<g>
				<g>
					<polygon fill="#FFFFFF" points="68.5,120 62.5,120 62.5,114 70.5,110 					"/>
				</g>
			</g>
		</g>
	</g>
</g>
<g>
	<path fill="#005A95" d="M59.5,59c-0.552,0-1-0.448-1-1c0-7.558,3.629-11,7-11c0.553,0,1,0.448,1,1s-0.447,1-1,1
		c-2.484,0-5,3.091-5,9C60.5,58.552,60.052,59,59.5,59z"/>
</g>
</svg>
