<?xml version="1.0" encoding="utf-8"?>
<!-- Generator: Adobe Illustrator 16.0.0, SVG Export Plug-In . SVG Version: 6.00 Build 0)  -->
<!DOCTYPE svg PUBLIC "-//W3C//DTD SVG 1.1//EN" "http://www.w3.org/Graphics/SVG/1.1/DTD/svg11.dtd">
<svg version="1.1" id="Слой_1" xmlns="http://www.w3.org/2000/svg" xmlns:xlink="http://www.w3.org/1999/xlink" x="0px" y="0px"
	 width="120px" height="137px" viewBox="-1.5 0 120 137" enable-background="new -1.5 0 120 137" xml:space="preserve">
<g>
	<g>
		<circle fill="#EFEFEF" cx="58.5" cy="77" r="60"/>
	</g>
	<g>
		<circle fill="#FFFFFF" cx="57.5" cy="31" r="5"/>
	</g>
	<g>
		<circle fill="#FFFFFF" cx="59.5" cy="36" r="8"/>
	</g>
	<g>
		<circle fill="#FFFFFF" cx="61.5" cy="55" r="8"/>
	</g>
	<g>
		<circle fill="#FFFFFF" cx="61.5" cy="45" r="4"/>
	</g>
	<g>
		<circle fill="#FFFFFF" cx="69.5" cy="65" r="8"/>
	</g>
	<g>
		<g>
			<path fill="#FFFFFF" d="M10.472,88L10.472,88c-5.639,0-9.848-5.219-8.816-10.925L3.5,64h14l1.867,13.075
				C20.321,82.781,16.032,88,10.472,88z"/>
			<path fill="#87E4B9" d="M10.472,89L10.472,89C4.833,89,1.5,84,1.5,79c0,0,3,0,5,1s5,1,9,0s4-1,4-1C19.5,84,13.5,89,10.472,89z"/>
			<path fill="#005A95" d="M10.472,89c-2.926,0-5.688-1.298-7.578-3.561c-1.968-2.356-2.778-5.471-2.222-8.543L2.631,63h15.736
				l1.989,13.934c0.51,3.047-0.341,6.16-2.338,8.52C16.109,87.707,13.359,89,10.472,89z M4.369,65L2.646,77.215
				c-0.456,2.526,0.196,5.042,1.783,6.942C5.938,85.964,8.141,87,10.472,87c2.297,0,4.492-1.035,6.02-2.841
				c1.616-1.908,2.304-4.431,1.888-6.919L16.633,65H4.369z"/>
		</g>
	</g>
	<g>
		<path fill="#FFFFFF" d="M17.5,103c-0.597-1.741-3.5-3-7-3s-6.487,1.354-7,3H17.5z"/>
		<path fill="#005A95" d="M18.9,104H2.142l0.404-1.297C3.213,100.559,6.559,99,10.5,99c3.999,0,7.192,1.479,7.946,3.676L18.9,104z
			 M5.861,102h9.317c-1.084-0.581-2.718-1-4.678-1C8.636,101,6.975,101.427,5.861,102z"/>
	</g>
	<g>
		<g>
			<path fill="#FFFFFF" d="M61.5,6h-2v6h-6V6h-3V3c-0.018-0.875,1.125-1.982,2-2h8c0.873-0.017,1.984,1.123,2,2v3H61.5z"/>
			<path fill="#005A95" d="M60.5,13h-8V7h-3V3c-0.014-0.666,0.336-1.415,0.962-2.033C51.07,0.366,51.805,0.014,52.48,0h8.02
				c1.415,0,2.975,1.561,3,2.982V7h-3V13z M54.5,11h4V5h3V3c-0.006-0.315-0.666-1-0.98-1H52.5c-0.344,0.007-1.002,0.693-1,0.979V5h3
				V11z"/>
		</g>
	</g>
	<g>
		<g>
			<path fill="#FFFFFF" d="M61.5,46V36l1-1v-3c-0.006-0.711-0.3-1.008-1-1h-10c-0.699,0.006-1.005,0.291-1,1v3l1,1v10
				c0.068,7.667-8.086,18-8.003,27.545L43.5,99.95c0,2.03,1.001,3.047,3.004,3.047L66.529,103c2.002,0,3.004-1.016,3.003-3.047
				l-0.003-26.405C69.443,64,61.566,53.661,61.5,46z"/>
			<path fill="#87E4B9" d="M58.468,46V36l1-1v-3c-0.006-0.711-0.3-1.008-1-1L51.5,31.003c-0.699,0.006-1.005,0.291-1,1v3l1,1V46
				c0.068,7.667-8.086,18.003-8.003,27.548L43.5,99.953c0,2.031,1.001,3.047,3.004,3.047h16.993c2.002,0,3.004-1.016,3.003-3.047
				l-0.003-26.405C66.411,64,58.535,53.661,58.468,46z"/>
			<path fill="#005A95" d="M66.529,104l-20.025-0.003c-2.544,0-4.004-1.476-4.004-4.047l-0.003-26.405
				c-0.045-5.232,2.218-10.525,4.407-15.643c1.865-4.36,3.626-8.478,3.596-11.893v-9.595l-1-1V32c-0.009-1.239,0.736-1.989,1.992-2
				H61.5c1.252,0,1.988,0.745,2,1.992v3.422l-1,1V46c0.029,3.414,1.766,7.537,3.604,11.901c2.152,5.115,4.379,10.406,4.426,15.638
				l0.004,26.414c0.001,1.281-0.35,2.288-1.038,2.986C68.801,103.645,67.805,104,66.529,104z M51.5,34.586l1,1V46
				c0.034,3.825-1.808,8.13-3.757,12.688c-2.108,4.928-4.288,10.024-4.246,14.848L44.5,99.95c0,1.473,0.563,2.047,2.004,2.047
				L66.529,102c0.719,0,1.236-0.156,1.539-0.464c0.309-0.312,0.464-0.845,0.464-1.583l-0.003-26.405
				c-0.045-4.83-2.192-9.935-4.271-14.871c-1.916-4.551-3.726-8.85-3.759-12.668V35.586l1-1V32l0,0h-10l0,0L51.5,34.586L51.5,34.586
				z"/>
		</g>
		<g>
			<rect x="51.5" y="36" fill="#FFFFFF" width="10" height="4"/>
			<path fill="#005A95" d="M62.5,41h-12v-6h12V41z M52.5,39h8v-2h-8V39z"/>
		</g>
		<g>
			<polygon fill="#FFFFFF" points="48.5,74.042 64.542,74.084 64.5,96 48.5,96 			"/>
			<path fill="#005A95" d="M65.498,97H47.5V73h18L65.498,97z M49.5,95h14.002L63.5,75h-14V95z"/>
		</g>
		<g>
			<g>
				<path fill="#87E4B9" d="M56.598,77.902c1.661-0.017,3.011,1.322,3.027,2.976c0.016,1.657-1.315,3.013-2.972,3.024
					c-1.657,0.017-3.014-1.314-3.027-2.975C53.614,79.271,54.942,77.916,56.598,77.902z"/>
			</g>
			<g>
				<path fill="#FFFFFF" d="M56.987,80c0.83-0.008,1.505,0.661,1.513,1.487c0.008,0.829-0.657,1.507-1.486,1.513
					c-0.829,0.008-1.507-0.657-1.513-1.487C55.495,80.685,56.159,80.007,56.987,80z"/>
			</g>
			<g>
				<rect x="51.495" y="90.984" fill="#005A95" width="10" height="2"/>
			</g>
			<g>
				<rect x="51.5" y="87" fill="#005A95" width="10" height="2"/>
			</g>
			<g>
				<rect x="50.5" y="5" fill="#005A95" width="10" height="2"/>
			</g>
		</g>
	</g>
	<g>
		<g>
			<path fill="#FFFFFF" d="M37.673,102.68L32.5,99.984l-2-0.016l-5.083,2.682c-0.153,0.106-0.075,0.351,0.114,0.351l12.031,0.031
				C37.752,103.029,37.827,102.787,37.673,102.68z"/>
			<path fill="#005A95" d="M37.56,104.031L25.529,104c-0.521,0-0.979-0.336-1.137-0.836c-0.157-0.498,0.024-1.034,0.452-1.334
				c0.034-0.023,0.07-0.046,0.107-0.064l5.083-2.682c0.146-0.076,0.331-0.104,0.474-0.115l2,0.016
				c0.158,0.002,0.314,0.041,0.454,0.113l5.173,2.694c0.039,0.021,0.077,0.043,0.113,0.067c0.427,0.301,0.609,0.836,0.453,1.334
				c-0.156,0.498-0.611,0.834-1.133,0.838C37.565,104.031,37.563,104.031,37.56,104.031z M28.776,102.009l5.473,0.015l-1.997-1.041
				l-1.508-0.012L28.776,102.009z"/>
		</g>
	</g>
	<g>
		<path fill="#87E4B9" d="M87.098,80.713c0.334-7.654-7.598-7.599-7.598-7.599S79.443,81.045,87.098,80.713z"/>
		<path fill="#005A95" d="M86.637,81.723c-2.326,0-4.223-0.721-5.635-2.143c-2.501-2.52-2.503-6.313-2.502-6.473l0.007-0.986
			l0.986-0.007c0.428,0,4.149,0.073,6.597,2.629c1.439,1.504,2.115,3.526,2.008,6.014l-0.041,0.915l-0.916,0.04
			C86.971,81.721,86.801,81.723,86.637,81.723z M80.604,74.221c0.172,1.088,0.627,2.758,1.826,3.959
			c0.914,0.918,2.145,1.43,3.66,1.526c-0.095-1.474-0.578-2.677-1.445-3.58C83.441,74.868,81.718,74.396,80.604,74.221z"/>
	</g>
	<g>
		<path fill="#87E4B9" d="M86.988,80.713c-0.33-7.654,7.599-7.599,7.599-7.599S94.645,81.045,86.988,80.713z"/>
		<path fill="#005A95" d="M87.449,81.723c-0.164,0-0.333-0.002-0.504-0.011l-0.918-0.04l-0.039-0.916
			c-0.106-2.486,0.568-4.51,2.01-6.014c2.447-2.555,6.168-2.628,6.584-2.628h0.993l0.012,0.993c0.001,0.16-0.001,3.953-2.501,6.473
			C91.674,81.002,89.777,81.723,87.449,81.723z M93.486,74.221c-1.112,0.176-2.838,0.646-4.045,1.905
			c-0.865,0.903-1.352,2.104-1.445,3.58c1.521-0.099,2.755-0.613,3.67-1.535C92.868,76.96,93.316,75.301,93.486,74.221z"/>
	</g>
	<g>
		<rect x="9.5" y="88" fill="#005A95" width="2" height="12"/>
	</g>
	<g>
		<rect x="30.5" y="88.375" fill="#005A95" width="2" height="12"/>
	</g>
	<g>
		<path fill="#FFFFFF" d="M113.5,99h-38V85c0-3,2-5,5-5h27c3.113,0,6,1.885,6,5V99z"/>
		<path fill="#005A95" d="M114.5,100h-40V85c0-3.532,2.468-6,6-6h27c3.99,0,7,2.579,7,6V100z M76.5,98h36V85c0-2.598-2.576-4-5-4
			h-27c-2.43,0-4,1.57-4,4V98z"/>
	</g>
	<path fill="#87E4B9" d="M114.5,84c0-3-2-4-5-4h-14v19h19V84z"/>
	<g>
		<path fill="#FFFFFF" d="M95.5,99h-16V87c0-2,1-3,3-3h13V99z"/>
		<path fill="#005A95" d="M96.5,100h-18V87c0-2.542,1.458-4,4-4h14V100z M80.5,98h14V85h-12c-1.439,0-2,0.561-2,2V98z"/>
	</g>
	<g>
		<path fill="#87E4B9" d="M95.5,93h-16v-5h16V93z"/>
		<path fill="#005A95" d="M96.5,94h-18v-7h18V94z M80.5,92h14v-3h-14V92z"/>
	</g>
	<g>
		<path fill="#FFFFFF" d="M112.5,103h-34c-2.699,0-5-2.302-5-5v-1h44v1C117.5,100.698,115.197,103,112.5,103z"/>
		<path fill="#005A95" d="M112.5,104h-34c-3.252,0-6-2.748-6-6v-2h46v2C118.5,101.252,115.752,104,112.5,104z M74.5,98
			c0,2.131,1.869,4,4,4h34c2.131,0,4-1.869,4-4H74.5z"/>
	</g>
	<path fill="#FFFFFF" d="M95,84h3.5v4c0,0,0,2,2,2s2-2,2-2v-4h4v6c0,0,0,2,2,2s2-2,2-2v-6h3"/>
	<g>
		<path fill="#FFFFFF" d="M38.521,82.479c0,3.578-3.134,6.479-7,6.479s-7-2.901-7-6.479c0-3.576,0.959-24.458,0.959-24.458h12.083
			C37.563,58.021,38.521,78.926,38.521,82.479z"/>
		<path fill="#87E4B9" d="M38.521,83.457c0,3.578-3.134,6.479-7,6.479s-7-2.9-7-6.479c0-3.577-0.062-8.457,0.959-7.457
			c2.021,2,9.021-2,12.083,0C37.5,78,38.521,79.904,38.521,83.457z"/>
		<path fill="#005A95" d="M31.521,89.958c-4.411,0-8-3.354-8-7.479c0-3.56,0.921-23.649,0.96-24.502l0.044-0.954h13.993l0.044,0.954
			c0.039,0.854,0.959,20.967,0.959,24.502C39.521,86.604,35.932,89.958,31.521,89.958z M26.435,59.021
			C26.248,63.152,25.52,79.4,25.52,82.479c0,3.021,2.691,5.479,6,5.479s6-2.458,6-5.479c0-3.056-0.727-19.322-0.914-23.458H26.435z"
			/>
	</g>
	<path fill="#FFFFFF" d="M48.188,57.516l5.936,5.774c0.733,0.733,1.693,1.1,2.655,1.1c0.961,0,1.921-0.367,2.654-1.1L65,57.797
		l-2.893-7.8l-5.331,5.33l-5.732-5.732C51.045,49.595,48.734,56.297,48.188,57.516z"/>
	<g>
		<path fill="none" d="M56.777,56.741l-5.311-5.311c-0.599,1.717-1.562,4.454-2.099,5.838l5.453,5.305
			c1.06,1.06,2.865,1.05,3.904,0.01l2.536-2.501c-0.686-1.864-1.445-3.896-2.152-5.671L56.777,56.741z"/>
		<path fill="none" d="M61.712,51.807l-1.065,1.067c0.696,1.71,1.465,3.744,2.178,5.667l1.015-1.001L61.712,51.807z"/>
		<path fill="#005A95" d="M62.503,48.188l-2.651,2.652l-1.564,1.565l-1.509,1.509l-6.156-6.156L50.1,49.269
			c-0.639,1.853-2.391,6.871-2.825,7.837l-0.286,0.638l6.427,6.252c0.898,0.898,2.092,1.393,3.362,1.393s2.464-0.495,3.356-1.388
			l1.882-1.857l1.565-1.544l2.581-2.546L62.503,48.188z M62.822,58.54l-1.563,1.542l-2.536,2.501c-1.039,1.04-2.844,1.05-3.904-0.01
			l-5.453-5.305c0.537-1.384,1.5-4.121,2.099-5.838l5.311,5.311l2.33-2.33l1.538-1.538l1.066-1.067l2.126,5.732L62.822,58.54z"/>
	</g>
	<g>
		<path fill="#87E4B9" d="M58.501,23c-0.036,0-0.071-0.002-0.107-0.005c-0.549-0.059-0.947-0.551-0.889-1.1
			c0.018-0.165,0.463-4.066,3.456-6.347c1.827-1.393,4.166-1.867,6.951-1.41c0.545,0.089,0.914,0.604,0.824,1.149
			s-0.604,0.909-1.148,0.825c-2.225-0.366-4.042-0.02-5.414,1.027c-2.314,1.764-2.676,4.935-2.679,4.967
			C59.44,22.619,59.006,23,58.501,23z"/>
	</g>
	<g>
		<path fill="#87E4B9" d="M54.498,23c-0.504,0-0.937-0.38-0.993-0.892c-0.005-0.047-0.391-3.235-2.691-4.979
			c-1.371-1.039-3.19-1.381-5.402-1.018c-0.543,0.087-1.059-0.279-1.149-0.825c-0.089-0.545,0.28-1.06,0.825-1.149
			c2.785-0.457,5.124,0.017,6.951,1.41c2.993,2.281,3.438,6.182,3.456,6.347c0.058,0.549-0.34,1.042-0.889,1.1
			C54.569,22.998,54.534,23,54.498,23z"/>
	</g>
	<g>
		<path fill="#87E4B9" d="M49.539,28.186c-0.488,0-0.915-0.357-0.988-0.854c-0.007-0.046-0.731-4.701-4.02-6.555
			c-1.976-1.114-4.548-1.022-7.643,0.275c-0.51,0.212-1.096-0.027-1.309-0.536c-0.213-0.51,0.026-1.096,0.536-1.309
			c3.702-1.552,6.867-1.607,9.411-0.166c4.144,2.346,4.971,7.773,5.004,8.003c0.079,0.546-0.299,1.052-0.845,1.132
			C49.635,28.183,49.586,28.186,49.539,28.186z"/>
	</g>
	<g>
		<path fill="#87E4B9" d="M63.501,27.909c-0.058,0-0.116-0.005-0.175-0.015c-0.544-0.096-0.907-0.615-0.811-1.159
			c0.032-0.189,0.859-4.653,4.485-6.722c2.296-1.312,5.138-1.349,8.438-0.111c0.518,0.194,0.778,0.771,0.586,1.288
			c-0.194,0.518-0.775,0.778-1.287,0.585c-2.723-1.02-4.99-1.026-6.746-0.025c-2.82,1.609-3.502,5.297-3.51,5.334
			C64.398,27.568,63.979,27.909,63.501,27.909z"/>
	</g>
	<g>
		<g>
			<path fill="#005A95" d="M107.5,79.059V70c0-1.25-0.751-2-2-2v-1v-2c0-0.535-0.463-1-1-1s-1,0.465-1,1v3l0,0c-1.249,0-2,0.75-2,2
				v9l-0.656,0.057c0.131,0.295,0.213,0.623,0.213,0.994v0.143c0.319,0.17,0.637,0.311,0.998,0.414
				c0.533,0.151,1.073,0.279,1.616,0.394l3.173-1 M103.5,70h2v9.057h-2V70z"/>
		</g>
		<g>
			<path fill="#005A95" d="M107.508,64.296l-1.541-1.275c0.344-0.415,0.533-0.952,0.533-1.513c0-1.202-0.803-2.512-2.001-3.338
				c-1.198,0.825-1.999,2.135-1.999,3.338c0,0.562,0.188,1.099,0.531,1.513l-1.541,1.275c-0.639-0.771-0.99-1.762-0.99-2.788
				c0-2.092,1.417-4.257,3.525-5.389l0.474-0.253l0.474,0.253c2.109,1.132,3.527,3.298,3.527,5.389
				C108.5,62.533,108.146,63.523,107.508,64.296z"/>
		</g>
	</g>
	<g>
		<path fill="#FFFFFF" d="M51.501,112.846c0.903-0.002,1.802-0.211,2.647-0.623c2.322-1.138,5.292-1.908,7.887-1.936
			c3.184-0.031,6.438,1.795,9.585,0.458c1.202-0.513,2.362-1.22,3.368-2.011c0.115-0.092,1.271-1.278,1.425-1.225
			c0.801,5.072-4.138,17.014-10.547,18.281c-3.456,0.684-6.368-0.424-10.693-1.773c-2.374-0.742-4.694-0.746-7.082,0
			c-4.323,1.351-7.539,2.457-10.998,1.773c-6.397-1.268-11.311-13.195-10.508-18.281c0.154-0.055,1.307,1.133,1.424,1.225
			c1.005,0.791,2.377,1.498,3.581,2.011c3.145,1.337,6.152-0.489,9.336-0.458c2.607,0.025,5.573,0.802,7.887,1.936
			C49.671,112.641,50.586,112.85,51.501,112.846z M66.742,115.827c-4.191-1.978-9.81,0.282-11.572,3.43
			C59.026,121.607,66.01,120.402,66.742,115.827z M36.225,115.827c0.729,4.575,7.713,5.78,11.569,3.43
			C46.032,116.109,40.415,113.85,36.225,115.827z"/>
		<path fill="#005A95" d="M63.745,127c-2.46,0-4.764-0.729-7.681-1.652l-1.188-0.373c-2.205-0.691-4.276-0.69-6.486-0.002
			l-0.678,0.213c-3.106,0.975-5.789,1.814-8.46,1.814c-0.81,0-1.579-0.074-2.352-0.227c-7.196-1.426-12.124-14.215-11.302-19.42
			l0.093-0.588l0.723-0.256l0.184-0.002c0.498,0,0.818,0.26,1.87,1.281c0.088,0.086,0.157,0.152,0.192,0.186
			c0.771,0.604,1.962,1.271,3.323,1.851c1.49,0.632,3.313,0.368,5.237-0.037c1.163-0.247,2.364-0.501,3.627-0.501
			c2.75,0.027,5.858,0.788,8.408,2.036c0.708,0.347,1.459,0.522,2.229,0.522c0.777-0.003,1.521-0.179,2.228-0.522
			c2.549-1.248,5.658-2.009,8.315-2.036c0.002,0,0.002,0,0.004,0c1.342,0,2.57,0.251,3.759,0.492
			c2.021,0.414,3.942,0.681,5.442,0.046c1.078-0.459,2.164-1.107,3.142-1.876l0.147-0.147c1.061-1.03,1.383-1.293,1.883-1.293h0.172
			l0.734,0.259l0.092,0.588c0.822,5.203-4.123,17.99-11.34,19.418C65.289,126.926,64.531,127,63.745,127z M51.635,122.46
			c1.267,0,2.558,0.203,3.838,0.604l1.194,0.375c3.59,1.137,6.25,1.92,9.005,1.371c5.158-1.021,9.309-9.937,9.782-15.17
			c-1.079,0.826-2.263,1.522-3.442,2.023c-0.902,0.384-1.865,0.57-2.947,0.57c-1.254,0-2.485-0.252-3.678-0.495
			c-1.142-0.233-2.221-0.453-3.271-0.453c-2.41,0.022-5.268,0.726-7.529,1.833c-0.981,0.479-2.019,0.724-3.085,0.727
			c-1.098,0-2.143-0.244-3.128-0.727c-2.295-1.124-5.083-1.809-7.458-1.833c0,0-0.001,0-0.002,0c-1.124,0-2.171,0.222-3.281,0.457
			c-1.139,0.241-2.317,0.491-3.532,0.491c-1.051,0-2-0.188-2.901-0.57c-0.845-0.357-2.413-1.089-3.655-2.025
			c0.468,5.234,4.602,14.153,9.744,15.172c0.644,0.127,1.286,0.188,1.964,0.188c2.365,0,4.791-0.761,7.862-1.724l0.68-0.213
			C49.077,122.663,50.369,122.46,51.635,122.46z M59.725,121.43C59.723,121.43,59.725,121.43,59.725,121.43
			c-1.877,0-3.68-0.469-5.075-1.318l-0.823-0.502l0.471-0.84c1.52-2.715,5.295-4.685,8.978-4.685c1.406,0,2.717,0.282,3.895,0.838
			l0.68,0.32l-0.119,0.741C67.128,119.746,63.273,121.43,59.725,121.43z M56.661,118.881c0.911,0.357,1.965,0.549,3.062,0.549
			c2.346,0,5-0.945,5.823-3.002c-0.704-0.228-1.465-0.343-2.271-0.343C60.745,116.085,58.102,117.239,56.661,118.881z
			 M43.242,121.43L43.242,121.43c-3.438,0-7.408-1.703-8.004-5.445l-0.119-0.74l0.679-0.32c1.177-0.556,2.487-0.838,3.892-0.838
			c3.682,0,7.457,1.971,8.976,4.684l0.471,0.842l-0.823,0.5C46.92,120.961,45.118,121.43,43.242,121.43z M37.42,116.428
			c0.822,2.057,3.477,3.002,5.821,3.002l0,0c1.098,0,2.151-0.19,3.062-0.549c-1.441-1.642-4.083-2.796-6.613-2.796
			C38.885,116.085,38.125,116.2,37.42,116.428z"/>
	</g>
	<g>
		<path fill="#87E4B9" d="M60.807,100.795c1.943,1.036,0.911,6.048-1.053,9.191c-0.109,0.174-0.223,0.346-0.337,0.511l0.006,0.039
			c-1.53,0.264-3.07,0.722-4.436,1.304l-0.002-0.005c0.37-0.989,0.581-2.147,0.581-3.39c0-1.514-0.316-3.234-0.848-4.725
			C56.786,101.602,59.394,100.039,60.807,100.795z"/>
		<path fill="#FFFFFF" d="M60.732,102.921c1.672,0.853,0.785,4.972-0.903,7.556c-0.095,0.144-0.19,0.284-0.289,0.42l0.005,0.033
			c-1.315,0.217-2.64,0.592-3.814,1.07l-0.002-0.004c0.318-0.814,0.5-1.768,0.5-2.786c0-1.244-0.272-2.659-0.729-3.884
			C57.277,103.584,59.52,102.3,60.732,102.921z"/>
		<path fill="#005A95" d="M54.438,113.161l-0.525-1.313l0.136-0.363c0.338-0.904,0.518-1.955,0.518-3.037
			c0-1.383-0.288-2.982-0.79-4.391l-0.209-0.588l0.436-0.445c0.783-0.803,3.527-3.422,5.964-3.422c0.483,0,0.925,0.104,1.312,0.313
			c0.469,0.249,1.091,0.781,1.389,1.896c0.657,2.457-0.572,6.319-2.064,8.707c-0.045,0.071-0.092,0.145-0.138,0.215l0.087,0.584
			l-0.957,0.205c-1.438,0.248-2.895,0.677-4.215,1.238L54.438,113.161z M55.863,103.995c0.45,1.458,0.703,3.048,0.703,4.45
			c0,0.609-0.047,1.213-0.14,1.797c0.776-0.246,1.571-0.451,2.365-0.606c0.039-0.061,0.078-0.12,0.117-0.182
			c1.416-2.267,2.252-5.531,1.826-7.127c-0.063-0.231-0.182-0.535-0.397-0.649c-0.094-0.051-0.218-0.076-0.369-0.076
			C58.992,101.602,57.387,102.547,55.863,103.995z"/>
	</g>
	<g>
		<path fill="#87E4B9" d="M51.501,112.846c-1.643,0.006-2.593-0.607-3.478-0.986l0.002-0.004c-0.374-0.994-0.589-2.16-0.589-3.408
			c0-3.473,1.756-8.446,4.064-8.446c2.353,0,4.064,5.065,4.064,8.446c0,1.24-0.211,2.398-0.581,3.389l0.002,0.005
			C54.04,112.24,53.127,112.841,51.501,112.846z"/>
		<path fill="#FFFFFF" d="M52.564,113c-1.238,0.004-1.955-0.533-2.622-0.865l0.002-0.003c-0.282-0.873-0.444-1.896-0.444-2.989
			c0-3.045,1.324-7.408,3.064-7.408c1.773,0,3.064,4.443,3.064,7.408c0,1.088-0.159,2.104-0.438,2.972l0.002,0.005
			C54.478,112.469,53.79,112.996,52.564,113z"/>
		<path fill="#005A95" d="M51.482,113.846c-1.561,0-2.58-0.478-3.399-0.859c-0.155-0.073-0.304-0.145-0.452-0.207l-0.977-0.416
			l0.288-0.577c-0.332-1.031-0.506-2.177-0.506-3.339c0-3.391,1.692-9.446,5.064-9.446s5.064,6.056,5.064,9.446
			c0,1.175-0.177,2.328-0.514,3.363l0.225,0.563l-0.901,0.387c-0.168,0.071-0.335,0.149-0.506,0.229
			c-0.814,0.38-1.827,0.852-3.366,0.855H51.482z M48.832,111.127c0.033,0.016,0.066,0.031,0.1,0.047
			c0.705,0.33,1.435,0.672,2.55,0.672v1l0.017-1c1.098-0.003,1.792-0.326,2.527-0.669c0.051-0.022,0.102-0.048,0.152-0.069
			c0.255-0.815,0.388-1.728,0.388-2.66c0-3.342-1.69-7.446-3.064-7.446c-1.266,0-3.064,3.851-3.064,7.446
			C48.437,109.387,48.573,110.305,48.832,111.127z"/>
	</g>
	<g>
		<path fill="#87E4B9" d="M48.026,111.855l-0.002,0.004c-1.366-0.586-2.904-1.049-4.44-1.317l0.009-0.038
			c-0.119-0.167-0.233-0.342-0.343-0.518c-1.965-3.145-2.997-8.155-1.053-9.191c1.415-0.756,4.021,0.807,6.089,2.926
			c-0.53,1.492-0.848,3.213-0.848,4.727C47.437,109.695,47.652,110.859,48.026,111.855z"/>
		<path fill="#FFFFFF" d="M48.314,111.997L48.313,112c-0.983-0.475-2.089-0.848-3.195-1.064l0.006-0.031
			c-0.085-0.135-0.167-0.274-0.247-0.418c-1.414-2.541-2.156-6.592-0.758-7.428c1.018-0.611,2.893,0.65,4.38,2.363
			c-0.381,1.206-0.61,2.598-0.61,3.82C47.89,110.251,48.045,111.191,48.314,111.997z"/>
		<path fill="#005A95" d="M48.5,113.146l-0.87-0.369c-1.32-0.564-2.779-0.998-4.219-1.25l-1.039-0.184l0.148-0.642
			c-0.04-0.062-0.079-0.123-0.118-0.187c-1.492-2.388-2.723-6.248-2.066-8.705c0.298-1.117,0.92-1.649,1.39-1.899
			c0.386-0.206,0.827-0.312,1.311-0.312c2.437,0,5.181,2.618,5.964,3.422l0.435,0.445l-0.208,0.588
			c-0.502,1.411-0.79,3.012-0.79,4.391c0,1.087,0.182,2.144,0.525,3.058l0.153,0.408L48.5,113.146z M44.216,109.645
			c0.794,0.156,1.589,0.363,2.363,0.61c-0.094-0.588-0.143-1.196-0.143-1.81c0-1.398,0.253-2.988,0.703-4.449
			c-1.524-1.449-3.128-2.395-4.104-2.395c-0.152,0-0.276,0.024-0.37,0.074c-0.217,0.116-0.336,0.418-0.399,0.65
			c-0.426,1.596,0.411,4.859,1.829,7.129C44.136,109.52,44.176,109.581,44.216,109.645z"/>
	</g>
	<g>
		<g>
			<g>
				<path fill="#87E4B9" d="M23.5,42c0,3.369-2.734,6-6,6c3.369,0,6,2.734,6,6c0-3.369,2.738-6,6-6C26.236,48,23.5,45.263,23.5,42z"
					/>
			</g>
		</g>
	</g>
	<g>
		<g>
			<g>
				<path fill="#87E4B9" d="M83.002,36c0,5.291-4.246,9.563-9.502,9.563c5.256,0,9.502,4.271,9.502,9.563
					c0-5.291,4.244-9.563,9.498-9.563C87.246,45.563,83.002,41.29,83.002,36z"/>
			</g>
		</g>
	</g>
	<g>
		<path fill="none" d="M100.5,89c0.807,0,0.988-0.55,1-1.012V84h-2v4C99.512,88.45,99.693,89,100.5,89z"/>
		<path fill="none" d="M111.5,90c0,1.206-0.799,3-3,3s-3-1.794-3-3v-5h-2v3c0,1.206-0.799,3-3,3s-3-1.794-3-3v-3h-1v13h17V85h-2V90z
			"/>
		<path fill="none" d="M108.5,91c0.807,0,0.988-0.55,1-1.012V84h-2v6C107.512,90.45,107.693,91,108.5,91z"/>
		<path fill="#005A95" d="M109.5,84v5.988c-0.012,0.462-0.193,1.012-1,1.012s-0.988-0.55-1-1v-6h-6v3.988
			c-0.012,0.462-0.193,1.012-1,1.012s-0.988-0.55-1-1v-4h-3v1h1v3c0,1.206,0.799,3,3,3s3-1.794,3-3v-3h2v5c0,1.206,0.799,3,3,3
			s3-1.794,3-3v-5h2v-1H109.5z"/>
		<path fill="#005A95" d="M94,84c0,0.366,0.206,0.673,0.5,0.848v-1.693C94.206,83.327,94,83.634,94,84z"/>
		<path fill="#005A95" d="M96.5,85v-1v-1H95c-0.188,0-0.352,0.064-0.5,0.152v1.693C94.648,84.936,94.813,85,95,85H96.5z"/>
		<path fill="#FFFFFF" d="M99.5,84h2v-1h6v1h2v-1h3.898c-0.265-1.124-1.16-2-3.898-2h-13v2h3V84z"/>
		<rect x="101.5" y="83" fill="#FFFFFF" width="6" height="1"/>
		<rect x="102.5" y="83" fill="#005A95" width="4" height="1"/>
		<path fill="#FFFFFF" d="M112.424,83H109.5v1h3C112.5,83.656,112.48,83.318,112.424,83z"/>
		<path fill="#005A95" d="M113.424,83H110.5v1h3C113.5,83.656,113.48,83.318,113.424,83z"/>
		<rect x="96.5" y="83" fill="#FFFFFF" width="3" height="1"/>
		<rect x="95.5" y="83" fill="#005A95" width="3" height="1"/>
		<path fill="#005A95" d="M109.5,79h-15v4.152C94.648,83.064,94.813,83,95,83h1.5v-2h13c2.738,0,3.635,0.876,3.898,2
			c0.074,0.318,0.102,0.656,0.102,1v1v11h-17V85H95c-0.188,0-0.352-0.064-0.5-0.152V98h21V84C115.5,81.719,114.459,79,109.5,79z"/>
	</g>
	<circle fill="#005A95" cx="98.5" cy="84" r="1"/>
	<circle fill="#005A95" cx="102.5" cy="84" r="1"/>
	<circle fill="#005A95" cx="106.5" cy="84" r="1"/>
	<circle fill="#005A95" cx="110.5" cy="84" r="1"/>
	<g>
		<polygon fill="#FFFFFF" points="103.5,70 103.5,71.898 105.398,70 		"/>
		<polygon fill="#FFFFFF" points="105.5,79 105.5,77.729 103.5,79 		"/>
		<polygon fill="#FFFFFF" points="105.5,72 103.5,74.001 103.5,76.171 105.5,74.171 		"/>
		<polygon fill="#FFFFFF" points="105.5,75.829 103.5,77.83 103.5,79 105.5,78 		"/>
		<polygon fill="#87E4B9" points="105.5,70 105.398,70 103.5,71.898 103.5,74.001 105.5,72 		"/>
		<polygon fill="#87E4B9" points="105.5,74 105.5,74 103.5,76 103.5,78.001 105.5,76 		"/>
	</g>
	<circle fill="#87E4B9" cx="29.5" cy="74" r="1"/>
	<circle fill="#87E4B9" cx="34.5" cy="71" r="1"/>
	<circle fill="#87E4B9" cx="29.5" cy="68" r="1"/>
	<circle fill="#FFFFFF" cx="33.5" cy="78" r="1"/>
	<circle fill="#FFFFFF" cx="34.5" cy="83" r="1"/>
	<circle fill="#FFFFFF" cx="28.5" cy="80" r="1"/>
	<circle fill="#FFFFFF" cx="29.5" cy="85" r="1"/>
	<rect x="54.5" y="7" fill="#87E4B9" width="4" height="1"/>
	<g>
		<g>
			<g>
				<path fill="#87E4B9" d="M85.393,109c0,2.708-2.195,4.915-4.893,4.915c2.695,0,4.893,2.207,4.893,4.915
					c0-2.708,2.197-4.915,4.894-4.915C87.488,113.914,85.393,111.708,85.393,109z"/>
			</g>
		</g>
	</g>
</g>
<circle fill="none" stroke="#005A95" stroke-width="2" stroke-miterlimit="10" cx="56.5" cy="81" r="3"/>
</svg>
