<?xml version="1.0" encoding="utf-8"?>
<!-- Generator: Adobe Illustrator 16.0.0, SVG Export Plug-In . SVG Version: 6.00 Build 0)  -->
<!DOCTYPE svg PUBLIC "-//W3C//DTD SVG 1.1//EN" "http://www.w3.org/Graphics/SVG/1.1/DTD/svg11.dtd">
<svg version="1.1" id="Слой_1" xmlns="http://www.w3.org/2000/svg" xmlns:xlink="http://www.w3.org/1999/xlink" x="0px" y="0px"
	 width="120px" height="137px" viewBox="1.5 2 120 137" enable-background="new 1.5 2 120 137" xml:space="preserve">
<g>
	<g>
		<circle fill="#EFEFEF" cx="61.5" cy="79" r="60"/>
	</g>
</g>
<g>
	<g>
		<path fill="#005A95" d="M75.499,127.011c-0.171,0-0.344-0.044-0.502-0.136c-0.478-0.277-0.64-0.89-0.361-1.367l25-43
			c0.278-0.478,0.891-0.638,1.367-0.361c0.478,0.277,0.64,0.89,0.361,1.367l-25,43C76.179,126.833,75.844,127.011,75.499,127.011z"
			/>
	</g>
</g>
<g>
	<g>
		<path fill="#005A95" d="M100.501,127.011c-0.345,0-0.68-0.178-0.865-0.497l-25-43c-0.278-0.478-0.116-1.09,0.361-1.367
			c0.477-0.277,1.09-0.116,1.367,0.361l25,43c0.278,0.478,0.116,1.09-0.361,1.367C100.845,126.967,100.672,127.011,100.501,127.011z
			"/>
	</g>
</g>
<g>
	<g>
		<g>
			<path fill="#FFFFFF" d="M118.5,79.011h-59v17H102l-7,27h10l13.5-30V79.011L118.5,79.011z"/>
		</g>
		<g>
			<path fill="#005A95" d="M105.646,124.011H93.708l7-27H58.5v-19h61v15.215L105.646,124.011z M96.292,122.011h8.062L117.5,92.796
				V80.011h-57v15h42.792L96.292,122.011z"/>
		</g>
	</g>
</g>
<g>
	<g>
		<g>
			<polygon fill="#005A95" points="108.5,114.011 96.5,114.011 96.5,116.011 108.5,116.011 			"/>
		</g>
	</g>
</g>
<g>
	<g>
		<g>
			<path fill="#005A95" d="M101.5,118.011c-0.6,0-1,0.4-1,1s0.4,1,1,1s1-0.4,1-1S102.1,118.011,101.5,118.011L101.5,118.011z"/>
		</g>
	</g>
</g>
<g>
	<g>
		<g>
			<path fill="#005A95" d="M93.5,28.011c-0.222,0,0,0-0.27,0.016H48.675c-0.124,0.046,0.026-0.016-0.175-0.016
				c-0.523,0-1.4-0.259-1.4-1.084v-0.6c0-0.944,0.469-1.767,1.286-2.257l0.11-0.057l15.6-6.9c0.144-0.076,0.414-0.346,0.482-0.466
				l0.09-0.174l1.942-2.914c0.226-0.556,0.685-1.532,1.89-1.532h5c1.085,0,1.5,0.804,1.723,1.235
				c0.042,0.082,0.085,0.167,0.136,0.251l2.036,3.067c0.069,0.104,0.395,0.459,0.52,0.541l15.688,6.89
				c0.745,0.298,1.312,1.107,1.484,2.152l0.014,0.164v0.6C95.1,27.764,94.091,28.011,93.5,28.011z M49.172,26.027h43.791
				c-0.057-0.104-0.111-0.16-0.136-0.172l-15.729-6.913c-0.538-0.175-1.206-1.003-1.434-1.367l-1.996-2.994
				c-0.1-0.164-0.163-0.285-0.223-0.402c-0.024-0.048-0.054-0.104-0.081-0.153H68.59c-0.052,0.095-0.115,0.255-0.161,0.37
				l-0.097,0.185L66.38,17.51c-0.279,0.575-1.022,1.286-1.564,1.466l-15.442,6.836C49.284,25.872,49.218,25.944,49.172,26.027z"/>
		</g>
	</g>
</g>
<g>
	<g>
		<g>
			<g>
				<g>
					<g>
						<polygon fill="#FFFFFF" points="56.5,74.026 56.5,27.027 79.9,27.027 76.5,74.026 						"/>
					</g>
					<g>
						<path fill="#005A95" d="M77.431,75.026H55.5v-49h25.476L77.431,75.026z M57.5,73.026h18.069l3.256-45H57.5V73.026z"/>
					</g>
				</g>
			</g>
		</g>
		<g>
			<g>
				<g>
					<polygon fill="#FFFFFF" points="62,65.027 62.1,59.027 86.699,59.027 85.199,65.027 					"/>
				</g>
				<g>
					<path fill="#005A95" d="M85.98,66.027H60.983l0.133-8H87.98L85.98,66.027z M63.017,64.027h21.401l1-4H63.083L63.017,64.027z"/>
				</g>
			</g>
			<g>
				<g>
					<path fill="#FFFFFF" d="M86.5,60.027h-26v6h25L86.5,60.027L86.5,60.027z"/>
				</g>
				<g>
					<path fill="#005A95" d="M86.347,67.027L60.5,67.011v-8l27.181,0.016L86.347,67.027z M62.5,65.011l22.153,0.016l0.666-4
						L62.5,61.011V65.011z"/>
				</g>
			</g>
		</g>
		<g>
			<g>
				<g>
					<polygon fill="#FFFFFF" points="62.1,59.027 62,24.027 82.699,24.027 90.9,44.127 86.6,59.027 					"/>
				</g>
				<g>
					<path fill="#005A95" d="M87.352,60.027H61.103l-0.105-37h22.374l8.586,21.044L87.352,60.027z M63.097,58.027h22.751
						l3.996-13.844l-7.816-19.156H63.003L63.097,58.027z"/>
				</g>
			</g>
			<g>
				<g>
					<path fill="#FFFFFF" d="M83.5,24.027h-23v36h26l5.5-16L83.5,24.027L83.5,24.027z"/>
				</g>
				<g>
					<path fill="#005A95" d="M87.214,61.027H60.5V23.011l23.661,0.016l8.909,20.962L87.214,61.027z M62.5,59.027h23.286
						l5.144-14.962l-8.091-19.038H62.5V59.027z"/>
				</g>
			</g>
		</g>
	</g>
	<g>
		<g>
			<g>
				<path fill="#005A95" d="M70,52.027c-0.256,0-0.512-0.098-0.707-0.293c-0.391-0.391-0.391-1.023,0-1.414l10.5-10.5
					c0.391-0.391,1.023-0.391,1.414,0s0.391,1.023,0,1.414l-10.5,10.5C70.512,51.929,70.256,52.027,70,52.027z"/>
			</g>
		</g>
	</g>
	<g>
		<g>
			<g>
				<path fill="#FFFFFF" d="M56.5,26.027c0-1.1,1.125-2,2.5-2s2.5,0.9,2.5,2"/>
			</g>
			<g>
				<path fill="#005A95" d="M62.5,26.027h-2c0-0.473-0.616-1-1.5-1s-1.5,0.527-1.5,1h-2c0-1.654,1.57-3,3.5-3
					S62.5,24.373,62.5,26.027z"/>
			</g>
		</g>
	</g>
</g>
<g>
	<g>
		<g>
			<g>
				<polygon fill="#87E4B9" points="91,71.969 87.5,75.969 117,75.969 118,71.969 				"/>
			</g>
			<g>
				<path fill="#005A95" d="M117.781,76.969H85.296l5.25-6h28.735L117.781,76.969z M89.704,74.969h26.515l0.5-2H91.454
					L89.704,74.969z"/>
			</g>
		</g>
		<g>
			<g>
				<g>
					<path fill="#87E4B9" d="M103.5,55.958c-5,0-11,5.011-14.699,12.711l-1.301,3.3h33V55.958H103.5z M116.5,66.969h-16v-1
						c0-2.5,2.5-5,5-5h11V66.969L116.5,66.969z"/>
				</g>
				<g>
					<path fill="#FFFFFF" d="M105.434,58.021c-4.697,0-10.336,4.305-13.811,11.512L90.4,72.62h31.006l0.094-14.6H105.434z
						 M115.4,67.941h-12.785l-2.215-0.936c0-2.34,2.75-6.047,5.1-6.047h11v5L115.4,67.941z"/>
				</g>
				<g>
					<path fill="#005A95" d="M121.5,72.969H86.031l1.839-4.667c3.845-8.008,10.114-13.344,15.63-13.344h18V72.969z M88.968,70.969
						H119.5V56.958h-16c-4.689,0-10.363,4.994-13.798,12.144L88.968,70.969z M117.5,67.969h-18v-2c0-3.028,2.972-6,6-6h12V67.969z
						 M101.5,65.969h14v-4h-10C103.556,61.969,101.5,64.025,101.5,65.969z"/>
				</g>
			</g>
		</g>
	</g>
	<g>
		<g>
			<path fill="#FFFFFF" d="M110.5,68.969h-4c-1.1,0-2-0.9-2-2l0,0c0-1.1,0.9-2,2-2h4c1.1,0,2,0.9,2,2l0,0
				C112.5,68.07,111.6,68.969,110.5,68.969z"/>
		</g>
		<g>
			<path fill="#005A95" d="M110.5,69.969h-4c-1.654,0-3-1.346-3-3s1.346-3,3-3h4c1.654,0,3,1.346,3,3S112.154,69.969,110.5,69.969z
				 M106.5,65.969c-0.552,0-1,0.449-1,1s0.448,1,1,1h4c0.552,0,1-0.449,1-1s-0.448-1-1-1H106.5z"/>
		</g>
	</g>
	<g>
		<g>
			<path fill="#005A95" d="M94.5,60.969c-0.553,0-1-0.448-1-1v-2c0-0.552,0.447-1,1-1s1,0.448,1,1v2
				C95.5,60.521,95.053,60.969,94.5,60.969z"/>
		</g>
	</g>
</g>
<g>
	<g>
		<path fill="#FFFFFF" d="M52.5,71.011h-49v46h49V71.011z"/>
	</g>
	<g>
		<path fill="#005A95" d="M53.5,118.011h-51v-48h51V118.011z M4.5,116.011h47v-44h-47V116.011z"/>
	</g>
</g>
<g>
	<g>
		<g>
			<path fill="#87E4B9" d="M28.1,77.011c-9.385,0-16.998,7.559-16.998,17s7.613,17,16.998,17s17.002-7.559,17.002-17
				S37.484,77.011,28.1,77.011z M28.1,102.511c-4.637,0-8.498-3.8-8.498-8.5c0-4.695,3.752-8.5,8.498-8.5
				c4.639,0,8.502,3.805,8.502,8.5C36.602,98.711,32.738,102.511,28.1,102.511z"/>
		</g>
		<g>
			<path fill="#FFFFFF" d="M28.498,79.011c-8.832,0-15.998,7.113-15.998,16s7.166,16,15.998,16s16.002-7.113,16.002-16
				S37.33,79.011,28.498,79.011z"/>
		</g>
		<g>
			<g>
				<path fill="none" d="M28.1,78.011c-8.821,0-15.998,7.178-15.998,16s7.177,16,15.998,16c8.823,0,16.002-7.178,16.002-16
					S36.923,78.011,28.1,78.011z M28.1,103.511c-5.237,0-9.498-4.262-9.498-9.5s4.261-9.5,9.498-9.5c5.239,0,9.502,4.262,9.502,9.5
					S33.339,103.511,28.1,103.511z"/>
			</g>
			<g>
				<g>
					<path fill="#FFFFFF" d="M27.998,82.511c-6.339,0-11.498,5.16-11.498,11.5s5.159,11.5,11.498,11.5
						c6.341,0,11.502-5.16,11.502-11.5S34.339,82.511,27.998,82.511z"/>
				</g>
				<g>
					<path fill="#87E4B9" d="M28.5,95.011c-6.339,0-12-4.84-12,1.5s5.661,8.5,12,8.5c6.341,0,11-2.66,11-9
						S34.841,95.011,28.5,95.011z"/>
				</g>
				<g>
					<path fill="#005A95" d="M27.998,106.511c-6.892,0-12.498-5.607-12.498-12.5s5.606-12.5,12.498-12.5
						c6.894,0,12.502,5.607,12.502,12.5S34.892,106.511,27.998,106.511z M27.998,83.511c-5.789,0-10.498,4.71-10.498,10.5
						s4.709,10.5,10.498,10.5c5.791,0,10.502-4.71,10.502-10.5S33.789,83.511,27.998,83.511z"/>
				</g>
			</g>
			<g>
				<path fill="#005A95" d="M27.998,76.011c-9.924,0-17.998,8.075-17.998,18s8.074,18,17.998,18c9.927,0,18.002-8.075,18.002-18
					S37.925,76.011,27.998,76.011z M27.998,110.011c-8.821,0-15.998-7.178-15.998-16s7.177-16,15.998-16
					c8.823,0,16.002,7.178,16.002,16S36.821,110.011,27.998,110.011z"/>
			</g>
		</g>
	</g>
	<g>
		<g>
			<rect x="3.5" y="62.011" fill="#FFFFFF" width="49" height="9.1"/>
		</g>
		<g>
			<path fill="#005A95" d="M53.5,72.11h-51v-11.1h51V72.11z M4.5,70.11h47v-7.1h-47V70.11z"/>
		</g>
	</g>
</g>
<g>
	<g>
		<g>
			<g>
				<g>
					<path fill="#FFFFFF" d="M45.5,128.011l0.1-1.8c0-1,0.801-2,1.801-2.2l3.799-0.5c1.604-0.2,4-1,5.5-1.7l11.803-5.6
						c1,0.5,2,0.899,3.1,1.2c2,0.6,4,0.898,6.1,0.898c1.5,0,2.9-0.199,4.4-0.5c0.5-0.1,1-0.199,1.5-0.398v4l-0.1,3.6l-10-1l-8.303,4
						H45.5z"/>
				</g>
				<g>
					<path fill="#005A95" d="M65.428,129.011H44.443l0.158-2.855c-0.002-1.436,1.142-2.833,2.603-3.125l3.864-0.511
						c1.496-0.188,3.821-0.968,5.208-1.615l12.237-5.806l0.436,0.218c1.001,0.501,1.928,0.859,2.916,1.13
						c1.945,0.583,3.847,0.863,5.836,0.863c1.267,0,2.524-0.144,4.204-0.48c0.469-0.094,0.911-0.182,1.326-0.347l1.37-0.546v5.475
						l-0.13,4.701l-10.789-1.078L65.428,129.011z M46.556,127.011h18.415l8.351-4.023l9.211,0.922l0.069-2.525v-2.655
						c-0.103,0.021-0.204,0.042-0.305,0.062c-1.814,0.364-3.189,0.52-4.596,0.52c-2.187,0-4.275-0.308-6.387-0.94
						c-0.936-0.256-1.866-0.602-2.817-1.049l-11.369,5.394c-1.55,0.724-4.037,1.568-5.805,1.789l-3.792,0.499
						c-0.456,0.094-0.932,0.675-0.932,1.209L46.556,127.011z"/>
				</g>
			</g>
			<g>
				<g>
					<g>
						<path fill="#FFFFFF" d="M68.5,115.011l-12.199,5.9c-1.301,0.699-3.701,1.399-5.201,1.6l-3.799,0.5
							c-1.5,0.2-2.701,1.6-2.803,2.955l0.002,1.045v1h5h16l8-4h2l4,2h2h3v-4v-1l0,0v-5c-0.9,0.3-1.699,0.6-2.6,0.8l0,0
							c-1.398,0.3-2.801,0.5-4.201,0.5c-2.1,0-4.1-0.3-5.799-0.899l0,0C70.6,116.011,69.5,115.511,68.5,115.011L68.5,115.011z"/>
					</g>
					<g>
						<path fill="#87E4B9" d="M45.5,128.311v-2.4c0-1,0.834-2,1.876-2.1l3.957-0.5c1.356-0.2,3.232-0.7,4.688-1.3l0.417,0.899
							c0.21,0.399,0.417,0.699,0.73,1c0.625,0.601,1.457,0.899,2.188,0.899l4.792,0.201c0.728,0,1.353,0.699,1.353,1.399v1.7
							l-20,0.198V128.311z"/>
					</g>
					<g>
						<path fill="#005A95" d="M65.736,129.011H43.5l-0.002-3.043c0.146-1.992,1.758-3.693,3.671-3.948l3.8-0.5
							c1.479-0.197,3.75-0.894,4.858-1.489l12.681-6.134l0.439,0.22c0.873,0.437,1.942,0.938,3.247,1.339
							c1.601,0.564,3.491,0.855,5.505,0.855c1.187,0,2.492-0.156,3.991-0.478c0.655-0.146,1.281-0.359,1.944-0.585l1.865-0.624
							v12.387h-6.236l-4-2h-1.527L65.736,129.011z M45.5,127.011h19.764l8-4h2.473l4,2H83.5v-7.608
							c-0.446,0.145-0.896,0.276-1.383,0.385c-1.646,0.353-3.089,0.523-4.418,0.523c-2.238,0-4.358-0.331-6.132-0.956
							c-1.191-0.366-2.238-0.828-3.071-1.231l-11.76,5.688c-1.445,0.777-3.994,1.489-5.505,1.69l-3.8,0.5
							c-1.062,0.142-1.873,1.188-1.937,2.039L45.5,127.011z"/>
					</g>
				</g>
			</g>
		</g>
		<g>
			<path fill="#87E4B9" d="M77.5,123.011c0.285-1.8,2.215-3.4,4.929-3.866c0.357-0.067,0.714-0.134,1.071-0.134v4H77.5z"/>
		</g>
		<g>
			<g>
				<g>
					<path fill="#FFFFFF" d="M85.5,124.011h-12l-8,4h-23h1H48h17.5l8-4h1h-1v2v2l0,0h9h3V124.011L85.5,124.011z"/>
				</g>
				<g>
					<path fill="#005A95" d="M86.5,129.011h-14v-3.382l-6.764,3.382H42.5v-2h22.764l7.236-3.618v-0.382h14V129.011z M74.5,127.011
						h10v-2h-10V127.011z"/>
				</g>
			</g>
		</g>
	</g>
	<g>
		<g>
			<g>
				<path fill="#005A95" d="M63.5,122.011c-0.256,0-0.512-0.098-0.707-0.293l-2-2c-0.391-0.391-0.391-1.023,0-1.414
					s1.023-0.391,1.414,0l2,2c0.391,0.391,0.391,1.023,0,1.414C64.012,121.913,63.756,122.011,63.5,122.011z"/>
			</g>
		</g>
	</g>
	<g>
		<g>
			<g>
				<path fill="#005A95" d="M66.5,120.011c-0.256,0-0.512-0.098-0.707-0.293l-2-2c-0.391-0.391-0.391-1.023,0-1.414
					s1.023-0.391,1.414,0l2,2c0.391,0.391,0.391,1.023,0,1.414C67.012,119.913,66.756,120.011,66.5,120.011z"/>
			</g>
		</g>
	</g>
</g>
<g>
	<g>
		<g>
			<g>
				<g>
					<path fill="#FFFFFF" d="M48.5,132l0.1-1.8c0-1,0.801-2,1.801-2.2l3.799-0.5c1.604-0.2,4-1,5.5-1.7l11.803-5.6
						c1,0.5,2,0.899,3.1,1.2c2,0.6,4,0.898,6.1,0.898c1.5,0,2.9-0.199,4.4-0.5c0.5-0.1,1-0.199,1.5-0.398v4l-0.1,3.6l-10-1l-8.303,4
						H48.5z"/>
				</g>
				<g>
					<path fill="#005A95" d="M68.428,133H47.443l0.158-2.855c-0.002-1.436,1.142-2.833,2.603-3.125l3.864-0.511
						c1.496-0.188,3.821-0.968,5.208-1.615l12.237-5.806l0.436,0.218c1.001,0.501,1.928,0.859,2.916,1.13
						c1.945,0.583,3.847,0.863,5.836,0.863c1.267,0,2.524-0.144,4.204-0.48c0.469-0.094,0.911-0.182,1.326-0.347l1.37-0.546v5.475
						l-0.13,4.701l-10.789-1.078L68.428,133z M49.556,131h18.415l8.351-4.023l9.211,0.922l0.069-2.525v-2.655
						c-0.103,0.021-0.204,0.042-0.305,0.062c-1.814,0.364-3.189,0.52-4.596,0.52c-2.187,0-4.275-0.308-6.387-0.94
						c-0.936-0.256-1.866-0.602-2.817-1.049l-11.369,5.394c-1.55,0.724-4.037,1.568-5.805,1.789l-3.792,0.499
						c-0.456,0.094-0.932,0.675-0.932,1.209L49.556,131z"/>
				</g>
			</g>
			<g>
				<g>
					<g>
						<path fill="#FFFFFF" d="M71.5,119l-12.199,5.9C58,125.6,55.6,126.3,54.1,126.5l-3.799,0.5c-1.5,0.2-2.701,1.6-2.803,2.955
							L47.5,131v1h5h16l8-4h2l4,2h2h3v-4v-1l0,0v-5c-0.9,0.3-1.699,0.6-2.6,0.8l0,0c-1.398,0.3-2.801,0.5-4.201,0.5
							c-2.1,0-4.1-0.3-5.799-0.899l0,0C73.6,120,72.5,119.5,71.5,119L71.5,119z"/>
					</g>
					<g>
						<path fill="#87E4B9" d="M48.5,132.3v-2.4c0-1,0.834-2,1.876-2.1l3.957-0.5c1.356-0.2,3.232-0.7,4.688-1.3l0.417,0.899
							c0.21,0.399,0.417,0.699,0.73,1c0.625,0.601,1.457,0.899,2.188,0.899L67.147,129c0.728,0,1.353,0.699,1.353,1.399v1.7
							l-20,0.198V132.3z"/>
					</g>
					<g>
						<path fill="#005A95" d="M68.736,133H46.5l-0.002-3.043c0.146-1.992,1.758-3.693,3.671-3.948l3.8-0.5
							c1.479-0.197,3.75-0.894,4.858-1.489l12.681-6.134l0.439,0.22c0.873,0.437,1.942,0.938,3.247,1.339
							c1.601,0.564,3.491,0.855,5.505,0.855c1.187,0,2.492-0.156,3.991-0.478c0.655-0.146,1.281-0.359,1.944-0.585l1.865-0.624V131
							h-6.236l-4-2h-1.527L68.736,133z M48.5,131h19.764l8-4h2.473l4,2H86.5v-7.608c-0.446,0.145-0.896,0.276-1.383,0.385
							c-1.646,0.353-3.089,0.523-4.418,0.523c-2.238,0-4.358-0.331-6.132-0.956c-1.191-0.366-2.238-0.828-3.071-1.231l-11.76,5.688
							c-1.445,0.777-3.994,1.489-5.505,1.69l-3.8,0.5c-1.062,0.142-1.873,1.188-1.937,2.039L48.5,131z"/>
					</g>
				</g>
			</g>
		</g>
		<g>
			<path fill="#87E4B9" d="M80.5,127c0.285-1.8,2.215-3.4,4.929-3.866C85.786,123.066,86.143,123,86.5,123v4H80.5z"/>
		</g>
		<g>
			<g>
				<g>
					<path fill="#FFFFFF" d="M88.5,128h-12l-8,4h-23h1H51h17.5l8-4h1h-1v2v2l0,0h9h3V128L88.5,128z"/>
				</g>
				<g>
					<path fill="#005A95" d="M89.5,133h-14v-3.382L68.736,133H45.5v-2h22.764l7.236-3.618V127h14V133z M77.5,131h10v-2h-10V131z"/>
				</g>
			</g>
		</g>
	</g>
	<g>
		<g>
			<g>
				<path fill="#005A95" d="M66.5,126c-0.256,0-0.512-0.098-0.707-0.293l-2-2c-0.391-0.391-0.391-1.023,0-1.414s1.023-0.391,1.414,0
					l2,2c0.391,0.391,0.391,1.023,0,1.414C67.012,125.902,66.756,126,66.5,126z"/>
			</g>
		</g>
	</g>
	<g>
		<g>
			<g>
				<path fill="#005A95" d="M69.5,124c-0.256,0-0.512-0.098-0.707-0.293l-2-2c-0.391-0.391-0.391-1.023,0-1.414s1.023-0.391,1.414,0
					l2,2c0.391,0.391,0.391,1.023,0,1.414C70.012,123.902,69.756,124,69.5,124z"/>
			</g>
		</g>
	</g>
</g>
<g>
	<g>
		<g>
			<path fill="#87E4B9" d="M103.5,30.011c0,3.369-2.734,6-6,6c3.369,0,6,2.734,6,6c0-3.369,2.738-6,6-6
				C106.236,36.011,103.5,33.273,103.5,30.011z"/>
		</g>
	</g>
</g>
<g>
	<g>
		<g>
			<path fill="#87E4B9" d="M31.393,32.011c0,2.708-2.195,4.915-4.893,4.915c2.695,0,4.893,2.207,4.893,4.915
				c0-2.708,2.197-4.915,4.893-4.915C33.488,36.925,31.393,34.719,31.393,32.011z"/>
		</g>
	</g>
</g>
<g>
	<g>
		<g>
			<path fill="#87E4B9" d="M56.002,95.011c0,5.291-4.246,9.563-9.502,9.563c5.256,0,9.502,4.271,9.502,9.563
				c0-5.291,4.244-9.563,9.498-9.563C60.246,104.573,56.002,100.301,56.002,95.011z"/>
		</g>
	</g>
</g>
<g>
	<g>
		<path fill="#005A95" d="M59.5,82.011h-2c-0.553,0-1-0.447-1-1s0.447-1,1-1h2c0.553,0,1,0.447,1,1S60.053,82.011,59.5,82.011z"/>
	</g>
</g>
<g>
	<path fill="#005A95" d="M120.5,82.011h-2c-0.553,0-1-0.447-1-1s0.447-1,1-1h2c0.553,0,1,0.447,1,1S121.053,82.011,120.5,82.011z"/>
</g>
<g>
	<g>
		<path fill="#87E4B9" d="M48.5,47.011L47.432,58.04c0,0.536-0.892,0.971-1.992,0.971H10.56c-1.101,0-1.991-0.435-1.991-0.971
			L7.5,47.011"/>
	</g>
	<g>
		<path fill="#005A95" d="M45.439,60.011H10.56c-1.623,0-2.949-1.278-2.99-2.865L4.51,35.148c-0.076-0.547,0.306-1.052,0.853-1.128
			c0.547-0.084,1.052,0.305,1.128,0.853l3.078,22.196c0,0.519,0.444,0.941,0.991,0.941h34.88c0.547,0,0.992-0.422,0.992-0.941
			l0.01-0.138l3.068-22.059c0.076-0.547,0.581-0.935,1.128-0.853c0.547,0.076,0.929,0.581,0.853,1.128l-3.06,21.997
			C48.39,58.732,47.063,60.011,45.439,60.011z"/>
	</g>
</g>
<g>
	<g>
		<circle fill="#FFFFFF" cx="14.5" cy="47.042" r="3"/>
	</g>
	<g>
		<path fill="#005A95" d="M14.5,51.032c-2.2,0-3.989-1.79-3.989-3.99s1.789-3.99,3.989-3.99s3.989,1.79,3.989,3.99
			S16.7,51.032,14.5,51.032z M14.5,45.032c-1.108,0-2.011,0.902-2.011,2.01s0.902,2.01,2.011,2.01s2.011-0.902,2.011-2.01
			S15.608,45.032,14.5,45.032z"/>
	</g>
</g>
<g>
	<g>
		<circle fill="#FFFFFF" cx="40.5" cy="47.073" r="5"/>
	</g>
	<g>
		<path fill="#005A95" d="M40.5,53.115c-3.331,0-6.042-2.71-6.042-6.042s2.711-6.042,6.042-6.042s6.042,2.71,6.042,6.042
			S43.831,53.115,40.5,53.115z M40.5,43.115c-2.183,0-3.958,1.775-3.958,3.958s1.775,3.958,3.958,3.958s3.958-1.775,3.958-3.958
			S42.683,43.115,40.5,43.115z"/>
	</g>
</g>
<g>
	<g>
		<circle fill="#FFFFFF" cx="24" cy="47.011" r="2.5"/>
	</g>
	<g>
		<path fill="#005A95" d="M24,50.511c-1.93,0-3.5-1.57-3.5-3.5s1.57-3.5,3.5-3.5s3.5,1.57,3.5,3.5S25.93,50.511,24,50.511z
			 M24,45.511c-0.827,0-1.5,0.673-1.5,1.5s0.673,1.5,1.5,1.5s1.5-0.673,1.5-1.5S24.827,45.511,24,45.511z"/>
	</g>
</g>
<g>
	<g>
		<path fill="#005A95" d="M48.5,48.011h-41c-0.553,0-1-0.448-1-1s0.447-1,1-1h41c0.553,0,1,0.448,1,1S49.053,48.011,48.5,48.011z"/>
	</g>
</g>
<g>
	<rect x="10.5" y="48.011" fill="#87E4B9" width="36" height="6"/>
</g>
<g>
	<circle fill="#FFFFFF" cx="14.5" cy="47.011" r="2"/>
</g>
<g>
	<circle fill="#FFFFFF" cx="24" cy="47.011" r="1.5"/>
</g>
<g>
	<path fill="#FFFFFF" d="M20.5,56.011c-1.654,0-3-1.346-3-3s1.346-3,3-3s3,1.346,3,3S22.154,56.011,20.5,56.011z M20.5,52.011
		c-0.551,0-1,0.449-1,1s0.449,1,1,1s1-0.449,1-1S21.051,52.011,20.5,52.011z"/>
</g>
<g>
	<circle fill="#FFFFFF" cx="33.5" cy="51.011" r="1"/>
</g>
<g>
	<circle fill="#FFFFFF" cx="28" cy="52.511" r="1.5"/>
</g>
<g>
	<circle fill="#FFFFFF" cx="12.5" cy="53.011" r="1"/>
</g>
<g>
	<circle fill="#FFFFFF" cx="40.5" cy="47.011" r="4"/>
</g>
<g>
	<circle fill="#FFFFFF" cx="22.5" cy="98.011" r="1"/>
</g>
<g>
	<circle fill="#FFFFFF" cx="29" cy="100.511" r="1.5"/>
</g>
<g>
	<circle fill="#FFFFFF" cx="33.5" cy="97.011" r="1"/>
</g>
<g>
	<rect x="59.5" y="26.011" fill="#FFFFFF" width="1" height="2"/>
</g>
<g>
	<rect x="59" y="23.011" fill="#005A95" width="3" height="2"/>
</g>
<g>
	<rect x="65.5" y="60.011" fill="#005A95" width="2" height="6"/>
</g>
<g>
	<rect x="72.5" y="60.011" fill="#005A95" width="2" height="6"/>
</g>
<g>
	<rect x="60.5" y="82.01" fill="#87E4B9" width="57" height="2"/>
</g>
<g>
	<rect x="60.5" y="87.011" fill="#87E4B9" width="57" height="2"/>
</g>
<g>
	<rect x="60.5" y="92.012" fill="#87E4B9" width="57" height="2"/>
</g>
<g>
	<polygon fill="none" points="101.587,114.011 104.736,114.011 110.796,95.011 107.646,95.011 	"/>
</g>
<g>
	<polygon fill="none" points="99.036,122.011 102.186,122.011 104.099,116.011 100.949,116.011 	"/>
</g>
<g>
	<polygon fill="#87E4B9" points="100.949,116.011 98.85,116.011 96.937,122.011 99.036,122.011 	"/>
</g>
<g>
	<polygon fill="#87E4B9" points="107.646,95.011 105.547,95.011 99.487,114.011 101.587,114.011 	"/>
</g>
<g>
	<polygon fill="#87E4B9" points="102.186,122.011 104.285,122.011 106.199,116.011 104.099,116.011 	"/>
</g>
<g>
	<polygon fill="#87E4B9" points="110.796,95.011 104.736,114.011 106.836,114.011 112.895,95.011 	"/>
</g>
<g>
	<rect x="79.5" y="60.011" fill="#005A95" width="2" height="6"/>
</g>
<g>
	<path fill="#005A95" d="M11.5,68c-0.552,0-1-0.448-1-1v-1c0-0.552,0.448-1,1-1s1,0.448,1,1v1C12.5,67.552,12.052,68,11.5,68z"/>
</g>
<g>
	<path fill="#005A95" d="M16.5,68c-0.552,0-1-0.448-1-1v-1c0-0.552,0.448-1,1-1s1,0.448,1,1v1C17.5,67.552,17.052,68,16.5,68z"/>
</g>
<g>
	<path fill="#005A95" d="M21.5,68c-0.552,0-1-0.448-1-1v-1c0-0.552,0.448-1,1-1s1,0.448,1,1v1C22.5,67.552,22.052,68,21.5,68z"/>
</g>
<g>
	<path fill="#005A95" d="M26.5,68c-0.552,0-1-0.448-1-1v-1c0-0.552,0.448-1,1-1s1,0.448,1,1v1C27.5,67.552,27.052,68,26.5,68z"/>
</g>
<g>
	<g>
		<g>
			<path fill="#005A95" d="M71.01,16.011c-0.553,0-1-0.448-1-1v-3.225c-0.048-0.044-0.108-0.089-0.146-0.106
				c-2.489-0.928-3.818-3.384-3.225-5.857c0.399-1.803,1.895-3.298,3.715-3.704C71.615,1.826,73,2.08,74.15,2.811
				c1.092,0.695,1.893,1.854,2.198,3.181c0.124,0.538-0.212,1.075-0.75,1.199c-0.542,0.123-1.075-0.212-1.199-0.75
				c-0.186-0.807-0.68-1.532-1.323-1.941c-0.69-0.439-1.543-0.601-2.278-0.429c-1.069,0.238-1.975,1.144-2.209,2.203
				c-0.356,1.483,0.435,2.943,1.88,3.502c0.667,0.204,1.541,0.956,1.541,1.807v3.429C72.01,15.563,71.563,16.011,71.01,16.011z"/>
		</g>
	</g>
</g>
</svg>
