<?xml version="1.0" encoding="utf-8"?>
<!-- Generator: Adobe Illustrator 16.0.0, SVG Export Plug-In . SVG Version: 6.00 Build 0)  -->
<!DOCTYPE svg PUBLIC "-//W3C//DTD SVG 1.1//EN" "http://www.w3.org/Graphics/SVG/1.1/DTD/svg11.dtd">
<svg version="1.1" id="Слой_1" xmlns="http://www.w3.org/2000/svg" xmlns:xlink="http://www.w3.org/1999/xlink" x="0px" y="0px"
	 width="120px" height="137px" viewBox="-0.5 1 120 137" enable-background="new -0.5 1 120 137" xml:space="preserve">
<g>
	<g>
		<circle fill="#EFEFEF" cx="59.5" cy="78" r="60"/>
	</g>
	<g>
		<rect x="14.5" y="116" fill="#FFFFFF" width="96" height="7"/>
	</g>
	<g>
		<polygon fill="#FFFFFF" points="100.5,54 81.5,39 81.5,32 100.5,32 		"/>
	</g>
	<g>
		<polygon fill="#87E4B9" points="106.5,116 18.5,116 18.5,68 62.5,33 106.5,68 		"/>
	</g>
	<g>
		<polygon fill="#FFFFFF" points="106.5,121 18.5,121 18.5,73 62.5,38 106.5,73 		"/>
	</g>
	<g>
		<rect x="32.5" y="79" fill="#FFFFFF" width="24" height="45"/>
		<path fill="#005A95" d="M57.5,125h-26V78h26V125z M33.5,123h22V80h-22V123z"/>
	</g>
	<g>
		<rect x="71.5" y="80" fill="#87E4B9" width="20" height="23"/>
	</g>
	<g>
		<polygon fill="#FFFFFF" points="90.5,101 82.5,101 90.5,92 		"/>
	</g>
	<g>
		<polygon fill="#FFFFFF" points="90.5,90 82.5,90 90.5,81 		"/>
	</g>
	<g>
		<polygon fill="#FFFFFF" points="80.5,90 72.5,90 80.5,81 		"/>
	</g>
	<g>
		<polygon fill="#FFFFFF" points="80.5,101 72.5,101 80.5,92 		"/>
	</g>
	<g>
		<rect x="90.5" y="79" fill="#005A95" width="2" height="24"/>
	</g>
	<g>
		<rect x="99.5" y="32" fill="#005A95" width="2" height="24"/>
	</g>
	<g>
		<rect x="80.5" y="32" fill="#005A95" width="2" height="9"/>
	</g>
	<g>
		<rect x="105.5" y="68" fill="#005A95" width="2" height="49"/>
	</g>
	<g>
		<rect x="56.5" y="115" fill="#005A95" width="55" height="2"/>
	</g>
	<g>
		<rect x="13.5" y="115" fill="#005A95" width="19" height="2"/>
	</g>
	<g>
		<rect x="17.5" y="68" fill="#005A95" width="2" height="49"/>
	</g>
	<g>
		<rect x="80.5" y="79" fill="#005A95" width="2" height="24"/>
	</g>
	<g>
		<rect x="109.5" y="116" fill="#005A95" width="2" height="8"/>
	</g>
	<g>
		<rect x="13.5" y="116" fill="#005A95" width="2" height="8"/>
	</g>
	<g>
		<rect x="70.5" y="79" fill="#005A95" width="2" height="24"/>
	</g>
	<g>
		<rect x="70.5" y="79" fill="#005A95" width="22" height="2"/>
	</g>
	<g>
		<rect x="70.5" y="90" fill="#005A95" width="22" height="2"/>
	</g>
	<g>
		<circle fill="#87E4B9" cx="62.5" cy="60" r="10"/>
		<circle fill="#FFFFFF" cx="64" cy="61.5" r="8.5"/>
		<path fill="#005A95" d="M62.5,71c-6.065,0-11-4.935-11-11s4.935-11,11-11c6.064,0,11,4.935,11,11S68.564,71,62.5,71z M62.5,51
			c-4.963,0-9,4.038-9,9s4.037,9,9,9s9-4.038,9-9S67.463,51,62.5,51z"/>
	</g>
	<g>
		<rect x="38.5" y="85" fill="#87E4B9" width="12" height="17"/>
		<polygon fill="#FFFFFF" points="50.5,102 39.5,101 49.5,86 		"/>
		<path fill="#005A95" d="M51.5,103h-14V84h14V103z M39.5,101h10V86h-10V101z"/>
	</g>
	<g>
		<path fill="#FFFFFF" d="M103.5,30.953c0,0.569-0.463,1.03-1.035,1.03h-22.93c-0.572,0-1.035-0.461-1.035-1.03v-5.94
			c0-0.569,0.463-1.03,1.035-1.03h22.93c0.572,0,1.035,0.461,1.035,1.03V30.953z"/>
		<path fill="#005A95" d="M102.5,33h-23c-1.122,0-2-0.881-2-2v-6c0-1.119,0.878-2,2-2h23c1.122,0,2,0.894,2,2.013V31
			C104.5,32.119,103.622,33,102.5,33z M79.5,25v6h21c0.021,0,2,0.015,2,0v-6H79.5z"/>
	</g>
	<g>
		<g>
			<path fill="#87E4B9" d="M110.393,44c0,2.708-2.195,4.915-4.893,4.915c2.695,0,4.893,2.207,4.893,4.915
				c0-2.708,2.197-4.915,4.894-4.915C112.488,48.914,110.393,46.708,110.393,44z"/>
		</g>
	</g>
	<g>
		<path fill="#FFFFFF" d="M94.518,108.988c0,0.568-0.463,1.029-1.033,1.029H69.551c-0.57,0-1.033-0.461-1.033-1.029v-5.941
			c0-0.568,0.463-1.029,1.033-1.029h23.934c0.57,0,1.033,0.461,1.033,1.029V108.988z"/>
		<path fill="#87E4B9" d="M94.518,110.971c0,0.568-0.463,1.029-1.033,1.029H69.551c-0.57,0-1.033-0.461-1.033-1.029v-5.941
			c0-0.567,0.479,4.972,1.049,4.972H93.5c0.57,0,1.018-5.539,1.018-4.972V110.971z"/>
		<path fill="#005A95" d="M93.5,111h-24c-1.121,0-2-0.881-2-2v-6c0-1.119,0.879-2,2-2h24c1.121,0,2,0.881,2,2v6
			C95.5,110.119,94.621,111,93.5,111z M69.5,103v6h24c0,0-0.018,0.012,0,0v-6H69.5z"/>
	</g>
	<g>
		<rect x="61.5" y="50" fill="#005A95" width="2" height="21"/>
	</g>
	<g>
		<rect x="51.5" y="59" fill="#005A95" width="22" height="2"/>
	</g>
	<g>
		<path fill="#FFFFFF" d="M117.122,67.617L63.212,23.3C63.029,23.115,62.779,23,62.5,23c-0.27,0-0.512,0.109-0.689,0.282
			l-5.637,4.629L7.878,67.617c-0.441,0.363-0.505,1.015-0.143,1.456l3.788,4.609c0.363,0.44,1.016,0.504,1.457,0.141l49.52-40.71
			l49.52,40.71c0.441,0.363,1.094,0.301,1.457-0.141l3.789-4.609C117.627,68.632,117.563,67.98,117.122,67.617z"/>
		<path fill="#005A95" d="M62.5,31.817l50.178,41.241c0.016,0,0.023-0.01,0.026-0.013l3.788-4.608L62.499,24.001L8.514,68.389
			l3.783,4.657L62.5,31.817z M112.678,75.059c-0.472,0-0.931-0.163-1.294-0.464L62.5,34.406l-48.885,40.19
			c-0.834,0.686-2.178,0.556-2.863-0.279l-3.789-4.608c-0.713-0.866-0.587-2.15,0.279-2.863l53.933-44.337
			c0.636-0.622,1.959-0.67,2.706,0.046l53.876,44.289c0.866,0.713,0.992,1.997,0.28,2.863l-3.788,4.608
			C113.859,74.788,113.287,75.059,112.678,75.059z"/>
	</g>
	<g>
		<path fill="#005A95" d="M43.5,107h-5c-0.553,0-1-0.447-1-1s0.447-1,1-1h5c0.553,0,1,0.447,1,1S44.053,107,43.5,107z"/>
	</g>
	<g>
		<path fill="#005A95" d="M118.5,125H0.5c-0.553,0-1-0.447-1-1s0.447-1,1-1h118c0.553,0,1,0.447,1,1S119.053,125,118.5,125z"/>
	</g>
	<g>
		<path fill="#FFFFFF" d="M22.9,115.4c-0.9,0-1.701,0.199-2.3,0.6c-0.6-2.799-3.2-4.9-6.2-4.9c-1.7,0-3.2,0.4-4.3,1.5
			c-0.8,0.801-1.7,2.102-1.901,3.4c-0.699-0.4-1.5-0.6-2.399-0.6c-2.399,0-4.3,1.899-4.3,4.301C1.5,122.1,3.4,124,5.8,124h17.1
			c2.399,0,4.299-1.9,4.299-4.299C27.199,117.301,25.3,115.4,22.9,115.4z"/>
		<path fill="#87E4B9" d="M21.583,118c-0.761,0-1.576,0.721-2.083,1c0-3,0.535-1-2-1c-1.437,0-6.071-1.768-7-1c-0.676,0.559-1,0-1,2
			c-0.591-0.279-1.607-1-2.367-1c-2.027,0-3.633,1.326-3.633,3.001c0,1.674,1.606,2.999,3.633,2.999h14.449
			c2.027,0,3.632-1.325,3.632-2.999C25.215,119.326,23.61,118,21.583,118z"/>
		<path fill="#005A95" d="M22.9,125H5.8c-2.972,0-5.3-2.327-5.3-5.299c0-2.973,2.328-5.301,5.3-5.301c0.616,0,1.2,0.08,1.746,0.242
			c0.544-1.369,1.505-2.408,1.847-2.75c1.207-1.207,2.845-1.793,5.007-1.793c3.032,0,5.729,1.846,6.82,4.528
			c0.511-0.149,1.077-0.229,1.681-0.229c2.971,0,5.299,2.328,5.299,5.302C28.199,122.673,25.871,125,22.9,125z M5.8,116.4
			c-1.851,0-3.3,1.449-3.3,3.301c0,1.85,1.449,3.299,3.3,3.299h17.1c1.85,0,3.299-1.449,3.299-3.299
			c0-1.852-1.449-3.301-3.299-3.301c-0.719,0-1.322,0.148-1.746,0.432l-1.225,0.816l-0.308-1.438
			c-0.511-2.382-2.707-4.11-5.223-4.11c-1.604,0-2.78,0.396-3.593,1.207c-0.644,0.646-1.453,1.776-1.619,2.846l-0.221,1.438
			l-1.264-0.723C7.153,116.555,6.531,116.4,5.8,116.4z"/>
	</g>
	<rect x="82.5" y="33" fill="#87E4B9" width="17" height="2"/>
	<rect x="57.5" y="117" fill="#87E4B9" width="2" height="6"/>
	<rect x="62.5" y="117" fill="#87E4B9" width="2" height="6"/>
	<rect x="67.5" y="117" fill="#87E4B9" width="2" height="6"/>
	<rect x="72.5" y="117" fill="#87E4B9" width="2" height="6"/>
	<rect x="77.5" y="117" fill="#87E4B9" width="2" height="6"/>
	<rect x="82.5" y="117" fill="#87E4B9" width="2" height="6"/>
	<rect x="87.5" y="117" fill="#87E4B9" width="2" height="6"/>
	<rect x="92.5" y="117" fill="#87E4B9" width="2" height="6"/>
	<rect x="97.5" y="117" fill="#87E4B9" width="2" height="6"/>
	<rect x="102.5" y="117" fill="#87E4B9" width="2" height="6"/>
	<rect x="107.5" y="117" fill="#87E4B9" width="2" height="6"/>
	<rect x="29.5" y="117" fill="#87E4B9" width="2" height="6"/>
	<g>
		<g>
			<path fill="#87E4B9" d="M32.607,27.17c0,2.708-2.195,4.915-4.893,4.915c2.695,0,4.893,2.207,4.893,4.915
				c0-2.708,2.197-4.915,4.893-4.915C34.703,32.084,32.607,29.878,32.607,27.17z"/>
		</g>
	</g>
	<g>
		<g>
			<path fill="#87E4B9" d="M13.002,81c0,5.291-4.246,9.563-9.502,9.563c5.256,0,9.502,4.271,9.502,9.563
				c0-5.291,4.244-9.563,9.498-9.563C17.246,90.563,13.002,86.29,13.002,81z"/>
		</g>
	</g>
</g>
<ellipse fill="#87E4B9" cx="14.5" cy="117.5" rx="5" ry="3.5"/>
</svg>
