<?xml version="1.0" encoding="utf-8"?>
<!-- Generator: Adobe Illustrator 16.0.0, SVG Export Plug-In . SVG Version: 6.00 Build 0)  -->
<!DOCTYPE svg PUBLIC "-//W3C//DTD SVG 1.1//EN" "http://www.w3.org/Graphics/SVG/1.1/DTD/svg11.dtd">
<svg version="1.1" id="Слой_1" xmlns="http://www.w3.org/2000/svg" xmlns:xlink="http://www.w3.org/1999/xlink" x="0px" y="0px"
	 width="120px" height="137px" viewBox="-0.5 1 120 137" enable-background="new -0.5 1 120 137" xml:space="preserve">
<g>
	<g>
		<g>
			<g>
				<circle fill="#EFEFEF" cx="59.5" cy="78" r="60"/>
			</g>
		</g>
		<g>
			<path fill="#FFFFFF" d="M104.5,125c0,0-0.191-5.969-0.191-3.355v-14.043V89.984V71.258V53.64V34.916V17.299H86.021H67.73H49.443
				H31.156H13.292v17.617v18.616V71.15v18.615v17.617L13.5,125h-8V10h20h65h23v115H104.5z M92.5,8v2h-67V4h22l0,0h24l0,0h21V8z"/>
			<path fill="#005A95" d="M114.5,125h-10.969l-0.03-0.968c-0.041-1.271-0.093-2.657-0.129-3.392h-0.063V17.299H14.292v89.084
				L14.512,125H4.5V8h20V3h69v5h21V125z M105.468,123h7.032V10H6.5v113h6.988l-0.196-16.605V15.299h92.017v104.756
				c0.002,0.014,0.004,0.028,0.004,0.043h0.002c0,0.002,0,0.006,0,0.008C105.384,120.699,105.422,121.607,105.468,123z M26.5,8h65V5
				h-65V8z"/>
		</g>
		<g>
			<rect x="9.5" y="13" fill="#87E4B9" width="25" height="37"/>
			<polygon fill="#FFFFFF" points="33.5,49 10.5,49 33.5,14 			"/>
			<polygon fill="#FFFFFF" points="58.5,49 35.5,49 58.5,14 			"/>
		</g>
		<g>
			<rect x="34.5" y="13" fill="#87E4B9" width="25" height="37"/>
		</g>
		<g>
			<polygon fill="#FFFFFF" points="58.5,49 35.5,49 58.5,14 			"/>
		</g>
		<g>
			<rect x="59.5" y="13" fill="#87E4B9" width="25" height="37"/>
		</g>
		<g>
			<polygon fill="#FFFFFF" points="83.5,49 60.5,49 83.5,14 			"/>
		</g>
		<g>
			<rect x="84.5" y="13" fill="#87E4B9" width="25" height="37"/>
		</g>
		<g>
			<polygon fill="#FFFFFF" points="108.5,49 85.5,49 108.5,14 			"/>
		</g>
		<g>
			<rect x="9.5" y="50" fill="#87E4B9" width="25" height="37"/>
		</g>
		<g>
			<polygon fill="#FFFFFF" points="33.5,86 10.5,86 33.5,51 			"/>
		</g>
		<g>
			<rect x="34.5" y="50" fill="#87E4B9" width="25" height="37"/>
		</g>
		<g>
			<polygon fill="#FFFFFF" points="58.5,86 35.5,86 58.5,51 			"/>
		</g>
		<g>
			<rect x="59.5" y="50" fill="#87E4B9" width="25" height="37"/>
		</g>
		<g>
			<polygon fill="#FFFFFF" points="83.5,86 60.5,86 83.5,51 			"/>
		</g>
		<g>
			<rect x="84.5" y="50" fill="#87E4B9" width="25" height="37"/>
		</g>
		<g>
			<polygon fill="#FFFFFF" points="108.5,86 85.5,86 108.5,51 			"/>
		</g>
		<g>
			<rect x="9.5" y="87" fill="#87E4B9" width="25" height="37"/>
			<polygon fill="#FFFFFF" points="33.5,123 10.5,123 33.5,88 			"/>
			<path fill="#005A95" d="M35.5,124h-27V86h27.04L35.5,124z M10.5,123h23V88h-23V123z"/>
		</g>
		<g>
			<rect x="34.5" y="87" fill="#FFFFFF" width="25" height="37"/>
			<path fill="#005A95" d="M60.5,125H33.539V86.039H60.5V125z M35.5,123.039h23.039V88H35.5V123.039z"/>
		</g>
		<g>
			<rect x="59.5" y="87" fill="#FFFFFF" width="26" height="37"/>
			<path fill="#005A95" d="M86.5,125h-28V86h28V125z M60.5,123h24V88h-24V123z"/>
		</g>
		<g>
			<rect x="84.5" y="87" fill="#87E4B9" width="25" height="37"/>
			<polygon fill="#FFFFFF" points="108.5,123 85.5,123 108.5,88 			"/>
			<path fill="#005A95" d="M110.5,124h-27V86h27V124z M85.5,123h23V88h-23V123z"/>
		</g>
		<g>
			<path fill="#FFFFFF" d="M84.473,81c-0.57-6.119-11.529-11-24.973-11c-13.443,0-24.402,4.881-24.973,11
				c-0.015,0.166-0.027,0.332-0.027,0.5V90h8.162h33.676H84.5v-8.5C84.5,81.332,84.486,81.166,84.473,81z"/>
		</g>
		<g>
			<path fill="#FFFFFF" d="M84.473,89.45C83.902,83.637,72.941,79,59.5,79c-13.442,0-24.402,4.637-24.973,10.45
				c-0.015,0.157-0.027,0.315-0.027,0.475V97h8.162h33.676H84.5v-7.075C84.5,89.766,84.486,89.607,84.473,89.45z"/>
			<path fill="#005A95" d="M85.424,80.4C84.791,73.951,73.646,69.088,59.5,69.088c-14.146,0-25.291,4.863-25.924,11.316
				c-0.018,0.188-0.031,0.375-0.031,0.563V89h1.41c0.187-0.709,0.511-1.381,0.97-1.956H35.5v-5.966c0,0.004,0-0.003,0-0.034
				c0-5,11.273-10.044,24-10.044c12.727,0,24,5.044,24,10.044c0,0.131,0.044-0.207,0.044-0.075v5.397
				c0.737,0.774,1.118,1.692,1.209,2.634h0.703v-8.031C85.456,80.782,85.439,80.596,85.424,80.4z"/>
		</g>
		<g>
			<rect x="40.5" y="83" fill="#005A95" width="2" height="42"/>
		</g>
		<g>
			<rect x="76.5" y="83" fill="#005A95" width="2" height="42"/>
		</g>
		<g>
			<rect x="58.5" y="79" fill="#005A95" width="2" height="46"/>
		</g>
		<g>
			<rect x="58.5" y="13" fill="#005A95" width="2" height="57"/>
		</g>
		<g>
			<rect x="8.5" y="12" fill="#005A95" width="102" height="2"/>
		</g>
		<g>
			<rect x="8.5" y="49" fill="#005A95" width="102" height="2"/>
		</g>
		<g>
			<rect x="33.5" y="13" fill="#005A95" width="2" height="74"/>
		</g>
		<g>
			<rect x="8.5" y="13" fill="#005A95" width="2" height="74"/>
		</g>
		<g>
			<rect x="108.5" y="13" fill="#005A95" width="2" height="74"/>
		</g>
		<g>
			<rect x="83.5" y="13" fill="#005A95" width="2" height="74"/>
		</g>
		<g>
			<rect x="42.5" y="89" fill="#FFFFFF" width="16" height="17"/>
		</g>
		<g>
			<rect x="60.5" y="89" fill="#FFFFFF" width="16" height="17"/>
		</g>
		<g>
			<rect x="35.5" y="92" fill="#FFFFFF" width="5" height="17"/>
		</g>
		<g>
			<polygon fill="#FFFFFF" points="24.5,124 18.5,124 17.5,118 25.5,118 			"/>
			<path fill="#005A95" d="M25.347,125h-7.694l-1.333-8h10.361L25.347,125z M19.347,123h4.306l0.667-4h-5.639L19.347,123z"/>
		</g>
		<g>
			<polygon fill="#FFFFFF" points="100.5,124 94.5,124 93.5,118 101.5,118 			"/>
			<path fill="#005A95" d="M101.348,125h-7.693l-1.334-8h10.361L101.348,125z M95.348,123h4.307l0.666-4h-5.639L95.348,123z"/>
		</g>
		<g>
			<path fill="#005A95" d="M21.5,119c-0.552,0-1-0.447-1-1v-3c0-0.553,0.448-1,1-1s1,0.447,1,1v3C22.5,118.553,22.052,119,21.5,119z
				"/>
		</g>
		<g>
			<path fill="#005A95" d="M97.5,119c-0.553,0-1-0.447-1-1v-3c0-0.553,0.447-1,1-1s1,0.447,1,1v3C98.5,118.553,98.053,119,97.5,119z
				"/>
		</g>
		<g>
			<path fill="#FFFFFF" d="M97.5,96c-4.535,0-6,8.975-6,13.486c0,2.467,2.721,4.514,6,4.514s6-2.047,6-4.514
				C103.5,104.975,101.965,96,97.5,96z"/>
			<path fill="#87E4B9" d="M99,97.5c-3.779,0-5,8.477-5,12.736c0,2.33,2.268,4.264,5,4.264s5-1.934,5-4.264
				C104,105.977,102.721,97.5,99,97.5z"/>
			<path fill="#005A95" d="M97.5,115c-3.859,0-7-2.475-7-5.514c0-4.029,1.258-14.486,7-14.486c5.714,0,7,10.729,7,14.486
				C104.5,112.525,101.359,115,97.5,115z M97.5,97c-3.533,0-5,8.133-5,12.486c0,1.904,2.29,3.514,5,3.514s5-1.609,5-3.514
				C102.5,104.383,100.721,97,97.5,97z"/>
		</g>
		<g>
			<path fill="#FFFFFF" d="M21.5,96c-4.535,0-6,8.975-6,13.486c0,2.467,2.721,4.514,6,4.514s6-2.047,6-4.514
				C27.5,104.975,25.965,96,21.5,96z"/>
			<path fill="#87E4B9" d="M23,97.5c-3.779,0-5,8.477-5,12.736c0,2.33,2.268,4.264,5,4.264s5-1.934,5-4.264
				C28,105.977,26.721,97.5,23,97.5z"/>
			<path fill="#005A95" d="M21.5,115c-3.859,0-7-2.475-7-5.514c0-4.029,1.257-14.486,7-14.486c5.714,0,7,10.729,7,14.486
				C28.5,112.525,25.359,115,21.5,115z M21.5,97c-3.533,0-5,8.133-5,12.486c0,1.904,2.29,3.514,5,3.514s5-1.609,5-3.514
				C26.5,104.383,24.719,97,21.5,97z"/>
		</g>
		<g>
			<g>
				<path fill="#005A95" d="M118.482,125H0.518c-0.562,0-1.018-0.448-1.018-1s0.456-1,1.018-1h117.964c0.563,0,1.019,0.448,1.019,1
					S119.044,125,118.482,125z"/>
			</g>
		</g>
		<g>
			<path fill="#FFFFFF" d="M72.5,11.97c0,0.569-0.463,1.03-1.033,1.03H47.533c-0.571,0-1.033-0.461-1.033-1.03V3.03
				C46.5,2.461,46.962,2,47.533,2h23.934c0.57,0,1.033,0.461,1.033,1.03V11.97z"/>
			<path fill="#005A95" d="M71.467,14H47.533c-1.121,0-2.033-0.911-2.033-2.03V3.03C45.5,1.911,46.412,1,47.533,1h23.934
				C72.588,1,73.5,1.911,73.5,3.03v8.94C73.5,13.089,72.588,14,71.467,14z M47.5,3v9h24c0.02,0,0-0.013,0-0.03V3H47.5z"/>
		</g>
		<path fill="none" d="M62.5,80.053v15.973l16,0.015V84.186C74.623,82.048,68.854,80.445,62.5,80.053z"/>
		<path fill="none" d="M37.5,86.286v9.716l5,0.005V83.205C40.422,84.115,38.709,85.165,37.5,86.286z"/>
		<path fill="none" d="M83.544,96.044v-6.119c0-0.132-0.044,0.206-0.044,0.075c0-1.563-1.1-3.128-3-4.543v10.584L83.544,96.044z"/>
		<path fill="none" d="M59.5,79.956c-5.548,0-10.818,0.959-15,2.454v13.598l16,0.016V79.969
			C60.167,79.962,59.834,79.956,59.5,79.956z"/>
		<rect x="35.5" y="97.956" fill="#87E4B9" width="2" height="25.044"/>
		<path fill="#87E4B9" d="M35.5,90c0,0.031,0,0.038,0,0.034V96l2,0.002v-9.716C36.221,87.473,35.5,88.736,35.5,90z"/>
		<rect x="35.5" y="96" fill="#87E4B9" width="2" height="1.956"/>
		<path fill="#87E4B9" d="M42.5,83.205v12.802l2,0.001V82.41C43.801,82.66,43.135,82.927,42.5,83.205z"/>
		<rect x="42.5" y="97.956" fill="#87E4B9" width="2" height="25.044"/>
		<rect x="42.5" y="96.007" fill="#87E4B9" width="2" height="1.949"/>
		<rect x="60.5" y="97.956" fill="#87E4B9" width="2" height="25.044"/>
		<path fill="#87E4B9" d="M60.5,79.969v16.055l2,0.002V80.053C61.839,80.012,61.172,79.982,60.5,79.969z"/>
		<rect x="60.5" y="96.021" fill="#87E4B9" width="2" height="1.935"/>
		<path fill="#005A95" d="M85.424,89.355c-0.242-2.467-2.025-4.699-4.924-6.52c-0.618-0.388-1.285-0.757-2-1.105
			c-4.701-2.289-11.418-3.688-19-3.688c-14.146,0-25.291,4.863-25.924,11.316c-0.018,0.188-0.031,0.375-0.031,0.563v8.031H35.5V96
			v-5.966c0,0.004,0-0.003,0-0.034c0-1.264,0.721-2.527,2-3.714c1.209-1.121,2.922-2.171,5-3.081c0.635-0.278,1.301-0.545,2-0.795
			c4.182-1.495,9.452-2.454,15-2.454c0.334,0,0.667,0.006,1,0.013c0.672,0.014,1.339,0.043,2,0.084
			c6.354,0.393,12.123,1.995,16,4.133c0.736,0.406,1.408,0.832,2,1.271c1.9,1.415,3,2.98,3,4.543c0,0.131,0.044-0.207,0.044-0.075
			v6.119L80.5,96.041v1.915h4.956v-8.031C85.456,89.738,85.439,89.552,85.424,89.355z"/>
		<rect x="78.5" y="96.039" fill="#87E4B9" width="2" height="1.917"/>
		<g>
			<rect x="78.5" y="90" fill="#FFFFFF" width="5" height="17"/>
		</g>
		<path fill="#87E4B9" d="M78.5,96.039l2,0.002V85.457c-0.592-0.439-1.264-0.865-2-1.271V96.039z"/>
		<rect x="78.5" y="94.479" fill="#87E4B9" width="2" height="28.521"/>
		<rect x="47.5" y="3" fill="#87E4B9" width="24" height="2"/>
	</g>
	<g>
		<g>
			<path fill="#87E4B9" d="M69.393,100.17c0,2.708-2.195,4.915-4.893,4.915c2.695,0,4.893,2.207,4.893,4.915
				c0-2.708,2.197-4.915,4.894-4.915C71.488,105.084,69.393,102.878,69.393,100.17z"/>
		</g>
	</g>
	<g>
		<g>
			<path fill="#87E4B9" d="M51.996,67c0,4.736-3.802,8.563-8.508,8.563c4.706,0,8.508,3.826,8.508,8.563
				c0-4.737,3.8-8.563,8.504-8.563C55.796,75.563,51.996,71.736,51.996,67z"/>
		</g>
	</g>
	<g>
		<g>
			<path fill="#87E4B9" d="M102.5,34c0,3.369-2.734,6-6,6c3.369,0,6,2.734,6,6c0-3.369,2.738-6,6-6
				C105.236,40,102.5,37.263,102.5,34z"/>
		</g>
	</g>
</g>
</svg>
