<?xml version="1.0" encoding="utf-8"?>
<!-- Generator: Adobe Illustrator 16.0.0, SVG Export Plug-In . SVG Version: 6.00 Build 0)  -->
<!DOCTYPE svg PUBLIC "-//W3C//DTD SVG 1.1//EN" "http://www.w3.org/Graphics/SVG/1.1/DTD/svg11.dtd">
<svg version="1.1" id="Слой_1" xmlns="http://www.w3.org/2000/svg" xmlns:xlink="http://www.w3.org/1999/xlink" x="0px" y="0px"
	 width="120px" height="137px" viewBox="-0.5 1 120 137" enable-background="new -0.5 1 120 137" xml:space="preserve">
<g>
	<g>
		<g>
			<circle fill="#EFEFEF" cx="59.5" cy="78" r="60"/>
		</g>
	</g>
	<g>
		<rect x="13.5" y="56" fill="#FFFFFF" width="92" height="68"/>
		<path fill="#005A95" d="M106.5,125h-94V55h94V125z M14.5,123h90V57h-90V123z"/>
	</g>
	<g>
		<rect x="99.5" y="34" fill="#FFFFFF" width="8" height="82"/>
		<path fill="#005A95" d="M108.5,117h-10V33h10V117z M100.5,115h6V35h-6V115z"/>
	</g>
	<g>
		<rect x="99.5" y="116" fill="#FFFFFF" width="12" height="8"/>
		<path fill="#005A95" d="M112.5,125h-14v-10h14V125z M100.5,123h10v-6h-10V123z"/>
	</g>
	<g>
		<rect x="11.5" y="34" fill="#FFFFFF" width="8" height="82"/>
		<path fill="#005A95" d="M20.5,117h-10V33h10V117z M12.5,115h6V35h-6V115z"/>
	</g>
	<g>
		<rect x="7.5" y="116" fill="#FFFFFF" width="68" height="8"/>
		<path fill="#005A95" d="M76.5,125h-70v-10h70V125z M8.5,123h66v-6h-66V123z"/>
	</g>
	<g>
		<rect x="75.5" y="77" fill="#FFFFFF" width="24" height="47"/>
		<path fill="#005A95" d="M100.5,125h-26V76h26V125z M76.5,123h22V78h-22V123z"/>
	</g>
	<g>
		<polygon fill="#87E4B9" points="81.5,78 93.5,78 82.5,101 		"/>
		<path fill="#005A95" d="M94.5,103h-14V77h14V103z M82.5,101h10V79h-10V101z"/>
	</g>
	<g>
		<rect x="27.5" y="72" fill="#87E4B9" width="40" height="32"/>
		<polygon fill="#FFFFFF" points="66.5,104 28.5,103 66.5,76 		"/>
		<path fill="#005A95" d="M68.5,105h-42V71h42V105z M28.5,103h38V73h-38V103z"/>
	</g>
	<g>
		<rect x="19.5" y="57" fill="#FFFFFF" width="80" height="20"/>
		<path fill="#005A95" d="M100.5,78h-82V56h82V78z M20.5,76h78V58h-78V76z"/>
	</g>
	<g>
		<path fill="#FFFFFF" d="M93.5,51V41c-4.418,0-8-3.582-8-8h-52c0,4.418-3.582,8-8,8v10h-6v6h80v-6H93.5z"/>
		<path fill="#005A95" d="M100.5,58h-82v-8h6V40h1c3.86,0,7-3.14,7-7v-1h54v1c0,3.86,3.141,7,7,7h1v10h6V58z M20.5,56h78v-4h-6
			V41.945c-4.165-0.462-7.482-3.78-7.943-7.945H34.445c-0.462,4.165-3.78,7.482-7.945,7.945V52h-6V56z"/>
	</g>
	<g>
		<polygon fill="#87E4B9" points="81.5,102 92.5,103 82.5,117 		"/>
		<path fill="#005A95" d="M94.5,119h-14v-18h14V119z M82.5,117h10v-14h-10V117z"/>
	</g>
	<g>
		<path fill="#FFFFFF" d="M69.518,107.966c0,0.571-0.463,1.034-1.033,1.034H26.55c-0.57,0-1.034-0.463-1.034-1.034v-2.932
			c0-0.571,0.463-1.034,1.034-1.034h41.935c0.57,0,1.031,0.463,1.031,1.034v2.932H69.518z"/>
		<path fill="#87E4B9" d="M69.518,109.966c0,0.571-0.463,1.034-1.033,1.034H26.55c-0.57,0-1.034-0.463-1.034-1.034v-2.932
			C25.517,106.463,25.93,109,26.5,109h42c0.57,0,1.018-2.537,1.018-1.966V109.966z"/>
		<path fill="#005A95" d="M68.5,110h-42c-1.122,0-2-0.878-2-2v-3c0-1.122,0.775-2.021,2-2h42c1.018-0.021,2,0.878,2,2v3
			C70.5,109.122,69.62,110,68.5,110z M26.5,105v3h42c0.02,0,0,0.02,0,0v-3H26.5z"/>
	</g>
	<g>
		<path fill="#FFFFFF" d="M22.5,33.966c0,0.571-0.463,1.034-1.033,1.034H9.533C8.963,35,8.5,34.537,8.5,33.966v-2.932
			C8.5,30.463,8.963,30,9.533,30h11.934c0.57,0,1.033,0.463,1.033,1.034V33.966z"/>
		<path fill="#005A95" d="M21.467,36H9.533C8.412,36,7.5,35.087,7.5,33.966v-2.932C7.5,29.913,8.412,29,9.533,29h11.934
			c1.121,0,2.033,0.913,2.033,2.034v2.932C23.5,35.087,22.588,36,21.467,36z M9.5,31v3h12c0.019,0,0-0.015,0-0.034V31H9.5z"/>
	</g>
	<g>
		<path fill="#FFFFFF" d="M110.5,33.966c0,0.571-0.463,1.034-1.033,1.034H97.533c-0.57,0-1.033-0.463-1.033-1.034v-2.932
			c0-0.571,0.463-1.034,1.033-1.034h11.934c0.57,0,1.033,0.463,1.033,1.034V33.966z"/>
		<path fill="#005A95" d="M109.467,36H97.533c-1.121,0-2.033-0.913-2.033-2.034v-2.932c0-1.122,0.912-2.034,2.033-2.034h11.934
			c1.121,0,2.033,0.913,2.033,2.034v2.932C111.5,35.087,110.588,36,109.467,36z M97.5,31v3h12c0.02,0,0,0.019,0,0v-3H97.5z"/>
	</g>
	<g>
		<path fill="#005A95" d="M118.5,124.939L0.5,125c-0.552,0-1-0.434-1-0.971c0-0.535,0.448-0.969,1-0.969l118-0.062
			c0.553,0,1,0.435,1,0.97C119.5,124.505,119.053,124.939,118.5,124.939z"/>
	</g>
	<g>
		<path fill="#FFFFFF" d="M19.5,71v5c0,2.209,1.791,4,4,4s4-1.791,4-4c0,2.209,1.791,4,4,4s4-1.791,4-4c0,2.209,1.791,4,4,4
			s4-1.791,4-4c0,2.209,1.791,4,4,4s4-1.791,4-4c0,2.209,1.791,4,4,4s4-1.791,4-4c0,2.209,1.791,4,4,4s4-1.791,4-4
			c0,2.209,1.791,4,4,4s4-1.791,4-4c0,2.209,1.791,4,4,4s4-1.791,4-4c0,2.209,1.791,4,4,4s4-1.791,4-4c0,2.209,1.791,4,4,4
			s4-1.791,4-4v-5H19.5z"/>
		<path fill="#005A95" d="M95.5,81c-1.634,0-3.087-0.788-4-2.003C90.587,80.212,89.134,81,87.5,81s-3.087-0.788-4-2.003
			C82.587,80.212,81.134,81,79.5,81s-3.087-0.788-4-2.003C74.587,80.212,73.134,81,71.5,81s-3.087-0.788-4-2.003
			C66.587,80.212,65.134,81,63.5,81s-3.087-0.788-4-2.003C58.587,80.212,57.134,81,55.5,81s-3.087-0.788-4-2.003
			C50.587,80.212,49.134,81,47.5,81s-3.087-0.788-4-2.003C42.587,80.212,41.134,81,39.5,81s-3.087-0.788-4-2.003
			C34.587,80.212,33.134,81,31.5,81s-3.087-0.788-4-2.003C26.587,80.212,25.134,81,23.5,81c-2.757,0-5-2.243-5-5v-6h82v6
			C100.5,78.757,98.257,81,95.5,81z M92.5,76c0,1.654,1.346,3,3,3s3-1.346,3-3v-4h-78v4c0,1.654,1.346,3,3,3s3-1.346,3-3h2
			c0,1.654,1.346,3,3,3s3-1.346,3-3h2c0,1.654,1.346,3,3,3s3-1.346,3-3h2c0,1.654,1.346,3,3,3s3-1.346,3-3h2c0,1.654,1.346,3,3,3
			s3-1.346,3-3h2c0,1.654,1.346,3,3,3s3-1.346,3-3h2c0,1.654,1.346,3,3,3s3-1.346,3-3h2c0,1.654,1.346,3,3,3s3-1.346,3-3h2
			c0,1.654,1.346,3,3,3s3-1.346,3-3H92.5z"/>
	</g>
	<g>
		<circle fill="#005A95" cx="27.5" cy="76" r="1"/>
	</g>
	<g>
		<circle fill="#005A95" cx="35.5" cy="76" r="1"/>
	</g>
	<g>
		<circle fill="#005A95" cx="43.5" cy="76" r="1"/>
	</g>
	<g>
		<circle fill="#005A95" cx="51.5" cy="76" r="1"/>
	</g>
	<g>
		<circle fill="#005A95" cx="59.5" cy="76" r="1"/>
	</g>
	<g>
		<circle fill="#005A95" cx="67.5" cy="76" r="1"/>
	</g>
	<g>
		<circle fill="#005A95" cx="75.5" cy="76" r="1"/>
	</g>
	<g>
		<circle fill="#005A95" cx="83.5" cy="76" r="1"/>
	</g>
	<g>
		<circle fill="#005A95" cx="91.5" cy="76" r="1"/>
	</g>
	<g>
		<g>
			<g>
				<path fill="#87E4B9" d="M80.568,39H38.431c-0.452,3.617-3.313,6.479-6.931,6.931V51h56v-5.069
					C83.883,45.479,81.021,42.617,80.568,39z"/>
				<path fill="#005A95" d="M88.5,52h-58v-6.952l0.876-0.109c3.173-0.396,5.666-2.889,6.063-6.063L37.548,38h43.904l0.108,0.876
					c0.396,3.173,2.891,5.666,6.063,6.063l0.876,0.109V52z M32.5,50h54v-3.23c-3.371-0.763-6.007-3.398-6.77-6.77H39.27
					c-0.763,3.371-3.398,6.007-6.77,6.77V50z"/>
			</g>
		</g>
	</g>
	<g>
		<rect x="40.5" y="88" fill="#FFFFFF" width="14" height="8"/>
		<path fill="#005A95" d="M55.5,97h-16V87h16V97z M41.5,95h12v-6h-12V95z"/>
	</g>
	<g>
		<path fill="#005A95" d="M42.5,89c-0.256,0-0.512-0.098-0.707-0.293c-0.391-0.391-0.391-1.023,0-1.414l5-5
			c0.391-0.391,1.023-0.391,1.414,0c0.391,0.392,0.391,1.023,0,1.414l-5,5C43.012,88.902,42.756,89,42.5,89z"/>
	</g>
	<g>
		<path fill="#005A95" d="M52.5,89c-0.256,0-0.512-0.098-0.707-0.293l-5-5c-0.391-0.391-0.391-1.022,0-1.414
			c0.391-0.391,1.023-0.391,1.414,0l5,5c0.391,0.391,0.391,1.023,0,1.414C53.012,88.902,52.756,89,52.5,89z"/>
	</g>
	<g>
		<rect x="105.5" y="117" fill="#87E4B9" width="2" height="6"/>
	</g>
	<g>
		<rect x="100.5" y="117" fill="#87E4B9" width="2" height="6"/>
	</g>
	<g>
		<rect x="72.5" y="117" fill="#87E4B9" width="2" height="6"/>
	</g>
	<g>
		<rect x="67.5" y="117" fill="#87E4B9" width="2" height="6"/>
	</g>
	<g>
		<rect x="62.5" y="117" fill="#87E4B9" width="2" height="6"/>
	</g>
	<g>
		<rect x="57.5" y="117" fill="#87E4B9" width="2" height="6"/>
	</g>
	<g>
		<rect x="52.5" y="117" fill="#87E4B9" width="2" height="6"/>
	</g>
	<g>
		<rect x="47.5" y="117" fill="#87E4B9" width="2" height="6"/>
	</g>
	<g>
		<rect x="12.5" y="36" fill="#87E4B9" width="6" height="2"/>
	</g>
	<g>
		<rect x="100.5" y="36" fill="#87E4B9" width="6" height="2"/>
	</g>
	<g>
		<rect x="42.5" y="117" fill="#87E4B9" width="2" height="6"/>
	</g>
	<g>
		<rect x="20.5" y="66" fill="#87E4B9" width="78" height="2"/>
	</g>
	<g>
		<rect x="20.5" y="62" fill="#87E4B9" width="78" height="2"/>
	</g>
	<g>
		<rect x="20.5" y="58" fill="#87E4B9" width="78" height="2"/>
	</g>
	<g>
		<rect x="37.5" y="117" fill="#87E4B9" width="2" height="6"/>
	</g>
	<g>
		<rect x="32.5" y="117" fill="#87E4B9" width="2" height="6"/>
	</g>
	<g>
		<rect x="27.5" y="117" fill="#87E4B9" width="2" height="6"/>
	</g>
	<g>
		<rect x="22.5" y="117" fill="#87E4B9" width="2" height="6"/>
	</g>
	<g>
		<rect x="17.5" y="117" fill="#87E4B9" width="2" height="6"/>
	</g>
	<g>
		<rect x="12.5" y="117" fill="#87E4B9" width="2" height="6"/>
	</g>
	<g>
		<rect x="8.5" y="117" fill="#87E4B9" width="1" height="6"/>
	</g>
	
		<line fill="none" stroke="#005A95" stroke-width="2" stroke-linecap="round" stroke-miterlimit="10" x1="78.5" y1="100" x2="78.5" y2="104"/>
	<g>
		<g>
			<path fill="#87E4B9" d="M8.393,86.17c0,2.708-2.195,4.915-4.893,4.915c2.695,0,4.893,2.207,4.893,4.915
				c0-2.708,2.197-4.915,4.893-4.915C10.488,91.084,8.393,88.878,8.393,86.17z"/>
		</g>
	</g>
	<g>
		<g>
			<path fill="#87E4B9" d="M79.002,10.874c0,5.291-4.246,9.563-9.502,9.563c5.256,0,9.502,4.271,9.502,9.563
				c0-5.291,4.244-9.563,9.498-9.563C83.246,20.438,79.002,16.164,79.002,10.874z"/>
		</g>
	</g>
	<g>
		<g>
			<path fill="#87E4B9" d="M78.894,123.17c0,2.708-2.195,4.915-4.894,4.915c2.695,0,4.894,2.207,4.894,4.915
				c0-2.708,2.197-4.915,4.893-4.915C80.989,128.084,78.894,125.878,78.894,123.17z"/>
		</g>
	</g>
</g>
</svg>
