<?xml version="1.0" encoding="utf-8"?>
<!-- Generator: Adobe Illustrator 16.0.0, SVG Export Plug-In . SVG Version: 6.00 Build 0)  -->
<!DOCTYPE svg PUBLIC "-//W3C//DTD SVG 1.1//EN" "http://www.w3.org/Graphics/SVG/1.1/DTD/svg11.dtd">
<svg version="1.1" id="Слой_1" xmlns="http://www.w3.org/2000/svg" xmlns:xlink="http://www.w3.org/1999/xlink" x="0px" y="0px"
	 width="120px" height="137px" viewBox="-0.5 1 120 137" enable-background="new -0.5 1 120 137" xml:space="preserve">
<g>
	<g>
		<g>
			<circle fill="#EFEFEF" cx="59.5" cy="78" r="60"/>
		</g>
	</g>
	<polygon fill="#FFFFFF" points="59.5,13 59.5,124 113.5,124 113.5,31 	"/>
	<polygon fill="#FFFFFF" points="5.5,31 5.5,124 59.5,124 59.5,13 	"/>
	<g>
		<polygon fill="#FFFFFF" points="59.5,3 0.5,24 0.5,34 59.5,13 118.5,34 118.5,24 		"/>
		<g>
			<polygon fill="none" points="6.5,123 58.5,123 58.5,16.022 6.5,34.532 			"/>
			<polygon fill="none" points="60.5,123 112.5,123 112.5,34.532 60.5,16.022 			"/>
			<polygon fill="none" points="6.5,31.722 6.5,32 17.604,28.021 			"/>
			<polygon fill="#005A95" points="60.5,16.022 59.5,15.667 58.5,16.022 58.5,123 58.5,125 60.5,125 60.5,123 			"/>
			<polygon fill="#005A95" points="59.5,13 60.5,13.231 60.5,12.279 59.5,11.946 58.5,12.279 58.5,13.358 			"/>
			<polygon fill="#87E4B9" points="112.5,34.532 112.5,31.722 60.5,14 60.5,16.022 			"/>
			<polygon fill="#87E4B9" points="17.604,28.021 6.5,32 6.5,34.532 58.5,16.022 58.5,14.388 			"/>
			<polygon fill="#87E4B9" points="58.5,13.358 17.604,28.021 58.5,14.388 			"/>
			<polygon fill="#005A95" points="6.5,123 6.5,34.532 6.5,31 4.5,32 4.5,35.244 4.5,125 58.5,125 58.5,123 			"/>
			<polygon fill="#005A95" points="58.5,13.358 58.5,14.388 58.5,16.022 59.5,15.667 60.5,16.022 60.5,14.388 60.5,13.231 59.5,13 
							"/>
		</g>
		<g>
			<polygon fill="none" points="114.5,30.279 114.5,31.516 117.5,32.583 117.5,24.707 59.5,4.063 1.5,24.707 1.5,32.583 
				59.5,11.938 68.039,14.979 69.863,15.4 			"/>
			<polygon fill="#005A95" points="112.5,32 112.5,34.532 112.5,123 60.5,123 60.5,125 114.5,125 114.5,35.244 114.5,32 			"/>
			<path fill="#005A95" d="M59.5,1.521l-60,21.356V35l60-21.356l53,18.864l2,0.712l5,1.78V22.877L59.5,1.521z M117.5,32.166
				l-3-1.068L68.039,14.562l-8.539-3.04l-58,20.644v-7.877l58-20.644l58,20.644V32.166z"/>
		</g>
	</g>
	<g>
		<path fill="#FFFFFF" d="M109.5,64c-6.803,0-9,21.927-9,34.462c0,6.854,4.081,12.537,9,12.537c4.918,0,9-5.684,9-12.537
			C118.5,85.928,116.197,64,109.5,64z"/>
		<path fill="#87E4B9" d="M112.5,65c-6.803,0-9,20.927-9,33.462c0,6.854,3.081,12.537,8,12.537c4.918,0,7-7.146,7-14
			C118.5,84.465,112.5,65,112.5,65z"/>
		<path fill="#005A95" d="M109.5,112c-5.514,0-10-6.072-10-13.537c0-1.447,0.113-35.462,10-35.462s10,35.109,10,35.462
			C119.5,105.928,115.014,112,109.5,112z M109.5,65c-4.941,0-8,17.369-8,33.462c0,6.254,3.663,11.537,8,11.537s8-5.283,8-11.537
			C117.5,82.303,114.285,65,109.5,65z"/>
	</g>
	<g>
		<rect x="95.5" y="116" fill="#FFFFFF" width="21" height="8"/>
		<path fill="#005A95" d="M117.5,125h-23v-10h23V125z M96.5,123h19v-6h-19V123z"/>
	</g>
	<g>
		<rect x="45.5" y="116" fill="#FFFFFF" width="28" height="8"/>
		<path fill="#005A95" d="M74.5,125h-30v-10h30V125z M46.5,123h26v-6h-26V123z"/>
	</g>
	<g>
		<rect x="2.5" y="116" fill="#FFFFFF" width="19" height="8"/>
		<path fill="#005A95" d="M23.5,125h-22v-10h23L23.5,125z M3.5,123h19v-6h-19V123z"/>
	</g>
	<g>
		<path fill="#FFFFFF" d="M96.5,66.954c0,0.569-0.463,1.03-1.033,1.03H71.533c-0.57,0-1.033-0.461-1.033-1.03v-5.94
			c0-0.569,0.463-1.03,1.033-1.03h23.934c0.57,0,1.033,0.461,1.033,1.03V66.954z"/>
		<path fill="#87E4B9" d="M96.5,68.971c0,0.568-0.463,1.029-1.033,1.029H71.533c-0.57,0-1.033-0.461-1.033-1.029v-5.94
			c0-0.569,0.43,4.97,1,4.97h24c0.57,0,1-5.539,1-4.97V68.971z"/>
		<path fill="#005A95" d="M95.467,69H71.533c-1.121,0-2.033-0.91-2.033-2.029v-5.94c0-1.119,0.912-2.03,2.033-2.03h23.934
			c1.121,0,2.033,0.911,2.033,2.03v5.94C97.5,68.09,96.588,69,95.467,69z M71.5,61v6h24c0.02,0,0-6,0-6H71.5z"/>
	</g>
	<g>
		<rect x="73.482" y="38" fill="#87E4B9" width="20" height="22"/>
		<polygon fill="#FFFFFF" points="92.5,59 84.5,59 92.5,50 		"/>
		<polygon fill="#FFFFFF" points="92.5,48 84.5,48 92.5,39 		"/>
		<polygon fill="#FFFFFF" points="82.5,48 74.5,48 82.5,39 		"/>
		<polygon fill="#FFFFFF" points="82.5,59 74.5,59 82.5,50 		"/>
		<path fill="#005A95" d="M94.5,61h-22V37h22V61z M74.5,59h18V39h-18V59z"/>
	</g>
	<g>
		<rect x="71.5" y="79" fill="#FFFFFF" width="24" height="45"/>
		<path fill="#005A95" d="M96.5,125h-26V78h26V125z M72.5,123h22V80h-22V123z"/>
	</g>
	<g>
		<rect x="77.5" y="85" fill="#87E4B9" width="12" height="17"/>
		<polygon fill="#FFFFFF" points="88.5,101.168 78.5,101.168 88.5,86 		"/>
		<path fill="#005A95" d="M90.5,103h-14V84h14V103z M78.5,101h10V86h-10V101z"/>
	</g>
	<g>
		<path fill="#005A95" d="M82.5,107h-5c-0.553,0-1-0.447-1-1s0.447-1,1-1h5c0.553,0,1,0.447,1,1S83.053,107,82.5,107z"/>
	</g>
	<g>
		<rect x="23.5" y="79" fill="#FFFFFF" width="24" height="45"/>
		<path fill="#005A95" d="M48.5,125h-26V78h26V125z M24.5,123h22V80h-22V123z"/>
	</g>
	<g>
		<rect x="29.5" y="85" fill="#87E4B9" width="12" height="17"/>
		<polygon fill="#FFFFFF" points="40.5,101 30.5,101 40.5,86 		"/>
		<path fill="#005A95" d="M42.5,103h-14V84h14V103z M30.5,101h10V86h-10V101z"/>
	</g>
	<g>
		<path fill="#005A95" d="M34.5,107h-5c-0.552,0-1-0.447-1-1s0.448-1,1-1h5c0.552,0,1,0.447,1,1S35.052,107,34.5,107z"/>
	</g>
	<g>
		<path fill="#005A95" d="M118.5,125H0.5c-0.562,0-1-0.447-1-1c0-0.551,0.438-1,1-1h118c0.563,0,1,0.465,1,1.016
			C119.5,124.568,119.062,125,118.5,125z"/>
	</g>
	<g>
		<circle fill="#005A95" cx="109.5" cy="93" r="1"/>
	</g>
	<g>
		<rect x="82.5" y="38" fill="#005A95" width="2" height="23"/>
	</g>
	<g>
		<rect x="108.5" y="93" fill="#005A95" width="2" height="31"/>
	</g>
	<g>
		<rect x="72.5" y="48" fill="#005A95" width="22" height="2"/>
	</g>
	<g>
		<path fill="#FFFFFF" d="M47.5,66.954c0,0.569-0.462,1.03-1.033,1.03H22.534c-0.571,0-1.034-0.461-1.034-1.03v-5.94
			c0-0.569,0.463-1.03,1.034-1.03h23.933c0.571,0,1.033,0.461,1.033,1.03V66.954z"/>
		<path fill="#87E4B9" d="M47.5,68.971c0,0.568-0.462,1.029-1.033,1.029H22.534c-0.571,0-1.034-0.461-1.034-1.029v-5.94
			c0-0.569,0.429,4.97,1,4.97h24c0.571,0,1-5.539,1-4.97V68.971z"/>
		<path fill="#005A95" d="M46.467,69H22.534c-1.122,0-2.034-0.91-2.034-2.029v-5.94c0-1.119,0.912-2.03,2.034-2.03h23.933
			c1.121,0,2.033,0.911,2.033,2.03v5.94C48.5,68.09,47.588,69,46.467,69z M22.5,61v6h24c0.021,0,0-0.985,0-1v-5H22.5z"/>
	</g>
	<g>
		<rect x="24.483" y="38" fill="#87E4B9" width="20" height="22"/>
		<polygon fill="#FFFFFF" points="43.5,59 35.5,59 43.5,50 		"/>
		<polygon fill="#FFFFFF" points="33.5,59 25.5,59 33.5,50 		"/>
		<polygon fill="#FFFFFF" points="33.5,48 25.5,48 33.5,39 		"/>
		<polygon fill="#FFFFFF" points="43.5,48 35.5,48 43.5,39 		"/>
		<path fill="#005A95" d="M45.5,61h-22V37h22V61z M25.5,59h18V39h-18V59z"/>
	</g>
	<g>
		<rect x="33.5" y="38" fill="#005A95" width="2" height="23"/>
	</g>
	<g>
		<rect x="23.5" y="48" fill="#005A95" width="22" height="2"/>
	</g>
	<rect x="20.5" y="117" fill="#87E4B9" width="2" height="6"/>
	<rect x="15.5" y="117" fill="#87E4B9" width="2" height="6"/>
	<rect x="10.5" y="117" fill="#87E4B9" width="2" height="6"/>
	<rect x="5.5" y="117" fill="#87E4B9" width="2" height="6"/>
	<rect x="48.5" y="117" fill="#87E4B9" width="2" height="6"/>
	<rect x="53.5" y="117" fill="#87E4B9" width="2" height="6"/>
	<rect x="58.5" y="117" fill="#87E4B9" width="2" height="6"/>
	<rect x="63.5" y="117" fill="#87E4B9" width="2" height="6"/>
	<rect x="68.5" y="117" fill="#87E4B9" width="2" height="6"/>
	<rect x="96.5" y="117" fill="#87E4B9" width="2" height="6"/>
	<rect x="101.5" y="117" fill="#87E4B9" width="2" height="6"/>
	<rect x="106.5" y="117" fill="#87E4B9" width="2" height="6"/>
	<rect x="111.5" y="117" fill="#87E4B9" width="2" height="6"/>
	<g>
		<g>
			<path fill="#87E4B9" d="M55.002,20c0,5.291-4.246,9.563-9.502,9.563c5.256,0,9.502,4.271,9.502,9.563
				c0-5.291,4.244-9.563,9.498-9.563C59.246,29.563,55.002,25.291,55.002,20z"/>
		</g>
	</g>
	<g>
		<g>
			<path fill="#87E4B9" d="M110.393,41.17c0,2.708-2.195,4.915-4.893,4.915c2.695,0,4.893,2.207,4.893,4.915
				c0-2.708,2.197-4.915,4.894-4.915C112.488,46.084,110.393,43.878,110.393,41.17z"/>
		</g>
	</g>
	<g>
		<g>
			<path fill="#87E4B9" d="M14.5,70c0,3.369-2.734,6-6,6c3.369,0,6,2.734,6,6c0-3.369,2.738-6,6-6C17.236,76,14.5,73.264,14.5,70z"
				/>
		</g>
	</g>
</g>
</svg>
