<svg xmlns="http://www.w3.org/2000/svg" width="120" height="135" viewBox="-0.5 2 120 135"><circle fill="#EFEFEF" cx="59.5" cy="77" r="60"/><path fill="#FFF" d="M73.5 58.691V62a22.798 22.798 0 0 0-8.242-1.513c-2.906 0-6.213.542-8.758 1.513v-3.309c0-1.476 1.233-2.691 2.735-2.691h11.531c1.5 0 2.734 1.196 2.734 2.691z"/><path fill="#005A95" d="M74.5 63.458l-1.36-.525a21.781 21.781 0 0 0-7.882-1.446c-2.886 0-6.026.541-8.401 1.447l-1.357.518v-4.761c0-2.036 1.676-3.691 3.735-3.691h11.53c2.06 0 3.734 1.656 3.734 3.691v4.767zM59.235 57c-.94 0-1.735.774-1.735 1.691v1.915c2.36-.709 5.16-1.119 7.758-1.119 2.498 0 4.928.371 7.242 1.103v-1.898c0-.933-.778-1.691-1.734-1.691H59.235z"/><path fill="#FFF" d="M100.5 50v60h-7l.055-15.111L93.5 50z"/><path fill="#005A95" d="M101.5 111l-8.984-.019L92.5 95l.018-45.981L101.5 49v62zm-7-2l5-1V51h-5v58z"/><path fill="#FFF" d="M100.49 46.001L100.5 51h-7l.012-4.999C93.512 39.5 88.001 34 81.5 34c-6.5 0-13 5.499-13 12v10h-7l.021-10c0-10.339 9.621-18.96 19.979-18.96 10.357 0 18.99 8.622 18.99 18.961zM86.5 95h7v17h-7z"/><path fill="#005A95" d="M94.5 113h-9V94h9v19zm-7-2h5V96h-5v15z"/><path fill="#FFF" d="M79.021 120.266H36.553V94.891h6.895v20.361a5.01 5.01 0 0 0 5.015 5.014h30.558z"/><path fill="#005A95" d="M79.021 121.266H35.553V93.891h8.895v21.361a4.02 4.02 0 0 0 4.015 4.014h30.56v2zm-41.468-2h6.434a5.988 5.988 0 0 1-1.539-4.014V95.891h-4.895v23.375z"/><path fill="#FFF" d="M86.5 94v16.123h-9.314V120H48.249c-2.626 0-4.749-2.271-4.749-5.083V83c0-9.762 5.682-18.09 13.685-21.441a20.052 20.052 0 0 1 7.804-1.56c2.755 0 5.398.559 7.805 1.56C80.8 64.91 86.5 73.238 86.5 83v13-2z"/><path fill="#005A95" d="M78.197 121.012H48.249c-3.177 0-5.761-2.734-5.761-6.095V83c0-9.953 5.615-18.736 14.306-22.374 5.149-2.165 11.142-2.185 16.388-.001 8.706 3.643 14.33 12.426 14.33 22.375v28.135h-9.314v9.877zM64.988 61.011c-2.58 0-5.073.498-7.412 1.48C49.64 65.815 44.512 73.865 44.512 83v31.917c0 2.245 1.677 4.071 3.737 4.071h27.925v-9.877h9.314V83c0-9.131-5.137-17.181-13.086-20.507a19.202 19.202 0 0 0-7.414-1.482z"/><circle fill="#87E4B9" cx="76.5" cy="107" r="4"/><path fill="#005A95" d="M76.5 112c-2.757 0-5-2.243-5-5s2.243-5 5-5 5 2.243 5 5-2.243 5-5 5zm0-8c-1.654 0-3 1.346-3 3s1.346 3 3 3 3-1.346 3-3-1.346-3-3-3z"/><circle fill="#87E4B9" cx="65" cy="80.5" r="13.5"/><path fill="#FFF" d="M6.5 83l2 38c0 1 1 2 2.055 2h33.91c.861 0 1.607-.701 1.654-1.566L48.5 83h-42z"/><path fill="#87E4B9" d="M8.5 83.952l1.902 37.096c0 .976.951 1.952 1.955 1.952h32.254c.82 0 1.529-.685 1.574-1.529l2.265-37.519H8.5z"/><path fill="#005A95" d="M44.465 123.996h-33.91c-1.596 0-3.051-1.428-3.051-2.996L5.45 82.004h44.11l-2.446 39.491c-.075 1.376-1.264 2.501-2.649 2.501zm-36.915-40l1.944 36.951c.002.473.535 1.057 1.061 1.057h33.91a.687.687 0 0 0 .66-.624l2.315-37.384H7.55z"/><path fill="#FFF" d="M66.5 77v-8.906c-.492-.06-.992-.094-1.5-.094-.169 0-.333.019-.5.025V77h2z"/><path fill="none" d="M71.747 36.955l-3.525-3.525a19.317 19.317 0 0 0-2.596 3.039l4.325 2.497a14.458 14.458 0 0 1 1.796-2.011zm2.939-2.123l-2.487-4.307a20.028 20.028 0 0 0-3.218 2.249l3.53 3.531a14.965 14.965 0 0 1 2.175-1.473zm3.308-1.346l-1.284-4.792a19.313 19.313 0 0 0-3.626 1.365l2.494 4.318a14.392 14.392 0 0 1 2.416-.891zm10.128 1.405l2.471-4.278A17.963 17.963 0 0 0 87.2 29.02l-1.286 4.799c.772.288 1.51.647 2.208 1.072zM81.498 33v-4.96c-1.299 0-2.576.144-3.818.406l1.288 4.808a13.18 13.18 0 0 1 2.53-.254zm3.465.502l1.281-4.781a17.33 17.33 0 0 0-3.745-.629v4.96a12.54 12.54 0 0 1 2.464.45zm-21.889 8.444A15.763 15.763 0 0 0 62.52 46h4.98c0-.94.139-1.865.377-2.767l-4.803-1.287zm27.71-4.942l3.495-3.496a18.707 18.707 0 0 0-2.834-2.373l-2.484 4.304c.653.468 1.264.99 1.823 1.565zm-21.395 2.792l-4.313-2.49a17.503 17.503 0 0 0-1.727 3.679l4.814 1.29c.311-.862.729-1.691 1.226-2.479zm23.414-.114l4.285-2.474a18.34 18.34 0 0 0-2.134-2.958l-3.495 3.495a13.3 13.3 0 0 1 1.344 1.937zM62.502 55H67.5v-8h-4.981zm31.561-12.254l4.796-1.285a17.746 17.746 0 0 0-1.299-3.372l-4.299 2.482c.332.697.6 1.423.802 2.175z"/><path fill="#87E4B9" d="M62.519 46H67.5v1h-4.981zM81.5 33c.336 0 .668.026.999.052v-4.96c-.333-.019-.662-.052-.999-.052h-.002V33h.002zm-13.336 9.275l-4.814-1.29c-.104.316-.189.639-.275.961l4.803 1.287c.085-.322.173-.644.286-.958zm1.787-3.309l-4.325-2.497c-.19.275-.375.553-.55.837l4.313 2.49c.177-.282.363-.56.562-.83zm2.56-2.662l-3.53-3.531c-.254.218-.517.427-.759.656l3.525 3.525c.244-.227.504-.438.764-.65zm3.067-1.928l-2.494-4.318c-.3.148-.595.303-.886.466l2.487 4.307c.292-.162.59-.311.893-.455zm3.39-1.123l-1.288-4.808c-.328.069-.647.163-.97.249l1.284 4.792c.322-.087.645-.17.974-.233zm6.946.565l1.286-4.799a17.351 17.351 0 0 0-.956-.298l-1.281 4.781c.322.092.639.199.951.316zm3.047 1.621l2.484-4.304c-.276-.187-.566-.352-.853-.523l-2.471 4.278c.287.174.568.355.84.549zm2.498 2.305l3.495-3.495c-.221-.251-.44-.502-.675-.74l-3.495 3.496c.233.239.46.483.675.739zm1.803 2.827l4.299-2.482a17.362 17.362 0 0 0-.473-.882l-4.285 2.474c.166.29.315.589.459.89zm1.027 3.15l4.826-1.293c-.069-.328-.168-.646-.256-.967l-4.796 1.285c.087.321.166.645.226.975z"/><path fill="#005A95" d="M92.51 47l-.012 5h9.004l-.01-5-.002-.999V46c0-1.397-.158-2.764-.447-4.089-.072-.327-.169-.646-.257-.967a19.75 19.75 0 0 0-1.497-3.853c-.153-.297-.31-.591-.478-.879a20.459 20.459 0 0 0-2.45-3.37c-.223-.249-.441-.502-.676-.74a20.666 20.666 0 0 0-3.245-2.69c-.277-.186-.566-.352-.853-.524a20.144 20.144 0 0 0-3.87-1.804 19.56 19.56 0 0 0-.957-.291 19.345 19.345 0 0 0-4.262-.702c-.333-.018-.662-.052-.999-.052h-.002c-1.477 0-2.928.167-4.336.475a21.403 21.403 0 0 0-5.961 2.283 22.162 22.162 0 0 0-4.379 3.232 21.46 21.46 0 0 0-3.472 4.28 19.53 19.53 0 0 0-1.933 4.157l1.932.518a17.503 17.503 0 0 1 1.727-3.679c.175-.284.359-.563.55-.837a19.317 19.317 0 0 1 2.596-3.039c.242-.229.505-.438.759-.656a20.047 20.047 0 0 1 3.218-2.249 19.453 19.453 0 0 1 4.512-1.831c.322-.086.642-.18.97-.249a18.56 18.56 0 0 1 3.818-.406h.002c.337 0 .666.033.999.052a17.391 17.391 0 0 1 4.701.927c1.189.412 2.323.95 3.393 1.593.286.172.576.336.853.523a18.707 18.707 0 0 1 2.834 2.373c.234.238.454.489.675.74a18.49 18.49 0 0 1 2.134 2.958c.168.289.321.584.473.882a17.787 17.787 0 0 1 1.299 3.372c.088.321.187.639.256.967.243 1.161.373 2.356.373 3.575v.003l.002.997.006 3h-4.996l.008-3 .002-.999V46c0-.776-.084-1.536-.223-2.279a12.31 12.31 0 0 0-.226-.975 12.784 12.784 0 0 0-.802-2.175c-.144-.302-.293-.6-.459-.89a13.418 13.418 0 0 0-1.344-1.938 13.891 13.891 0 0 0-2.498-2.305 13.437 13.437 0 0 0-.839-.549 12.974 12.974 0 0 0-3.159-1.388 12.54 12.54 0 0 0-2.464-.45c-.33-.025-.662-.051-.998-.051h-.002a13.26 13.26 0 0 0-3.504.486c-.833.225-1.641.524-2.416.891-.303.143-.602.293-.893.456-.77.429-1.497.921-2.175 1.472-.26.211-.52.423-.764.65a14.515 14.515 0 0 0-1.796 2.011c-.199.27-.385.548-.563.831a12.725 12.725 0 0 0-1.225 2.479c-.113.314-.201.636-.287.958A10.907 10.907 0 0 0 67.5 46v9h-3.89a5.748 5.748 0 0 1-.129 2H69.5V46c0-.76.113-1.513.311-2.249.086-.321.187-.64.306-.953.265-.689.609-1.356 1.021-1.993.181-.28.371-.555.576-.822.438-.567.929-1.103 1.467-1.596.245-.226.504-.439.768-.646a13.301 13.301 0 0 1 2.642-1.613 12.517 12.517 0 0 1 2.9-.931c.659-.122 1.33-.197 2.007-.197h.002a10.643 10.643 0 0 1 2.947.428 11.013 11.013 0 0 1 3.511 1.745 11.53 11.53 0 0 1 2.085 1.986c.386.476.731.983 1.036 1.517a10.889 10.889 0 0 1 1.271 3.564c.098.576.161 1.161.161 1.759V46l-.001 1z"/><path fill="none" d="M70.5 77v-7.708A12.402 12.402 0 0 0 65 68c-6.893 0-12.5 5.607-12.5 12.5S58.107 93 65 93s12.5-5.607 12.5-12.5c0-2.49-.74-4.807-2-6.758V77h-5z"/><path fill="#FFF" d="M70.5 69.292V77h5v-3.258a12.58 12.58 0 0 0-5-4.45z"/><path fill="none" d="M57.5 76.5v.5h-.051a2.49 2.49 0 1 1-4.623.712A12.432 12.432 0 0 0 52.5 80.5C52.5 87.393 58.107 93 65 93s12.5-5.607 12.5-12.5c0-2.49-.74-4.807-2-6.758a12.58 12.58 0 0 0-9-5.648l-1.74-.082c-.086.006-.173.01-.26.013a12.474 12.474 0 0 0-8.521 3.843c.559.58 1.082 1.194 1.521 1.874V76.5z"/><path fill="#FFF" d="M55 79a2.499 2.499 0 0 0 2.449-2h-4.443c-.068.233-.125.473-.18.712A2.49 2.49 0 0 0 55 79zm2.5-2v-.5c0 .171-.018.339-.051.5h.051zM55 74a2.5 2.5 0 0 1 2.5 2.5v-2.758c-.439-.68-.963-1.294-1.521-1.874a12.512 12.512 0 0 0-1.705 2.252A2.46 2.46 0 0 1 55 74zm-2.5 3h.051a2.494 2.494 0 0 1-.051-.5v.5z"/><path fill="#FFF" d="M57.449 77A2.5 2.5 0 0 0 55 74c-.254 0-.495.049-.727.12A12.404 12.404 0 0 0 53.005 77h4.444z"/><path fill="#005A95" d="M75.5 70.529A14.57 14.57 0 0 0 72.312 68c-2.15-1.263-4.645-2-7.313-2-4.14 0-7.87 1.753-10.515 4.545a14.533 14.533 0 0 0-1.985 2.643c-1.263 2.15-2 4.645-2 7.313C50.5 88.495 57.005 95 65 95s14.5-6.505 14.5-14.5c0-3.863-1.528-7.369-4-9.971zM65 93c-6.893 0-12.5-5.607-12.5-12.5 0-.96.12-1.891.326-2.788.055-.239.111-.479.18-.712a12.38 12.38 0 0 1 1.268-2.88 12.548 12.548 0 0 1 1.705-2.252 12.478 12.478 0 0 1 8.521-3.843c.087-.003.174-.007.26-.013l1.74.082a12.58 12.58 0 0 1 9 5.648c1.26 1.951 2 4.268 2 6.758C77.5 87.393 71.893 93 65 93z"/><path fill="#FFF" d="M47.313 78.978a5.24 5.24 0 0 0 .188-1.353c0-2.851-2.25-5.17-5.016-5.17a4.964 4.964 0 0 0-2.719.821c-.023-3.479-2.789-6.305-6.164-6.305-.422 0-.82.048-1.195.12C31.587 65.28 29.805 64 27.719 64c-2.367 0-4.383 1.643-4.969 3.889a5.172 5.172 0 0 0-2.203-.484c-2.344 0-4.336 1.57-5.039 3.745-4.148.337-7.5 3.624-8.086 7.849l39.891-.021z"/><path fill="#005A95" d="M6.256 80.015l.16-1.155c.619-4.459 4.085-7.998 8.363-8.646 1.013-2.312 3.256-3.824 5.768-3.824a6.24 6.24 0 0 1 1.592.204c.996-2.169 3.158-3.609 5.58-3.609 2.141 0 4.129 1.156 5.25 3.001 3.73-.348 6.895 2.254 7.646 5.759a5.894 5.894 0 0 1 1.869-.306c3.325 0 6.031 2.775 6.031 6.186 0 .525-.075 1.069-.223 1.617l-.203.75-41.833.023zM20.547 68.42c-1.848 0-3.484 1.222-4.073 3.042l-.208.645-.676.055c-3.248.264-6.001 2.64-6.918 5.821l37.797-.021c.011-.114.016-.228.016-.338 0-2.291-1.794-4.154-4-4.154-.76 0-1.508.227-2.162.655l-1.559 1.021-.014-1.864c-.02-2.92-2.329-5.296-5.148-5.296a5.35 5.35 0 0 0-1.004.102l-.787.15-.329-.729c-.686-1.516-2.163-2.495-3.763-2.495-1.866 0-3.506 1.287-3.986 3.13l-.307 1.175-1.102-.51a4.166 4.166 0 0 0-1.777-.389z"/><path fill="#FFF" d="M54.5 83H.5v-1.38C.5 79.629 2.078 78 4.006 78h46.988c1.929 0 3.506 1.629 3.506 3.62V83z"/><path fill="#87E4B9" d="M54.5 84H.5v-1.104C.5 81.303 2.078 80 4.006 80h46.988c1.929 0 3.506 1.303 3.506 2.896V84z"/><path fill="#005A95" d="M55.5 84h-56v-2.38C-.5 79.072 1.521 77 4.006 77h46.988c2.484 0 4.506 2.072 4.506 4.62V84zm-54-2h52v-.38c0-1.444-1.124-2.62-2.506-2.62H4.006C2.624 79 1.5 80.176 1.5 81.62V82z"/><path fill="#FFF" d="M110.5 111h-8v-9.813c0-.664-.539-1.188-1.172-1.188h-8.664c-.656 0-1.172.547-1.172 1.188V111H77.5l-8 5v5h49v-5l-8-5z"/><path fill="#87E4B9" d="M109.643 111.477h-6.856v-9.346c0-.633-.463-1.131-1.005-1.131H94.5c-.563 0-1 .39-1 1v10h-2l-7.571-.523h-2.571l-6.857 4.761V121H118.5v-5l-8.857-4.523z"/><path fill="#005A95" d="M119.5 122h-51v-6.555L77.213 110h13.279v-8.813c0-1.206.975-2.188 2.172-2.188h8.664c1.197 0 2.172.981 2.172 2.188V110h7.287l8.713 5.445V122zm-49-2h47v-3.445L110.213 112H101.5v-10.813c0-.11-.091-.188-.172-.188h-8.664c-.102 0-.164.099-.164.188V112H77.787l-7.287 4.555V120z"/><path fill="#FFF" d="M86.5 115.552c-.733-.943-1.799-1.552-3-1.552h-47c-1.201 0-2.267.608-3 1.552-.615.791-1 1.814-1 2.948s.385 2.157 1 2.948c.733.943 1.799 1.552 3 1.552h47c1.201 0 2.267-.608 3-1.552.615-.791 1-1.814 1-2.948s-.385-2.157-1-2.948z"/><path fill="none" d="M83.5 115h-47c-.842 0-1.626.414-2.211 1.166-.509.654-.789 1.483-.789 2.334s.28 1.68.789 2.335c.585.751 1.369 1.165 2.211 1.165h47c.841 0 1.626-.414 2.211-1.166.509-.654.789-1.483.789-2.334s-.28-1.68-.789-2.334c-.585-.752-1.37-1.166-2.211-1.166z"/><path fill="#FFF" d="M56.5 17h7v76h-7zm29.828 92H66.836c-.656 0-1.336-.344-1.336-.986V94.188c0-.664-.539-1.188-1.172-1.188h-8.664c-.656 0-1.172.547-1.172 1.188v13.826c0 .666-.703.986-1.336.986H33.672c-.656 0-1.172.547-1.172 1.189V114h55v-3.811c0-.642-.539-1.189-1.172-1.189z"/><path fill="#87E4B9" d="M85.5 110.728H66.842c-.561 0-1.142-.294-1.142-.843V98.069c0-.567-.461-3.069-1.002-3.069h-7.403c-.561 0-1.002.467-1.002 1.015v13.87c0 .568-.601.843-1.141.843H35.5c-.561 0-1.002.467-1.002 1.017L34.5 114h53l-.999-2.256c0-.55-.461-1.016-1.001-1.016z"/><path fill="#005A95" d="M88.5 115h-57v-4.811c0-1.207.975-2.189 2.172-2.189h19.484a.806.806 0 0 0 .336-.068V94.188c0-1.206.975-2.188 2.172-2.188h8.664c1.197 0 2.172.981 2.172 2.188v13.741a.769.769 0 0 0 .336.071h19.492c1.178 0 2.172 1.003 2.172 2.189V115zm-55-2h53v-2.811c0-.096-.099-.189-.172-.189H66.836c-1.332 0-2.336-.854-2.336-1.986V94.188c0-.11-.091-.188-.172-.188h-8.664c-.102 0-.172.099-.172.188v13.826c0 1.133-1.004 1.986-2.336 1.986H33.672c-.102 0-.172.1-.172.189V113z"/><path fill="#005A95" d="M76.5 109a1 1 0 0 1-1-1v-1a1 1 0 1 1 2 0v1a1 1 0 0 1-1 1zm-20-26h-2a1 1 0 1 1 0-2h2a1 1 0 1 1 0 2zm21 0h-14a1 1 0 1 1 0-2h14a1 1 0 1 1 0 2zm-65 13c-4.963 0-9-4.037-9-9v-4h-2v4c0 6.065 4.935 11 11 11h5v-2h-5zm30 0c4.963 0 9-4.037 9-9v-4h2v4c0 6.065-4.935 11-11 11h-5v-2h5z"/><path fill="#FFF" d="M37.5 97.479c0 1.387-1.104 2.522-2.451 2.522H19.951c-1.348 0-2.451-1.136-2.451-2.522v-.957c0-1.387 1.104-2.521 2.451-2.521h15.098c1.348 0 2.451 1.134 2.451 2.521v.957z"/><path fill="#005A95" d="M35.049 101.001H19.951c-1.902 0-3.451-1.582-3.451-3.522v-.957c0-1.94 1.549-3.521 3.451-3.521h15.098c1.903 0 3.451 1.58 3.451 3.521v.957c0 1.94-1.548 3.522-3.451 3.522zM19.951 95c-.8 0-1.451.682-1.451 1.521v.957c0 .84.651 1.523 1.451 1.523h15.098c.801 0 1.451-.684 1.451-1.523v-.957c0-.84-.65-1.521-1.451-1.521H19.951z"/><path fill="none" d="M83.5 115h-47c-.771 0-1.487.362-2.053 1h51.106c-.566-.638-1.282-1-2.053-1zm-47 7h47c.771 0 1.487-.362 2.054-1H34.446c.566.638 1.283 1 2.054 1zm-2.684-2h52.368a3.84 3.84 0 0 0 .274-1H33.541c.045.348.141.682.275 1zm0-3c-.135.318-.23.652-.275 1h52.918a3.879 3.879 0 0 0-.274-1H33.816z"/><path fill="#87E4B9" d="M33.5 118.5c0 .168.02.335.041.5h52.918c.021-.165.041-.332.041-.5s-.02-.335-.041-.5H33.541a3.966 3.966 0 0 0-.041.5zm52.211-2.334c-.049-.063-.106-.108-.157-.166H34.447c-.052.058-.109.104-.158.166a3.687 3.687 0 0 0-.473.834h52.368a3.687 3.687 0 0 0-.473-.834zm-51.422 4.669c.049.063.105.107.157.165h51.107c.051-.058.108-.104.157-.166a3.73 3.73 0 0 0 .474-.834H33.816c.125.297.277.581.473.835z"/><path fill="#005A95" d="M87.289 114.938C86.332 113.706 84.951 113 83.5 113h-47c-1.451 0-2.832.706-3.789 1.938-.781 1.004-1.211 2.269-1.211 3.562s.43 2.558 1.211 3.562c.957 1.232 2.338 1.938 3.789 1.938h47c1.451 0 2.832-.706 3.789-1.938.781-1.004 1.211-2.27 1.211-3.563s-.43-2.558-1.211-3.561zM83.5 122h-47c-.771 0-1.488-.362-2.054-1-.052-.058-.108-.103-.157-.165a3.715 3.715 0 0 1-.473-.835 3.802 3.802 0 0 1-.275-1c-.021-.165-.041-.332-.041-.5s.02-.335.041-.5c.045-.348.141-.682.275-1a3.65 3.65 0 0 1 .473-.834c.049-.063.106-.108.158-.166.565-.638 1.281-1 2.053-1h47c.771 0 1.487.362 2.054 1 .051.058.108.104.157.166.196.253.348.537.474.834.134.318.229.652.274 1 .021.165.041.332.041.5s-.02.335-.041.5a3.879 3.879 0 0 1-.274 1 3.69 3.69 0 0 1-.474.834c-.049.063-.106.108-.157.166-.567.638-1.283 1-2.054 1z"/><circle fill="#FFF" cx="73" cy="76.5" r="2.5"/><path fill="none" d="M57.5 18v74h5V78.488c-.604-.456-1-1.173-1-1.988s.396-1.532 1-1.988V18h-5z"/><path fill="#FFF" d="M66.5 76.5c0-1.21-.858-2.218-2-2.449v4.898a2.498 2.498 0 0 0 2-2.449zm-5 0c0 .815.396 1.532 1 1.988v-3.977a2.49 2.49 0 0 0-1 1.989z"/><path fill="#005A95" d="M55.5 16v78h9V16h-9zm7 76h-5V18h5v74z"/><path fill="#87E4B9" d="M61.5 18h1v74h-1zm37 34h1v47h-1z"/><path fill="#FFF" d="M111.5 115h-23v-1h21z"/><path fill="#87E4B9" d="M94.5 46h5v1h-5zm-30 4h3v1h-3zm0 4h3v1h-3zm-36.498-1.126c0 5.291-4.246 9.563-9.502 9.563 5.256 0 9.502 4.271 9.502 9.563 0-5.291 4.244-9.563 9.498-9.563-5.254.001-9.498-4.272-9.498-9.563zM79.5 45c0 3.369-2.734 6-6 6 3.369 0 6 2.734 6 6 0-3.369 2.738-6 6-6-3.264 0-6-2.736-6-6zM44.393 26.17c0 2.708-2.195 4.915-4.893 4.915 2.695 0 4.893 2.207 4.893 4.915 0-2.708 2.197-4.915 4.896-4.915-2.801-.001-4.896-2.207-4.896-4.915z"/><path fill="#FFF" d="M61.487 3h-2.993C57.391 3 56.5 4.077 56.5 5.411V25h7V5.412C63.5 4.078 62.59 3 61.487 3z"/><path fill="#87E4B9" d="M62.063 5.001h-2.139c-.787 0-1.424.782-1.424 1.753V26h5V6.755c0-.971-.65-1.754-1.437-1.754z"/><path fill="#005A95" d="M64.499 26H55.5V5.411C55.5 3.531 56.844 2 58.494 2h2.993c1.661 0 3.012 1.531 3.012 3.412V26zM57.5 24.001h5.001V5.412c0-.766-.465-1.412-1.014-1.412h-2.993c-.539 0-.994.646-.994 1.411v18.59z"/></svg>