<svg xmlns="http://www.w3.org/2000/svg" width="120" height="135" viewBox="-0.5 1 120 135"><circle fill="#EFEFEF" cx="59.5" cy="76" r="60"/><path fill="#87E4B9" d="M30.5 76V60.164A1.16 1.16 0 0 0 29.348 59h-5.695a1.16 1.16 0 0 0-1.151 1.164V76H30.5z"/><path fill="#005A95" d="M31.5 77h-10V60.164c0-1.193.966-2.164 2.152-2.164h5.695a2.16 2.16 0 0 1 2.151 2.164L31.5 77zm-8-2h6V60.164a.16.16 0 0 0-.152-.164h-5.695c-.09 0-.151.086-.151.164L23.5 75z"/><path fill="#EFEFEF" d="M34.5 81v-2.514c0-1.367-.918-2.486-2.038-2.486H20.538c-1.12 0-2.038 1.119-2.038 2.486V81h16z"/><path fill="#87E4B9" d="M33.5 82v-2.01c0-1.096-.805-1.99-1.783-1.99H21.283c-.979 0-1.783.896-1.783 1.99V82h14z"/><path fill="#005A95" d="M35.5 81h-18v-3.514c0-1.922 1.363-3.486 3.038-3.486h11.924c1.675 0 3.038 1.564 3.038 3.486V81zm-16-1h14v-2.514c0-.791-.484-1.486-1.038-1.486H20.538c-.554 0-1.038.695-1.038 1.486V80z"/><path fill="#87E4B9" d="M1.561 122A1.064 1.064 0 0 1 .5 120.93V88.865C.5 84.537 4.005 81 8.295 81h36.41c4.29 0 7.795 3.514 7.795 7.865v32.064c0 .581-.461 1.069-1.061 1.069L1.561 122z"/><path fill="#005A95" d="M51.439 123H1.561a2.069 2.069 0 0 1-2.062-2.07V88.865C-.501 83.976 3.443 80 8.294 80h36.41c4.851 0 8.795 3.977 8.795 8.865v32.064a2.067 2.067 0 0 1-2.06 2.071zM8.295 82C4.548 82 1.5 85.08 1.5 88.865v32.064l49.939.069c.049 0 .061-.051.061-.069V88.865C51.5 85.08 48.452 82 44.705 82H8.295z"/><path fill="#87E4B9" d="M.5 90v31c0 .539 0 1 1 1l6-32h-7z"/><path fill="#87E4B9" d="M3.5 90l-2 31c0 .539 0 1 1 1l6-32h-5z"/><path fill="#005A95" d="M2.33 123H1.5c-2 0-2-1.505-2-2V89h9.205L2.33 123zM1.5 91v25.574L6.295 91H1.5z"/><path fill="#87E4B9" d="M51.5 122c1 0 1-.461 1-1V90h-7l6 32z"/><path fill="#005A95" d="M51.5 123h-.83l-6.375-34H53.5v32c0 .495 0 2-2 2zm-4.795-32l4.795 25.574V91h-4.795z"/><path fill="#FFF" d="M52.5 91v-1.775C52.5 84.7 48.994 81 44.705 81H8.294C4.006 81 .5 84.674.5 89.225V91h52z"/><path fill="#87E4B9" d="M50.5 91.938v-1.42c0-3.621-3.236-6.58-7.195-6.58H9.695c-3.959 0-7.194 2.939-7.194 6.58v1.42H50.5z"/><path fill="#005A95" d="M53.5 92h-54v-2.775C-.5 84.139 3.445 80 8.294 80h36.411c4.85 0 8.795 4.139 8.795 9.225V92zm-52-2h50v-.775c0-3.983-3.048-7.225-6.795-7.225H8.294C4.548 82 1.5 85.24 1.5 89.225V90z"/><path fill="#87E4B9" d="M99.279 106.227a.763.763 0 0 0-.532-.227l-4.497.006a.74.74 0 0 0-.75.738v12.305c.004.785.313 1.529.88 2.086a3.028 3.028 0 0 0 4.241 0 2.91 2.91 0 0 0 .879-2.086v-12.305a.718.718 0 0 0-.221-.517z"/><path fill="#005A95" d="M96.5 123.002h-.008a4.017 4.017 0 0 1-2.814-1.156 3.902 3.902 0 0 1-1.178-2.791v-12.311c0-.958.785-1.738 1.75-1.738l4.496-.006c.463 0 .917.191 1.245.523.317.307.509.758.509 1.221v12.305a3.898 3.898 0 0 1-1.178 2.799 4.024 4.024 0 0 1-2.814 1.154H96.5zm-2-15.996v12.043c.003.52.209 1.008.58 1.372.375.37.878.575 1.42.581a2.037 2.037 0 0 0 1.419-.579c.375-.368.581-.856.581-1.374V107l-4 .006z"/><path fill="#87E4B9" d="M60 112c-1.921 0-3.5-1.331-3.5-3.006V5.005C56.5 3.356 58.048 2 60 2c1.92 0 3.5 1.33 3.5 3.005V109.02c-.029 1.649-1.58 2.98-3.5 2.98z"/><path fill="#FFF" d="M59 112c-1.372 0-2.5-1.331-2.5-3.006V5.005C56.5 3.356 57.605 2 59 2c1.371 0 2.5 1.33 2.5 3.005V109.02c-.021 1.649-1.129 2.98-2.5 2.98z"/><path fill="#005A95" d="M60 113c-2.48 0-4.5-1.797-4.5-4.006V5.005C55.5 2.797 57.52 1 60 1s4.5 1.797 4.5 4.005V109.02c-.041 2.24-2.018 3.98-4.5 3.98zM60 3c-1.379 0-2.5.899-2.5 2.005v103.989C57.5 110.1 58.621 111 60 111c1.357 0 2.479-.896 2.5-1.999V5.005C62.5 3.899 61.379 3 60 3z"/><path fill="#FFF" d="M33.5 97h53v5h-53z"/><path fill="#87E4B9" d="M33.5 99h53v5h-53z"/><path fill="#005A95" d="M87.499 104H32.5v-8h54.999v8zM34.5 102h51v-4h-51v4z"/><path fill="#FFF" d="M39.5 112l1 10h34l1-11 3 11h2l1-10 3 10 5-.002-3-19.998h-53l-3 19.998 6 .002z"/><path fill="#005A95" d="M83.756 123l-1.763-5.877-.589 5.877h-3.668l-1.742-6.389-.581 6.389H39.596l-.588-5.877L37.244 123l-7.905-.002 3.3-21.998h54.723l3.301 21.998-6.907.002zm-4.492-2h.332l1.411-14.122L85.244 121l3.095-.002-2.7-17.998H34.361l-2.699 17.998 4.095.002 4.236-14.122L41.404 121h32.183l1.419-15.611L79.264 121z"/><path fill="#87E4B9" d="M96.5 37c-6.627 0-12 5.373-12 12v30c0 6.627 5.373 12 12 12s12-5.373 12-12V49c0-6.627-5.373-12-12-12z"/><path fill="#005A95" d="M95.5 91h2v14h-2zm-69-24a1 1 0 0 1-1-1v-3a1 1 0 1 1 2 0v3a1 1 0 0 1-1 1z"/><path fill="#FFF" d="M85.5 74h11v2h-11zm0-4h11v2h-11zm0-4h11v2h-11zm0-4h11v2h-11zm0-4h11v2h-11zm0-4h11v2h-11zm0-4h11v2h-11zm11 26h11v2h-11zm0-4h11v2h-11zm0-4h11v2h-11zm0-4h11v2h-11zm0-4h11v2h-11zm0-4h11v2h-11zm0-4h11v2h-11z"/><path fill="none" d="M96.5 84h9.786c.325-.634.589-1.303.786-2H96.5v2zm0 4h6.305a10.985 10.985 0 0 0 2.174-2H96.5v2zm-6.305 0c1.787 1.256 3.959 2 6.305 2v-2h-6.305zM96.5 48h10.949a10.838 10.838 0 0 0-.377-2H96.5v2zm0 0H85.551c-.029.33-.051.663-.051 1v29h11v2h10.949c.029-.33.051-.662.051-1V50h-11v-2zm0 36h-9.786c.366.714.802 1.387 1.308 2h8.479l-.001-2zm6.305-44a10.928 10.928 0 0 0-6.305-2v2h6.305zM96.5 40h-6.305a11.046 11.046 0 0 0-2.174 2H96.5v-2zm0 4h9.786a11.071 11.071 0 0 0-1.308-2H96.5v2zm0 0h-9.786a10.853 10.853 0 0 0-.786 2H96.5v-2zm0 36H85.551c.063.688.192 1.354.377 2H96.5v-2z"/><path fill="#FFF" d="M96.5 82H85.928c.197.697.461 1.366.786 2H96.5v-2zm-12 2h.003l-.003-.008zm12-6h-11v1c0 .338.021.67.051 1H96.5v-2zm0-32H85.928a10.854 10.854 0 0 0-.377 2H96.5v-2zm0-4h-8.479a11.076 11.076 0 0 0-1.309 2h9.786l.002-2zm0-4c-2.346 0-4.518.744-6.305 2H96.5v-2zm0 48h-8.479a10.985 10.985 0 0 0 2.174 2H96.5v-2zm0 0h8.479c.508-.613.941-1.286 1.309-2H96.5v2zm0-4h10.572c.185-.646.314-1.313.377-2H96.5v2zm0-32h11v-1c0-.337-.021-.67-.051-1H96.5v2zm12-6h-.003l.003.008zm-12 0v2h10.572a10.853 10.853 0 0 0-.786-2H96.5zm0-2h8.479a11.046 11.046 0 0 0-2.174-2H96.5v2zm0 48c2.346 0 4.518-.744 6.305-2H96.5v2z"/><path fill="#005A95" d="M108.5 44.008l-.003-.008a12.788 12.788 0 0 0-1.062-2 13.101 13.101 0 0 0-1.576-2c-2.367-2.46-5.686-4-9.359-4a12.9 12.9 0 0 0-6.896 2 13.107 13.107 0 0 0-2.463 2 13.101 13.101 0 0 0-1.576 2 12.958 12.958 0 0 0-1.062 2 12.895 12.895 0 0 0-1.003 5v30a12.904 12.904 0 0 0 1.003 5c.294.701.653 1.367 1.062 2 .461.718.988 1.389 1.576 2 2.367 2.46 5.686 4 9.359 4a12.9 12.9 0 0 0 6.896-2 13.1 13.1 0 0 0 2.463-2 13.053 13.053 0 0 0 1.576-2c.407-.633.768-1.299 1.062-2a12.895 12.895 0 0 0 1.003-5V49c0-1.769-.357-3.454-1-4.992zm-1 5.992v29c0 .338-.021.67-.051 1a10.838 10.838 0 0 1-.377 2 11.071 11.071 0 0 1-2.094 4 11.097 11.097 0 0 1-2.174 2c-1.787 1.256-3.959 2-6.306 2s-4.519-.744-6.306-2a11.069 11.069 0 0 1-2.174-2 11.179 11.179 0 0 1-2.095-4 10.937 10.937 0 0 1-.376-2c-.029-.33-.051-.662-.051-1V49c0-.337.021-.67.051-1a10.92 10.92 0 0 1 .376-2 11.071 11.071 0 0 1 2.095-4 11.13 11.13 0 0 1 2.174-2c1.787-1.256 3.959-2 6.306-2s4.519.744 6.306 2a11.16 11.16 0 0 1 2.174 2c.506.613.94 1.286 1.308 2 .325.634.589 1.303.786 2 .185.646.314 1.313.377 2 .029.33.051.663.051 1v1z"/><path fill="#EFEFEF" d="M23.5 60h1v14h-1z"/><path fill="#87E4B9" d="M39.002 34.874c0 5.291-4.246 9.563-9.502 9.563 5.256 0 9.502 4.271 9.502 9.563 0-5.291 4.244-9.563 9.498-9.563-5.254.001-9.498-4.272-9.498-9.563zm-7.398 89.296c0 2.708-2.194 4.915-4.893 4.915 2.695 0 4.893 2.207 4.893 4.915 0-2.708 2.197-4.915 4.896-4.915-2.8-.001-4.896-2.207-4.896-4.915zM74.5 73c0 3.369-2.734 6-6 6 3.369 0 6 2.734 6 6 0-3.369 2.738-6 6-6-3.264 0-6-2.736-6-6z"/></svg>