<svg xmlns="http://www.w3.org/2000/svg" width="120" height="135" viewBox="-0.5 2 120 135"><circle fill="#EFEFEF" cx="59.5" cy="77" r="60"/><path fill="#FFF" d="M114.5 63h-64l3.24 27.135h.004l3.681 28.627c.081.625.664 1.148 1.308 1.148h47.13c.646 0 1.228-.523 1.31-1.148l3.681-28.627h.004L114.5 63z"/><path fill="#005A95" d="M105.5 121h-47c-1.143 0-1.92-.978-2.067-2.109l-3.686-28.638L49.374 62h66.27l-3.888 28.945-3.593 27.944c-.149 1.134-1.521 2.111-2.663 2.111zM54.698 89.724l.038.283 3.681 28.627c.017.132.95.366 1.083.366h46c.137 0 .662-.233.68-.368l3.801-29.497L113.356 64h-61.73l3.072 25.724z"/><path fill="#87E4B9" d="M77.5 64h10v55h-10zm18 0h10v55h-10zm-36 0h10v55h-10zm-11-5v3a1.01 1.01 0 0 0 1.007 1.007L115.5 63a1.01 1.01 0 0 0 1.006-1.007L116.5 59h-68z"/><path fill="#005A95" d="M49.507 64.007A2.01 2.01 0 0 1 47.5 62v-4h69.998l.008 3.991A2.01 2.01 0 0 1 115.5 64l-65.993.007zM49.5 60l.007 3.007v-1L115.5 62v-2h-66z"/><path fill="#FFF" d="M114.5 51l-8.69-28c-.179-.523-.755-.966-1.31-.966L61.5 22c-.557 0-1.132.423-1.312.966L50.5 51h64z"/><path fill="#87E4B9" d="M114.5 51l-8.419-26.069c-.174-.487-.73-.899-1.269-.899L63.156 24c-.54 0-1.096.394-1.271.899L52.5 51h62z"/><path fill="#005A95" d="M115.857 52H49.096l10.146-29.361C59.556 21.694 60.507 21 61.5 21l43.001.034c.965 0 1.935.706 2.255 1.643L115.857 52zm-63.953-2h61.239l-8.288-26.704c-.038-.11-.248-.262-.354-.262L61.499 23c-.114 0-.314.139-.362.281L51.904 50z"/><path fill="#FFF" d="M105.5 51l-7-29h-32l-7 29z"/><path fill="#005A95" d="M106.771 52H58.23l7.483-31h33.574l7.484 31zm-46-2h43.459l-6.517-27H67.287l-6.516 27z"/><path fill="#FFF" d="M118.5 58c0 .563-.455 1-1 1h-70a1 1 0 0 1-1-1v-6c0-.564.456-1 1-1h70c.564 0 1 .456 1 1v6z"/><path fill="#87E4B9" d="M118.5 58.25c0 .422-.455.75-1 .75h-70c-.563 0-1-.343-1-.75v-4.5c0-.423.456-.75 1-.75h70c.564 0 1 .342 1 .75v4.5z"/><path fill="#005A95" d="M117.5 60h-70c-1.103 0-2-.897-2-2v-6c0-1.103.897-2 2-2h70c1.103 0 2 .897 2 2v6c0 1.103-.897 2-2 2zm-70-8v6h70.001l-.001-6h-70z"/><path fill="#FFF" d="M79.021 120.266H36.553V94.891h6.895v20.361a5.01 5.01 0 0 0 5.015 5.014h30.558z"/><path fill="#005A95" d="M79.021 121.266H35.553V93.891h8.895v21.361a4.02 4.02 0 0 0 4.015 4.014h30.56v2zm-41.468-2h6.434a5.988 5.988 0 0 1-1.539-4.014V95.891h-4.895v23.375z"/><path fill="#FFF" d="M6.5 83l2 38c0 1 1 2 2.055 2h33.91c.861 0 1.607-.701 1.654-1.566L48.5 83h-42z"/><path fill="#87E4B9" d="M8.5 83.952l1.902 37.096c0 .976.951 1.952 1.955 1.952h32.254c.82 0 1.529-.685 1.574-1.529l2.265-37.519H8.5z"/><path fill="#005A95" d="M44.465 123.996h-33.91c-1.596 0-3.051-1.428-3.051-2.996L5.45 82.004h44.11l-2.446 39.491c-.075 1.376-1.264 2.501-2.649 2.501zm-36.915-40l1.944 36.951c.002.473.535 1.057 1.061 1.057h33.91a.687.687 0 0 0 .66-.624l2.315-37.384H7.55z"/><path fill="#FFF" d="M47.313 78.978a5.24 5.24 0 0 0 .188-1.353c0-2.851-2.25-5.17-5.016-5.17a4.964 4.964 0 0 0-2.719.821c-.023-3.479-2.789-6.305-6.164-6.305-.422 0-.82.048-1.195.12C31.587 65.28 29.805 64 27.719 64c-2.367 0-4.383 1.643-4.969 3.889a5.172 5.172 0 0 0-2.203-.484c-2.344 0-4.336 1.57-5.039 3.745-4.148.337-7.5 3.624-8.086 7.849l39.891-.021z"/><path fill="#005A95" d="M6.256 80.015l.16-1.155c.619-4.459 4.085-7.998 8.363-8.646 1.013-2.312 3.256-3.824 5.768-3.824a6.24 6.24 0 0 1 1.592.204c.996-2.169 3.158-3.609 5.58-3.609 2.141 0 4.129 1.156 5.25 3.001 3.73-.348 6.895 2.254 7.646 5.759a5.894 5.894 0 0 1 1.869-.306c3.325 0 6.031 2.775 6.031 6.186 0 .525-.075 1.069-.223 1.617l-.203.75-41.833.023zM20.547 68.42c-1.848 0-3.484 1.222-4.073 3.042l-.208.645-.676.055c-3.248.264-6.001 2.64-6.918 5.821l37.797-.021c.011-.114.016-.228.016-.338 0-2.291-1.794-4.154-4-4.154-.76 0-1.508.227-2.162.655l-1.559 1.021-.014-1.864c-.02-2.92-2.329-5.296-5.148-5.296a5.35 5.35 0 0 0-1.004.102l-.787.15-.329-.729c-.686-1.516-2.163-2.495-3.763-2.495-1.866 0-3.506 1.287-3.986 3.13l-.307 1.175-1.102-.51a4.166 4.166 0 0 0-1.777-.389z"/><path fill="#FFF" d="M54.5 83H.5v-1.38C.5 79.629 2.078 78 4.006 78h46.988c1.929 0 3.506 1.629 3.506 3.62V83z"/><path fill="#87E4B9" d="M54.5 84H.5v-1.104C.5 81.303 2.078 80 4.006 80h46.988c1.929 0 3.506 1.303 3.506 2.896V84z"/><path fill="#005A95" d="M55.5 84h-56v-2.38C-.5 79.072 1.521 77 4.006 77h46.988c2.484 0 4.506 2.072 4.506 4.62V84zm-54-2h52v-.38c0-1.444-1.124-2.62-2.506-2.62H4.006C2.624 79 1.5 80.176 1.5 81.62V82z"/><path fill="#FFF" d="M86.5 115.552c-.733-.943-1.799-1.552-3-1.552h-47c-1.201 0-2.267.608-3 1.552-.615.791-1 1.814-1 2.948s.385 2.157 1 2.948c.733.943 1.799 1.552 3 1.552h47c1.201 0 2.267-.608 3-1.552.615-.791 1-1.814 1-2.948s-.385-2.157-1-2.948z"/><path fill="none" d="M83.5 115h-47c-.842 0-1.626.414-2.211 1.166-.509.654-.789 1.483-.789 2.334s.28 1.68.789 2.335c.585.751 1.369 1.165 2.211 1.165h47c.841 0 1.626-.414 2.211-1.166.509-.654.789-1.483.789-2.334s-.28-1.68-.789-2.334c-.585-.752-1.37-1.166-2.211-1.166z"/><path fill="#FFF" d="M56.5 17h7v76h-7zm29.828 92H66.836c-.656 0-1.336-.344-1.336-.986V94.188c0-.664-.539-1.188-1.172-1.188h-8.664c-.656 0-1.172.547-1.172 1.188v13.826c0 .666-.703.986-1.336.986H33.672c-.656 0-1.172.547-1.172 1.189V114h55v-3.811c0-.642-.539-1.189-1.172-1.189z"/><path fill="#87E4B9" d="M85.5 110.728H66.842c-.561 0-1.142-.294-1.142-.843V98.069c0-.567-.461-3.069-1.002-3.069h-7.403c-.561 0-1.002.467-1.002 1.015v13.87c0 .568-.601.843-1.141.843H35.5c-.561 0-1.002.467-1.002 1.017L34.5 114h53l-.999-2.256c0-.55-.461-1.016-1.001-1.016z"/><path fill="#005A95" d="M88.5 115h-57v-4.811c0-1.207.975-2.189 2.172-2.189h19.484a.806.806 0 0 0 .336-.068V94.188c0-1.206.975-2.188 2.172-2.188h8.664c1.197 0 2.172.981 2.172 2.188v13.741a.769.769 0 0 0 .336.071h19.492c1.178 0 2.172 1.003 2.172 2.189V115zm-55-2h53v-2.811c0-.096-.099-.189-.172-.189H66.836c-1.332 0-2.336-.854-2.336-1.986V94.188c0-.11-.091-.188-.172-.188h-8.664c-.102 0-.172.099-.172.188v13.826c0 1.133-1.004 1.986-2.336 1.986H33.672c-.102 0-.172.1-.172.189V113zm23-30h-2a1 1 0 1 1 0-2h2a1 1 0 1 1 0 2zm-44 13c-4.963 0-9-4.037-9-9v-4h-2v4c0 6.065 4.935 11 11 11h5v-2h-5z"/><path fill="#005A95" d="M42.5 96c4.963 0 9-4.037 9-9v-4h2v4c0 6.065-4.935 11-11 11h-5v-2h5z"/><path fill="#FFF" d="M37.5 97.479c0 1.387-1.104 2.522-2.451 2.522H19.951c-1.348 0-2.451-1.136-2.451-2.522v-.957c0-1.387 1.104-2.521 2.451-2.521h15.098c1.348 0 2.451 1.134 2.451 2.521v.957z"/><path fill="#005A95" d="M35.049 101.001H19.951c-1.902 0-3.451-1.582-3.451-3.522v-.957c0-1.94 1.549-3.521 3.451-3.521h15.098c1.903 0 3.451 1.58 3.451 3.521v.957c0 1.94-1.548 3.522-3.451 3.522zM19.951 95c-.8 0-1.451.682-1.451 1.521v.957c0 .84.651 1.523 1.451 1.523h15.098c.801 0 1.451-.684 1.451-1.523v-.957c0-.84-.65-1.521-1.451-1.521H19.951z"/><path fill="none" d="M83.5 115h-47c-.771 0-1.487.362-2.053 1h51.106c-.566-.638-1.282-1-2.053-1zm-47 7h47c.771 0 1.487-.362 2.054-1H34.446c.566.638 1.283 1 2.054 1zm-2.684-2h52.368a3.84 3.84 0 0 0 .274-1H33.541c.045.348.141.682.275 1zm0-3c-.135.318-.23.652-.275 1h52.918a3.879 3.879 0 0 0-.274-1H33.816z"/><path fill="#87E4B9" d="M33.5 118.5c0 .168.02.335.041.5h52.918c.021-.165.041-.332.041-.5s-.02-.335-.041-.5H33.541a3.966 3.966 0 0 0-.041.5zm52.211-2.334c-.049-.063-.106-.108-.157-.166H34.447c-.052.058-.109.104-.158.166a3.687 3.687 0 0 0-.473.834h52.368a3.687 3.687 0 0 0-.473-.834zm-51.422 4.669c.049.063.105.107.157.165h51.107c.051-.058.108-.104.157-.166a3.73 3.73 0 0 0 .474-.834H33.816c.125.297.277.581.473.835z"/><path fill="#005A95" d="M87.289 114.938C86.332 113.706 84.951 113 83.5 113h-47c-1.451 0-2.832.706-3.789 1.938-.781 1.004-1.211 2.269-1.211 3.562s.43 2.558 1.211 3.562c.957 1.232 2.338 1.938 3.789 1.938h47c1.451 0 2.832-.706 3.789-1.938.781-1.004 1.211-2.27 1.211-3.563s-.43-2.558-1.211-3.561zM83.5 122h-47c-.771 0-1.488-.362-2.054-1-.052-.058-.108-.103-.157-.165a3.715 3.715 0 0 1-.473-.835 3.802 3.802 0 0 1-.275-1c-.021-.165-.041-.332-.041-.5s.02-.335.041-.5c.045-.348.141-.682.275-1a3.65 3.65 0 0 1 .473-.834c.049-.063.106-.108.158-.166.565-.638 1.281-1 2.053-1h47c.771 0 1.487.362 2.054 1 .051.058.108.104.157.166.196.253.348.537.474.834.134.318.229.652.274 1 .021.165.041.332.041.5s-.02.335-.041.5a3.879 3.879 0 0 1-.274 1 3.69 3.69 0 0 1-.474.834c-.049.063-.106.108-.157.166-.567.638-1.283 1-2.054 1z"/><path fill="none" d="M57.5 18v74h5V78.488c-.604-.456-1-1.173-1-1.988s.396-1.532 1-1.988V18h-5z"/><path fill="#FFF" d="M61.5 76.5c0 .815.396 1.532 1 1.988v-3.977a2.49 2.49 0 0 0-1 1.989z"/><path fill="#005A95" d="M55.5 16v78h9V16h-9zm7 76h-5V18h5v74z"/><path fill="#87E4B9" d="M61.5 18h1v74h-1z"/><path fill="#FFF" d="M61.487 3h-2.993C57.391 3 56.5 4.077 56.5 5.411V25h7V5.412C63.5 4.078 62.59 3 61.487 3z"/><path fill="#87E4B9" d="M62.063 5.001h-2.139c-.787 0-1.424.782-1.424 1.753V26h5V6.755c0-.971-.65-1.754-1.437-1.754z"/><path fill="#005A95" d="M64.499 26H55.5V5.411C55.5 3.531 56.844 2 58.494 2h2.993c1.661 0 3.012 1.531 3.012 3.412V26zM57.5 24.001h5.001V5.412c0-.766-.465-1.412-1.014-1.412h-2.993c-.539 0-.994.646-.994 1.411v18.59z"/><path fill="#87E4B9" d="M41.002 22c0 5.291-4.246 9.563-9.502 9.563 5.256 0 9.502 4.271 9.502 9.563 0-5.291 4.244-9.563 9.498-9.563-5.254 0-9.498-4.272-9.498-9.563zM89.5 123c0 3.369-2.734 6-6 6 3.369 0 6 2.734 6 6 0-3.369 2.738-6 6-6-3.264 0-6-2.736-6-6zM18.393 47.17c0 2.708-2.195 4.915-4.893 4.915 2.695 0 4.893 2.207 4.893 4.915 0-2.708 2.197-4.915 4.896-4.915-2.801-.001-4.896-2.207-4.896-4.915z"/><path fill="#FFF" d="M25.5 66h8v6c-.01.982-1.016 2.01-2 2h-23c-.983-.01-2.011-1.014-2-2v-6h16"/><path fill="#005A95" d="M31.514 75H8.5c-.739-.007-1.493-.344-2.077-.924-.594-.59-.931-1.351-.923-2.087V65h17a1 1 0 0 1 0 2h-15v5c-.002.201.128.454.332.656.208.207.474.342.678.344h22.995c.431 0 .991-.573.995-1.01V67h-7a1 1 0 0 1 0-2h9v7c-.016 1.554-1.463 3-2.986 3z"/><path fill="#87E4B9" d="M26.322 70a3.193 3.193 0 0 1 3.178 3.236c-.004.383.136.414 0 .764h-6c-.117-.344-.426-.422-.42-.805A3.204 3.204 0 0 1 26.322 70z"/><path fill="#005A95" d="M30.185 75h-7.4l-.23-.678c-.175-.183-.483-.543-.474-1.143a4.22 4.22 0 0 1 4.206-4.18 4.169 4.169 0 0 1 3.001 1.243 4.18 4.18 0 0 1 1.213 3.004c0 .039.002.051.015.109.052.249.093.553-.083 1.006l-.248.639zm-6.095-2h4.401a2.194 2.194 0 0 0-2.17-2c-1.174 0-2.121.88-2.231 2z"/><path fill="#87E4B9" d="M18.5 67c-.015 1.146-.855 2.016-2 2-1.145-.014-2.012-.854-1.999-2 .006-.382 0-1 0-1h3.997c.001 0 .008.618.002 1z"/><path fill="#005A95" d="M16.53 70h-.044c-1.721-.021-3.005-1.315-2.985-3.012.006-.376 0-.979 0-.979L13.492 65h5.995l.012.988s.007.635.001 1.027C19.478 68.716 18.202 70 16.53 70zm-1.029-3v.015c-.007.581.399.978 1.01.985l.019 1v-1c.568 0 .957-.401.97-1h-1.999z"/><path fill="#87E4B9" d="M10.251 71a2.269 2.269 0 0 1 2.115 3.033L9.5 74c-.068-.008-.934.008-1 0-.08-.225-.537-.488-.538-.74A2.286 2.286 0 0 1 10.251 71z"/><path fill="#005A95" d="M13.065 75.041l-3.679-.048-.752.009c-.132 0-.225-.006-.251-.009l-.617-.072-.167-.47-.052-.051c-.218-.217-.583-.58-.585-1.137C6.984 71.457 8.457 70 10.244 70c.893.01 1.711.357 2.322.98.613.624.945 1.45.935 2.326.001.343-.063.707-.193 1.065l-.243.67zM9.512 73l1.964.022a1.26 1.26 0 0 0-.337-.641A1.274 1.274 0 0 0 10.24 72a1.29 1.29 0 0 0-1.246 1l.371-.002.147.002z"/><path fill="#FFF" d="M31.5 61h-23c-.984-.01-1.99 1.015-2 2v3h27v-3c.016-.973-1.016-1.99-2-2z"/><path fill="#87E4B9" d="M30.5 62h2v3h-2zm-2 0h1v3h-1zm-5 0h1v3h-1zm-5 0h1v3h-1zm-5 0h1v3h-1zm-5 0h1v3h-1zm2 0h2v3h-2zm5 0h2v3h-2zm5 0h2v3h-2zm5 0h2v3h-2z"/><path fill="#005A95" d="M34.5 67h-29v-4c.015-1.547 1.466-3 2.985-3H31.5c.758.008 1.527.361 2.119.969.571.587.893 1.333.881 2.047V67zm-27-2h25v-2c.003-.193-.121-.437-.314-.636-.213-.219-.486-.362-.696-.364H8.5c-.443 0-.996.566-1 1.01V65z"/><path fill="#FFF" d="M68.169 120.388l2.533 1.637a6.084 6.084 0 0 0 8.416-1.809l5.688-8.803 4.284-.193 14.94 10.916a3.545 3.545 0 1 0 3.847-5.957l-16.044-9.107-1.584-3.984 6.317-9.781a6.081 6.081 0 0 0-1.809-8.414l-2.533-1.637-24.015 37.162-.04-.03z"/><path fill="#005A95" d="M74.003 124a7.064 7.064 0 0 1-3.844-1.136l-2.52-1.628-.001.001-.81-.524 25.1-38.841 3.373 2.18a7.022 7.022 0 0 1 3.082 4.459 7.035 7.035 0 0 1-.977 5.338l-6.037 9.348 1.264 3.179 15.738 8.934c1.068.688 1.771 1.704 2.026 2.892a4.52 4.52 0 0 1-.626 3.424 4.534 4.534 0 0 1-3.822 2.079 4.524 4.524 0 0 1-2.463-.728l-14.703-10.741-3.418.154-5.408 8.37a7.06 7.06 0 0 1-5.954 3.24zm-4.408-3.882l1.65 1.066a5.066 5.066 0 0 0 2.758.815c1.736 0 3.334-.87 4.275-2.327l5.967-9.235 5.15-.232 15.225 11.123c.365.234.842.375 1.33.375a2.544 2.544 0 0 0 2.493-3.082 2.526 2.526 0 0 0-1.106-1.602l-16.302-9.252-1.904-4.79 6.598-10.215a5.052 5.052 0 0 0 .701-3.832 5.044 5.044 0 0 0-2.212-3.199l-1.694-1.094-22.929 35.481z"/><path fill="#87E4B9" d="M70.702 122.024c.268.172.52.273.785.445l23.869-36.943c-.191-.188-.459-.359-.727-.533l-2.533-1.637-23.928 37.031 2.534 1.637z"/><path fill="#FFF" d="M71.5 123c.268.172.734-2.172 1-2l23-35c-.191-.188.268.174 0 0l-1.973-1.213L69.6 121.818 71.5 123z"/><path fill="#005A95" d="M71.784 123.853l-.84-.543c-.108-.07-.214-.124-.318-.18-.153-.081-.307-.162-.464-.264l-3.376-2.182L91.8 81.974l3.373 2.18c.32.208.626.407.884.658l.583.572-24.856 38.469zm-2.232-3.762l1.61 1.04 22.841-35.353-1.609-1.039-22.842 35.352zM99.499 98a1 1 0 0 1-.857-1.515l6-10a1 1 0 0 1 1.715 1.029l-6 10a.997.997 0 0 1-.858.486z"/><circle fill="#87E4B9" cx="107.001" cy="86.5" r="2.5"/><path fill="#005A95" d="M107.001 90a3.503 3.503 0 0 1-3.501-3.499A3.504 3.504 0 0 1 107.001 83c1.93 0 3.499 1.57 3.499 3.501A3.502 3.502 0 0 1 107.001 90zm0-5c-.827 0-1.501.674-1.501 1.501 0 .826.674 1.499 1.501 1.499.826 0 1.499-.673 1.499-1.499 0-.827-.673-1.501-1.499-1.501z"/><path fill="#FFF" d="M100.5 82v2c0 .373.627 1 1 1h5c1.5 0 3 1.502 3 3v4l4.926-.133v-3.396a.68.68 0 0 1 .678-.678h2.719c.373 0 .678-.422.678-.793v-.248c0-.752-.501-1.363-1-1.752l-4.563-3.566c-.366-.28-.99-.434-1.438-.434h-9.979c-.375 0-1.021.629-1.021 1z"/><path fill="#005A95" d="M108.5 93.027V88c0-.953-1.047-2-2-2h-5c-.935 0-2-1.065-2-2v-2c0-.916 1.096-2 2.021-2h9.979c.558 0 1.428.167 2.045.64l4.571 3.572c.892.695 1.384 1.598 1.384 2.54V87c0 .848-.689 1.793-1.678 1.793h-2.396v4.048l-6.926.186zM101.643 84h4.857c2.056 0 4 1.944 4 4v2.973l2.926-.079v-2.423a1.68 1.68 0 0 1 1.678-1.678l2.396-.041c0-.438-.43-.819-.614-.963l-4.564-3.567c-.133-.102-.517-.222-.822-.222h-9.843c-.053.039-.115.1-.157.15v1.707a.88.88 0 0 0 .143.143z"/><path fill="#FFF" d="M100.5 110v10c0 1.5 1.501 3 3 3h10c1.499 0 3-1.5 3-3V93c0-.744-.247-1-1-1h-9c-1 0-1 1-1 2 0 0 0 1 1 1s2 0 2 1v5c0 1.16-.366 2.166-1.223 2.936L102.5 107c-.855.777-1.991 1.842-2 3z"/><path fill="#87E4B9" d="M100.5 111v10c0 1.5 1.501 3 3 3h10c1.499 0 3-1.5 3-3v-21c-4 0-4 2-8 1v1c0 1.16-.366 2.166-1.223 2.936L102.5 108c-.855.777-1.991 1.842-2 3z"/><path fill="#005A95" d="M113.5 124h-10c-2.056 0-4-1.944-4-4v-10c.013-1.637 1.462-2.953 2.327-3.74l.133-.102 4.704-3.018c.563-.532.836-1.233.836-2.141v-4.945c-.229-.054-.701-.054-1-.054-1.299 0-2-1.03-2-2 0-.974 0-3 2-3h9c1.309 0 2 .691 2 2v27c0 2.056-1.944 4-4 4zm-10.39-16.204c-.594.541-1.604 1.484-1.61 2.212V120c0 .953 1.047 2 2 2h10c.953 0 2-1.047 2-2V93h-8.945c-.055.229-.055.701-.055 1 .974 0 3 0 3 2v5c0 1.515-.522 2.753-1.555 3.68l-.128.098-4.707 3.018z"/><path fill="#FFF" d="M112.5 117v-4c0-1-1-2-2-2h-4c-1 0-2 1-2 2v4c0 1 1 2 2 2h4c1 0 2-1 2-2z"/><path fill="#005A95" d="M110.5 120h-4c-1.542 0-3-1.458-3-3v-4c0-1.542 1.458-3 3-3h4c1.542 0 3 1.458 3 3v4c0 1.542-1.458 3-3 3zm-4-8c-.448 0-1 .552-1 1v4c0 .448.552 1 1 1h4c.448 0 1-.552 1-1v-4c0-.448-.552-1-1-1h-4z"/><path fill="#FFF" d="M109.5 89h5v3h-5z"/><path fill="#005A95" d="M115.5 93h-7v-5h7v5zm-5-2h3v-1h-3v1zm-10-7h-2a1 1 0 1 1 0-2h2a1 1 0 1 1 0 2zm-20-38h-7c-.756 0-1.373-.326-1.692-.894-.379-.673-.281-1.578.268-2.482.502-.828 3.21-5.716 3.237-5.765l1.75.969c-.112.203-2.755 4.973-3.278 5.834-.079.131-.129.25-.16.337H80.5V46zm10.628 0H84.5v-2h6.628c.159 0 .288.015.388 0-.835-1.523-3.275-5.987-3.275-5.987l1.752-.964s2.764 5.025 3.375 6.128c.481.868.248 1.517.065 1.827-.268.454-.885.996-2.305.996zm-4.795-11.75c-.115-.201-2.83-4.93-3.296-5.823a1.724 1.724 0 0 0-.215-.326c-.858 1.403-3.587 5.878-3.587 5.878l-1.707-1.041s2.984-4.896 3.638-5.976c.39-.645.995-.997 1.642-.982.78.024 1.511.579 2.002 1.521.448.857 3.229 5.704 3.258 5.752l-1.735.997z"/><path fill="#005A95" d="M92.563 36.877l-2.911-.728-1.94-.485-.484 1.94-.728 2.911 1.939.485.728-2.911 2.911.728zM78.876 48.534l2.174-2.067 1.45-1.378-1.379-1.448-2.067-2.174-1.45 1.377 2.068 2.174-2.174 2.068zm-2.891-18.23l.702 2.916.466 1.945 1.945-.469 2.917-.701-.467-1.944-2.917.702-.702-2.917z"/><path fill="#FFF" d="M110.5 87h3v4h-3z"/></svg>