<svg xmlns="http://www.w3.org/2000/svg" width="120" height="140" viewBox="0 0 451410 526646" shape-rendering="geometricPrecision" text-rendering="geometricPrecision" image-rendering="optimizeQuality" fill-rule="evenodd" clip-rule="evenodd"><defs><style>.str0,.str1{stroke:#005a95;stroke-width:7523.51}.str0{stroke-linejoin:round}.fil2{fill:none}.fil4{fill:#005a95}.fil3{fill:#87e4b9}.fil1,.fil5{fill:#fff}</style></defs><g id="Layer_x0020_1"><circle cx="225705" cy="300941" r="225705" fill="#efefef"/><g id="_2412152193856"><path class="fil1" d="M225706 427155c-2757-3547-6768-5838-11286-5838H37617c-4518 0-8527 2288-11285 5838-2314 2976-3763 6825-3763 11090s1449 8114 3763 11090c2756 3547 6767 5837 11285 5837h176803c4518 0 8527-2287 11286-5837 2313-2976 3761-6825 3761-11090s-1448-8114-3761-11090z"/><path class="fil2" d="M214420 425078H37617c-3167 0-6116 1557-8317 4386-1915 2460-2968 5579-2968 8779 0 3201 1053 6320 2968 8784 2201 2827 5150 4384 8317 4384h176803c3163 0 6116-1557 8317-4387 1915-2459 2969-5579 2969-8779 0-3201-1054-6320-2969-8779-2201-2830-5154-4388-8317-4388z"/><path class="fil1" d="M112853 56427h26333v285893h-26333zm112204 346080h-73323c-2468 0-5026-1293-5026-3709v-52010c0-2497-2027-4468-4409-4468h-32591c-2468 0-4409 2057-4409 4468v52010c0 2505-2644 3709-5026 3709H26978c-2468 0-4409 2058-4409 4473l2 14337h206895v-14335c0-2416-2027-4475-4409-4475z"/><path class="fil3" d="M221944 409008h-70187c-2110 0-4297-1107-4297-3171v-44449c0-2132-1734-11544-3769-11544h-27848c-2110 0-3769 1757-3769 3819v52175c0 2138-2261 3171-4293 3171l-73926-1c-2110 0-3769 1757-3769 3826l7 8483h199373l-3758-8486c0-2070-1734-3823-3764-3823z"/><path class="fil4" d="M233228 425078H18809v-18098c0-4541 3668-8235 8171-8235l73293 2c557 0 1019-135 1264-256v-51703c0-4536 3668-8230 8171-8230h32591c4503 0 8171 3691 8171 8230v51690c233 117 674 267 1264 267l73323 2c4432 0 8171 3773 8171 8235v18096zm-206896-7523h199374v-10573c0-361-373-711-647-711l-73325-1c-5010 0-8788-3214-8788-7472v-52010c0-413-343-706-647-706h-32591c-384 0-647 372-647 706v52010c0 4262-3776 7472-8788 7472H26978c-384 0-646 376-646 710v10575z"/><path class="fil2" d="M214420 425078H37617c-2900 0-5593 1362-7723 3762h192249c-2130-2400-4823-3762-7723-3762zM37617 451411h176803c2900 0 5593-1362 7727-3762H29890c2130 2400 4827 3762 7727 3762zm-10097-7523h196995c505-1196 862-2453 1031-3762H26487c168 1309 530 2565 1033 3762zm0-11286c-508 1196-866 2453-1035 3762h199066c-170-1309-531-2565-1031-3762H27520z"/><path class="fil3" d="M26332 438245c0 633 75 1260 153 1881h199066c79-621 153-1248 153-1881s-75-1260-153-1881H26487c-80 620-155 1248-155 1881zm196405-8781c-185-237-398-406-590-624H29894c-196 218-409 391-594 624-738 951-1310 2020-1779 3138h196994c-469-1118-1040-2185-1778-3138zM29300 447029c185 237 395 402 590 621l192253-1c191-218 406-391 590-625 737-951 1309-2020 1782-3138l-196995 2c470 1116 1042 2185 1780 3141z"/><path class="fil4" d="M228673 424845c-3600-4634-8795-7290-14253-7290H37617c-5458 0-10653 2656-14253 7291-2937 3776-4555 8535-4555 13399s1618 9622 4555 13399c3600 4635 8795 7291 14253 7291h176803c5458 0 10653-2656 14253-7291 2937-3777 4555-8539 4555-13403s-1618-9623-4555-13396zm-14253 26566H37617c-2900 0-5597-1362-7727-3762-196-218-406-389-590-622-738-955-1310-2023-1779-3141-507-1195-866-2452-1034-3761-80-622-154-1249-154-1882 0-632 75-1259 154-1880 168-1310 530-2565 1034-3763 471-1117 1038-2185 1779-3137 185-238 398-407 594-624 2126-2400 4819-3763 7723-3763l176803 2c2900 0 5593 1362 7727 3762 192 218 406 391 590 624 738 951 1309 2020 1783 3138 504 1196 861 2453 1031 3762 79 621 153 1248 153 1881s-75 1260-153 1881c-170 1309-531 2565-1031 3762-474 1118-1042 2185-1783 3138-185 237-398 406-590 624-2134 2399-4827 3761-7727 3761z"/><path class="fil2" d="M116614 60189v278370l18810-1v-50828c-2273-1716-3763-4413-3763-7479 0-3065 1490-5762 3763-7478V60189h-18810z"/><path class="fil1" d="M131661 280251c0 3066 1490 5763 3763 7479v-14960c-2274 1717-3763 4415-3763 7481z"/><path class="fil4" d="M109091 52665v293417h33855V52665h-33855zm26333 285893h-18810V60189h18810v278369z"/><path class="fil3" d="M131661 60187h3762v278370h-3762z"/><path class="fil1" d="M131612 3762h-11259c-4149 0-7501 4052-7501 9069v73689h26332V12835c0-5018-3422-9073-7572-9073z"/><path class="fil3" d="M133779 11289h-8046c-2961 0-5358 2941-5358 6594v72399h18809V17887c0-3653-2444-6598-5405-6598z"/><path class="fil4" d="M142943 90282h-33852V12831c0-7071 5056-12831 11262-12831h11259c6248 0 11330 5760 11330 12835l1 77447zm-26329-7520h18812V12835c0-2881-1749-5311-3814-5311h-11259c-2028 0-3739 2430-3739 5307v69931z"/></g><path class="fil3 str0" d="M22571 142947h173040c16552 0 30094 13542 30094 30094v210658H22571V142947zm406269 0H255799c-16551 0-30094 13542-30094 30094v210658h203135V142947z"/><rect class="fil3 str1" x="206897" y="361129" width="37618" height="26332" rx="7524" ry="7524"/><path class="fil5 str0" d="M37618 127900h164577c12931 0 23510 10579 23510 23510v217242H37618V127900z"/><path class="fil2 str1" d="M37618 353605h188087M37618 338558h188087"/><path class="fil5 str0" d="M413793 127900H249216c-12931 0-23511 10579-23511 23510v217242h188088V127900z"/><path class="fil2 str1" d="M413793 353605H225705m188088-15047H225705m-86520-142947h48903m-48903 15047h48903m-48903 15047h48903M82759 240752h105329M82759 255799h105329M82759 270846h105329M82759 285893h105329m-48903-105329h48903m75235 15047h105329m-105329 15047h105329m-105329 15047h105329m-105329 15047h105329m-105329 15047h105329m-105329 15047h105329m-105329 15047h105329M263323 180564h105329"/><path class="fil3" d="M67712 169279h63950v60188H67712z"/><path class="fil3 str0" d="M267085 116614h37617v48903l-18809-11285-18808 11285z"/><g id="_2412152208736"><path class="fil4" d="M421320 364892c658 0 1328-174 1934-538 1783-1068 2358-3378 1291-5161l-22571-37617c-1065-1779-3374-2359-5161-1291-1783 1068-2359 3378-1291 5161l22571 37617c703 1179 1949 1829 3227 1829z"/><circle class="fil3" cx="393099" cy="321632" r="9404"/><path class="fil4" d="M393099 334798c7264 0 13170-5901 13170-13162 0-7264-5906-13170-13170-13170-7259 0-13162 5906-13162 13170 0 7259 5903 13162 13162 13162zm0-18809c3111 0 5646 2535 5646 5645 0 3107-2535 5639-5646 5639-3106 0-5638-2532-5638-5639 0-3109 2532-5645 5638-5645z"/><path class="fil1" d="M417555 304704v7524c0 1403-2358 3762-3762 3762l-18808-1c-5643 0-11286 5650-11286 11286v15046l-18530-500v-12775c0-1403-1148-2550-2551-2550h-10228c-1403 0-2551-1589-2551-2984v-932c0-2829 1886-5127 3762-6591l17165-13415c1377-1052 3724-1632 5410-1632h37538c1412 0 3841 2366 3841 3762z"/><path class="fil4" d="M387461 346185v-18910c0-3585 3938-7524 7524-7524h18808c3518 0 7524-4007 7524-7525v-7523c0-3447-4123-7524-7602-7524l-37539 1c-2098 0-5371 628-7693 2407l-17195 13437c-3355 2615-5206 6011-5206 9554v934c0 3191 2591 6745 6312 6745h9013v15228l26054 700zm25795-33957h-18271c-7735 0-15047 7314-15047 15047v11183l-11007-297v-9115c0-3479-2832-6313-6313-6313l-9012-153c0-1648 1618-3081 2310-3623l17169-13419c499-383 1944-834 3091-834h37027c199 146 432 377 590 564v6421c-143 185-354 395-537 539z"/><path class="fil1" d="M417555 410033v37617c0 5643-5646 11286-11286 11286h-37617c-5638 0-11286-5643-11286-11286V346083c0-2799 930-3762 3762-3762h33857c3762 0 3762 3762 3762 7524 0 0 0 3762-3762 3762s-7524 0-7524 3762v18808c0 4364 1376 8149 4600 11045l17970 11526c3216 2923 7490 6928 7524 11285z"/><path class="fil3" d="M417555 413795v37617c0 5643-5646 11286-11286 11286h-37617c-5638 0-11286-5643-11286-11286v-78998c15047 0 15047 7524 30095 3762v3762c0 4364 1376 8148 4600 11045l17970 11527c3216 2922 7490 6928 7524 11285z"/><path class="fil4" d="M368652 462698h37617c7735 0 15047-7314 15047-15047v-37617c-49-6158-5499-11108-8754-14068l-500-384-17696-11353c-2118-2002-3145-4638-3145-8054v-18602c863-204 2639-204 3764-204 4886 0 7524-3874 7524-7524 0-3664 0-11286-7524-11286h-33857c-4923 0-7524 2599-7524 7524v101567c2 7734 7314 15048 15048 15048zm39084-60956c2236 2035 6035 5582 6057 8322v37587c0 3584-3938 7524-7524 7524l-37617-1c-3584 0-7524-3939-7524-7524V346083h33649c208 862 208 2637 208 3762-3664 0-11286 0-11286 7524v18808c0 5699 1963 10357 5849 13844l482 369 17706 11352z"/><path class="fil1" d="M372414 436365v-15047c0-3761 3762-7523 7524-7523h15047c3762 0 7524 3762 7524 7523v15047c0 3762-3762 7524-7524 7524h-15048c-3761 0-7523-3762-7523-7524z"/><path class="fil4" d="M379937 447651h15048c5800 0 11286-5485 11286-11286v-15047c0-5800-5486-11285-11286-11285h-15048c-5801 0-11286 5485-11286 11285v15047c1 5801 5486 11286 11286 11286zm15048-30094c1685 0 3762 2077 3762 3761v15047c0 1685-2077 3762-3762 3762h-15048c-1685 0-3762-2077-3762-3762v-15047c0-1684 2077-3761 3762-3761h15048z"/><path class="fil1" d="M364890 331037h18809v11286h-18809z"/><path class="fil4" d="M361128 346083h26333v-18808h-26333v18808zm18809-7524h-11285v-3762l11285 1v3761zm37618-26331h7523c2080 0 3762-1682 3762-3762s-1682-3762-3762-3762h-7523c-2080 0-3762 1682-3762 3762s1682 3762 3762 3762z"/><path class="fil1" d="M368652 323514h11286v15047h-11286z"/></g><g id="_2412152209824"><path class="fil1" d="M157994 368653l7524 142948c0 3761 3761 7524 7730 7524l24721-2h102839c3239 0 6046-2637 6222-5890l8957-144580H157994z"/><path class="fil3" d="M165518 372235l7154 139546c0 3671 3577 7344 7355 7344l23517-2h97813c3086 0 5751-2576 5922-5751l8521-141137H165518z"/><path class="fil4" d="M300808 522869H173248c-6004 0-11477-5371-11477-11270l-7727-146692h165930l-9202 148556c-281 5175-4754 9406-9964 9406zM161943 372400l7314 139000c7 1779 2013 3977 3991 3977h127560c1253 0 2416-1099 2483-2348l8708-140629H161943z"/><path class="fil1" d="M311522 353523c440-1636 706-3363 706-5090 0-10724-8464-19448-18870-19448-3792 0-7316 1181-10228 3088-86-13088-10491-23718-23187-23718-1588 0-3085 180-4496 452-3082-6812-9786-11627-17633-11627-8904 0-16488 6180-18692 14630-2557-1182-5289-1821-8287-1821-8818 0-16310 5906-18955 14088-15604 1268-28214 13633-30417 29525l150059-79z"/><path class="fil4" d="M157075 357424l602-4345c2329-16774 15366-30086 31459-32524 3810-8697 12248-14385 21698-14385 2043 0 4043 255 5988 767 3746-8159 11880-13576 20991-13576 8054 0 15533 4349 19750 11289 14031-1310 25937 8479 28762 21663 2265-756 4631-1151 7031-1151 12507 0 22687 10438 22687 23269 0 1975-282 4021-839 6083l-764 2821-157365 89zm53760-43617c-6952 0-13106 4597-15321 11444l-782 2427-2544 208c-12218 993-22574 9931-26024 21896l142184-79c41-430 60-858 60-1272 0-8618-6749-15626-15047-15626-2859 0-5672 854-8132 2464l-5865 3840-53-7012c-75-10985-8761-19922-19365-19922-1193 0-2430 128-3777 384l-2960 564-1237-2742c-2580-5703-8137-9385-14155-9385-7019 0-13188 4841-14994 11773l-1154 4421-4146-1918c-2140-984-4322-1465-6688-1465z"/><path class="fil1" d="M338558 368653H135423v-5191c0-7489 5936-13617 13188-13617h176759c7256 0 13188 6128 13188 13617v5191z"/><path class="fil3" d="M338558 372415H135423v-4153c0-5993 5936-10894 13188-10894h176759c7256 0 13188 4901 13188 10893v4154z"/><path class="fil4" d="M342320 372415H131661v-8953c0-9585 7602-17379 16950-17379h176759c9343 0 16950 7794 16950 17379v8953zm-203135-7524h195611v-1429c0-5432-4229-9855-9426-9855l-176759-2c-5198 0-9426 4425-9426 9857v1429z"/><path class="fil4" d="M180564 417556c-18669 0-33856-15185-33856-33856v-15047h-7523v15047c0 22815 18564 41379 41379 41379h18809v-7524l-18809 1zm112853 0c18669 0 33856-15185 33856-33856v-15047h7523v15047c0 22815-18564 41379-41379 41379h-18809v-7524l18809 1z"/><path class="fil1" d="M274608 423120c0 5218-4153 9487-9220 9487h-56795c-5071 0-9220-4274-9220-9487v-3600c0-5218 4153-9483 9220-9483h56795c5071 0 9220 4265 9220 9483v3600z"/><path class="fil4" d="M265388 436368h-56795c-7154 0-12982-5952-12982-13250v-3600c0-7297 5826-13245 12982-13245l56795 2c7159 0 12982 5943 12982 13245v3600c0 7298-5823 13248-12982 13248zm-56795-22574c-3010 0-5459 2565-5459 5721v3600c0 3161 2449 5730 5459 5730h56795c3013 0 5458-2573 5458-5730v-3600c0-3160-2445-5721-5458-5721h-56795z"/><path class="fil1" d="M229467 304704h30093v22570c-37 3694-3822 7561-7524 7524l-86518-1c-3699-37-7566-3815-7524-7524v-22571l60187 2h11286zm0 0z"/><path class="fil4" d="M252090 338559h-86572c-2780-27-5616-1294-7813-3476-2235-2220-3502-5083-3472-7851l-1-26290h63949c2077 0 3762 1684 3762 3762 0 2077-1685 3762-3762 3762l-56426-2v18809c-7 756 482 1708 1249 2468 782 779 1783 1287 2550 1294h86502c1621 0 3728-2156 3744-3799v-18772h-26333c-2077 0-3762-1685-3762-3762s1685-3762 3762-3762l33855 2v26332c-60 5845-5503 11285-11232 11285z"/><path class="fil3" d="M232560 319750c6662 16 12022 5481 11954 12173-16 1441 511 1557 0 2874h-22571c-441-1294-1602-1588-1579-3029 44-6736 5503-12093 12196-12018z"/><path class="fil4" d="M247090 338559h-27837l-866-2551c-658-688-1817-2043-1782-4299 56-8656 7154-15725 15821-15725 4363 11 8321 1666 11289 4676 2987 3024 4608 7035 4562 11300 0 147 7 192 57 410 196 937 350 2080-313 3785l-931 2404zm-22927-7524h16555c-174-1922-994-3702-2359-5086-1546-1568-3607-2434-5805-2438-4415 1-7978 3311-8391 7524z"/><path class="fil3" d="M203134 308464c-56 4311-3216 7584-7523 7524-4307-52-7568-3213-7520-7524 23-1437 0-3762 0-3762l15037 2c2 0 29 2324 6 3760z"/><path class="fil4" d="M195725 319750h-167c-6473-79-11305-4946-11229-11330 23-1414 0-3682 0-3682l-33-3796h22551l45 3716s27 2389 5 3863c-84 6400-4884 11229-11172 11229zm-3872-11286v57c-27 2185 1501 3680 3799 3705l71 3762v-3762c2137 0 3600-1508 3648-3762h-7518z"/><path class="fil3" d="M172103 323512c4725 53 8517 3902 8460 8633 4 949-181 1881-505 2777l-10780-125c-256-30-3513 30-3762 0-301-846-2020-1836-2023-2784 59-4724 3909-8516 8610-8501z"/><path class="fil4" d="M182690 338714l-13840-181-2829 34c-496 0-846-23-944-34l-2321-271-628-1769c-64-64-128-124-196-192-821-816-2194-2182-2201-4276 82-6794 5624-12275 12347-12275 3359 37 6436 1344 8735 3687 2306 2347 3554 5454 3517 8749 5 1291-237 2661-726 4007l-914 2521zm-13366-7679l7387 82c-180-918-617-1746-1268-2411-897-910-2095-1417-3381-1432-2265 0-4190 1614-4688 3762l1396-7c215-1 403 3 554 6z"/><path class="fil1" d="M252038 285894h-86520c-3703-37-7486 3819-7524 7524v11286h101566v-11286c61-3660-3822-7486-7522-7524z"/><path class="fil3" d="M248276 289656h7524v11286h-7524zm-7524 0h3762v11286h-3762zm-18809 0h3762v11286h-3762zm-18808 0h3762v11286h-3762zm-18809 0h3762v11286h-3762zm-18810 0h3762v11286h-3762zm7524 0h7524v11286h-7524zm18809 0h7524v11286h-7524zm18808 0h7524v11286h-7524zm18809 0h7524v11286h-7524z"/><path class="fil4" d="M263322 308464H154232v-15046c56-5819 5515-11286 11229-11286l86577 1c2852 30 5743 1358 7972 3646 2148 2207 3359 5014 3314 7700l-2 14985zm-101567-7522h94045v-7524c11-727-455-1644-1182-2393-802-823-1828-1362-2619-1369h-86481c-1667 0-3747 2129-3763 3799v7487z"/></g><path class="fil5" d="M101541 169279c0 16795-13465 30355-30134 30355 16669 0 30134 13557 30134 30355 0-16795 13459-30355 30120-30355-16663 3-30120-13560-30120-30355zm173040 277848c0 16795-13464 30355-30133 30355 16669 0 30133 13556 30133 30355 0-16795 13460-30355 30121-30355-16663 3-30121-13560-30121-30355z"/><path class="fil3" d="M300660 180564c0 12674-10275 22571-22549 22571 12661 0 22549 10285 22549 22570 0-12673 10290-22570 22550-22570-12267 0-22550-10292-22550-22571zm-131942-67072c0 10187-8249 18489-18389 18489 10129 0 18389 8302 18389 18488 0-10186 8257-18488 18401-18488-10527-3-18401-8302-18401-18489z"/></g></svg>