<svg xmlns="http://www.w3.org/2000/svg" width="120" height="137" viewBox="-1.5 5 120 137"><circle fill="#EFEFEF" cx="58.5" cy="82" r="60"/><path fill="#FFF" d="M13.5 130l7-27h77l7 27z"/><path fill="#87E4B9" d="M97.763 126H20.237l4.471-19h68.584l4.471 19zm-75-2h72.475l-3.529-15H26.292l-3.529 15z"/><path fill="#005A95" d="M105.791 131H12.208l7.519-29h78.546l7.518 29zm-91-2h88.416l-6.48-25H21.273l-6.482 25z"/><path fill="#87E4B9" d="M58.5 97c-22.1 0-40-17.092-40-39.216v-9.555C18.5 26.001 36.5 8 58.5 8s40 18.104 40 40.229v9.555C98.5 80.008 80.6 97 58.5 97z"/><path fill="#FFF" d="M59.5 96c-22.1 0-41-13.092-41-35.216v-9.555C18.5 29.001 36.5 11 58.5 11s40 18.104 40 40.229v9.555C98.5 83.008 81.6 96 59.5 96z"/><path fill="#005A95" d="M58.5 98.006c-22.994 0-41.006-17.668-41.006-40.223v-9.555c0-22.737 18.396-41.234 41.006-41.234 22.609 0 41.006 18.498 41.006 41.234v9.555c0 22.555-18.012 40.223-41.006 40.223zm0-89.001c-21.502 0-38.994 17.596-38.994 39.224v9.555c0 21.428 17.128 38.211 38.994 38.211 21.865 0 38.994-16.783 38.994-38.211v-9.555c0-21.626-17.492-39.224-38.994-39.224z"/><path fill="#87E4B9" d="M71.5 59h-26c-6.628 0-12 2.238-12 5 0 2.763 5.372 5 12 5h26c6.629 0 12-2.237 12-5 0-2.762-5.373-5-12-5z"/><path fill="#FFF" d="M71.5 69.5h-26C38.491 69.5 33 67.084 33 64s5.491-5.5 12.5-5.5h26c7.01 0 12.5 2.416 12.5 5.5s-5.49 5.5-12.5 5.5zm-26-10C38.621 59.5 34 61.827 34 64s4.621 4.5 11.5 4.5h26c6.879 0 11.5-2.327 11.5-4.5s-4.621-4.5-11.5-4.5h-26z"/><path fill="#005A95" d="M45.5 70c-7.411 0-13-2.58-13-6s5.589-6 13-6a1 1 0 1 1 0 2c-6.296 0-11 2.111-11 4 0 1.89 4.704 4 11 4a1 1 0 1 1 0 2zm26 0a1 1 0 1 1 0-2c6.297 0 11-2.11 11-4 0-1.889-4.703-4-11-4a1 1 0 1 1 0-2c7.41 0 13 2.58 13 6s-5.59 6-13 6z"/><path fill="#FFF" d="M19.5 97c-2.5 0-4-1.279-4-3.656V65h86v28.344c0 2.377-1.5 3.656-4 3.656h-78z"/><path fill="#87E4B9" d="M95 76c-6.854 0-12.5-5.646-12.5-12.5S88.146 51 95 51c6.855 0 12.5 5.646 12.5 12.5S101.855 76 95 76z"/><path fill="#FFF" d="M96.5 76c-6.031 0-11-4.967-11-11 0-6.032 4.969-11 11-11 6.033 0 11 4.969 11 11s-4.967 11-11 11z"/><path fill="#FFF" d="M95 70c-3.564 0-6.5-2.936-6.5-6.5 0-3.563 2.936-6.5 6.5-6.5s6.5 2.937 6.5 6.5c0 3.564-2.936 6.5-6.5 6.5z"/><path fill="#005A95" d="M95 71c-4.137 0-7.5-3.364-7.5-7.5S90.863 56 95 56s7.5 3.364 7.5 7.5S99.135 71 95 71zm0-13c-3.031 0-5.5 2.467-5.5 5.5S91.969 69 95 69s5.5-2.467 5.5-5.5S98.031 58 95 58z"/><path fill="#87E4B9" d="M22 76c-6.854 0-12.5-5.646-12.5-12.5S15.146 51 22 51c6.855 0 12.5 5.646 12.5 12.5S28.855 76 22 76z"/><path fill="#FFF" d="M23.5 76c-6.032 0-11-4.967-11-11s4.968-11 11-11c6.033 0 11 4.968 11 11 0 6.033-4.967 11-11 11z"/><path fill="#FFF" d="M22 70c-3.564 0-6.5-2.936-6.5-6.5 0-3.563 2.936-6.5 6.5-6.5s6.5 2.937 6.5 6.5c0 3.564-2.936 6.5-6.5 6.5z"/><path fill="#005A95" d="M22 71c-4.136 0-7.5-3.364-7.5-7.5S17.864 56 22 56s7.5 3.364 7.5 7.5S26.135 71 22 71zm0-13c-3.032 0-5.5 2.467-5.5 5.5S18.968 69 22 69s5.5-2.467 5.5-5.5S25.032 58 22 58z"/><path fill="#FFF" d="M29.5 118c-1.842 0-3.5 1.156-3.5 3 0 1.842 1.615 3 3.457 3H46.08l-9.58-6h-7z"/><path fill="#87E4B9" d="M32.637 118c-1.651 0-3.138 1.156-3.138 3 0 1.842 1.448 3 3.099 3H47.5l-8.588-6h-6.275z"/><path fill="#FFF" d="M36.637 118c-1.651 0-3.138 1.156-3.138 3 0 1.842 1.448 3 3.099 3H51.5l-8.588-6h-6.275z"/><path fill="#005A95" d="M49.56 125H29.457c-2.541 0-4.457-1.719-4.457-4 0-2.279 1.935-4 4.5-4h7.287l12.773 8zm-20.06-6c-1.242 0-2.5.688-2.5 2s1.236 2 2.457 2H42.6l-6.387-4H29.5z"/><path fill="#FFF" d="M69.5 118l1-5-9-7v16c0 1.221.781 2 2 2h8.553c1.703 0 2.797-1.857 1.939-3.324-1.012-1.748-2.387-2.412-4.492-2.676z"/><path fill="#005A95" d="M72.053 125H63.5c-1.768 0-3-1.232-3-3v-18.045l11.102 8.635-.92 4.6c1.957.439 3.236 1.363 4.178 2.984.578.992.58 2.188 0 3.195A3.207 3.207 0 0 1 72.053 125zM62.5 108.045V122c0 .664.338 1 1 1h8.553c.445 0 .848-.234 1.072-.627.104-.182.314-.662.006-1.193-.783-1.35-1.803-1.938-3.754-2.188l-1.068-.135 1.09-5.447-6.899-5.365z"/><path fill="#FFF" d="M84.27 79.664h-2.203a6.634 6.634 0 0 1-4.693-1.953l-2.756-2.758C73.369 73.707 71.26 73 69.5 73h-7c-1.76 0-3.814.707-5.061 1.953l-.264.264L57.498 93s-13.316 7.877-17.277 10.537c-.249.15-.486.334-.721.498-3.186 2.369-5.083 6.373-4.323 10.807.777 4.561 4.516 8.258 9.073 8.992a11.073 11.073 0 0 0 12.134-6.857c.441-1.105 1.469-1.871 2.675-1.871h4.751c.719 0 1.469-.064 2.229-.223 4.392-.887 7.926-4.502 8.687-8.922.762-4.406-1.082-8.59-4.228-10.961v-4h7c2.438 0 5.065-1.982 6.328-4.076l2.354-3.92c.888-1.457-.18-3.34-1.91-3.34z"/><path fill="#FFF" d="M57.383 74.996l-5.194 5.195a5.765 5.765 0 0 0-1.689 4.072v1.801c0 3.217 2.175 6.166 5.333 6.775C60.084 93.658 64.5 90.1 64.5 86V73l-2.324.016a6.796 6.796 0 0 0-4.793 1.98z"/><path fill="#87E4B9" d="M84.27 79.664h-2.203a6.634 6.634 0 0 1-4.693-1.953l-2.756-2.758-.018-.014c1.539 1.898 2.494 4.295 2.494 6.928 0 3.645-1.895 7.109-4.596 9.133h5c2.439 0 5.066-1.969 6.328-4.063l2.354-3.922c.888-1.468-.18-3.351-1.91-3.351z"/><path fill="#FFF" d="M82.5 83l-1.434-1.219c-1.76 0-3.449-.574-4.695-1.588L76.5 80s.016 1.012 0 1c1.537 1.545-.406.432-.406 2.574 0 2.963-1.893 5.781-4.594 7.426h5c2.438 0 5.064-1.602 6.326-3.303L84.5 86c.887-1.195-.27-3-2-3z"/><path fill="#005A95" d="M77.5 92h-8.004l2.404-1.801c2.586-1.938 4.191-5.129 4.191-8.332 0-2.287-.783-4.465-2.271-6.297l1.459-1.361 2.796 2.795a5.69 5.69 0 0 0 3.989 1.66h2.201c1.182 0 2.233.613 2.813 1.643a3.164 3.164 0 0 1-.045 3.23l-2.353 3.918C83.322 89.713 80.418 92 77.5 92zm-2.479-2H77.5c2.074 0 4.41-1.818 5.471-3.578l2.354-3.92c.327-.541.12-1.029.018-1.213a1.21 1.21 0 0 0-1.069-.625H82.07a7.684 7.684 0 0 1-4.238-1.291c.178.813.266 1.646.266 2.494-.004 2.946-1.143 5.885-3.077 8.133z"/><path fill="#FFF" d="M56.5 124h-9.852c0-3.67 2.977-6.65 6.648-6.65 2.506 0 4.067.605 5.202 2.65.807 1.441-.352 4-1.998 4z"/><path fill="#FFF" d="M50.5 106c3 1 6 3.385 6 7 0 1.73.232 3.256-.475 4.709.111-.234.25-.455.346-.705.443-1.109 1.924-2.004 3.129-2.004h2c.141-.721 0-1.236 0-2 0-4.322-2.424-8.105-6.001-9.959M84.27 79.664h-2.203c-.082 0-.15-.014-.232-.027a3.119 3.119 0 0 0-.309 1.33 3.112 3.112 0 0 0 3.119 3.117c.344 0 .664-.068.969-.166l.539-.914c.915-1.457-.153-3.34-1.883-3.34z"/><path fill="#005A95" d="M84.645 85.084a4.122 4.122 0 0 1-4.119-4.117c0-.604.143-1.213.404-1.764l.328-.684.748.133 2.264.012a3.22 3.22 0 0 1 2.818 1.658 3.126 3.126 0 0 1-.09 3.215l-.719 1.217-.361.115a4.1 4.1 0 0 1-1.273.215zm-2.096-4.42a2.12 2.12 0 0 0 2.096 2.42c.104 0 .205-.01.316-.029l.332-.559a1.157 1.157 0 0 0 .045-1.205 1.201 1.201 0 0 0-1.068-.627h-1.721z"/><circle fill="#87E4B9" cx="59.5" cy="113" r="3"/><path fill="#005A95" d="M56.924 118.146l-1.8-.869a.197.197 0 0 1 .012-.025c.445-.934.417-1.982.384-3.195-.01-.344-.021-.695-.021-1.057 0-3.154-2.745-5.193-5.315-6.051a1.001 1.001 0 0 1 .633-1.899c3.231 1.076 6.684 3.729 6.684 7.949 0 .34.01.674.02 1 .004.168.01.336.012.504.623-.316 1.311-.504 1.971-.504h1.049c-.004-.064-.008-.131-.014-.201a9.741 9.741 0 0 1-.035-.799c0-3.855-2.094-7.328-5.462-9.072a1 1 0 0 1-.428-1.348 1 1 0 0 1 1.347-.432c4.035 2.094 6.543 6.244 6.543 10.852 0 .234.016.451.029.65.033.459.066.939-.049 1.535l-.158.816H59.5c-.832 0-1.924.68-2.199 1.373a5.308 5.308 0 0 1-.262.551l-.111.217-.004.005z"/><path fill="#FFF" d="M24.5 97h6v6h-6z"/><path fill="#005A95" d="M31.5 104h-8v-8h8v8zm-6-2h4v-4h-4v4z"/><path fill="#FFF" d="M30.5 103c0 1.104-1.343 2-3 2s-3-.896-3-2"/><path fill="#005A95" d="M27.5 106c-2.243 0-4-1.316-4-3a1 1 0 1 1 2 0c0 .408.779 1 2 1s2-.592 2-1a1 1 0 1 1 2 0c0 1.682-1.757 3-4 3z"/><path fill="#FFF" d="M25.5 101h4v2h-4zm62-4h6v6h-6z"/><path fill="#005A95" d="M94.5 104h-8v-8h8v8zm-6-2h4v-4h-4v4z"/><path fill="#FFF" d="M93.5 103c0 1.104-1.344 2-3 2s-3-.896-3-2"/><path fill="#005A95" d="M90.5 106c-2.242 0-4-1.316-4-3a1 1 0 1 1 2 0c0 .408.779 1 2 1s2-.592 2-1a1 1 0 1 1 2 0c0 1.682-1.758 3-4 3z"/><path fill="#FFF" d="M88.5 101h4v2h-4z"/><circle fill="#FFF" cx="71.5" cy="81" r="1"/><circle fill="#005A95" cx="71.5" cy="81" r="2"/><path fill="#FFF" d="M89.656 13.708a12.99 12.99 0 0 0-8.838-3.457c-7.186 0-13.027 5.845-13.027 13.027 0 4.806 2.063 8.313 6.684 11.376 2.527 1.672 6.77 5.202 6.77 10.037 0 5.018-3.459 9.229-8.113 10.41a16.503 16.503 0 0 0-.666-5.109c-1.557-5.395-7.174-10.176-10.512-13.958-2.279-2.587-3.564-7.089-4.148-9.677 2.305-1.493 3.835-4.075 3.835-7.024 0-.083-.011-.164-.013-.246-.015-1.011-.116-1.738-.504-2.66l.983-1.361c1.931-2.271 2.058-6.135-.215-8.063l-.201.25-4.048 4.938a4.046 4.046 0 0 0-.16-.085 8.31 8.31 0 0 0-3.608-1.12 6.234 6.234 0 0 0-.561-.028c-.017 0-.035-.003-.054-.003h-.02c-.254 0-.502.017-.751.038-.047.005-.095.008-.142.012a9.091 9.091 0 0 0-.875.144 7.9 7.9 0 0 0-.669.172c-.049.014-.095.032-.142.048a8.726 8.726 0 0 0-.535.195c-.064.026-.129.051-.193.079a8.53 8.53 0 0 0-.464.218L45.504 7a5.394 5.394 0 0 0-.619 7.604l.82 1.095a8.722 8.722 0 0 0-.146.326l-.029.063a8.03 8.03 0 0 0-.248.682l-.04.12a9.428 9.428 0 0 0-.178.69l-.026.135a9.06 9.06 0 0 0-.11.723l-.009.111a8.621 8.621 0 0 0-.04.773v.01a8.38 8.38 0 0 0 5.117 7.721c.192 1.687.435 4.589.055 6.146-.557 2.28-3.338 4.226-1.724 8.452a37.078 37.078 0 0 0 1.07 2.531c.851 1.817 1.334 2.486 1.375 3.901.005.129.005.265.002.406-.007.243-.012.486-.015.728a123.94 123.94 0 0 0 .01 3.776h-1.071a3.485 3.485 0 0 0-3.484 3.484V59h26.192c4.734 0 12.395-7.093 12.395-14.31 0-6.498-5.238-10.938-8.359-13.005-3.613-2.395-5.09-4.831-5.09-8.408 0-5.221 4.248-9.468 9.469-9.468 2.391 0 4.672.893 6.426 2.512a1.784 1.784 0 0 0 2.518-.099 1.785 1.785 0 0 0-.109-2.514z"/><path fill="#FFF" d="M59.338 14.083c.798.864 1.521 1.783 2.104 2.759l.563-.777c1.931-2.271 2.058-6.135-.215-8.063l-.201.25-3.689 4.5c.491.379.971.826 1.438 1.331z"/><path fill="#87E4B9" d="M60.27 15.548c.707.769 1.352 1.584 1.869 2.452l-.861-1.777c1.717-2.02 3.798-3.619 1.779-5.334V10L59.5 14.444c.438.339.354.655.77 1.104z"/><path fill="#FFF" d="M45.258 16.237a56.227 56.227 0 0 1 1.925-1.867 10.336 10.336 0 0 1 2.178-1.517L45.402 8a5.394 5.394 0 0 0-.619 7.604l.475.633z"/><path fill="#87E4B9" d="M45.5 15c.635-.636.028.967.684.371.706-.642.56-.971 1.316-1.371l-4-5c-1 2 .071 3.729 2 6zm12.105 44.925c-3.826-.366-7.655-1.141-11.493-1.753v1.826h11.883a12.029 12.029 0 0 1-.39-.073zm31.95-45.217a13.129 13.129 0 0 0-1.629-1.266c-2.428.559-.064 2.814-.83 3.842l.045.038a1.779 1.779 0 1 0 2.414-2.614z"/><path fill="#005A95" d="M72.406 60H45.214v-3.521a4.488 4.488 0 0 1 4.484-4.484h.058c-.007-.738-.011-1.747.004-2.791.003-.244.008-.492.015-.74a5.499 5.499 0 0 0-.001-.34c-.027-.934-.276-1.442-.821-2.559a38.898 38.898 0 0 1-1.56-3.558c-1.299-3.402-.046-5.642.869-7.276.352-.628.684-1.223.817-1.771.235-.963.228-2.854-.017-5.237a9.363 9.363 0 0 1-5.184-8.391 9.53 9.53 0 0 1 .045-.878l.01-.121c.029-.272.072-.54.122-.803l.03-.157c.056-.26.123-.516.197-.768l.053-.158c.063-.199.137-.408.219-.615l-.47-.628c-2.244-2.639-1.914-6.682.773-8.966l.777-.661 4.124 5.057c.235-.094.561.426.742.366.229-.07.747.056 1 0 .259-.051.736.03 1 0 .26-.022-.264.003 0 0h1c.112-.006.782-.021 1 0 1.196.086 1.812-.614 2.888-.083l4.369-5.345.781.665c1.299 1.103 2.021 2.757 2.034 4.659.015 1.769-.606 3.522-1.706 4.813l-.619.863c.293.872.364 1.624.377 2.499.008.122.013.19.013.258a9.332 9.332 0 0 1-3.707 7.454c.604 2.481 1.802 6.354 3.771 8.586.725.821 1.563 1.696 2.449 2.622 3.277 3.414 6.988 7.283 8.271 11.72a18.01 18.01 0 0 1 .688 4.02 9.735 9.735 0 0 0 6.129-9.042c0-4.369-3.959-7.642-6.314-9.203-4.936-3.27-7.133-7.034-7.133-12.21 0-7.734 6.293-14.027 14.025-14.027a14 14 0 0 1 9.52 3.723 2.785 2.785 0 0 1 .156 3.927 2.788 2.788 0 0 1-3.932.156 8.433 8.433 0 0 0-5.742-2.245c-4.67 0-8.471 3.799-8.471 8.468 0 3.238 1.303 5.362 4.645 7.574 3.287 2.179 8.809 6.875 8.809 13.839C85.801 52.584 77.445 60 72.406 60zm-25.192-2h25.192c4.186 0 11.395-6.577 11.395-13.31 0-6.03-4.957-10.214-7.912-12.171-3.883-2.57-5.539-5.334-5.539-9.241 0-5.772 4.697-10.468 10.471-10.468 2.643 0 5.162.985 7.104 2.776a.798.798 0 0 0 1.104-.044.78.78 0 0 0-.047-1.1 11.991 11.991 0 0 0-8.16-3.192c-6.633 0-12.028 5.396-12.028 12.027 0 4.493 1.864 7.646 6.235 10.542 2.693 1.783 7.216 5.565 7.216 10.87a11.734 11.734 0 0 1-8.867 11.379l-1.285.326.039-1.325a15.513 15.513 0 0 0-.627-4.802c-1.146-3.964-4.676-7.645-7.789-10.891-.903-.941-1.76-1.831-2.512-2.684-2.443-2.773-3.791-7.53-4.375-10.118l-.152-.68.586-.379a7.353 7.353 0 0 0 3.377-6.186l-.014-.222c-.012-.99-.117-1.567-.424-2.298l-.217-.518 1.313-1.815a5.46 5.46 0 0 0 1.277-3.567c-.006-.903-.23-1.715-.648-2.368l-4.047 4.937-.855-.487a7.347 7.347 0 0 0-3.221-1.01 5.209 5.209 0 0 0-.496-.025l-.071-.003a8.078 8.078 0 0 0-.655.034l-.231-.984.109.997c-.21.023-.416.056-.622.096l-.159.032a7.42 7.42 0 0 0-.582.149l-.437-.908.31.951c-.16.052-.316.109-.471.172l-.567-.849.4.916a9.583 9.583 0 0 0-.41.192l-.718.366-3.753-4.602a4.401 4.401 0 0 0 .196 5.439l1.221 1.625-.258.545a7.036 7.036 0 0 0-.375.948l-.04.12a7.746 7.746 0 0 0-.151.593l-.027.139c-.035.187-.07.399-.094.617a7.37 7.37 0 0 0 4.464 7.587l.538.229.065.58c.235 2.061.432 4.86.033 6.496-.198.813-.614 1.555-1.016 2.271-.88 1.573-1.711 3.059-.745 5.586a35.91 35.91 0 0 0 1.042 2.466c.162.347.311.65.445.928.593 1.212.983 2.013 1.023 3.369.005.138.005.292.002.455-.007.244-.012.482-.015.72-.024 1.677.001 3.26.01 3.746l.019 1.018h-2.09a2.487 2.487 0 0 0-2.484 2.484V58z"/><ellipse fill="#FFF" cx="53.5" cy="19.5" rx="9" ry="8.5"/><ellipse fill="#FFF" cx="53.5" cy="24.5" rx="5" ry="3.5"/><path fill="#005A95" d="M53.5 29c-5.701 0-10-4.084-10-9.5s4.263-9.5 9.917-9.5c5.748 0 10.083 4.084 10.083 9.5s-4.299 9.5-10 9.5zm-.083-17c-4.587 0-7.917 3.154-7.917 7.5 0 4.276 3.439 7.5 8 7.5s8-3.224 8-7.5-3.475-7.5-8.083-7.5z"/><circle fill="#005A95" cx="50.5" cy="18" r="1"/><circle fill="#005A95" cx="56.5" cy="18" r="1"/><path fill="#005A95" d="M53.499 22.5c-.15 0-.303-.034-.446-.104l-1-.5a1 1 0 0 1 .895-1.789l1 .5a1 1 0 0 1-.449 1.893z"/><path fill="#005A95" d="M53.5 22.5a1 1 0 0 1-.449-1.895l1-.5a1.001 1.001 0 0 1 .895 1.789l-1 .5a.988.988 0 0 1-.446.106z"/><path fill="#005A95" d="M53.5 24a1 1 0 0 1-1-1v-1.5a1 1 0 1 1 2 0V23a1 1 0 0 1-1 1zm2 36a1 1 0 0 1-1-1V44a1 1 0 1 1 2 0v15a1 1 0 0 1-1 1zm-36 46.006h-3a1.006 1.006 0 0 1 0-2.012h3a1.005 1.005 0 1 1 0 2.012zm-3 12h-3a1.006 1.006 0 0 1 0-2.012h3a1.005 1.005 0 1 1 0 2.012zm-2 6h-3a1.006 1.006 0 0 1 0-2.012h3a1.005 1.005 0 1 1 0 2.012zm-2 6h-3a1.006 1.006 0 0 1 0-2.012h3a1.005 1.005 0 1 1 0 2.012zm88.994-24.994h-3a1.005 1.005 0 1 1 0-2.012h3a1.007 1.007 0 0 1 0 2.012zm1.012 6h-3a1.007 1.007 0 1 1 0-2.012h3a1.005 1.005 0 1 1 0 2.012zm1.988 5.988h-3c-.557 0-1.006-.449-1.006-1.006s.449-1.006 1.006-1.006h3a1.005 1.005 0 1 1 0 2.012zm1.012 6h-3a1.006 1.006 0 1 1 0-2.012h3a1.005 1.005 0 1 1 0 2.012zm2 6h-3a1.006 1.006 0 1 1 0-2.012h3a1.005 1.005 0 1 1 0 2.012z"/><path fill="#87E4B9" d="M36.5 43c0 3.369-2.736 6-6 6 3.368 0 6 2.735 6 6 0-3.369 2.737-6 6-6-3.264 0-6-2.736-6-6zm47.107 68c0 2.709-2.195 4.916-4.895 4.916 2.695 0 4.895 2.207 4.895 4.914 0-2.707 2.197-4.914 4.893-4.914-2.797-.002-4.893-2.207-4.893-4.916zM95 22c0 5.291-4.246 9.563-9.502 9.563 5.256 0 9.502 4.271 9.502 9.563 0-5.291 4.244-9.563 9.498-9.563C99.246 31.563 95 27.291 95 22z"/><path fill="none" d="M55.5 83a4.96 4.96 0 0 1-3.269-1.244 4.775 4.775 0 0 0-.732 2.508v1.803c0 2.855 1.902 5.287 4.522 5.793 1.881.355 3.992-.307 5.521-1.727 1.242-1.152 1.955-2.658 1.955-4.133V74.006l-1.315.008a5.818 5.818 0 0 0-2.882.773c.736.871 1.197 1.98 1.197 3.213a4.995 4.995 0 0 1-4.997 5z"/><path fill="#87E4B9" d="M52.895 80.898a4.727 4.727 0 0 0-.664.857A4.962 4.962 0 0 0 55.5 83a5 5 0 0 0 5-5 4.96 4.96 0 0 0-1.197-3.213c-.441.25-.852.555-1.211.914l-5.197 5.197z"/><circle fill="#87E4B9" cx="54.5" cy="38" r="3"/><circle fill="#87E4B9" cx="22" cy="63.5" r="2.5"/><circle fill="#87E4B9" cx="95" cy="63.5" r="2.5"/><path fill="none" d="M24.5 74.719V66h-4v8.891c.492.064.99.109 1.5.109.859 0 1.694-.104 2.5-.281zm8-6.551V66h-4v6.979a11.558 11.558 0 0 0 4-4.811zm-4 7.158V96h4V71.967a13.616 13.616 0 0 1-4 3.359z"/><path fill="none" d="M33.474 64c.008-.167.025-.331.025-.5 0-6.342-5.159-11.5-11.5-11.5s-11.5 5.158-11.5 11.5c0 3.476 1.556 6.588 4 8.699V64h18.975zM97.5 96c1.99 0 3-.895 3-2.656V66h-64v30h61zM22 77c-.508 0-1.007-.033-1.5-.088V96h4V76.758c-.812.154-1.645.242-2.5.242z"/><path fill="#87E4B9" d="M16.5 75.816v17.525c0 1.764 1.01 2.658 3 2.658h1V76.912a13.336 13.336 0 0 1-4-1.096zm16-3.849V96h4V66h-1.241a13.45 13.45 0 0 1-2.759 5.967z"/><path fill="#005A95" d="M22 50c-7.444 0-13.5 6.058-13.5 13.5 0 4.67 2.385 8.793 6 11.217.63.424 1.301.787 2 1.102 1.246.561 2.589.939 4 1.096.493.057.992.09 1.5.09.855 0 1.688-.09 2.5-.242a13.352 13.352 0 0 0 4-1.434 13.619 13.619 0 0 0 4-3.359 13.43 13.43 0 0 0 2.759-5.967c.062-.33.115-.662.152-1 .037-.329.051-.664.063-1 .006-.168.025-.331.025-.5C35.5 56.058 29.444 50 22 50zm11.39 15a11.228 11.228 0 0 1-.891 3.168 11.57 11.57 0 0 1-4 4.811 11.456 11.456 0 0 1-4 1.74 11.45 11.45 0 0 1-2.5.281c-.51 0-1.008-.045-1.5-.109a11.407 11.407 0 0 1-4-1.295 11.565 11.565 0 0 1-2-1.395c-2.444-2.111-4-5.226-4-8.7 0-6.342 5.159-11.5 11.5-11.5s11.5 5.158 11.5 11.5c0 .169-.018.333-.025.5a11.8 11.8 0 0 1-.084.999z"/><path fill="#87E4B9" d="M64.5 66h4v6h-4z"/><path fill="none" d="M102.5 72.201c2.443-2.111 4-5.226 4-8.7 0-6.342-5.158-11.5-11.5-11.5s-11.5 5.158-11.5 11.5c0 .169.018.333.025.5H102.5v8.2z"/><path fill="none" d="M83.781 66c1.146 5.143 5.736 9 11.219 9 .51 0 1.008-.045 1.5-.109V66H83.781z"/><path fill="#87E4B9" d="M84.5 66h-.719c.168.75.412 1.473.719 2.16V66z"/><path fill="none" d="M52.5 94.811l2.13-1.27a7.325 7.325 0 0 1-2.13-1.172v2.442zm19-.295a11.5 11.5 0 0 1 1 .949V92h-1v2.516zM58.479 91.77a6.825 6.825 0 0 0 3.064-1.637c1.242-1.152 1.955-2.66 1.955-4.133V74.006l-1.27.008a4.506 4.506 0 0 0-.168.008c-.068.002-.137.014-.201.018-1.396.145-2.813.746-3.678 1.59l.298 16.14zm-2.458.087c.15.029.305.041.457.057l-.26-14.338-3.323 3.322a4.195 4.195 0 0 0-.396.467v8.053c.809 1.242 2.043 2.156 3.522 2.439zm20.641-13.439l-.162-.164V90h1c.996 0 2.053-.428 3-1.064v-8.438a7.76 7.76 0 0 1-3.838-2.08z"/><path fill="none" d="M69.5 74h-4v12c0 2.029-.945 4.07-2.596 5.6-1.396 1.297-3.174 2.111-4.977 2.314-1.074.637-13.409 7.941-17.148 10.457-.191.115-.341.227-.489.334l-.216.148a10.073 10.073 0 0 0-3.911 9.82c.707 4.145 4.098 7.504 8.247 8.172.558.09 1.123.135 1.678.135 4.165 0 7.842-2.5 9.367-6.371.607-1.52 2.021-2.504 3.604-2.504h4.751c.681 0 1.362-.063 2.032-.201 3.966-.803 7.212-4.139 7.896-8.107.66-3.814-.85-7.736-3.842-9.992l-.398-.305v-5.498h3V74.701C71.59 74.266 70.508 74 69.5 74zm15.822 8.49a1.166 1.166 0 0 0 .021-1.199 1.207 1.207 0 0 0-.844-.596v3.166l.823-1.371z"/><path fill="#005A95" d="M87.086 80.311a3.188 3.188 0 0 0-2.588-1.633v2.018c.355.064.662.271.844.6.104.184.307.664-.02 1.199l-.824 1.367v3.85c.061-.09.133-.182.186-.271l2.352-3.914a3.154 3.154 0 0 0 .05-3.216zM62.5 72c-.088 0-.178.012-.266.016l2.27-.016H62.5zm-.988.068c.191-.018.383-.045.578-.049-.194.014-.385.026-.578.049zm-3.629 1.27c.023-.018.051-.027.074-.045l-.074.045zm4.299.676c-.041 0-.08.008-.121.008.059-.004.113-.006.17-.008h-.049zM77.5 90h-1v2h1c1.023 0 2.045-.295 3-.762v-2.305c-.949.639-2.004 1.067-3 1.067zM56.826 74.162zm5.035-.127c.066-.004.133-.012.199-.014-.066.006-.132.008-.199.014zm-4.232-.543c-.064.045-.117.104-.182.148.143-.104.283-.207.436-.305-.082.058-.174.101-.254.157zm.328-.199c1.035-.641 2.289-1.07 3.555-1.225a7.816 7.816 0 0 0-3.555 1.225zm7.543-1.297l-.998.004h.998zm-3.324.018c-.029 0-.059.008-.086.008a3.52 3.52 0 0 1 .145-.008h-.059z"/><path fill="#87E4B9" d="M52.5 92.371c-1.837-1.451-3.001-3.754-3.001-6.307v-1.801c0-1.516.528-3.002 1.464-4.188.162-.207.332-.406.519-.596l1.019-1.02V66h-4v30h2.018c.69-.414 1.354-.813 1.982-1.188l-.001-2.441zm20 3.094V96h.467c-.153-.18-.303-.363-.467-.535zm8-4.227V96h4v-8.293c-.906 1.379-2.346 2.723-4 3.531zm3.77-12.574c.078 0 .152.01.229.016v-6.75c-1.36-1.693-2.34-3.709-2.758-5.929H80.5v12.411c.51.146 1.033.256 1.566.256h2.203v-.004h.001z"/><path fill="#005A95" d="M35.474 64c-.013.336-.026.671-.063 1-.037.338-.091.67-.152 1H81.74a13.813 13.813 0 0 1-.215-2H35.474z"/><path fill="#87E4B9" d="M100.5 93.342V75.816c-1.246.561-2.59.938-4 1.096V96h1c1.99 0 3-.895 3-2.658z"/><path fill="#005A95" d="M95 50c-7.443 0-13.5 6.058-13.5 13.5 0 .169.02.332.025.5.023.681.094 1.35.215 2 .418 2.219 1.396 4.234 2.76 5.929a13.668 13.668 0 0 0 4 3.39c1.23.68 2.574 1.178 4 1.445.811.154 1.646.236 2.5.236.508 0 1.008-.033 1.5-.088a13.293 13.293 0 0 0 4-1.096 13.562 13.562 0 0 0 2-1.1c3.615-2.424 6-6.548 6-11.219C108.5 56.058 102.443 50 95 50zm7.5 22.201a11.57 11.57 0 0 1-2 1.396 11.445 11.445 0 0 1-4 1.293c-.492.065-.99.11-1.5.11-.859 0-1.693-.105-2.5-.285a11.44 11.44 0 0 1-4-1.736 11.575 11.575 0 0 1-4.719-6.976 11.314 11.314 0 0 1-.256-2c-.008-.167-.025-.331-.025-.5C83.5 57.159 88.658 52 95 52s11.5 5.158 11.5 11.5c0 3.476-1.557 6.587-4 8.701z"/><path fill="none" d="M40.779 104.367c-.191.117-.341.227-.489.332l-.216.154a10.07 10.07 0 0 0-3.911 9.818c.707 4.145 4.098 7.506 8.247 8.174.558.09 1.123.135 1.678.135a10.01 10.01 0 0 0 9.367-6.373c.607-1.52 2.021-2.502 3.604-2.502h4.751c.681 0 1.362-.068 2.032-.203 3.966-.801 7.212-4.137 7.896-8.111A10.508 10.508 0 0 0 71.995 98h-20.92c-3.87 2.328-8.303 5.027-10.296 6.367z"/><path fill="#005A95" d="M72.5 95.465a11.5 11.5 0 0 0-1-.949V92h1v-2h-3v5.498l.396.301c.082.063.148.137.229.201h2.371v-.535h.004zm0-5.465h4v2h-4zm8-1.066v2.309a10.473 10.473 0 0 0 4-3.531v-3.85l-1.529 2.551c-.553.911-1.45 1.837-2.471 2.521z"/><path fill="none" d="M58.967 75.006a5.49 5.49 0 0 0-.877.695l-1.871 1.873-3.323 3.322a5.245 5.245 0 0 0-.665.86 4.77 4.77 0 0 0-.732 2.508v1.801c0 1.242.377 2.396 1.001 3.355.809 1.242 2.043 2.156 3.521 2.438.15.029.305.041.459.061a6.015 6.015 0 0 0 1.998-.146 6.861 6.861 0 0 0 3.066-1.637c1.242-1.152 1.955-2.66 1.955-4.133V74.006l-1.271.008h-.048c-.041 0-.08.008-.121.008-.064.006-.133.008-.199.018a5.532 5.532 0 0 0-1.359.238v.73h-1.532l-.002-.002z"/><path fill="#005A95" d="M84.27 78.664h-2.203c-.531 0-1.057-.104-1.564-.254-.9-.268-1.748-.732-2.422-1.406l-1.578-1.58-1.18-1.178c-.729-.729-1.725-1.313-2.82-1.707A9.028 9.028 0 0 0 69.5 72h-4.996l-2.27.016-.146.006c-.193.004-.387.031-.576.047a8.332 8.332 0 0 0-1.016.188v2.023a5.764 5.764 0 0 1 1.359-.24c.066-.008.137-.01.201-.016.039 0 .08-.008.119-.008h.049l1.271-.008V86c0 1.475-.713 2.98-1.955 4.133a6.893 6.893 0 0 1-3.064 1.639 6.134 6.134 0 0 1-2 .146c-.152-.02-.307-.025-.457-.059-1.48-.281-2.713-1.195-3.521-2.438a6.134 6.134 0 0 1-1.001-3.355v-1.803c0-.887.267-1.758.732-2.508a5.21 5.21 0 0 1 .269-.391 4.09 4.09 0 0 1 .396-.467l3.322-3.322 1.873-1.873c.266-.268.563-.49.877-.697H56.5v-.541l-4 4.002-1.019 1.02a7.257 7.257 0 0 0-.519.594 6.805 6.805 0 0 0-1.464 4.188v1.803c0 2.553 1.164 4.854 3.001 6.305a7.396 7.396 0 0 0 2.13 1.172l-2.13 1.27-1.982 1.189h3.896a820.55 820.55 0 0 1 3.515-2.092c1.802-.199 3.58-1.014 4.976-2.311 1.648-1.529 2.597-3.57 2.597-5.6V74h4c1.008 0 2.09.266 3 .701.552.264 1.039.59 1.408.959l2.592 2.594.162.164a7.714 7.714 0 0 0 3.838 2.076 7.56 7.56 0 0 0 1.565.17h2.203c.08 0 .153.016.229.031v-2.018c-.076-.003-.15-.013-.228-.013z"/><path fill="#005A95" d="M58.967 75.006c.111-.074.219-.152.334-.219a5.74 5.74 0 0 1 1.197-.512v-2.023a8.826 8.826 0 0 0-2.541 1.039c-.023.018-.051.029-.074.045a8.341 8.341 0 0 0-1.059.828c-.047.045-.104.08-.148.127l-.178.176v.541h2.469v-.002z"/><path fill="none" d="M52.731 123h3.505c.371 0 .721-.369.924-.717.357-.609.443-1.365.203-1.795-.295-.531-.617-.938-.996-1.254A11.963 11.963 0 0 1 52.731 123zm-5.225-.121a9.978 9.978 0 0 0 6.99-4.43 9.6 9.6 0 0 0-1.464-.102c-2.729.003-5.003 1.952-5.526 4.532z"/><path fill="#005A95" d="M47.506 122.879c.522-2.58 2.797-4.529 5.526-4.529.556 0 1.035.033 1.464.104.375-.57.699-1.189.957-1.846l.004-.006c-.789-.197-1.609-.252-2.425-.252-3.862 0-7.057 2.881-7.568 6.605.208.012.417.023.623.023.481.002.954-.035 1.419-.099zm9.857-2.391c.24.43.154 1.186-.203 1.795-.203.348-.553.717-.924.717h-3.505a12.047 12.047 0 0 1-6.644 1.98c-.233 0-.469-.016-.703-.027V125h10.852c1.047 0 2.014-.621 2.648-1.703.729-1.24.813-2.725.228-3.781-.531-.959-1.156-1.617-1.833-2.09a12.372 12.372 0 0 1-.912 1.811c.379.314.701.72.996 1.251z"/><path fill="#005A95" d="M45.464 122.955a10.745 10.745 0 0 1-1.055-.109c-4.149-.668-7.54-4.027-8.247-8.172-.647-3.779.86-7.549 3.911-9.82l.216-.148c.148-.107.298-.219.489-.334 1.993-1.342 6.426-4.039 10.296-6.365h-3.872c-3.023 1.834-5.96 3.645-7.503 4.682-.198.121-.39.26-.577.395l-.219.154a12.074 12.074 0 0 0-4.712 11.779c.848 4.975 4.919 9.008 9.9 9.811.429.068.861.107 1.292.133v-.953c.001-.363.034-.711.081-1.053zM74.326 98h-2.33a10.508 10.508 0 0 1 1.744 7.791c-.686 3.975-3.932 7.311-7.896 8.111a10.3 10.3 0 0 1-2.033.203h-4.75c-1.582 0-2.992.979-3.603 2.496a5.502 5.502 0 0 1 1.822.824c.01-.027.023-.053.035-.08.301-.754.984-1.24 1.744-1.24h4.751c.813 0 1.629-.082 2.428-.242 4.832-.977 8.641-4.889 9.475-9.732.488-2.834-.053-5.707-1.387-8.131z"/><path fill="#005A95" d="M52.731 123h-5.258c.008-.041.024-.08.033-.121-.465.064-.938.102-1.419.102-.206 0-.415-.012-.623-.02-.047.342-.08.688-.08 1.045v.951A12.063 12.063 0 0 0 52.731 123zm2.725-6.393c-.26.656-.584 1.271-.957 1.842.783.123 1.376.375 1.869.785.348-.57.656-1.172.912-1.809a5.502 5.502 0 0 0-1.822-.824l-.002.006zM36.5 96h-17c-1.99 0-3-.895-3-2.656V75.816a13.512 13.512 0 0 1-2-1.1v18.625c0 2.873 1.916 4.658 5 4.658h27.703c1.115-.682 2.241-1.355 3.314-2H36.5V96zm64-20.184v17.525c0 1.764-1.01 2.658-3 2.658H72.967c.52.617.969 1.291 1.357 2h23.174c3.084 0 5-1.785 5-4.658V74.717c-.629.422-1.299.787-1.998 1.099z"/><path fill="#005A95" d="M72.5 96h-2.373a9.682 9.682 0 0 1 1.869 2h2.33a12.444 12.444 0 0 0-1.359-2H72.5zm-18.087 0h-3.895c-1.073.645-2.199 1.324-3.314 2h3.872c1.196-.719 2.336-1.402 3.337-2zM17.5 112.006h-3a1.006 1.006 0 0 1 0-2.012h3a1.005 1.005 0 1 1 0 2.012z"/><path fill="#FFF" d="M68.5 120h-6v-6l8-4z"/><path fill="#005A95" d="M59.5 59a1 1 0 0 1-1-1c0-7.558 3.629-11 7-11a1 1 0 1 1 0 2c-2.484 0-5 3.091-5 9a1 1 0 0 1-1 1z"/></svg>