<svg xmlns="http://www.w3.org/2000/svg" width="120" height="137" viewBox="1.5 2 120 137"><circle fill="#EFEFEF" cx="61.5" cy="79" r="60"/><path fill="#005A95" d="M75.499 127.011a.998.998 0 0 1-.863-1.503l25-43a1 1 0 0 1 1.728 1.006l-25 43a.998.998 0 0 1-.865.497z"/><path fill="#005A95" d="M100.501 127.011a.998.998 0 0 1-.865-.497l-25-43a1 1 0 1 1 1.728-1.006l25 43a1 1 0 0 1-.863 1.503z"/><path fill="#FFF" d="M118.5 79.011h-59v17H102l-7 27h10l13.5-30v-14z"/><path fill="#005A95" d="M105.646 124.011H93.708l7-27H58.5v-19h61v15.215l-13.854 30.785zm-9.354-2h8.062L117.5 92.796V80.011h-57v15h42.792l-7 27z"/><path fill="#005A95" d="M108.5 114.011h-12v2h12zm-7 4c-.6 0-1 .4-1 1s.4 1 1 1 1-.4 1-1-.4-1-1-1zm-8-90c-.222 0 0 0-.27.016H48.675c-.124.046.026-.016-.175-.016-.523 0-1.4-.259-1.4-1.084v-.6c0-.944.469-1.767 1.286-2.257l.11-.057 15.6-6.9c.144-.076.414-.346.482-.466l.09-.174 1.942-2.914c.226-.556.685-1.532 1.89-1.532h5c1.085 0 1.5.804 1.723 1.235.042.082.085.167.136.251l2.036 3.067c.069.104.395.459.52.541l15.688 6.89c.745.298 1.312 1.107 1.484 2.152l.014.164v.6c-.001.837-1.01 1.084-1.601 1.084zm-44.328-1.984h43.791a.46.46 0 0 0-.136-.172l-15.729-6.913c-.538-.175-1.206-1.003-1.434-1.367l-1.996-2.994a5.73 5.73 0 0 1-.223-.402 4.575 4.575 0 0 0-.081-.153H68.59c-.052.095-.115.255-.161.37l-.097.185-1.952 2.929c-.279.575-1.022 1.286-1.564 1.466l-15.442 6.836a.615.615 0 0 0-.202.215z"/><path fill="#FFF" d="M56.5 74.026V27.027h23.4l-3.4 46.999z"/><path fill="#005A95" d="M77.431 75.026H55.5v-49h25.476l-3.545 49zm-19.931-2h18.069l3.256-45H57.5v45z"/><path fill="#FFF" d="M62 65.027l.1-6h24.599l-1.5 6z"/><path fill="#005A95" d="M85.98 66.027H60.983l.133-8H87.98l-2 8zm-22.963-2h21.401l1-4H63.083l-.066 4z"/><path fill="#FFF" d="M86.5 60.027h-26v6h25l1-6z"/><path fill="#005A95" d="M86.347 67.027L60.5 67.011v-8l27.181.016-1.334 8zM62.5 65.011l22.153.016.666-4-22.819-.016v4z"/><path fill="#FFF" d="M62.1 59.027l-.1-35h20.699l8.201 20.1-4.3 14.9z"/><path fill="#005A95" d="M87.352 60.027H61.103l-.105-37h22.374l8.586 21.044-4.606 15.956zm-24.255-2h22.751l3.996-13.844-7.816-19.156H63.003l.094 33z"/><path fill="#FFF" d="M83.5 24.027h-23v36h26l5.5-16-8.5-20z"/><path fill="#005A95" d="M87.214 61.027H60.5V23.011l23.661.016 8.909 20.962-5.856 17.038zm-24.714-2h23.286l5.144-14.962-8.091-19.038H62.5v34z"/><path fill="#005A95" d="M70 52.027a.999.999 0 0 1-.707-1.707l10.5-10.5a.999.999 0 1 1 1.414 1.414l-10.5 10.5a.997.997 0 0 1-.707.293z"/><path fill="#FFF" d="M56.5 26.027c0-1.1 1.125-2 2.5-2s2.5.9 2.5 2"/><path fill="#005A95" d="M62.5 26.027h-2c0-.473-.616-1-1.5-1s-1.5.527-1.5 1h-2c0-1.654 1.57-3 3.5-3s3.5 1.346 3.5 3z"/><path fill="#87E4B9" d="M91 71.969l-3.5 4H117l1-4z"/><path fill="#005A95" d="M117.781 76.969H85.296l5.25-6h28.735l-1.5 6zm-28.077-2h26.515l.5-2H91.454l-1.75 2z"/><path fill="#87E4B9" d="M103.5 55.958c-5 0-11 5.011-14.699 12.711l-1.301 3.3h33V55.958h-17zm13 11.011h-16v-1c0-2.5 2.5-5 5-5h11v6z"/><path fill="#FFF" d="M105.434 58.021c-4.697 0-10.336 4.305-13.811 11.512L90.4 72.62h31.006l.094-14.6h-16.066zm9.966 9.92h-12.785l-2.215-.936c0-2.34 2.75-6.047 5.1-6.047h11v5l-1.1 1.983z"/><path fill="#005A95" d="M121.5 72.969H86.031l1.839-4.667c3.845-8.008 10.114-13.344 15.63-13.344h18v18.011zm-32.532-2H119.5V56.958h-16c-4.689 0-10.363 4.994-13.798 12.144l-.734 1.867zm28.532-3h-18v-2c0-3.028 2.972-6 6-6h12v8zm-16-2h14v-4h-10c-1.944 0-4 2.056-4 4z"/><path fill="#FFF" d="M110.5 68.969h-4c-1.1 0-2-.9-2-2s.9-2 2-2h4c1.1 0 2 .9 2 2 0 1.101-.9 2-2 2z"/><path fill="#005A95" d="M110.5 69.969h-4c-1.654 0-3-1.346-3-3s1.346-3 3-3h4c1.654 0 3 1.346 3 3s-1.346 3-3 3zm-4-4a1.001 1.001 0 0 0 0 2h4a1.001 1.001 0 0 0 0-2h-4zm-12-5a1 1 0 0 1-1-1v-2a1 1 0 1 1 2 0v2a1 1 0 0 1-1 1z"/><path fill="#FFF" d="M52.5 71.011h-49v46h49v-46z"/><path fill="#005A95" d="M53.5 118.011h-51v-48h51v48zm-49-2h47v-44h-47v44z"/><path fill="#87E4B9" d="M28.1 77.011c-9.385 0-16.998 7.559-16.998 17s7.613 17 16.998 17 17.002-7.559 17.002-17-7.618-17-17.002-17zm0 25.5c-4.637 0-8.498-3.8-8.498-8.5 0-4.695 3.752-8.5 8.498-8.5 4.639 0 8.502 3.805 8.502 8.5 0 4.7-3.864 8.5-8.502 8.5z"/><path fill="#FFF" d="M28.498 79.011c-8.832 0-15.998 7.113-15.998 16s7.166 16 15.998 16 16.002-7.113 16.002-16-7.17-16-16.002-16z"/><path fill="none" d="M28.1 78.011c-8.821 0-15.998 7.178-15.998 16s7.177 16 15.998 16c8.823 0 16.002-7.178 16.002-16s-7.179-16-16.002-16zm0 25.5c-5.237 0-9.498-4.262-9.498-9.5s4.261-9.5 9.498-9.5c5.239 0 9.502 4.262 9.502 9.5s-4.263 9.5-9.502 9.5z"/><path fill="#FFF" d="M27.998 82.511c-6.339 0-11.498 5.16-11.498 11.5s5.159 11.5 11.498 11.5c6.341 0 11.502-5.16 11.502-11.5s-5.161-11.5-11.502-11.5z"/><path fill="#87E4B9" d="M28.5 95.011c-6.339 0-12-4.84-12 1.5s5.661 8.5 12 8.5c6.341 0 11-2.66 11-9s-4.659-1-11-1z"/><path fill="#005A95" d="M27.998 106.511c-6.892 0-12.498-5.607-12.498-12.5s5.606-12.5 12.498-12.5c6.894 0 12.502 5.607 12.502 12.5s-5.608 12.5-12.502 12.5zm0-23c-5.789 0-10.498 4.71-10.498 10.5s4.709 10.5 10.498 10.5c5.791 0 10.502-4.71 10.502-10.5s-4.711-10.5-10.502-10.5z"/><path fill="#005A95" d="M27.998 76.011c-9.924 0-17.998 8.075-17.998 18s8.074 18 17.998 18c9.927 0 18.002-8.075 18.002-18s-8.075-18-18.002-18zm0 34c-8.821 0-15.998-7.178-15.998-16s7.177-16 15.998-16c8.823 0 16.002 7.178 16.002 16s-7.179 16-16.002 16z"/><path fill="#FFF" d="M3.5 62.011h49v9.1h-49z"/><path fill="#005A95" d="M53.5 72.11h-51v-11.1h51v11.1zm-49-2h47v-7.1h-47v7.1z"/><path fill="#FFF" d="M45.5 128.011l.1-1.8c0-1 .801-2 1.801-2.2l3.799-.5c1.604-.2 4-1 5.5-1.7l11.803-5.6c1 .5 2 .899 3.1 1.2 2 .6 4 .898 6.1.898 1.5 0 2.9-.199 4.4-.5.5-.1 1-.199 1.5-.398v4l-.1 3.6-10-1-8.303 4H45.5z"/><path fill="#005A95" d="M65.428 129.011H44.443l.158-2.855c-.002-1.436 1.142-2.833 2.603-3.125l3.864-.511c1.496-.188 3.821-.968 5.208-1.615l12.237-5.806.436.218c1.001.501 1.928.859 2.916 1.13 1.945.583 3.847.863 5.836.863 1.267 0 2.524-.144 4.204-.48.469-.094.911-.182 1.326-.347l1.37-.546v5.475l-.13 4.701-10.789-1.078-8.254 3.976zm-18.872-2h18.415l8.351-4.023 9.211.922.069-2.525v-2.655l-.305.062c-1.814.364-3.189.52-4.596.52-2.187 0-4.275-.308-6.387-.94a17.36 17.36 0 0 1-2.817-1.049l-11.369 5.394c-1.55.724-4.037 1.568-5.805 1.789l-3.792.499c-.456.094-.932.675-.932 1.209l-.043.797z"/><path fill="#FFF" d="M68.5 115.011l-12.199 5.9c-1.301.699-3.701 1.399-5.201 1.6l-3.799.5c-1.5.2-2.701 1.6-2.803 2.955l.002 1.045v1h21l8-4h2l4 2h5v-10c-.9.3-1.699.6-2.6.8-1.398.3-2.801.5-4.201.5-2.1 0-4.1-.3-5.799-.899-1.3-.401-2.4-.901-3.4-1.401z"/><path fill="#87E4B9" d="M45.5 128.311v-2.4c0-1 .834-2 1.876-2.1l3.957-.5c1.356-.2 3.232-.7 4.688-1.3l.417.899c.21.399.417.699.73 1a3.235 3.235 0 0 0 2.188.899l4.792.201c.728 0 1.353.699 1.353 1.399v1.7l-20 .198v.004z"/><path fill="#005A95" d="M65.736 129.011H43.5l-.002-3.043c.146-1.992 1.758-3.693 3.671-3.948l3.8-.5c1.479-.197 3.75-.894 4.858-1.489l12.681-6.134.439.22c.873.437 1.942.938 3.247 1.339 1.601.564 3.491.855 5.505.855 1.187 0 2.492-.156 3.991-.478.655-.146 1.281-.359 1.944-.585l1.865-.624v12.387h-6.236l-4-2h-1.527l-8 4zm-20.236-2h19.764l8-4h2.473l4 2H83.5v-7.608c-.446.145-.896.276-1.383.385-1.646.353-3.089.523-4.418.523-2.238 0-4.358-.331-6.132-.956a21.696 21.696 0 0 1-3.071-1.231l-11.76 5.688c-1.445.777-3.994 1.489-5.505 1.69l-3.8.5c-1.062.142-1.873 1.188-1.937 2.039l.006.97z"/><path fill="#87E4B9" d="M77.5 123.011c.285-1.8 2.215-3.4 4.929-3.866.357-.067.714-.134 1.071-.134v4h-6z"/><path fill="#FFF" d="M85.5 124.011h-12l-8 4h-23 23l8-4h1-1v4h12v-4z"/><path fill="#005A95" d="M86.5 129.011h-14v-3.382l-6.764 3.382H42.5v-2h22.764l7.236-3.618v-.382h14v6zm-12-2h10v-2h-10v2zm-11-5a.997.997 0 0 1-.707-.293l-2-2a.999.999 0 1 1 1.414-1.414l2 2a.999.999 0 0 1-.707 1.707zm3-2a.997.997 0 0 1-.707-.293l-2-2a.999.999 0 1 1 1.414-1.414l2 2a.999.999 0 0 1-.707 1.707z"/><path fill="#FFF" d="M48.5 132l.1-1.8c0-1 .801-2 1.801-2.2l3.799-.5c1.604-.2 4-1 5.5-1.7l11.803-5.6c1 .5 2 .899 3.1 1.2 2 .6 4 .898 6.1.898 1.5 0 2.9-.199 4.4-.5.5-.1 1-.199 1.5-.398v4l-.1 3.6-10-1-8.303 4H48.5z"/><path fill="#005A95" d="M68.428 133H47.443l.158-2.855c-.002-1.436 1.142-2.833 2.603-3.125l3.864-.511c1.496-.188 3.821-.968 5.208-1.615l12.237-5.806.436.218c1.001.501 1.928.859 2.916 1.13 1.945.583 3.847.863 5.836.863 1.267 0 2.524-.144 4.204-.48.469-.094.911-.182 1.326-.347l1.37-.546v5.475l-.13 4.701-10.789-1.078L68.428 133zm-18.872-2h18.415l8.351-4.023 9.211.922.069-2.525v-2.655l-.305.062c-1.814.364-3.189.52-4.596.52-2.187 0-4.275-.308-6.387-.94a17.36 17.36 0 0 1-2.817-1.049l-11.369 5.394c-1.55.724-4.037 1.568-5.805 1.789l-3.792.499c-.456.094-.932.675-.932 1.209l-.043.797z"/><path fill="#FFF" d="M71.5 119l-12.199 5.9c-1.301.7-3.701 1.4-5.201 1.6l-3.799.5c-1.5.2-2.701 1.6-2.803 2.955L47.5 131v1h21l8-4h2l4 2h5v-10c-.9.3-1.699.6-2.6.8-1.398.3-2.801.5-4.201.5-2.1 0-4.1-.3-5.799-.899-1.3-.401-2.4-.901-3.4-1.401z"/><path fill="#87E4B9" d="M48.5 132.3v-2.4c0-1 .834-2 1.876-2.1l3.957-.5c1.356-.2 3.232-.7 4.688-1.3l.417.899c.21.399.417.699.73 1a3.235 3.235 0 0 0 2.188.899l4.791.202c.728 0 1.353.699 1.353 1.399v1.7l-20 .198v.003z"/><path fill="#005A95" d="M68.736 133H46.5l-.002-3.043c.146-1.992 1.758-3.693 3.671-3.948l3.8-.5c1.479-.197 3.75-.894 4.858-1.489l12.681-6.134.439.22c.873.437 1.942.938 3.247 1.339 1.601.564 3.491.855 5.505.855 1.187 0 2.492-.156 3.991-.478.655-.146 1.281-.359 1.944-.585l1.865-.624V131h-6.236l-4-2h-1.527l-8 4zM48.5 131h19.764l8-4h2.473l4 2H86.5v-7.608c-.446.145-.896.276-1.383.385-1.646.353-3.089.523-4.418.523-2.238 0-4.358-.331-6.132-.956a21.696 21.696 0 0 1-3.071-1.231l-11.76 5.688c-1.445.777-3.994 1.489-5.505 1.69l-3.8.5c-1.062.142-1.873 1.188-1.937 2.039l.006.97z"/><path fill="#87E4B9" d="M80.5 127c.285-1.8 2.215-3.4 4.929-3.866.357-.068.714-.134 1.071-.134v4h-6z"/><path fill="#FFF" d="M88.5 128h-12l-8 4h-23 23l8-4h1-1v4h12v-4z"/><path fill="#005A95" d="M89.5 133h-14v-3.382L68.736 133H45.5v-2h22.764l7.236-3.618V127h14v6zm-12-2h10v-2h-10v2zm-11-5a.997.997 0 0 1-.707-.293l-2-2a.999.999 0 1 1 1.414-1.414l2 2A.999.999 0 0 1 66.5 126zm3-2a.997.997 0 0 1-.707-.293l-2-2a.999.999 0 1 1 1.414-1.414l2 2A.999.999 0 0 1 69.5 124z"/><path fill="#87E4B9" d="M103.5 30.011c0 3.369-2.734 6-6 6 3.369 0 6 2.734 6 6 0-3.369 2.738-6 6-6-3.264 0-6-2.738-6-6zm-72.107 2c0 2.708-2.195 4.915-4.893 4.915 2.695 0 4.893 2.207 4.893 4.915 0-2.708 2.197-4.915 4.893-4.915-2.798-.001-4.893-2.207-4.893-4.915zm24.609 63c0 5.291-4.246 9.563-9.502 9.563 5.256 0 9.502 4.271 9.502 9.563 0-5.291 4.244-9.563 9.498-9.563-5.254-.001-9.498-4.273-9.498-9.563z"/><path fill="#005A95" d="M59.5 82.011h-2a1 1 0 1 1 0-2h2a1 1 0 1 1 0 2zm61 0h-2a1 1 0 1 1 0-2h2a1 1 0 1 1 0 2z"/><path fill="#87E4B9" d="M48.5 47.011L47.432 58.04c0 .536-.892.971-1.992.971H10.56c-1.101 0-1.991-.435-1.991-.971L7.5 47.011"/><path fill="#005A95" d="M45.439 60.011H10.56c-1.623 0-2.949-1.278-2.99-2.865L4.51 35.148a1 1 0 0 1 .853-1.128.994.994 0 0 1 1.128.853l3.078 22.196c0 .519.444.941.991.941h34.88c.547 0 .992-.422.992-.941l.01-.138 3.068-22.059a.996.996 0 0 1 1.128-.853 1 1 0 0 1 .853 1.128l-3.06 21.997c-.041 1.588-1.368 2.867-2.992 2.867z"/><circle fill="#FFF" cx="14.5" cy="47.042" r="3"/><path fill="#005A95" d="M14.5 51.032c-2.2 0-3.989-1.79-3.989-3.99s1.789-3.99 3.989-3.99 3.989 1.79 3.989 3.99-1.789 3.99-3.989 3.99zm0-6c-1.108 0-2.011.902-2.011 2.01s.902 2.01 2.011 2.01 2.011-.902 2.011-2.01-.903-2.01-2.011-2.01z"/><circle fill="#FFF" cx="40.5" cy="47.073" r="5"/><path fill="#005A95" d="M40.5 53.115c-3.331 0-6.042-2.71-6.042-6.042s2.711-6.042 6.042-6.042 6.042 2.71 6.042 6.042-2.711 6.042-6.042 6.042zm0-10c-2.183 0-3.958 1.775-3.958 3.958s1.775 3.958 3.958 3.958 3.958-1.775 3.958-3.958-1.775-3.958-3.958-3.958z"/><circle fill="#FFF" cx="24" cy="47.011" r="2.5"/><path fill="#005A95" d="M24 50.511c-1.93 0-3.5-1.57-3.5-3.5s1.57-3.5 3.5-3.5 3.5 1.57 3.5 3.5-1.57 3.5-3.5 3.5zm0-5c-.827 0-1.5.673-1.5 1.5s.673 1.5 1.5 1.5 1.5-.673 1.5-1.5-.673-1.5-1.5-1.5z"/><path fill="#005A95" d="M48.5 48.011h-41a1 1 0 1 1 0-2h41a1 1 0 1 1 0 2z"/><path fill="#87E4B9" d="M10.5 48.011h36v6h-36z"/><circle fill="#FFF" cx="14.5" cy="47.011" r="2"/><circle fill="#FFF" cx="24" cy="47.011" r="1.5"/><path fill="#FFF" d="M20.5 56.011c-1.654 0-3-1.346-3-3s1.346-3 3-3 3 1.346 3 3-1.346 3-3 3zm0-4c-.551 0-1 .449-1 1s.449 1 1 1 1-.449 1-1-.449-1-1-1z"/><circle fill="#FFF" cx="33.5" cy="51.011" r="1"/><circle fill="#FFF" cx="28" cy="52.511" r="1.5"/><circle fill="#FFF" cx="12.5" cy="53.011" r="1"/><circle fill="#FFF" cx="40.5" cy="47.011" r="4"/><circle fill="#FFF" cx="22.5" cy="98.011" r="1"/><circle fill="#FFF" cx="29" cy="100.511" r="1.5"/><circle fill="#FFF" cx="33.5" cy="97.011" r="1"/><path fill="#FFF" d="M59.5 26.011h1v2h-1z"/><path fill="#005A95" d="M59 23.011h3v2h-3zm6.5 37h2v6h-2zm7 0h2v6h-2z"/><path fill="#87E4B9" d="M60.5 82.01h57v2h-57zm0 5.001h57v2h-57zm0 5.001h57v2h-57z"/><path fill="none" d="M101.587 114.011h3.149l6.06-19h-3.15zm-2.551 8h3.15l1.913-6h-3.15z"/><path fill="#87E4B9" d="M100.949 116.011H98.85l-1.913 6h2.099zm6.697-21h-2.099l-6.06 19h2.1zm-5.46 27h2.099l1.914-6h-2.1zm8.61-27l-6.06 19h2.1l6.059-19z"/><path fill="#005A95" d="M79.5 60.011h2v6h-2zM11.5 68a1 1 0 0 1-1-1v-1a1 1 0 0 1 2 0v1a1 1 0 0 1-1 1zm5 0a1 1 0 0 1-1-1v-1a1 1 0 0 1 2 0v1a1 1 0 0 1-1 1zm5 0a1 1 0 0 1-1-1v-1a1 1 0 0 1 2 0v1a1 1 0 0 1-1 1zm5 0a1 1 0 0 1-1-1v-1a1 1 0 0 1 2 0v1a1 1 0 0 1-1 1zm44.51-51.989a1 1 0 0 1-1-1v-3.225a.676.676 0 0 0-.146-.106c-2.489-.928-3.818-3.384-3.225-5.857.399-1.803 1.895-3.298 3.715-3.704 1.261-.293 2.646-.039 3.796.692 1.092.695 1.893 1.854 2.198 3.181a1 1 0 0 1-1.949.449c-.186-.807-.68-1.532-1.323-1.941-.69-.439-1.543-.601-2.278-.429-1.069.238-1.975 1.144-2.209 2.203-.356 1.483.435 2.943 1.88 3.502.667.204 1.541.956 1.541 1.807v3.429a1 1 0 0 1-1 .999z"/></svg>