<svg xmlns="http://www.w3.org/2000/svg" width="120" height="137" viewBox="4.49 1.903 120 137"><circle fill="#EFEFEF" cx="64.49" cy="78.903" r="60"/><path fill="#005A95" d="M94.502 13.601h1.996v11.03h-1.996zm-31.999-.065h1.996v11.032h-1.996zM78.5 7.54h2v10.066h-2z"/><path fill="#87E4B9" d="M69.901 29.29l-3.199 3.113.799 4.418-4-2.008-3.9 2.008.7-4.418-3.2-3.113 4.4-.601 2-4.116 1.999 4.116z"/><path fill="#FFF" d="M68.701 29.592l-1.999 2.911v4.116l-2-1.004-2.402-.401.501-2.711-2-1.907 2.7-.401 1.201-2.51 2 1.907z"/><path fill="#005A95" d="M58.201 38.728l1-5.924L55 28.588l5.899-.902 2.602-5.422 2.601 5.422 5.898.902-4.3 4.216 1 5.924-5.3-2.812-5.199 2.812zm5.3-5.12l2.601 1.405-.4-2.911 2.101-2.108-3-.401-1.3-2.711-1.301 2.711-2.899.401 2.1 2.108-.5 2.911 2.598-1.405z"/><path fill="#87E4B9" d="M95.702 24.677c1.799 0 3.299.703 4.5 1.907-2.302 0-4.202 1.908-4.202 4.317s1.899 4.315 4.201 4.315c-1.103 1.205-2.701 1.907-4.5 1.907-3.402 0-6.201-2.81-6.201-6.224s2.799-6.222 6.202-6.222z"/><path fill="#FFF" d="M97.5 25.782c1.399 0 1.699-.102 2.701.903-1.9 0-4 2.107-4 4.016 0 1.907 2.1 5.019 4 5.019-.902 1.005-1.201.302-2.701.302-2.799 0-5.101-2.31-5.101-5.12.002-2.812 2.303-5.12 5.101-5.12z"/><path fill="#005A95" d="M95.702 38.129c-4.002 0-7.201-3.212-7.201-7.228 0-4.017 3.199-7.229 7.201-7.229 2 0 3.799.804 5.196 2.209l1.603 1.706h-2.299c-1.802 0-3.203 1.506-3.203 3.313 0 1.807 1.502 3.313 3.203 3.313h2.299l-1.603 1.707c-1.398 1.507-3.196 2.209-5.196 2.209zm0-12.448c-2.902 0-5.203 2.31-5.203 5.221s2.301 5.22 5.203 5.22c.799 0 1.5-.201 2.198-.502-1.698-.904-2.899-2.71-2.899-4.718s1.201-3.916 2.899-4.718c-.698-.302-1.499-.503-2.198-.503z"/><path fill="#87E4B9" d="M84.789 23.693l-3.526 3.506c-1.005 1.002-2.516 1.002-3.523 0l-3.525-3.506c-1.009-1.001-1.009-2.504 0-3.506l3.525-3.507c1.008-1.002 2.519-1.002 3.523 0l3.526 3.507c1.009 1.001 1.009 2.603 0 3.506"/><path fill="#FFF" d="M84.084 23.192l-2.418 2.403c-.704.702-1.713.702-2.416 0l-2.418-2.403c-.706-.701-.706-1.703 0-2.404l2.418-2.405c.703-.701 1.712-.701 2.416 0l2.418 2.405c.705.6.705 1.702 0 2.404"/><path fill="#005A95" d="M79.552 28.902c-.907 0-1.812-.3-2.519-1.002l-3.525-3.505c-.705-.702-1.007-1.502-1.007-2.504 0-.902.402-1.804 1.007-2.505l3.525-3.506c1.309-1.303 3.626-1.303 4.937 0l3.523 3.506c.707.701 1.007 1.502 1.007 2.505 0 .9-.403 1.803-1.007 2.504L81.97 27.9c-.604.702-1.512 1.002-2.418 1.002zm0-11.922c-.403 0-.805.2-1.007.4l-3.526 3.506c-.301.301-.402.602-.402 1.002s.202.802.402 1.003l3.526 3.506a1.466 1.466 0 0 0 2.115 0l3.525-3.506c.301-.302.403-.603.403-1.003s-.203-.801-.403-1.002L80.56 17.38c-.302-.2-.607-.4-1.008-.4z"/><path fill="#87E4B9" d="M103.5 96.903H55.499c-2.199 0-4-1.8-4-3.999V80.902c0-2.199 1.801-4 4-4H103.5c2.2 0 4 1.801 4 4v12.002c0 2.198-1.8 3.999-4 3.999z"/><path fill="#FFF" d="M103.5 96.903H55.499c-2.199 0-4-1.8-4-3.999v-5a4.012 4.012 0 0 1 4-4.001H103.5c2.2 0 4 1.8 4 4.001v5c0 2.198-1.8 3.999-4 3.999z"/><path fill="#005A95" d="M103.5 97.902H55.499c-2.799 0-4.999-2.197-4.999-4.999V80.902c0-2.8 2.2-5 4.999-5H103.5c2.801 0 5 2.199 5 5v12.002c0 2.8-2.199 4.998-5 4.998zm-48.001-20c-1.7 0-2.999 1.301-2.999 3v12.002c0 1.699 1.299 3 2.999 3H103.5c1.7 0 3-1.301 3-3V80.902c0-1.699-1.3-3-3-3H55.499z"/><path fill="#005A95" d="M102.5 44.402h2v48h-2zm-12 0h2v48h-2zm-12 .43h2V91.97h-2zm-24 .07h2v47h-2z"/><path fill="#005A95" d="M46.333 43.895h67v2.014h-67z"/><path fill="#87E4B9" d="M47.498 91.667h64.001v7.045H47.498z"/><path fill="#FFF" d="M47.498 94.889h64.001v4.025H47.498z"/><path fill="#005A95" d="M112.49 99.902h-66v-9h66v9zm-64.001-2.001h62.001v-4.998H48.489v4.998z"/><path fill="#FFF" d="M40.5 37.402h7v66h-7z"/><path fill="#005A95" d="M48.5 104.402h-9v-68h9v68zm-7-2h5v-64h-5v64z"/><path fill="#FFF" d="M111.5 37.902h7v66h-7z"/><path fill="#005A95" d="M119.5 104.902h-9v-68h9v68zm-7-2h5v-64h-5v64zm-46-58.07h2V91.97h-2z"/><path fill="#FCFCFC" d="M116.421 102.73l-1.46.593c-1.372.597-2.815 1.225-4.273 1.754-9.918 3.708-20.394 5.59-31.126 5.59s-21.209-1.882-31.135-5.594c-1.455-.528-2.896-1.155-4.289-1.761l-1.488-.604c-.35-.143-.913-.233-1.437-.233a5.406 5.406 0 0 0-4.183 1.987c3.393 1.756 6.935 3.314 10.792 4.748l.105.046c.421.213.928.379 1.418.54l.366.121c9.534 3.294 19.574 4.964 29.85 4.964a93.851 93.851 0 0 0 29.785-4.84c.537-.264 1.116-.453 1.628-.621l.354-.117c3.969-1.475 7.514-3.06 10.776-4.822-1.324-1.634-3.541-2.482-5.683-1.751z"/><path fill="#005A95" d="M124.456 104.355a7.448 7.448 0 0 0-6.545-3.911c-.718 0-1.438.122-2.197.382l-1.538.624c-1.368.595-2.782 1.21-4.189 1.721-9.698 3.626-19.935 5.465-30.423 5.465-10.489 0-20.726-1.838-30.433-5.468-1.405-.509-2.815-1.124-4.204-1.728l-1.511-.612c-.588-.24-1.411-.384-2.201-.384a7.445 7.445 0 0 0-6.544 3.911l-.487.898.902.482c3.76 2.007 7.68 3.761 11.98 5.36.544.271 1.131.462 1.65.632l.341.112c9.741 3.366 20.004 5.073 30.506 5.073a95.89 95.89 0 0 0 30.497-4.968l.136-.058c.42-.212.925-.377 1.413-.537l.399-.133c4.49-1.667 8.432-3.464 12.052-5.493l.483-.271v-.941l-.087-.156zm-12.802 5.912c-.604.204-1.312.409-1.917.716a94.635 94.635 0 0 1-30.174 4.916c-10.597 0-20.688-1.739-30.174-5.019-.604-.204-1.312-.41-1.918-.717-4.136-1.537-8.072-3.277-11.908-5.325 1.11-2.048 3.23-3.379 5.651-3.379.605 0 1.312.103 1.815.309.506.203 1.011.408 1.515.612 1.413.615 2.825 1.229 4.239 1.741 9.586 3.584 19.981 5.529 30.778 5.529s21.192-1.945 30.779-5.529c1.413-.513 2.825-1.126 4.239-1.741.504-.204 1.009-.41 1.513-.612a5.602 5.602 0 0 1 1.816-.309c2.421 0 4.541 1.332 5.651 3.379-3.831 2.152-7.768 3.893-11.905 5.429z"/><path fill="#005A95" d="M117.91 101.459c-.606 0-1.211.103-1.816.309l-1.513.612c-1.414.615-2.826 1.229-4.239 1.741-9.587 3.584-19.982 5.529-30.779 5.529s-21.192-1.945-30.778-5.529c-1.414-.513-2.826-1.126-4.239-1.741-.504-.204-1.009-.41-1.515-.612-.504-.206-1.21-.309-1.815-.309-2.421 0-4.541 1.332-5.651 3.379 3.835 2.047 7.772 3.788 11.908 5.325.606.307 1.313.513 1.918.717 9.486 3.278 19.578 5.019 30.174 5.019a94.603 94.603 0 0 0 30.174-4.916c.605-.307 1.313-.513 1.917-.716 4.138-1.536 8.074-3.277 11.909-5.428-1.114-2.048-3.233-3.38-5.655-3.38zm-6.581 7.845l-.354.117c-.513.168-1.091.357-1.628.621a93.851 93.851 0 0 1-29.785 4.84c-10.274 0-20.315-1.669-29.85-4.964l-.366-.121c-.49-.161-.997-.326-1.418-.54l-.104-.046c-3.858-1.434-7.4-2.991-10.792-4.748a5.4 5.4 0 0 1 4.182-1.987c.523 0 1.086.091 1.437.233l1.488.604c1.394.605 2.833 1.232 4.289 1.761 9.926 3.711 20.402 5.594 31.135 5.594s21.208-1.882 31.126-5.59c1.458-.529 2.901-1.157 4.273-1.754l1.46-.593c2.141-.73 4.357.116 5.685 1.751-3.265 1.762-6.809 3.347-10.778 4.822z"/><circle fill="#87E4B9" cx="44.165" cy="34.402" r="5.5"/><circle fill="#FFF" cx="45.164" cy="35.402" r="3.5"/><path fill="#005A95" d="M44.165 40.902c-3.601 0-6.5-2.9-6.5-6.5 0-3.601 2.899-6.5 6.5-6.5 3.6 0 6.5 2.899 6.5 6.5 0 3.599-2.9 6.5-6.5 6.5zm0-10.999c-2.5 0-4.501 2-4.501 4.5s2.001 4.5 4.501 4.5 4.499-2 4.499-4.5-1.999-4.5-4.499-4.5z"/><circle fill="#87E4B9" cx="115.166" cy="34.402" r="5.5"/><circle fill="#FFF" cx="116.166" cy="35.402" r="3.5"/><path fill="#005A95" d="M115.166 40.902c-3.602 0-6.501-2.9-6.501-6.5s2.899-6.5 6.501-6.5c3.6 0 6.499 2.9 6.499 6.5s-2.899 6.5-6.499 6.5zm0-10.999c-2.501 0-4.501 2-4.501 4.5s2 4.5 4.501 4.5c2.499 0 4.499-2 4.499-4.5s-2-4.5-4.499-4.5z"/><path fill="#FFF" d="M41.932 103.116c0 8.323-6.688 15.043-14.975 15.043-8.287 0-14.977-6.72-14.977-15.043 0-8.325 6.689-12.035 14.977-12.035 8.286 0 14.975 3.71 14.975 12.035z"/><path fill="#005A95" d="M27.063 118.944c-8.786 0-15.973-7.221-15.973-16.045 0-8.024 6.09-13.038 15.973-13.038s15.974 5.014 15.974 13.038c-.001 8.824-7.089 16.045-15.974 16.045zm0-27.078c-8.786 0-13.977 4.111-13.977 11.032 0 7.721 6.29 14.04 13.977 14.04 7.688 0 13.978-6.319 13.978-14.04-.002-6.92-5.194-11.032-13.978-11.032z"/><path fill="#FFF" d="M16.074 105.696c-1.798 1.804-4.593 1.804-6.29.099-1.696-1.704-1.598-4.513.101-6.317 1.697-1.806 11.68-11.733 11.68-11.733"/><path fill="#005A95" d="M12.844 108.061c-.001 0-.001 0 0 0a5.284 5.284 0 0 1-3.769-1.562c-2.067-2.076-2.031-5.462.08-7.709 1.689-1.796 11.296-11.352 11.704-11.757l1.41 1.418c-.1.099-9.991 9.938-11.657 11.709-1.346 1.432-1.399 3.643-.12 4.928a3.295 3.295 0 0 0 2.351.973c.938 0 1.833-.381 2.521-1.071l1.419 1.412c-1.067 1.069-2.466 1.659-3.939 1.659z"/><path fill="#FFF" d="M38.033 105.696c1.798 1.804 4.593 1.804 6.289.099 1.697-1.704 1.697-4.513-.1-6.317L32.541 87.745"/><path fill="#005A95" d="M41.263 108.061c-1.473 0-2.872-.59-3.938-1.659l1.417-1.412c.688.69 1.584 1.071 2.521 1.071h.001a3.29 3.29 0 0 0 2.35-.973c1.319-1.325 1.274-3.525-.101-4.907l-11.68-11.732 1.417-1.411 11.681 11.733c2.149 2.159 2.194 5.627.1 7.729a5.277 5.277 0 0 1-3.766 1.562l-.002-.001z"/><circle fill="#FFF" cx="37.063" cy="73.402" r="6.5"/><path fill="#005A95" d="M37.063 80.902c-4.136 0-7.5-3.364-7.5-7.5s3.364-7.5 7.5-7.5c4.137 0 7.5 3.365 7.5 7.5s-3.365 7.5-7.5 7.5zm0-13a5.506 5.506 0 0 0-5.5 5.5c0 3.032 2.467 5.5 5.5 5.5s5.5-2.467 5.5-5.5-2.468-5.5-5.5-5.5z"/><circle fill="#87E4B9" cx="37.063" cy="73.402" r="2.5"/><path fill="#005A95" d="M37.063 76.902c-1.93 0-3.5-1.57-3.5-3.5 0-1.931 1.57-3.5 3.5-3.5 1.931 0 3.5 1.569 3.5 3.5 0 1.929-1.571 3.5-3.5 3.5zm0-5c-.827 0-1.5.673-1.5 1.5s.673 1.5 1.5 1.5 1.5-.673 1.5-1.5-.673-1.5-1.5-1.5z"/><circle fill="#FFF" cx="17.063" cy="73.402" r="6.5"/><path fill="#005A95" d="M17.063 80.902c-4.136 0-7.5-3.364-7.5-7.5s3.364-7.5 7.5-7.5c4.137 0 7.5 3.365 7.5 7.5s-3.365 7.5-7.5 7.5zm0-13a5.506 5.506 0 0 0-5.5 5.5c0 3.032 2.467 5.5 5.5 5.5s5.5-2.467 5.5-5.5-2.468-5.5-5.5-5.5z"/><circle fill="#87E4B9" cx="17.063" cy="73.402" r="2.5"/><path fill="#005A95" d="M17.063 76.902a3.504 3.504 0 0 1-3.501-3.5c0-1.931 1.57-3.5 3.501-3.5s3.5 1.569 3.5 3.5c0 1.929-1.571 3.5-3.5 3.5zm0-5c-.828 0-1.501.673-1.501 1.5s.673 1.5 1.501 1.5c.827 0 1.5-.673 1.5-1.5s-.673-1.5-1.5-1.5z"/><ellipse fill="#FFF" cx="27.063" cy="83.402" rx="14.5" ry="12.5"/><path fill="#005A95" d="M27.063 96.902c-8.547 0-15.5-6.057-15.5-13.5 0-7.444 6.953-13.5 15.5-13.5s15.5 6.056 15.5 13.5c0 7.443-6.954 13.5-15.5 13.5zm0-25c-7.443 0-13.5 5.159-13.5 11.5s6.057 11.5 13.5 11.5c7.444 0 13.5-5.159 13.5-11.5s-6.057-11.5-13.5-11.5z"/><path fill="#005A95" d="M27.063 87.895c-3.29 0-5.5-1.206-5.5-3s2.21-3 5.5-3 5.5 1.206 5.5 3-2.21 3-5.5 3zm0-4c-2.415 0-3.5.795-3.5 1s1.085 1 3.5 1 3.5-.795 3.5-1-1.085-1-3.5-1z"/><ellipse fill="#87E4B9" cx="27.062" cy="104.902" rx="6.5" ry="5"/><path fill="#005A95" d="M38.563 109.402a1 1 0 0 1-1-1c0-2.926-1.005-5.715-2.829-7.853a1 1 0 0 1 1.521-1.299c2.133 2.499 3.308 5.749 3.308 9.151 0 .552-.448 1.001-1 1.001zm-23 0a1 1 0 0 1-1-1c0-3.401 1.174-6.65 3.308-9.149a.997.997 0 0 1 1.409-.11.997.997 0 0 1 .111 1.409c-1.824 2.138-2.829 4.926-2.829 7.852a1 1 0 0 1-.999.998z"/><path fill="#FFF" d="M17.074 106.325c2.396 2.406 4.99 9.025 2.595 11.433-2.396 2.407-8.985-.199-11.381-2.607a6.105 6.105 0 0 1 .1-8.725c2.396-2.408 6.289-2.509 8.686-.101z"/><path fill="#005A95" d="M16.251 119.763c-.898 0-1.997-.198-3.094-.501-2.396-.7-4.792-2.005-6.091-3.409a7.212 7.212 0 0 1-2.097-5.113c0-1.907.799-3.712 2.097-5.116 1.297-1.403 3.194-2.105 5.092-2.105 1.896 0 3.693.702 5.091 2.105 1.396 1.404 2.694 3.813 3.395 6.118.898 3.01.6 5.314-.799 6.72-.799.902-2.096 1.301-3.594 1.301zm-3.993-14.141c-1.398 0-2.696.603-3.694 1.604-.999 1.003-1.498 2.308-1.598 3.711 0 1.404.5 2.708 1.498 3.61 1.097 1.104 3.194 2.308 5.291 2.81 2.196.601 3.894.501 4.691-.303.799-.802.898-2.606.3-4.713-.6-2.007-1.697-4.112-2.795-5.315-1.097-.902-2.295-1.404-3.693-1.404z"/><path fill="none" d="M9.786 107.828l-1.398-1.402"/><path fill="#005A95" d="M9.786 108.831c-.3 0-.5-.1-.699-.3l-1.398-1.403a.976.976 0 0 1 0-1.405c.399-.4.998-.4 1.398 0l1.396 1.405a.972.972 0 0 1 0 1.403c-.198.201-.498.3-.697.3z"/><path fill="none" d="M13.28 106.726v-2.006"/><path fill="#005A95" d="M13.28 107.729c-.599 0-.999-.401-.999-1.003v-2.007c0-.602.399-1.003.999-1.003s.998.401.998 1.003v2.007c0 .601-.4 1.003-.998 1.003z"/><path fill="none" d="M8.687 111.44H6.69"/><path fill="#005A95" d="M8.687 112.444H6.69c-.599 0-.998-.401-.998-1.004 0-.604.399-1.003.998-1.003h1.997c.6 0 .998.399.998 1.003 0 .602-.499 1.004-.998 1.004z"/><path fill="#FFF" d="M37.04 106.325c-2.396 2.406-4.992 9.025-2.597 11.433 2.396 2.407 8.985-.199 11.382-2.607a6.104 6.104 0 0 0-.101-8.725c-2.395-2.408-6.288-2.509-8.684-.101z"/><path fill="#005A95" d="M37.339 119.763c-1.497 0-2.696-.398-3.594-1.303-2.995-3.01 0-10.229 2.596-12.838 1.297-1.303 3.094-2.005 5.091-2.105 1.896 0 3.694.804 5.091 2.105 2.795 2.809 2.795 7.422.101 10.13-1.398 1.404-3.794 2.708-6.09 3.409-1.298.403-2.296.602-3.195.602zm3.994-14.141c-1.398 0-2.596.502-3.595 1.506-2.296 2.307-4.393 8.123-2.596 10.028.799.802 2.596.902 4.692.301 1.997-.602 4.094-1.705 5.292-2.809a5.132 5.132 0 0 0-.101-7.321c-.997-1.203-2.295-1.705-3.692-1.705zm-4.293.703z"/><path fill="none" d="M44.328 107.828l1.398-1.402"/><path fill="#005A95" d="M44.328 108.831c-.301 0-.499-.1-.699-.3a.972.972 0 0 1 0-1.403l1.396-1.405c.399-.4.998-.4 1.397 0a.974.974 0 0 1 0 1.405l-1.397 1.403a.897.897 0 0 1-.697.3z"/><path fill="none" d="M40.833 106.726v-2.006"/><path fill="#005A95" d="M40.833 107.729c-.6 0-.999-.401-.999-1.003v-2.007c0-.602.398-1.003.999-1.003.6 0 .998.401.998 1.003v2.007a1.002 1.002 0 0 1-.998 1.003z"/><path fill="none" d="M45.426 111.44h1.996"/><path fill="#005A95" d="M47.422 112.444h-1.997c-.599 0-.998-.401-.998-1.004 0-.604.399-1.003.998-1.003h1.997c.599 0 .999.399.999 1.003 0 .602-.4 1.004-.999 1.004z"/><circle fill="#87E4B9" cx="13.625" cy="112.402" r="2.5"/><ellipse fill="#87E4B9" cx="40.125" cy="112.401" rx="2.5" ry="2.517"/><path fill="#87E4B9" d="M30.5 48.902c0 3.369-2.736 6-6 6 3.368 0 6 2.735 6 6 0-3.369 2.737-6 6-6-3.263 0-6-2.738-6-6zm50.988-16.688c0 2.708-2.194 4.915-4.892 4.915 2.696 0 4.892 2.207 4.892 4.915 0-2.708 2.197-4.915 4.893-4.915-2.798-.001-4.893-2.207-4.893-4.915zM71.001 51.328c0 5.291-4.246 9.563-9.501 9.563 5.255 0 9.501 4.271 9.501 9.563 0-5.291 4.245-9.563 9.499-9.563-5.254 0-9.499-4.273-9.499-9.563z"/><path fill="#005A95" d="M25.054 91.902a3.02 3.02 0 0 1-2.574-1.458 1 1 0 1 1 1.715-1.029 1.002 1.002 0 0 0 1.859-.513v-2a1 1 0 0 1 2 0v2c0 1.654-1.346 3-3 3z"/><path fill="#005A95" d="M29.054 91.902c-1.654 0-3-1.347-3-3v-2a1 1 0 0 1 2 0v2a1.002 1.002 0 0 0 1.868.499.999.999 0 1 1 1.73 1.003 3.013 3.013 0 0 1-2.598 1.498z"/><path fill="#87E4B9" d="M99.587 9.992c1.212.999 1.313 2.896.201 4.093-1.01.999-2.625 1.1-3.737.2-4.649-3.793-10.407-5.89-16.469-5.89-6.063 0-11.825 2.096-16.473 5.89-1.111.899-2.728.799-3.738-.2-.505-.499-.809-1.198-.809-1.997 0-.798.304-1.597 1.012-2.097C65.231 5.4 72.203 2.904 79.681 2.904c7.275-.1 14.249 2.497 19.906 7.088z"/><path fill="#FFF" d="M97.967 11.518c1.11.911 1.211 2.735.203 3.749-1.516.101-2.423-1.014-3.433-1.926-4.236-3.547-9.586-5.472-15.136-5.472-5.552 0-10.899 1.925-15.14 5.472-1.008.812-1.21 1.926-3.43 1.926-.506-.508-.707-1.114-.707-1.824 0-.708.302-1.418.907-1.925 5.146-4.256 11.604-6.585 18.368-6.585 6.763-.103 13.223 2.228 18.368 6.585z"/><path fill="#005A95" d="M97.8 15.902a3.797 3.797 0 0 1-2.378-.838c-4.545-3.708-10.021-5.667-15.84-5.667-5.823 0-11.3 1.959-15.839 5.665-1.465 1.181-3.74 1.055-5.075-.264-.713-.705-1.105-1.667-1.105-2.708 0-1.208.523-2.271 1.436-2.914 5.839-4.742 13.01-7.271 20.684-7.271l.404-.003c7.171 0 14.321 2.598 20.132 7.313a3.737 3.737 0 0 1 1.338 2.639 3.919 3.919 0 0 1-1.034 2.914 3.837 3.837 0 0 1-2.723 1.134zM79.582 7.395c6.285 0 12.198 2.113 17.102 6.114.685.554 1.764.494 2.4-.135.326-.352.509-.869.475-1.389a1.715 1.715 0 0 0-.607-1.222C93.5 6.34 86.799 3.903 80.085 3.903l-.391.002c-7.224 0-13.958 2.374-19.489 6.864-.565.4-.643.997-.643 1.319 0 .503.183.959.512 1.285.637.628 1.714.693 2.406.133 4.828-3.939 10.903-6.111 17.102-6.111z"/><path fill="#FFF" d="M59.563 77.902h4v13h-4zm12 0h4v13h-4zm12 0h4v13h-4zm12 0h4v13h-4z"/><circle fill="#005A95" cx="31.5" cy="79.902" r="1"/><circle fill="#005A95" cx="22.5" cy="79.902" r="1"/></svg>