<svg xmlns="http://www.w3.org/2000/svg" width="120" height="137" viewBox="-1.5 0 120 137"><circle fill="#EFEFEF" cx="58.5" cy="77" r="60"/><circle fill="#FFF" cx="57.5" cy="31" r="5"/><circle fill="#FFF" cx="59.5" cy="36" r="8"/><circle fill="#FFF" cx="61.5" cy="55" r="8"/><circle fill="#FFF" cx="61.5" cy="45" r="4"/><circle fill="#FFF" cx="69.5" cy="65" r="8"/><path fill="#FFF" d="M10.472 88c-5.639 0-9.848-5.219-8.816-10.925L3.5 64h14l1.867 13.075C20.321 82.781 16.032 88 10.472 88z"/><path fill="#87E4B9" d="M10.472 89C4.833 89 1.5 84 1.5 79c0 0 3 0 5 1s5 1 9 0l4-1c0 5-6 10-9.028 10z"/><path fill="#005A95" d="M10.472 89a9.856 9.856 0 0 1-7.578-3.561C.926 83.083.116 79.968.672 76.896L2.631 63h15.736l1.989 13.934c.51 3.047-.341 6.16-2.338 8.52C16.109 87.707 13.359 89 10.472 89zM4.369 65L2.646 77.215c-.456 2.526.196 5.042 1.783 6.942A7.862 7.862 0 0 0 10.472 87c2.297 0 4.492-1.035 6.02-2.841a8.51 8.51 0 0 0 1.888-6.919L16.633 65H4.369z"/><path fill="#FFF" d="M17.5 103c-.597-1.741-3.5-3-7-3s-6.487 1.354-7 3h14z"/><path fill="#005A95" d="M18.9 104H2.142l.404-1.297C3.213 100.559 6.559 99 10.5 99c3.999 0 7.192 1.479 7.946 3.676L18.9 104zm-13.039-2h9.317c-1.084-.581-2.718-1-4.678-1-1.864 0-3.525.427-4.639 1z"/><path fill="#FFF" d="M61.5 6h-2v6h-6V6h-3V3c-.018-.875 1.125-1.982 2-2h8c.873-.017 1.984 1.123 2 2v3h-1z"/><path fill="#005A95" d="M60.5 13h-8V7h-3V3c-.014-.666.336-1.415.962-2.033C51.07.366 51.805.014 52.48 0h8.02c1.415 0 2.975 1.561 3 2.982V7h-3v6zm-6-2h4V5h3V3c-.006-.315-.666-1-.98-1H52.5c-.344.007-1.002.693-1 .979V5h3v6z"/><path fill="#FFF" d="M61.5 46V36l1-1v-3c-.006-.711-.3-1.008-1-1h-10c-.699.006-1.005.291-1 1v3l1 1v10c.068 7.667-8.086 18-8.003 27.545L43.5 99.95c0 2.03 1.001 3.047 3.004 3.047l20.025.003c2.002 0 3.004-1.016 3.003-3.047l-.003-26.405C69.443 64 61.566 53.661 61.5 46z"/><path fill="#87E4B9" d="M58.468 46V36l1-1v-3c-.006-.711-.3-1.008-1-1l-6.968.003c-.699.006-1.005.291-1 1v3l1 1V46c.068 7.667-8.086 18.003-8.003 27.548l.003 26.405c0 2.031 1.001 3.047 3.004 3.047h16.993c2.002 0 3.004-1.016 3.003-3.047l-.003-26.405C66.411 64 58.535 53.661 58.468 46z"/><path fill="#005A95" d="M66.529 104l-20.025-.003c-2.544 0-4.004-1.476-4.004-4.047l-.003-26.405c-.045-5.232 2.218-10.525 4.407-15.643 1.865-4.36 3.626-8.478 3.596-11.893v-9.595l-1-1V32c-.009-1.239.736-1.989 1.992-2H61.5c1.252 0 1.988.745 2 1.992v3.422l-1 1V46c.029 3.414 1.766 7.537 3.604 11.901 2.152 5.115 4.379 10.406 4.426 15.638l.004 26.414c.001 1.281-.35 2.288-1.038 2.986-.695.706-1.691 1.061-2.967 1.061zM51.5 34.586l1 1V46c.034 3.825-1.808 8.13-3.757 12.688-2.108 4.928-4.288 10.024-4.246 14.848L44.5 99.95c0 1.473.563 2.047 2.004 2.047l20.025.003c.719 0 1.236-.156 1.539-.464.309-.312.464-.845.464-1.583l-.003-26.405c-.045-4.83-2.192-9.935-4.271-14.871-1.916-4.551-3.726-8.85-3.759-12.668V35.586l1-1V32h-10l.001 2.586z"/><path fill="#FFF" d="M51.5 36h10v4h-10z"/><path fill="#005A95" d="M62.5 41h-12v-6h12v6zm-10-2h8v-2h-8v2z"/><path fill="#FFF" d="M48.5 74.042l16.042.042L64.5 96h-16z"/><path fill="#005A95" d="M65.498 97H47.5V73h18l-.002 24zM49.5 95h14.002L63.5 75h-14v20z"/><path fill="#87E4B9" d="M56.598 77.902a3.001 3.001 0 0 1 .055 6 3 3 0 1 1-.055-6z"/><path fill="#FFF" d="M56.987 80a1.5 1.5 0 1 1 .025 3.001A1.5 1.5 0 0 1 56.987 80z"/><path fill="#005A95" d="M51.495 90.984h10v2h-10zM51.5 87h10v2h-10zm-1-82h10v2h-10z"/><path fill="#FFF" d="M37.673 102.68L32.5 99.984l-2-.016-5.083 2.682c-.153.106-.075.351.114.351l12.031.031c.19-.003.265-.245.111-.352z"/><path fill="#005A95" d="M37.56 104.031L25.529 104a1.19 1.19 0 0 1-1.137-.836 1.187 1.187 0 0 1 .559-1.398l5.083-2.682a1.28 1.28 0 0 1 .474-.115l2 .016c.158.002.314.041.454.113l5.173 2.694a1.4 1.4 0 0 1 .113.067c.427.301.609.836.453 1.334a1.192 1.192 0 0 1-1.133.838h-.008zm-8.784-2.022l5.473.015-1.997-1.041-1.508-.012-1.968 1.038z"/><path fill="#87E4B9" d="M87.098 80.713c.334-7.654-7.598-7.599-7.598-7.599s-.057 7.931 7.598 7.599z"/><path fill="#005A95" d="M86.637 81.723c-2.326 0-4.223-.721-5.635-2.143-2.501-2.52-2.503-6.313-2.502-6.473l.007-.986.986-.007c.428 0 4.149.073 6.597 2.629 1.439 1.504 2.115 3.526 2.008 6.014l-.041.915-.916.04c-.17.009-.34.011-.504.011zm-6.033-7.502c.172 1.088.627 2.758 1.826 3.959.914.918 2.145 1.43 3.66 1.526-.095-1.474-.578-2.677-1.445-3.58-1.204-1.258-2.927-1.73-4.041-1.905z"/><path fill="#87E4B9" d="M86.988 80.713c-.33-7.654 7.599-7.599 7.599-7.599s.058 7.931-7.599 7.599z"/><path fill="#005A95" d="M87.449 81.723c-.164 0-.333-.002-.504-.011l-.918-.04-.039-.916c-.106-2.486.568-4.51 2.01-6.014 2.447-2.555 6.168-2.628 6.584-2.628h.993l.012.993c.001.16-.001 3.953-2.501 6.473-1.412 1.422-3.309 2.143-5.637 2.143zm6.037-7.502c-1.112.176-2.838.646-4.045 1.905-.865.903-1.352 2.104-1.445 3.58 1.521-.099 2.755-.613 3.67-1.535 1.202-1.211 1.65-2.87 1.82-3.95zM9.5 88h2v12h-2zm21 .375h2v12h-2z"/><path fill="#FFF" d="M113.5 99h-38V85c0-3 2-5 5-5h27c3.113 0 6 1.885 6 5v14z"/><path fill="#005A95" d="M114.5 100h-40V85c0-3.532 2.468-6 6-6h27c3.99 0 7 2.579 7 6v15zm-38-2h36V85c0-2.598-2.576-4-5-4h-27c-2.43 0-4 1.57-4 4v13z"/><path fill="#87E4B9" d="M114.5 84c0-3-2-4-5-4h-14v19h19V84z"/><path fill="#FFF" d="M95.5 99h-16V87c0-2 1-3 3-3h13v15z"/><path fill="#005A95" d="M96.5 100h-18V87c0-2.542 1.458-4 4-4h14v17zm-16-2h14V85h-12c-1.439 0-2 .561-2 2v11z"/><path fill="#87E4B9" d="M95.5 93h-16v-5h16v5z"/><path fill="#005A95" d="M96.5 94h-18v-7h18v7zm-16-2h14v-3h-14v3z"/><path fill="#FFF" d="M112.5 103h-34c-2.699 0-5-2.302-5-5v-1h44v1c0 2.698-2.303 5-5 5z"/><path fill="#005A95" d="M112.5 104h-34c-3.252 0-6-2.748-6-6v-2h46v2c0 3.252-2.748 6-6 6zm-38-6c0 2.131 1.869 4 4 4h34c2.131 0 4-1.869 4-4h-42z"/><path fill="#FFF" d="M95 84h3.5v4s0 2 2 2 2-2 2-2v-4h4v6s0 2 2 2 2-2 2-2v-6h3m-74.979-1.521c0 3.578-3.134 6.479-7 6.479s-7-2.901-7-6.479c0-3.576.959-24.458.959-24.458h12.083s.958 20.905.958 24.458z"/><path fill="#87E4B9" d="M38.521 83.457c0 3.578-3.134 6.479-7 6.479s-7-2.9-7-6.479c0-3.577-.062-8.457.959-7.457 2.021 2 9.021-2 12.083 0-.063 2 .958 3.904.958 7.457z"/><path fill="#005A95" d="M31.521 89.958c-4.411 0-8-3.354-8-7.479 0-3.56.921-23.649.96-24.502l.044-.954h13.993l.044.954c.039.854.959 20.967.959 24.502 0 4.125-3.589 7.479-8 7.479zm-5.086-30.937c-.187 4.131-.915 20.379-.915 23.458 0 3.021 2.691 5.479 6 5.479s6-2.458 6-5.479c0-3.056-.727-19.322-.914-23.458H26.435z"/><path fill="#FFF" d="M48.188 57.516l5.936 5.774a3.742 3.742 0 0 0 2.655 1.1c.961 0 1.921-.367 2.654-1.1L65 57.797l-2.893-7.8-5.331 5.33-5.732-5.732c.001 0-2.31 6.702-2.856 7.921z"/><path fill="none" d="M56.777 56.741l-5.311-5.311c-.599 1.717-1.562 4.454-2.099 5.838l5.453 5.305c1.06 1.06 2.865 1.05 3.904.01l2.536-2.501a239.469 239.469 0 0 0-2.152-5.671l-2.331 2.33zm4.935-4.934l-1.065 1.067c.696 1.71 1.465 3.744 2.178 5.667l1.015-1.001-2.128-5.733z"/><path fill="#005A95" d="M62.503 48.188l-2.651 2.652-1.564 1.565-1.509 1.509-6.156-6.156-.523 1.511c-.639 1.853-2.391 6.871-2.825 7.837l-.286.638 6.427 6.252c.898.898 2.092 1.393 3.362 1.393s2.464-.495 3.356-1.388l1.882-1.857 1.565-1.544 2.581-2.546-3.659-9.866zm.319 10.352l-1.563 1.542-2.536 2.501c-1.039 1.04-2.844 1.05-3.904-.01l-5.453-5.305c.537-1.384 1.5-4.121 2.099-5.838l5.311 5.311 2.33-2.33 1.538-1.538 1.066-1.067 2.126 5.732-1.014 1.002z"/><path fill="#87E4B9" d="M58.501 23a1.001 1.001 0 0 1-.996-1.105c.018-.165.463-4.066 3.456-6.347 1.827-1.393 4.166-1.867 6.951-1.41a.999.999 0 1 1-.324 1.974c-2.225-.366-4.042-.02-5.414 1.027-2.314 1.764-2.676 4.935-2.679 4.967a1.001 1.001 0 0 1-.994.894zm-4.003 0a1 1 0 0 1-.993-.892c-.005-.047-.391-3.235-2.691-4.979-1.371-1.039-3.19-1.381-5.402-1.018a1 1 0 0 1-.324-1.974c2.785-.457 5.124.017 6.951 1.41 2.993 2.281 3.438 6.182 3.456 6.347A1 1 0 0 1 54.498 23zm-4.959 5.186a1 1 0 0 1-.988-.854c-.007-.046-.731-4.701-4.02-6.555-1.976-1.114-4.548-1.022-7.643.275a1 1 0 1 1-.773-1.845c3.702-1.552 6.867-1.607 9.411-.166 4.144 2.346 4.971 7.773 5.004 8.003a1 1 0 0 1-.991 1.142zm13.962-.277a1 1 0 0 1-.986-1.174c.032-.189.859-4.653 4.485-6.722 2.296-1.312 5.138-1.349 8.438-.111.518.194.778.771.586 1.288a1.001 1.001 0 0 1-1.287.585c-2.723-1.02-4.99-1.026-6.746-.025-2.82 1.609-3.502 5.297-3.51 5.334a.993.993 0 0 1-.98.825z"/><g fill="#005A95"><path d="M107.5 79.059V70c0-1.25-.751-2-2-2v-3c0-.535-.463-1-1-1s-1 .465-1 1v3c-1.249 0-2 .75-2 2v9l-.656.057c.131.295.213.623.213.994v.143c.319.17.637.311.998.414.533.151 1.073.279 1.616.394l3.173-1M103.5 70h2v9.057h-2V70z"/><path d="M107.508 64.296l-1.541-1.275a2.37 2.37 0 0 0 .533-1.513c0-1.202-.803-2.512-2.001-3.338-1.198.825-1.999 2.135-1.999 3.338 0 .562.188 1.099.531 1.513l-1.541 1.275a4.373 4.373 0 0 1-.99-2.788c0-2.092 1.417-4.257 3.525-5.389l.474-.253.474.253c2.109 1.132 3.527 3.298 3.527 5.389a4.386 4.386 0 0 1-.992 2.788z"/></g><path fill="#FFF" d="M51.501 112.846a6.054 6.054 0 0 0 2.647-.623c2.322-1.138 5.292-1.908 7.887-1.936 3.184-.031 6.438 1.795 9.585.458a15.186 15.186 0 0 0 3.368-2.011c.115-.092 1.271-1.278 1.425-1.225.801 5.072-4.138 17.014-10.547 18.281-3.456.684-6.368-.424-10.693-1.773-2.374-.742-4.694-.746-7.082 0-4.323 1.351-7.539 2.457-10.998 1.773-6.397-1.268-11.311-13.195-10.508-18.281.154-.055 1.307 1.133 1.424 1.225 1.005.791 2.377 1.498 3.581 2.011 3.145 1.337 6.152-.489 9.336-.458 2.607.025 5.573.802 7.887 1.936a6.065 6.065 0 0 0 2.688.623zm15.241 2.981c-4.191-1.978-9.81.282-11.572 3.43 3.856 2.35 10.84 1.145 11.572-3.43zm-30.517 0c.729 4.575 7.713 5.78 11.569 3.43-1.762-3.148-7.379-5.407-11.569-3.43z"/><path fill="#005A95" d="M63.745 127c-2.46 0-4.764-.729-7.681-1.652l-1.188-.373c-2.205-.691-4.276-.69-6.486-.002l-.678.213c-3.106.975-5.789 1.814-8.46 1.814-.81 0-1.579-.074-2.352-.227-7.196-1.426-12.124-14.215-11.302-19.42l.093-.588.723-.256.184-.002c.498 0 .818.26 1.87 1.281l.192.186c.771.604 1.962 1.271 3.323 1.851 1.49.632 3.313.368 5.237-.037 1.163-.247 2.364-.501 3.627-.501 2.75.027 5.858.788 8.408 2.036a5.029 5.029 0 0 0 2.229.522 5.095 5.095 0 0 0 2.228-.522c2.549-1.248 5.658-2.009 8.315-2.036h.004c1.342 0 2.57.251 3.759.492 2.021.414 3.942.681 5.442.046a14.119 14.119 0 0 0 3.142-1.876l.147-.147c1.061-1.03 1.383-1.293 1.883-1.293h.172l.734.259.092.588c.822 5.203-4.123 17.99-11.34 19.418-.773.152-1.531.226-2.317.226zm-12.11-4.54c1.267 0 2.558.203 3.838.604l1.194.375c3.59 1.137 6.25 1.92 9.005 1.371 5.158-1.021 9.309-9.937 9.782-15.17a16.118 16.118 0 0 1-3.442 2.023c-.902.384-1.865.57-2.947.57-1.254 0-2.485-.252-3.678-.495-1.142-.233-2.221-.453-3.271-.453-2.41.022-5.268.726-7.529 1.833a7.026 7.026 0 0 1-3.085.727 7.023 7.023 0 0 1-3.128-.727c-2.295-1.124-5.083-1.809-7.458-1.833h-.002c-1.124 0-2.171.222-3.281.457-1.139.241-2.317.491-3.532.491-1.051 0-2-.188-2.901-.57-.845-.357-2.413-1.089-3.655-2.025.468 5.234 4.602 14.153 9.744 15.172a10.03 10.03 0 0 0 1.964.188c2.365 0 4.791-.761 7.862-1.724l.68-.213a12.958 12.958 0 0 1 3.84-.601zm8.09-1.03c-.002 0 0 0 0 0-1.877 0-3.68-.469-5.075-1.318l-.823-.502.471-.84c1.52-2.715 5.295-4.685 8.978-4.685 1.406 0 2.717.282 3.895.838l.68.32-.119.741c-.604 3.762-4.459 5.446-8.007 5.446zm-3.064-2.549c.911.357 1.965.549 3.062.549 2.346 0 5-.945 5.823-3.002a7.348 7.348 0 0 0-2.271-.343c-2.53 0-5.173 1.154-6.614 2.796zm-13.419 2.549c-3.438 0-7.408-1.703-8.004-5.445l-.119-.74.679-.32c1.177-.556 2.487-.838 3.892-.838 3.682 0 7.457 1.971 8.976 4.684l.471.842-.823.5c-1.394.848-3.196 1.317-5.072 1.317zm-5.822-5.002c.822 2.057 3.477 3.002 5.821 3.002 1.098 0 2.151-.19 3.062-.549-1.441-1.642-4.083-2.796-6.613-2.796a7.35 7.35 0 0 0-2.27.343z"/><path fill="#87E4B9" d="M60.807 100.795c1.943 1.036.911 6.048-1.053 9.191-.109.174-.223.346-.337.511l.006.039c-1.53.264-3.07.722-4.436 1.304l-.002-.005c.37-.989.581-2.147.581-3.39 0-1.514-.316-3.234-.848-4.725 2.068-2.118 4.676-3.681 6.089-2.925z"/><path fill="#FFF" d="M60.732 102.921c1.672.853.785 4.972-.903 7.556-.095.144-.19.284-.289.42l.005.033c-1.315.217-2.64.592-3.814 1.07l-.002-.004c.318-.814.5-1.768.5-2.786 0-1.244-.272-2.659-.729-3.884 1.777-1.742 4.02-3.026 5.232-2.405z"/><path fill="#005A95" d="M54.438 113.161l-.525-1.313.136-.363c.338-.904.518-1.955.518-3.037 0-1.383-.288-2.982-.79-4.391l-.209-.588.436-.445c.783-.803 3.527-3.422 5.964-3.422.483 0 .925.104 1.312.313.469.249 1.091.781 1.389 1.896.657 2.457-.572 6.319-2.064 8.707l-.138.215.087.584-.957.205a19.348 19.348 0 0 0-4.215 1.238l-.944.401zm1.425-9.166c.45 1.458.703 3.048.703 4.45 0 .609-.047 1.213-.14 1.797a21.469 21.469 0 0 1 2.365-.606l.117-.182c1.416-2.267 2.252-5.531 1.826-7.127-.063-.231-.182-.535-.397-.649a.775.775 0 0 0-.369-.076c-.976 0-2.581.945-4.105 2.393z"/><path fill="#87E4B9" d="M51.501 112.846c-1.643.006-2.593-.607-3.478-.986l.002-.004c-.374-.994-.589-2.16-.589-3.408 0-3.473 1.756-8.446 4.064-8.446 2.353 0 4.064 5.065 4.064 8.446 0 1.24-.211 2.398-.581 3.389l.002.005c-.945.398-1.858.999-3.484 1.004z"/><path fill="#FFF" d="M52.564 113c-1.238.004-1.955-.533-2.622-.865l.002-.003c-.282-.873-.444-1.896-.444-2.989 0-3.045 1.324-7.408 3.064-7.408 1.773 0 3.064 4.443 3.064 7.408 0 1.088-.159 2.104-.438 2.972l.002.005c-.714.349-1.402.876-2.628.88z"/><path fill="#005A95" d="M51.482 113.846c-1.561 0-2.58-.478-3.399-.859-.155-.073-.304-.145-.452-.207l-.977-.416.288-.577a10.99 10.99 0 0 1-.506-3.339c0-3.391 1.692-9.446 5.064-9.446s5.064 6.056 5.064 9.446c0 1.175-.177 2.328-.514 3.363l.225.563-.901.387c-.168.071-.335.149-.506.229-.814.38-1.827.852-3.366.855h-.02zm-2.65-2.719l.1.047c.705.33 1.435.672 2.55.672v1l.017-1c1.098-.003 1.792-.326 2.527-.669.051-.022.102-.048.152-.069a8.993 8.993 0 0 0 .388-2.66c0-3.342-1.69-7.446-3.064-7.446-1.266 0-3.064 3.851-3.064 7.446a8.959 8.959 0 0 0 .394 2.679z"/><path fill="#87E4B9" d="M48.026 111.855l-.002.004a20.304 20.304 0 0 0-4.44-1.317l.009-.038a10.317 10.317 0 0 1-.343-.518c-1.965-3.145-2.997-8.155-1.053-9.191 1.415-.756 4.021.807 6.089 2.926-.53 1.492-.848 3.213-.848 4.727-.001 1.247.214 2.411.588 3.407z"/><path fill="#FFF" d="M48.314 111.997l-.001.003a13.335 13.335 0 0 0-3.195-1.064l.006-.031a8.847 8.847 0 0 1-.247-.418c-1.414-2.541-2.156-6.592-.758-7.428 1.018-.611 2.893.65 4.38 2.363-.381 1.206-.61 2.598-.61 3.82a8.796 8.796 0 0 0 .425 2.755z"/><path fill="#005A95" d="M48.5 113.146l-.87-.369a19.43 19.43 0 0 0-4.219-1.25l-1.039-.184.148-.642a8.52 8.52 0 0 1-.118-.187c-1.492-2.388-2.723-6.248-2.066-8.705.298-1.117.92-1.649 1.39-1.899a2.753 2.753 0 0 1 1.311-.312c2.437 0 5.181 2.618 5.964 3.422l.435.445-.208.588c-.502 1.411-.79 3.012-.79 4.391 0 1.087.182 2.144.525 3.058l.153.408-.616 1.236zm-4.284-3.501a21.34 21.34 0 0 1 2.363.61 11.493 11.493 0 0 1-.143-1.81c0-1.398.253-2.988.703-4.449-1.524-1.449-3.128-2.395-4.104-2.395a.79.79 0 0 0-.37.074c-.217.116-.336.418-.399.65-.426 1.596.411 4.859 1.829 7.129l.121.191z"/><path fill="#87E4B9" d="M23.5 42c0 3.369-2.734 6-6 6 3.369 0 6 2.734 6 6 0-3.369 2.738-6 6-6-3.264 0-6-2.737-6-6zm59.502-6c0 5.291-4.246 9.563-9.502 9.563 5.256 0 9.502 4.271 9.502 9.563 0-5.291 4.244-9.563 9.498-9.563-5.254 0-9.498-4.273-9.498-9.563z"/><path fill="none" d="M100.5 89c.807 0 .988-.55 1-1.012V84h-2v4c.012.45.193 1 1 1z"/><path fill="none" d="M111.5 90c0 1.206-.799 3-3 3s-3-1.794-3-3v-5h-2v3c0 1.206-.799 3-3 3s-3-1.794-3-3v-3h-1v13h17V85h-2v5z"/><path fill="none" d="M108.5 91c.807 0 .988-.55 1-1.012V84h-2v6c.012.45.193 1 1 1z"/><path fill="#005A95" d="M109.5 84v5.988c-.012.462-.193 1.012-1 1.012s-.988-.55-1-1v-6h-6v3.988c-.012.462-.193 1.012-1 1.012s-.988-.55-1-1v-4h-3v1h1v3c0 1.206.799 3 3 3s3-1.794 3-3v-3h2v5c0 1.206.799 3 3 3s3-1.794 3-3v-5h2v-1h-4zM94 84c0 .366.206.673.5.848v-1.693A.98.98 0 0 0 94 84zm2.5 1v-2H95a.968.968 0 0 0-.5.152v1.693A.946.946 0 0 0 95 85h1.5z"/><path fill="#FFF" d="M99.5 84h2v-1h6v1h2v-1h3.898c-.265-1.124-1.16-2-3.898-2h-13v2h3v1z"/><path fill="#FFF" d="M101.5 83h6v1h-6z"/><path fill="#005A95" d="M102.5 83h4v1h-4z"/><path fill="#FFF" d="M112.424 83H109.5v1h3c0-.344-.02-.682-.076-1z"/><path fill="#005A95" d="M113.424 83H110.5v1h3c0-.344-.02-.682-.076-1z"/><path fill="#FFF" d="M96.5 83h3v1h-3z"/><path fill="#005A95" d="M95.5 83h3v1h-3z"/><path fill="#005A95" d="M109.5 79h-15v4.152A.97.97 0 0 1 95 83h1.5v-2h13c2.738 0 3.635.876 3.898 2 .074.318.102.656.102 1v12h-17V85H95a.968.968 0 0 1-.5-.152V98h21V84c0-2.281-1.041-5-6-5z"/><circle fill="#005A95" cx="98.5" cy="84" r="1"/><circle fill="#005A95" cx="102.5" cy="84" r="1"/><circle fill="#005A95" cx="106.5" cy="84" r="1"/><circle fill="#005A95" cx="110.5" cy="84" r="1"/><path fill="#FFF" d="M103.5 70v1.898L105.398 70zm2 9v-1.271l-2 1.271zm0-7l-2 2.001v2.17l2-2z"/><path fill="#FFF" d="M105.5 75.829l-2 2.001V79l2-1z"/><path fill="#87E4B9" d="M105.5 70h-.102l-1.898 1.898v2.103l2-2.001zm0 4l-2 2v2.001l2-2.001z"/><circle fill="#87E4B9" cx="29.5" cy="74" r="1"/><circle fill="#87E4B9" cx="34.5" cy="71" r="1"/><circle fill="#87E4B9" cx="29.5" cy="68" r="1"/><circle fill="#FFF" cx="33.5" cy="78" r="1"/><circle fill="#FFF" cx="34.5" cy="83" r="1"/><circle fill="#FFF" cx="28.5" cy="80" r="1"/><circle fill="#FFF" cx="29.5" cy="85" r="1"/><path fill="#87E4B9" d="M54.5 7h4v1h-4zm30.893 102c0 2.708-2.195 4.915-4.893 4.915 2.695 0 4.893 2.207 4.893 4.915 0-2.708 2.197-4.915 4.894-4.915-2.799-.001-4.894-2.207-4.894-4.915z"/><circle fill="none" stroke="#005A95" stroke-width="2" stroke-miterlimit="10" cx="56.5" cy="81" r="3"/></svg>