<svg xmlns="http://www.w3.org/2000/svg" width="120" height="137" viewBox="-0.5 1 120 137"><circle fill="#EFEFEF" cx="59.5" cy="78" r="60"/><path fill="#FFF" d="M104.5 125s-.191-5.969-.191-3.355V17.299H13.292v90.083L13.5 125h-8V10h108v115h-9zM92.5 8v2h-67V4h67v4z"/><path fill="#005A95" d="M114.5 125h-10.969l-.03-.968a246.335 246.335 0 0 0-.129-3.392h-.063V17.299H14.292v89.084l.22 18.617H4.5V8h20V3h69v5h21v117zm-9.032-2h7.032V10H6.5v113h6.988l-.196-16.605V15.299h92.017v104.756c.002.014.004.028.004.043h.002v.008c.069.593.107 1.501.153 2.894zM26.5 8h65V5h-65v3z"/><path fill="#87E4B9" d="M9.5 13h25v37h-25z"/><path fill="#FFF" d="M33.5 49h-23l23-35zm25 0h-23l23-35z"/><path fill="#87E4B9" d="M34.5 13h25v37h-25z"/><path fill="#FFF" d="M58.5 49h-23l23-35z"/><path fill="#87E4B9" d="M59.5 13h25v37h-25z"/><path fill="#FFF" d="M83.5 49h-23l23-35z"/><path fill="#87E4B9" d="M84.5 13h25v37h-25z"/><path fill="#FFF" d="M108.5 49h-23l23-35z"/><path fill="#87E4B9" d="M9.5 50h25v37h-25z"/><path fill="#FFF" d="M33.5 86h-23l23-35z"/><path fill="#87E4B9" d="M34.5 50h25v37h-25z"/><path fill="#FFF" d="M58.5 86h-23l23-35z"/><path fill="#87E4B9" d="M59.5 50h25v37h-25z"/><path fill="#FFF" d="M83.5 86h-23l23-35z"/><path fill="#87E4B9" d="M84.5 50h25v37h-25z"/><path fill="#FFF" d="M108.5 86h-23l23-35z"/><path fill="#87E4B9" d="M9.5 87h25v37h-25z"/><path fill="#FFF" d="M33.5 123h-23l23-35z"/><path fill="#005A95" d="M35.5 124h-27V86h27.04l-.04 38zm-25-1h23V88h-23v35z"/><path fill="#FFF" d="M34.5 87h25v37h-25z"/><path fill="#005A95" d="M60.5 125H33.539V86.039H60.5V125zm-25-1.961h23.039V88H35.5v35.039z"/><path fill="#FFF" d="M59.5 87h26v37h-26z"/><path fill="#005A95" d="M86.5 125h-28V86h28v39zm-26-2h24V88h-24v35z"/><path fill="#87E4B9" d="M84.5 87h25v37h-25z"/><path fill="#FFF" d="M108.5 123h-23l23-35z"/><path fill="#005A95" d="M110.5 124h-27V86h27v38zm-25-1h23V88h-23v35z"/><path fill="#FFF" d="M84.473 81c-.57-6.119-11.529-11-24.973-11-13.443 0-24.402 4.881-24.973 11a5.543 5.543 0 0 0-.027.5V90h50v-8.5c0-.168-.014-.334-.027-.5z"/><path fill="#FFF" d="M84.473 89.45C83.902 83.637 72.941 79 59.5 79c-13.442 0-24.402 4.637-24.973 10.45a4.984 4.984 0 0 0-.027.475V97h50v-7.075c0-.159-.014-.318-.027-.475z"/><path fill="#005A95" d="M85.424 80.4c-.633-6.449-11.778-11.312-25.924-11.312-14.146 0-25.291 4.863-25.924 11.316a5.9 5.9 0 0 0-.031.563V89h1.41a5.297 5.297 0 0 1 .97-1.956H35.5v-6c0-5 11.273-10.044 24-10.044s24 5.044 24 10.044c0 .131.044-.207.044-.075v5.397A4.38 4.38 0 0 1 84.753 89h.703v-8.031c0-.187-.017-.373-.032-.569z"/><path fill="#005A95" d="M40.5 83h2v42h-2zm36 0h2v42h-2zm-18-4h2v46h-2zm0-66h2v57h-2z"/><path fill="#005A95" d="M8.5 12h102v2H8.5zm0 37h102v2H8.5z"/><path fill="#005A95" d="M33.5 13h2v74h-2zm-25 0h2v74h-2zm100 0h2v74h-2zm-25 0h2v74h-2z"/><path fill="#FFF" d="M42.5 89h16v17h-16zm18 0h16v17h-16zm-25 3h5v17h-5zm-11 32h-6l-1-6h8z"/><path fill="#005A95" d="M25.347 125h-7.694l-1.333-8h10.361l-1.334 8zm-6-2h4.306l.667-4h-5.639l.666 4z"/><path fill="#FFF" d="M100.5 124h-6l-1-6h8z"/><path fill="#005A95" d="M101.348 125h-7.693l-1.334-8h10.361l-1.334 8zm-6-2h4.307l.666-4h-5.639l.666 4zM21.5 119a1 1 0 0 1-1-1v-3a1 1 0 1 1 2 0v3a1 1 0 0 1-1 1z"/><path fill="#005A95" d="M97.5 119a1 1 0 0 1-1-1v-3a1 1 0 1 1 2 0v3a1 1 0 0 1-1 1z"/><path fill="#FFF" d="M97.5 96c-4.535 0-6 8.975-6 13.486 0 2.467 2.721 4.514 6 4.514s6-2.047 6-4.514c0-4.511-1.535-13.486-6-13.486z"/><path fill="#87E4B9" d="M99 97.5c-3.779 0-5 8.477-5 12.736 0 2.33 2.268 4.264 5 4.264s5-1.934 5-4.264c0-4.259-1.279-12.736-5-12.736z"/><path fill="#005A95" d="M97.5 115c-3.859 0-7-2.475-7-5.514 0-4.029 1.258-14.486 7-14.486 5.714 0 7 10.729 7 14.486 0 3.039-3.141 5.514-7 5.514zm0-18c-3.533 0-5 8.133-5 12.486 0 1.904 2.29 3.514 5 3.514s5-1.609 5-3.514c0-5.103-1.779-12.486-5-12.486z"/><path fill="#FFF" d="M21.5 96c-4.535 0-6 8.975-6 13.486 0 2.467 2.721 4.514 6 4.514s6-2.047 6-4.514c0-4.511-1.535-13.486-6-13.486z"/><path fill="#87E4B9" d="M23 97.5c-3.779 0-5 8.477-5 12.736 0 2.33 2.268 4.264 5 4.264s5-1.934 5-4.264c0-4.259-1.279-12.736-5-12.736z"/><path fill="#005A95" d="M21.5 115c-3.859 0-7-2.475-7-5.514 0-4.029 1.257-14.486 7-14.486 5.714 0 7 10.729 7 14.486 0 3.039-3.141 5.514-7 5.514zm0-18c-3.533 0-5 8.133-5 12.486 0 1.904 2.29 3.514 5 3.514s5-1.609 5-3.514c0-5.103-1.781-12.486-5-12.486zm96.982 28H.518c-.562 0-1.018-.448-1.018-1s.456-1 1.018-1h117.964c.563 0 1.019.448 1.019 1s-.457 1-1.019 1z"/><path fill="#FFF" d="M72.5 11.97c0 .569-.463 1.03-1.033 1.03H47.533a1.031 1.031 0 0 1-1.033-1.03V3.03c0-.569.462-1.03 1.033-1.03h23.934c.57 0 1.033.461 1.033 1.03v8.94z"/><path fill="#005A95" d="M71.467 14H47.533a2.034 2.034 0 0 1-2.033-2.03V3.03c0-1.119.912-2.03 2.033-2.03h23.934c1.121 0 2.033.911 2.033 2.03v8.94c0 1.119-.912 2.03-2.033 2.03zM47.5 3v9h24c.02 0 0-.013 0-.03V3h-24z"/><path fill="none" d="M62.5 80.053v15.973l16 .015V84.186c-3.877-2.138-9.646-3.741-16-4.133zm-25 6.233v9.716l5 .005V83.205c-2.078.91-3.791 1.96-5 3.081zm46.044 9.758v-6.119c0-.132-.044.206-.044.075 0-1.563-1.1-3.128-3-4.543v10.584l3.044.003zM59.5 79.956c-5.548 0-10.818.959-15 2.454v13.598l16 .016V79.969a47.544 47.544 0 0 0-1-.013z"/><path fill="#87E4B9" d="M35.5 97.956h2V123h-2zm0-7.956v6l2 .002v-9.716c-1.279 1.187-2 2.45-2 3.714z"/><path fill="#87E4B9" d="M35.5 96h2v1.956h-2zm7-12.795v12.802l2 .001V82.41c-.699.25-1.365.517-2 .795zm0 14.751h2V123h-2z"/><path fill="#87E4B9" d="M42.5 96.007h2v1.949h-2zm18 1.949h2V123h-2zm0-17.987v16.055l2 .002V80.053a46.975 46.975 0 0 0-2-.084z"/><path fill="#87E4B9" d="M60.5 96.021h2v1.935h-2z"/><path fill="#005A95" d="M85.424 89.355c-.242-2.467-2.025-4.699-4.924-6.52a21.25 21.25 0 0 0-2-1.105c-4.701-2.289-11.418-3.688-19-3.688-14.146 0-25.291 4.863-25.924 11.316a5.9 5.9 0 0 0-.031.563v8.031H35.5V90c0-1.264.721-2.527 2-3.714 1.209-1.121 2.922-2.171 5-3.081a31.091 31.091 0 0 1 2-.795c4.182-1.495 9.452-2.454 15-2.454a48.685 48.685 0 0 1 3 .097c6.354.393 12.123 1.995 16 4.133.736.406 1.408.832 2 1.271 1.9 1.415 3 2.98 3 4.543 0 .131.044-.207.044-.075v6.119l-3.044-.003v1.915h4.956v-8.031c0-.187-.017-.373-.032-.57z"/><path fill="#87E4B9" d="M78.5 96.039h2v1.917h-2z"/><path fill="#FFF" d="M78.5 90h5v17h-5z"/><path fill="#87E4B9" d="M78.5 96.039l2 .002V85.457a17.813 17.813 0 0 0-2-1.271v11.853z"/><path fill="#87E4B9" d="M78.5 94.479h2V123h-2zM47.5 3h24v2h-24zm21.893 97.17c0 2.708-2.195 4.915-4.893 4.915 2.695 0 4.893 2.207 4.893 4.915 0-2.708 2.197-4.915 4.894-4.915-2.799-.001-4.894-2.207-4.894-4.915zM51.996 67c0 4.736-3.802 8.563-8.508 8.563 4.706 0 8.508 3.826 8.508 8.563 0-4.737 3.8-8.563 8.504-8.563-4.704 0-8.504-3.827-8.504-8.563zM102.5 34c0 3.369-2.734 6-6 6 3.369 0 6 2.734 6 6 0-3.369 2.738-6 6-6-3.264 0-6-2.737-6-6z"/></svg>