<?xml version="1.0" encoding="utf-8"?><svg xmlns="http://www.w3.org/2000/svg" xmlns:xlink="http://www.w3.org/1999/xlink"><symbol viewBox="0 0 24 24" id="calendar" xmlns="http://www.w3.org/2000/svg"><path d="M17 12h-5v5h5v-5zM16 1v2H8V1H6v2H5c-1.11 0-1.99.9-1.99 2L3 19a2 2 0 0 0 2 2h14c1.1 0 2-.9 2-2V5c0-1.1-.9-2-2-2h-1V1h-2zm3 18H5V8h14v11z"/></symbol><symbol viewBox="0 0 30 28" id="logo" xmlns="http://www.w3.org/2000/svg"><path d="M29.201 18.923l-5.196-8.994-5.189 8.994c-1.653 2.849-.67 6.53 2.182 8.184.91.527 1.951.807 3.007.808a6.051 6.051 0 0 0 3.014-.808c2.847-1.653 3.829-5.335 2.182-8.184zM18.01.813C15.149-.864 11.458.14 9.807 3.045L.8 18.87c-1.652 2.902-.662 6.647 2.197 8.318 2.858 1.677 6.548.673 8.202-2.231l9.009-15.826c1.65-2.901.659-6.648-2.198-8.318z"/></symbol><symbol viewBox="0 0 24 24" id="time" xmlns="http://www.w3.org/2000/svg"><path d="M11.99 2C6.47 2 2 6.48 2 12s4.47 10 9.99 10C17.52 22 22 17.52 22 12S17.52 2 11.99 2zM12 20c-4.42 0-8-3.58-8-8s3.58-8 8-8 8 3.58 8 8-3.58 8-8 8z"/><path d="M12.5 7H11v6l5.25 3.15.75-1.23-4.5-2.67z"/></symbol></svg>