<svg xmlns="http://www.w3.org/2000/svg" width="120" height="137" viewBox="-0.5 1 120 137"><circle fill="#EFEFEF" cx="59.5" cy="78" r="60"/><path fill="#FFF" d="M13.5 56h92v68h-92z"/><path fill="#005A95" d="M106.5 125h-94V55h94v70zm-92-2h90V57h-90v66z"/><path fill="#FFF" d="M99.5 34h8v82h-8z"/><path fill="#005A95" d="M108.5 117h-10V33h10v84zm-8-2h6V35h-6v80z"/><path fill="#FFF" d="M99.5 116h12v8h-12z"/><path fill="#005A95" d="M112.5 125h-14v-10h14v10zm-12-2h10v-6h-10v6z"/><path fill="#FFF" d="M11.5 34h8v82h-8z"/><path fill="#005A95" d="M20.5 117h-10V33h10v84zm-8-2h6V35h-6v80z"/><path fill="#FFF" d="M7.5 116h68v8h-68z"/><path fill="#005A95" d="M76.5 125h-70v-10h70v10zm-68-2h66v-6h-66v6z"/><path fill="#FFF" d="M75.5 77h24v47h-24z"/><path fill="#005A95" d="M100.5 125h-26V76h26v49zm-24-2h22V78h-22v45z"/><path fill="#87E4B9" d="M81.5 78h12l-11 23z"/><path fill="#005A95" d="M94.5 103h-14V77h14v26zm-12-2h10V79h-10v22z"/><path fill="#87E4B9" d="M27.5 72h40v32h-40z"/><path fill="#FFF" d="M66.5 104l-38-1 38-27z"/><path fill="#005A95" d="M68.5 105h-42V71h42v34zm-40-2h38V73h-38v30z"/><path fill="#FFF" d="M19.5 57h80v20h-80z"/><path fill="#005A95" d="M100.5 78h-82V56h82v22zm-80-2h78V58h-78v18z"/><path fill="#FFF" d="M93.5 51V41a8 8 0 0 1-8-8h-52a8 8 0 0 1-8 8v10h-6v6h80v-6h-6z"/><path fill="#005A95" d="M100.5 58h-82v-8h6V40h1c3.86 0 7-3.14 7-7v-1h54v1c0 3.86 3.141 7 7 7h1v10h6v8zm-80-2h78v-4h-6V41.945A9.015 9.015 0 0 1 84.557 34H34.445c-.462 4.165-3.78 7.482-7.945 7.945V52h-6v4z"/><path fill="#87E4B9" d="M81.5 102l11 1-10 14z"/><path fill="#005A95" d="M94.5 119h-14v-18h14v18zm-12-2h10v-14h-10v14z"/><path fill="#FFF" d="M69.518 107.966c0 .571-.463 1.034-1.033 1.034H26.55c-.57 0-1.034-.463-1.034-1.034v-2.932c0-.571.463-1.034 1.034-1.034h41.935c.57 0 1.031.463 1.031 1.034v2.932h.002z"/><path fill="#87E4B9" d="M69.518 109.966c0 .571-.463 1.034-1.033 1.034H26.55c-.57 0-1.034-.463-1.034-1.034v-2.932c.001-.571.414 1.966.984 1.966h42c.57 0 1.018-2.537 1.018-1.966v2.932z"/><path fill="#005A95" d="M68.5 110h-42c-1.122 0-2-.878-2-2v-3c0-1.122.775-2.021 2-2h42c1.018-.021 2 .878 2 2v3c0 1.122-.88 2-2 2zm-42-5v3h42c.02 0 0 .02 0 0v-3h-42z"/><path fill="#FFF" d="M22.5 33.966c0 .571-.463 1.034-1.033 1.034H9.533c-.57 0-1.033-.463-1.033-1.034v-2.932c0-.571.463-1.034 1.033-1.034h11.934c.57 0 1.033.463 1.033 1.034v2.932z"/><path fill="#005A95" d="M21.467 36H9.533A2.036 2.036 0 0 1 7.5 33.966v-2.932C7.5 29.913 8.412 29 9.533 29h11.934c1.121 0 2.033.913 2.033 2.034v2.932A2.036 2.036 0 0 1 21.467 36zM9.5 31v3h12c.019 0 0-.015 0-.034V31h-12z"/><path fill="#FFF" d="M110.5 33.966c0 .571-.463 1.034-1.033 1.034H97.533c-.57 0-1.033-.463-1.033-1.034v-2.932c0-.571.463-1.034 1.033-1.034h11.934c.57 0 1.033.463 1.033 1.034v2.932z"/><path fill="#005A95" d="M109.467 36H97.533a2.036 2.036 0 0 1-2.033-2.034v-2.932c0-1.122.912-2.034 2.033-2.034h11.934c1.121 0 2.033.913 2.033 2.034v2.932A2.036 2.036 0 0 1 109.467 36zM97.5 31v3h12c.02 0 0 .019 0 0v-3h-12zm21 93.939L.5 125c-.552 0-1-.434-1-.971 0-.535.448-.969 1-.969l118-.062c.553 0 1 .435 1 .97 0 .537-.447.971-1 .971z"/><path fill="#FFF" d="M19.5 71v5a4 4 0 0 0 8 0 4 4 0 0 0 8 0 4 4 0 0 0 8 0 4 4 0 0 0 8 0 4 4 0 0 0 8 0 4 4 0 0 0 8 0 4 4 0 0 0 8 0 4 4 0 0 0 8 0 4 4 0 0 0 8 0 4 4 0 0 0 8 0v-5h-80z"/><path fill="#005A95" d="M95.5 81a4.997 4.997 0 0 1-4-2.003 4.997 4.997 0 0 1-8 0 4.997 4.997 0 0 1-8 0 4.997 4.997 0 0 1-8 0 4.997 4.997 0 0 1-8 0 4.997 4.997 0 0 1-8 0 4.997 4.997 0 0 1-8 0 4.997 4.997 0 0 1-8 0 4.997 4.997 0 0 1-8 0 4.997 4.997 0 0 1-4 2.003c-2.757 0-5-2.243-5-5v-6h82v6c0 2.757-2.243 5-5 5zm-3-5c0 1.654 1.346 3 3 3s3-1.346 3-3v-4h-78v4c0 1.654 1.346 3 3 3s3-1.346 3-3h2c0 1.654 1.346 3 3 3s3-1.346 3-3h2c0 1.654 1.346 3 3 3s3-1.346 3-3h2c0 1.654 1.346 3 3 3s3-1.346 3-3h2c0 1.654 1.346 3 3 3s3-1.346 3-3h2c0 1.654 1.346 3 3 3s3-1.346 3-3h2c0 1.654 1.346 3 3 3s3-1.346 3-3h2c0 1.654 1.346 3 3 3s3-1.346 3-3h2c0 1.654 1.346 3 3 3s3-1.346 3-3h2z"/><circle fill="#005A95" cx="27.5" cy="76" r="1"/><circle fill="#005A95" cx="35.5" cy="76" r="1"/><circle fill="#005A95" cx="43.5" cy="76" r="1"/><circle fill="#005A95" cx="51.5" cy="76" r="1"/><circle fill="#005A95" cx="59.5" cy="76" r="1"/><circle fill="#005A95" cx="67.5" cy="76" r="1"/><circle fill="#005A95" cx="75.5" cy="76" r="1"/><circle fill="#005A95" cx="83.5" cy="76" r="1"/><circle fill="#005A95" cx="91.5" cy="76" r="1"/><path fill="#87E4B9" d="M80.568 39H38.431a7.993 7.993 0 0 1-6.931 6.931V51h56v-5.069A7.996 7.996 0 0 1 80.568 39z"/><path fill="#005A95" d="M88.5 52h-58v-6.952l.876-.109a6.976 6.976 0 0 0 6.063-6.063l.109-.876h43.904l.108.876a6.978 6.978 0 0 0 6.063 6.063l.876.109V52zm-56-2h54v-3.23A8.975 8.975 0 0 1 79.73 40H39.27a8.975 8.975 0 0 1-6.77 6.77V50z"/><path fill="#FFF" d="M40.5 88h14v8h-14z"/><path fill="#005A95" d="M55.5 97h-16V87h16v10zm-14-2h12v-6h-12v6z"/><path fill="#005A95" d="M42.5 89a.999.999 0 0 1-.707-1.707l5-5a.999.999 0 1 1 1.414 1.414l-5 5A.997.997 0 0 1 42.5 89z"/><path fill="#005A95" d="M52.5 89a.997.997 0 0 1-.707-.293l-5-5a.999.999 0 1 1 1.414-1.414l5 5A.999.999 0 0 1 52.5 89z"/><path fill="#87E4B9" d="M105.5 117h2v6h-2zm-5 0h2v6h-2zm-28 0h2v6h-2zm-5 0h2v6h-2zm-5 0h2v6h-2zm-5 0h2v6h-2zm-5 0h2v6h-2zm-5 0h2v6h-2zm-35-81h6v2h-6zm88 0h6v2h-6zm-58 81h2v6h-2zm-22-51h78v2h-78zm0-4h78v2h-78zm0-4h78v2h-78zm17 59h2v6h-2zm-5 0h2v6h-2zm-5 0h2v6h-2zm-5 0h2v6h-2zm-5 0h2v6h-2zm-5 0h2v6h-2zm-4 0h1v6h-1z"/><path fill="none" stroke="#005A95" stroke-width="2" stroke-linecap="round" stroke-miterlimit="10" d="M78.5 100v4"/><path fill="#87E4B9" d="M8.393 86.17c0 2.708-2.195 4.915-4.893 4.915 2.695 0 4.893 2.207 4.893 4.915 0-2.708 2.197-4.915 4.893-4.915-2.798-.001-4.893-2.207-4.893-4.915zm70.609-75.296c0 5.291-4.246 9.563-9.502 9.563 5.256 0 9.502 4.271 9.502 9.563 0-5.291 4.244-9.563 9.498-9.563-5.254.001-9.498-4.273-9.498-9.563zm-.108 112.296c0 2.708-2.195 4.915-4.894 4.915 2.695 0 4.894 2.207 4.894 4.915 0-2.708 2.197-4.915 4.893-4.915-2.798-.001-4.893-2.207-4.893-4.915z"/></svg>