<svg xmlns="http://www.w3.org/2000/svg" width="120" height="137" viewBox="-0.5 1 120 137"><circle fill="#EFEFEF" cx="59.5" cy="78" r="60"/><path fill="#FFF" d="M14.5 116h96v7h-96zm86-62l-19-15v-7h19z"/><path fill="#87E4B9" d="M106.5 116h-88V68l44-35 44 35z"/><path fill="#FFF" d="M106.5 121h-88V73l44-35 44 35z"/><path fill="#FFF" d="M32.5 79h24v45h-24z"/><path fill="#005A95" d="M57.5 125h-26V78h26v47zm-24-2h22V80h-22v43z"/><path fill="#87E4B9" d="M71.5 80h20v23h-20z"/><path fill="#FFF" d="M90.5 101h-8l8-9zm0-11h-8l8-9zm-10 0h-8l8-9zm0 11h-8l8-9z"/><path fill="#005A95" d="M90.5 79h2v24h-2zm9-47h2v24h-2zm-19 0h2v9h-2zm25 36h2v49h-2z"/><path fill="#005A95" d="M56.5 115h55v2h-55zm-43 0h19v2h-19z"/><path fill="#005A95" d="M17.5 68h2v49h-2zm63 11h2v24h-2zm29 37h2v8h-2zm-96 0h2v8h-2zm57-37h2v24h-2z"/><path fill="#005A95" d="M70.5 79h22v2h-22zm0 11h22v2h-22z"/><circle fill="#87E4B9" cx="62.5" cy="60" r="10"/><circle fill="#FFF" cx="64" cy="61.5" r="8.5"/><path fill="#005A95" d="M62.5 71c-6.065 0-11-4.935-11-11s4.935-11 11-11c6.064 0 11 4.935 11 11s-4.936 11-11 11zm0-20c-4.963 0-9 4.038-9 9s4.037 9 9 9 9-4.038 9-9-4.037-9-9-9z"/><path fill="#87E4B9" d="M38.5 85h12v17h-12z"/><path fill="#FFF" d="M50.5 102l-11-1 10-15z"/><path fill="#005A95" d="M51.5 103h-14V84h14v19zm-12-2h10V86h-10v15z"/><path fill="#FFF" d="M103.5 30.953c0 .569-.463 1.03-1.035 1.03h-22.93a1.032 1.032 0 0 1-1.035-1.03v-5.94c0-.569.463-1.03 1.035-1.03h22.93c.572 0 1.035.461 1.035 1.03v5.94z"/><path fill="#005A95" d="M102.5 33h-23c-1.122 0-2-.881-2-2v-6c0-1.119.878-2 2-2h23c1.122 0 2 .894 2 2.013V31c0 1.119-.878 2-2 2zm-23-8v6h21c.021 0 2 .015 2 0v-6h-23z"/><path fill="#87E4B9" d="M110.393 44c0 2.708-2.195 4.915-4.893 4.915 2.695 0 4.893 2.207 4.893 4.915 0-2.708 2.197-4.915 4.894-4.915-2.799-.001-4.894-2.207-4.894-4.915z"/><path fill="#FFF" d="M94.518 108.988c0 .568-.463 1.029-1.033 1.029H69.551c-.57 0-1.033-.461-1.033-1.029v-5.941c0-.568.463-1.029 1.033-1.029h23.934c.57 0 1.033.461 1.033 1.029v5.941z"/><path fill="#87E4B9" d="M94.518 110.971c0 .568-.463 1.029-1.033 1.029H69.551c-.57 0-1.033-.461-1.033-1.029v-5.941c0-.567.479 4.972 1.049 4.972H93.5c.57 0 1.018-5.539 1.018-4.972v5.941z"/><path fill="#005A95" d="M93.5 111h-24c-1.121 0-2-.881-2-2v-6c0-1.119.879-2 2-2h24c1.121 0 2 .881 2 2v6c0 1.119-.879 2-2 2zm-24-8v6h24s-.018.012 0 0v-6h-24zm-8-53h2v21h-2z"/><path fill="#005A95" d="M51.5 59h22v2h-22z"/><path fill="#FFF" d="M117.122 67.617L63.212 23.3a.996.996 0 0 0-.712-.3.982.982 0 0 0-.689.282l-5.637 4.629L7.878 67.617a1.036 1.036 0 0 0-.143 1.456l3.788 4.609c.363.44 1.016.504 1.457.141l49.52-40.71 49.52 40.71a1.035 1.035 0 0 0 1.457-.141l3.789-4.609a1.037 1.037 0 0 0-.144-1.456z"/><path fill="#005A95" d="M62.5 31.817l50.178 41.241c.016 0 .023-.01.026-.013l3.788-4.608-53.993-44.436L8.514 68.389l3.783 4.657L62.5 31.817zm50.178 43.242c-.472 0-.931-.163-1.294-.464L62.5 34.406l-48.885 40.19c-.834.686-2.178.556-2.863-.279l-3.789-4.608a2.036 2.036 0 0 1 .279-2.863l53.933-44.337c.636-.622 1.959-.67 2.706.046l53.876 44.289c.866.713.992 1.997.28 2.863l-3.788 4.608a2.03 2.03 0 0 1-1.571.744zM43.5 107h-5a1 1 0 1 1 0-2h5a1 1 0 1 1 0 2zm75 18H.5a1 1 0 1 1 0-2h118a1 1 0 1 1 0 2z"/><path fill="#FFF" d="M22.9 115.4c-.9 0-1.701.199-2.3.6-.6-2.799-3.2-4.9-6.2-4.9-1.7 0-3.2.4-4.3 1.5-.8.801-1.7 2.102-1.901 3.4-.699-.4-1.5-.6-2.399-.6a4.268 4.268 0 0 0-4.3 4.301C1.5 122.1 3.4 124 5.8 124h17.1c2.399 0 4.299-1.9 4.299-4.299 0-2.4-1.899-4.301-4.299-4.301z"/><path fill="#87E4B9" d="M21.583 118c-.761 0-1.576.721-2.083 1 0-3 .535-1-2-1-1.437 0-6.071-1.768-7-1-.676.559-1 0-1 2-.591-.279-1.607-1-2.367-1-2.027 0-3.633 1.326-3.633 3.001 0 1.674 1.606 2.999 3.633 2.999h14.449c2.027 0 3.632-1.325 3.632-2.999.001-1.675-1.604-3.001-3.631-3.001z"/><path fill="#005A95" d="M22.9 125H5.8c-2.972 0-5.3-2.327-5.3-5.299 0-2.973 2.328-5.301 5.3-5.301.616 0 1.2.08 1.746.242.544-1.369 1.505-2.408 1.847-2.75 1.207-1.207 2.845-1.793 5.007-1.793 3.032 0 5.729 1.846 6.82 4.528a6.013 6.013 0 0 1 1.681-.229c2.971 0 5.299 2.328 5.299 5.302-.001 2.973-2.329 5.3-5.3 5.3zm-17.1-8.6a3.264 3.264 0 0 0-3.3 3.301A3.264 3.264 0 0 0 5.8 123h17.1a3.264 3.264 0 0 0 3.299-3.299A3.264 3.264 0 0 0 22.9 116.4c-.719 0-1.322.148-1.746.432l-1.225.816-.308-1.438c-.511-2.382-2.707-4.11-5.223-4.11-1.604 0-2.78.396-3.593 1.207-.644.646-1.453 1.776-1.619 2.846l-.221 1.438-1.264-.723c-.548-.313-1.17-.468-1.901-.468z"/><path fill="#87E4B9" d="M82.5 33h17v2h-17zm-25 84h2v6h-2zm5 0h2v6h-2zm5 0h2v6h-2zm5 0h2v6h-2zm5 0h2v6h-2zm5 0h2v6h-2zm5 0h2v6h-2zm5 0h2v6h-2zm5 0h2v6h-2zm5 0h2v6h-2zm5 0h2v6h-2zm-78 0h2v6h-2zm3.107-89.83c0 2.708-2.195 4.915-4.893 4.915 2.695 0 4.893 2.207 4.893 4.915 0-2.708 2.197-4.915 4.893-4.915-2.797-.001-4.893-2.207-4.893-4.915zM13.002 81c0 5.291-4.246 9.563-9.502 9.563 5.256 0 9.502 4.271 9.502 9.563 0-5.291 4.244-9.563 9.498-9.563-5.254 0-9.498-4.273-9.498-9.563z"/><ellipse fill="#87E4B9" cx="14.5" cy="117.5" rx="5" ry="3.5"/></svg>