<svg xmlns="http://www.w3.org/2000/svg" width="120" height="137" viewBox="-0.5 1 120 137"><circle fill="#EFEFEF" cx="59.5" cy="78" r="60"/><path fill="#FFF" d="M59.5 13v111h54V31zm-54 18v93h54V13z"/><path fill="#FFF" d="M59.5 3L.5 24v10l59-21 59 21V24z"/><path fill="none" d="M6.5 123h52V16.022l-52 18.51zm54 0h52V34.532l-52-18.51zm-54-91.278V32l11.104-3.979z"/><path fill="#005A95" d="M60.5 16.022l-1-.355-1 .355V125h2v-2zM59.5 13l1 .231v-.952l-1-.333-1 .333v1.079z"/><path fill="#87E4B9" d="M112.5 34.532v-2.81L60.5 14v2.022zm-94.896-6.511L6.5 32v2.532l52-18.51v-1.634z"/><path fill="#87E4B9" d="M58.5 13.358L17.604 28.021 58.5 14.388z"/><path fill="#005A95" d="M6.5 123V31l-2 1v93h54v-2zm52-109.642v2.664l1-.355 1 .355v-2.791l-1-.231z"/><path fill="none" d="M114.5 30.279v1.237l3 1.067v-7.876l-58-20.644-58 20.644v7.876l58-20.645 8.539 3.041 1.824.421z"/><path fill="#005A95" d="M112.5 32v91h-52v2h54V32z"/><path fill="#005A95" d="M59.5 1.521l-60 21.356V35l60-21.356 53 18.864 2 .712 5 1.78V22.877l-60-21.356zm58 30.645l-3-1.068-46.461-16.536-8.539-3.04-58 20.644v-7.877l58-20.644 58 20.644v7.877z"/><path fill="#FFF" d="M109.5 64c-6.803 0-9 21.927-9 34.462 0 6.854 4.081 12.537 9 12.537 4.918 0 9-5.684 9-12.537 0-12.534-2.303-34.462-9-34.462z"/><path fill="#87E4B9" d="M112.5 65c-6.803 0-9 20.927-9 33.462 0 6.854 3.081 12.537 8 12.537 4.918 0 7-7.146 7-14 0-12.534-6-31.999-6-31.999z"/><path fill="#005A95" d="M109.5 112c-5.514 0-10-6.072-10-13.537 0-1.447.113-35.462 10-35.462s10 35.109 10 35.462c0 7.465-4.486 13.537-10 13.537zm0-47c-4.941 0-8 17.369-8 33.462 0 6.254 3.663 11.537 8 11.537s8-5.283 8-11.537c0-16.159-3.215-33.462-8-33.462z"/><path fill="#FFF" d="M95.5 116h21v8h-21z"/><path fill="#005A95" d="M117.5 125h-23v-10h23v10zm-21-2h19v-6h-19v6z"/><path fill="#FFF" d="M45.5 116h28v8h-28z"/><path fill="#005A95" d="M74.5 125h-30v-10h30v10zm-28-2h26v-6h-26v6z"/><path fill="#FFF" d="M2.5 116h19v8h-19z"/><path fill="#005A95" d="M23.5 125h-22v-10h23l-1 10zm-20-2h19v-6h-19v6z"/><path fill="#FFF" d="M96.5 66.954c0 .569-.463 1.03-1.033 1.03H71.533c-.57 0-1.033-.461-1.033-1.03v-5.94c0-.569.463-1.03 1.033-1.03h23.934c.57 0 1.033.461 1.033 1.03v5.94z"/><path fill="#87E4B9" d="M96.5 68.971c0 .568-.463 1.029-1.033 1.029H71.533c-.57 0-1.033-.461-1.033-1.029v-5.94c0-.569.43 4.97 1 4.97h24c.57 0 1-5.539 1-4.97v5.94z"/><path fill="#005A95" d="M95.467 69H71.533a2.033 2.033 0 0 1-2.033-2.029v-5.94c0-1.119.912-2.03 2.033-2.03h23.934c1.121 0 2.033.911 2.033 2.03v5.94A2.033 2.033 0 0 1 95.467 69zM71.5 61v6h24c.02 0 0-6 0-6h-24z"/><path fill="#87E4B9" d="M73.482 38h20v22h-20z"/><path fill="#FFF" d="M92.5 59h-8l8-9zm0-11h-8l8-9zm-10 0h-8l8-9zm0 11h-8l8-9z"/><path fill="#005A95" d="M94.5 61h-22V37h22v24zm-20-2h18V39h-18v20z"/><path fill="#FFF" d="M71.5 79h24v45h-24z"/><path fill="#005A95" d="M96.5 125h-26V78h26v47zm-24-2h22V80h-22v43z"/><path fill="#87E4B9" d="M77.5 85h12v17h-12z"/><path fill="#FFF" d="M88.5 101.168h-10L88.5 86z"/><path fill="#005A95" d="M90.5 103h-14V84h14v19zm-12-2h10V86h-10v15zm4 6h-5a1 1 0 1 1 0-2h5a1 1 0 1 1 0 2z"/><path fill="#FFF" d="M23.5 79h24v45h-24z"/><path fill="#005A95" d="M48.5 125h-26V78h26v47zm-24-2h22V80h-22v43z"/><path fill="#87E4B9" d="M29.5 85h12v17h-12z"/><path fill="#FFF" d="M40.5 101h-10l10-15z"/><path fill="#005A95" d="M42.5 103h-14V84h14v19zm-12-2h10V86h-10v15zm4 6h-5a1 1 0 1 1 0-2h5a1 1 0 1 1 0 2zm84 18H.5c-.562 0-1-.447-1-1 0-.551.438-1 1-1h118c.563 0 1 .465 1 1.016a.98.98 0 0 1-1 .984z"/><circle fill="#005A95" cx="109.5" cy="93" r="1"/><path fill="#005A95" d="M82.5 38h2v23h-2zm26 55h2v31h-2z"/><path fill="#005A95" d="M72.5 48h22v2h-22z"/><path fill="#FFF" d="M47.5 66.954c0 .569-.462 1.03-1.033 1.03H22.534a1.032 1.032 0 0 1-1.034-1.03v-5.94c0-.569.463-1.03 1.034-1.03h23.933c.571 0 1.033.461 1.033 1.03v5.94z"/><path fill="#87E4B9" d="M47.5 68.971A1.03 1.03 0 0 1 46.467 70H22.534a1.032 1.032 0 0 1-1.034-1.029v-5.94c0-.569.429 4.97 1 4.97h24c.571 0 1-5.539 1-4.97v5.94z"/><path fill="#005A95" d="M46.467 69H22.534a2.033 2.033 0 0 1-2.034-2.029v-5.94c0-1.119.912-2.03 2.034-2.03h23.933c1.121 0 2.033.911 2.033 2.03v5.94A2.033 2.033 0 0 1 46.467 69zM22.5 61v6h24c.021 0 0-.985 0-1v-5h-24z"/><path fill="#87E4B9" d="M24.483 38h20v22h-20z"/><path fill="#FFF" d="M43.5 59h-8l8-9zm-10 0h-8l8-9zm0-11h-8l8-9zm10 0h-8l8-9z"/><path fill="#005A95" d="M45.5 61h-22V37h22v24zm-20-2h18V39h-18v20z"/><path fill="#005A95" d="M33.5 38h2v23h-2z"/><path fill="#005A95" d="M23.5 48h22v2h-22z"/><path fill="#87E4B9" d="M20.5 117h2v6h-2zm-5 0h2v6h-2zm-5 0h2v6h-2zm-5 0h2v6h-2zm43 0h2v6h-2zm5 0h2v6h-2zm5 0h2v6h-2zm5 0h2v6h-2zm5 0h2v6h-2zm28 0h2v6h-2zm5 0h2v6h-2zm5 0h2v6h-2zm5 0h2v6h-2zM55.002 20c0 5.291-4.246 9.563-9.502 9.563 5.256 0 9.502 4.271 9.502 9.563 0-5.291 4.244-9.563 9.498-9.563-5.254 0-9.498-4.272-9.498-9.563zm55.391 21.17c0 2.708-2.195 4.915-4.893 4.915 2.695 0 4.893 2.207 4.893 4.915 0-2.708 2.197-4.915 4.894-4.915-2.799-.001-4.894-2.207-4.894-4.915zM14.5 70c0 3.369-2.734 6-6 6 3.369 0 6 2.734 6 6 0-3.369 2.738-6 6-6-3.264 0-6-2.736-6-6z"/></svg>